<?xml version="1.0" encoding="UTF-8" standalone="no"?>
<!-- Created with Inkscape (http://www.inkscape.org/) -->

<svg
   width="31.999998"
   height="31.999998"
   viewBox="0 0 8.466666 8.4666661"
   version="1.1"
   id="svg5"
   inkscape:export-filename="C:\Users\bmill\projects\chess2-canvas\src\assets\R_QW.svg"
   inkscape:export-xdpi="96"
   inkscape:export-ydpi="96"
   sodipodi:docname="a_r.svg"
   xmlns:inkscape="http://www.inkscape.org/namespaces/inkscape"
   xmlns:sodipodi="http://sodipodi.sourceforge.net/DTD/sodipodi-0.dtd"
   xmlns="http://www.w3.org/2000/svg"
   xmlns:svg="http://www.w3.org/2000/svg">
  <sodipodi:namedview
     id="namedview7"
     pagecolor="#505050"
     bordercolor="#ffffff"
     borderopacity="1"
     inkscape:pageshadow="0"
     inkscape:pageopacity="0"
     inkscape:pagecheckerboard="1"
     inkscape:deskcolor="#505050"
     inkscape:document-units="mm"
     showgrid="false" />
  <defs
     id="defs2">
    <filter
       style="color-interpolation-filters:sRGB"
       inkscape:label="Invert"
       id="filter107035"
       x="0"
       y="0"
       width="1"
       height="1">
      <feColorMatrix
         type="hueRotate"
         values="180"
         result="color1"
         id="feColorMatrix107031" />
      <feColorMatrix
         values="-1 0 0 0 1 0 -1 0 0 1 0 0 -1 0 1 -0.21 -0.72 -0.07 2 0 "
         result="color2"
         id="feColorMatrix107033" />
    </filter>
  </defs>
  <g
     inkscape:label="Layer 1"
     inkscape:groupmode="layer"
     id="layer1">
    <g
       inkscape:label="Layer 1"
       id="layer1-6"
       transform="translate(0.11288508,-11.602184)">
      <g
         inkscape:label="Layer 1"
         id="layer1-7"
         transform="matrix(0.29717906,0,0,0.26854334,-0.95451063,11.498349)"
         style="filter:url(#filter107035)">
        <path
           style="fill:#000000;stroke-width:0.264583"
           d="M 7.8444077,30.393092 C 7.2205361,29.703723 7.3179371,29.107066 8.3485106,27.305071 10.213509,24.044055 10.355425,23.628077 9.9873399,22.501375 9.7556144,21.792067 9.4815675,21.459518 9.0818255,21.402556 6.5675032,21.044277 6.7234335,18.21041 9.3393825,16.721738 9.7696807,16.476866 9.7507567,16.378887 9.0853677,15.40657 7.9177166,13.700309 7.9285907,12.11174 9.1234548,9.8425718 10.036555,8.108502 10.088287,7.8847836 9.9353276,6.3315737 9.7466906,4.416077 10.021455,4.1154013 11.338256,4.7963451 c 0.44247,0.2288103 0.902904,0.4160186 1.023188,0.4160186 0.386964,0 3.075211,-2.1356591 3.923536,-3.1170268 0.821974,-0.9508833 0.821974,-0.9508833 1.461864,-0.079473 0.659938,0.8987131 3.493019,3.1964999 3.941159,3.1964999 0.138959,0 0.674602,-0.201214 1.190319,-0.4471423 1.276288,-0.6086192 1.512729,-0.3024349 1.208748,1.5652953 -0.235332,1.4459311 -0.206854,1.5688984 0.825185,3.5631681 1.254765,2.4246561 1.276468,3.6260091 0.09768,5.4072721 -0.39421,0.595691 -0.616949,1.165628 -0.494976,1.266525 0.121974,0.100898 0.654172,0.499622 1.182663,0.886053 1.736719,1.269885 1.525211,2.879669 -0.503894,3.835101 -1.331188,0.626808 -1.736398,2.201316 -0.913543,3.549723 2.181167,3.574263 2.659851,5.232034 1.664563,5.764695 C 24.919735,31.151626 8.3570003,30.959501 7.8444077,30.393092 Z M 25.795066,29.421738 c 0,-0.51716 -0.199626,-0.530749 -8.797395,-0.59888 -8.7973956,-0.06971 -8.7973956,-0.06971 -8.7973956,0.59888 0,0.668591 0,0.668591 8.7973956,0.598879 8.597769,-0.06813 8.797395,-0.08172 8.797395,-0.598879 z m -12.27862,-2.970792 c 0.893849,-2.202303 2.235971,-3.626099 2.947986,-3.127385 0.464339,0.325236 0.615095,0.324859 1.115146,-0.0028 0.862298,-0.564999 2.23654,1.066327 3.300682,3.918151 0.263153,0.705234 0.332715,0.727604 2.262424,0.727604 2.319821,0 2.243557,0.140857 1.064882,-1.96681 -0.945709,-1.691087 -1.126252,-2.763816 -0.668007,-3.969091 0.292256,-0.768691 -0.357034,-0.929729 -1.696018,-0.420648 -1.023366,0.389083 -0.814759,0.0364 0.238861,-0.403827 0.504649,-0.210856 1.371125,-0.383374 1.925503,-0.383374 2.058172,0 2.784019,-1.329173 1.473077,-2.697502 -0.866605,-0.904539 -1.141124,-0.9338 -1.141124,-0.12163 0,0.789415 -0.510929,1.231285 -2.645833,2.288213 -2.069875,1.024734 -1.694991,0.500627 0.460887,-0.644344 1.523488,-0.809112 1.523488,-0.809112 1.668182,-2.396612 0.09013,-0.988878 0.376796,-1.965776 0.760212,-2.59066 0.845959,-1.378727 0.67223,-3.132523 -0.496553,-5.0127004 C 23.297181,8.377388 23.24083,8.1429198 23.395845,6.7727661 23.564626,5.2809384 23.564626,5.2809384 22.537537,5.5550843 21.972638,5.7058645 21.343393,5.750608 21.139215,5.6545142 20.23828,5.2304999 18.109438,3.5311283 17.579671,2.8130693 16.999435,2.0266039 16.999435,2.0266039 16.581165,2.6649648 15.20902,4.7591222 12.416111,6.0726487 10.822874,5.3731325 c -0.37188,-0.1632754 -0.390145,-0.019135 -0.1591,1.2555502 0.246399,1.3593969 0.216696,1.5120194 -0.53065,2.7266124 -1.5912533,2.5861159 -1.6743152,4.0448729 -0.3372355,5.9226289 0.4448335,0.624711 0.5475885,1.045503 0.4308975,1.764583 -0.205301,1.265119 0.136858,1.807355 1.62101,2.568899 2.009663,1.031193 2.467006,1.542079 0.718104,0.802176 -1.699784,-0.719123 -3.1707584,-2.050477 -2.9374022,-2.658594 0.078468,-0.204485 0.039935,-0.371792 -0.085629,-0.371792 -0.4033189,0 -1.8717603,1.521219 -1.8717603,1.939034 0,0.621163 1.2986027,1.500378 2.2184938,1.502025 1.0131057,0.0018 2.7372347,0.462767 2.9364257,0.785066 0.0845,0.136716 -0.219955,0.132552 -0.716297,-0.0098 -1.508818,-0.432724 -1.816899,-0.345441 -1.521657,0.431104 0.489471,1.287407 0.284941,2.313689 -0.8028125,4.028306 -0.5807009,0.915355 -1.0558198,1.719027 -1.0558198,1.785937 0,0.06691 0.9386718,0.121658 2.0859373,0.121658 2.085937,0 2.085937,0 2.701067,-1.515583 z m 2.621329,-4.540092 c 0,-0.245579 -0.6046,-1.037345 -1.343555,-1.759479 -2.864035,-2.798839 -3.693148,-5.961972 -2.369344,-9.039237 0.55102,-1.2808805 0.55102,-1.2808805 0.01461,-2.8399896 -0.59966,-1.74294 -0.568738,-1.9151202 0.263907,-1.4695021 1.227278,0.6568193 3.033125,-0.2907932 3.951305,-2.0734355 0.313743,-0.6091298 0.324569,-0.6035021 1.055149,0.5485034 1.047101,1.6511066 2.359939,2.1080735 4.03086,1.4030444 0.401097,-0.1692392 0.392915,-0.018357 -0.08548,1.5762588 -0.515149,1.7171222 -0.516374,1.7888596 -0.04668,2.7328166 1.380246,2.773915 0.368611,6.611126 -2.452876,9.303959 -0.811721,0.774708 -1.347798,1.494693 -1.267909,1.702881 0.100924,0.263005 -0.117305,0.360689 -0.805787,0.360689 -0.709544,0 -0.944196,-0.110967 -0.944196,-0.446509 z m 2.298779,-2.131974 c 2.078149,-0.943496 3.52378,-3.930887 3.140151,-6.489107 -0.174593,-1.164272 -0.174593,-1.164272 -1.1047,-0.615495 -1.767039,1.042578 -6.352708,0.888847 -7.293304,-0.244502 -0.416125,-0.501399 -0.699269,0.120279 -0.726496,1.595112 -0.0473,2.562348 1.249847,4.850395 3.269978,5.767918 1.329066,0.603648 1.354387,0.603519 2.714371,-0.01393 z m 1.766802,-7.523191 c 0.900468,-0.376239 1.421062,-1.487076 0.696919,-1.487076 -0.145521,0 -0.264584,0.116005 -0.264584,0.257789 0,1.210744 -5.718799,1.486724 -6.943972,0.335104 -0.704842,-0.662527 -1.119661,-0.529205 -0.713682,0.229375 0.643818,1.202984 4.981967,1.602141 7.225319,0.664808 z m -0.625998,15.036243 c 0,-3.569339 -4.367765,-3.723329 -5.145699,-0.181417 -0.188012,0.856014 -0.188012,0.856014 2.478844,0.856014 2.666855,0 2.666855,0 2.666855,-0.674597 z"
           id="path175214-8" />
        <path
           style="fill:#ffffff;stroke-width:0.25"
           d="M 62.369047,75.904525 C 60.527801,75.241245 57.544369,73.700155 56.22118,72.728845 54.384941,71.38092 51.86392,68.548741 50.641513,66.460502 48.140269,62.187625 47.120886,57.832414 47.315395,52.25 c 0.16915,-4.854606 0.945495,-6.673031 2.261275,-5.29656 2.203258,2.304885 7.433899,3.657917 14.17333,3.666276 6.066396,0.0075 10.002755,-0.78248 13.957717,-2.80123 3.038628,-1.551021 3.052123,-1.545764 3.570683,1.39097 1.783505,10.100428 -3.534535,21.544135 -11.844964,25.488764 -3.753019,1.781407 -4.916436,1.98007 -7.064389,1.206305 z"
           id="path176537-4"
           transform="scale(0.26458333)" />
        <path
           style="fill:#ffffff;stroke-width:0.25"
           d="m 35.25,105.43863 c -0.89375,-0.0495 -1.716531,-0.18125 -1.828403,-0.29273 -0.200996,-0.20031 0.07788,-0.70081 4.025139,-7.223898 2.793921,-4.617127 3.428264,-6.43001 3.428264,-9.797597 0,-2.071013 -0.126469,-3.029483 -0.598749,-4.53774 C 39.946939,82.534987 39.746533,81.49463 39.830905,81.274762 40.057571,80.684077 41.930091,80.769817 44.75,81.5 c 2.500847,0.647565 3.63244,0.76747 3.85435,0.408412 0.621192,-1.00511 -5.175033,-2.809102 -10.565206,-3.28827 -1.866522,-0.165927 -2.96937,-0.405452 -3.964509,-0.861042 -2.807315,-1.285233 -4.82594,-3.23686 -4.823701,-4.663608 0.0013,-0.856447 0.733159,-1.939055 2.736074,-4.047602 1.991087,-2.096098 3.581274,-3.296118 4.102667,-3.096038 0.260106,0.09981 0.319553,0.433568 0.225636,1.266798 -0.102938,0.91326 -0.0028,1.344097 0.519625,2.23554 1.644327,2.80583 7.024345,6.525367 12.197165,8.432645 2.124725,0.783412 2.717899,0.890482 2.717899,0.490595 0,-0.430123 -2.126291,-1.807675 -6.177862,-4.00243 -6.363732,-3.447263 -7.423787,-4.946745 -6.830313,-9.661695 0.423989,-3.368455 0.197923,-4.241473 -1.958308,-7.562573 -2.552065,-3.930775 -3.411079,-6.89628 -3.01659,-10.413935 0.343626,-3.06411 1.690787,-6.256852 5.110511,-12.111797 1.389233,-2.378521 2.12444,-4.27959 2.120413,-5.482875 -0.0012,-0.353169 -0.276851,-2.363095 -0.612596,-4.466503 -0.335746,-2.103408 -0.55307,-3.973898 -0.482944,-4.156645 0.102414,-0.266888 0.432022,-0.235386 1.675096,0.160094 1.244928,0.396069 1.987629,0.46674 3.797593,0.361356 6.213492,-0.361775 12.980157,-4.585975 17.3851,-10.852927 0.700687,-0.996875 1.374017,-1.8125 1.49629,-1.8125 0.122272,0 0.83565,0.7687037 1.585282,1.708231 2.446413,3.066124 8.38863,8.078188 12.621413,10.645742 1.576817,0.956479 1.602537,0.962343 3.625,0.826545 1.120302,-0.07522 2.836967,-0.333375 3.814807,-0.573671 2.732923,-0.671593 2.71465,-0.694617 2.450058,3.087291 -0.122398,1.749474 -0.21762,4.084663 -0.211605,5.189308 0.01245,2.285375 0.441347,3.389964 2.954317,7.608491 3.158298,5.30184 4.336143,10.535385 3.281945,14.582723 -0.204815,0.786337 -0.99303,2.69435 -1.75159,4.240022 -1.613945,3.288648 -2.24388,5.58267 -2.76087,10.054208 -0.207055,1.79086 -0.488537,3.60172 -0.625515,4.024132 -0.401292,1.237503 -1.611562,2.169085 -5.989632,4.6104 -4.429028,2.46973 -6.267105,3.672895 -6.45019,4.222145 -0.08842,0.265275 0.0514,0.303825 0.605095,0.16682 2.076532,-0.513805 9.472217,-4.282092 11.915587,-6.071287 1.858365,-1.360818 2.426815,-2.270345 2.730355,-4.36861 0.329115,-2.275035 0.52005,-2.558428 1.4118,-2.095423 1.007248,0.522973 3.888985,3.624188 4.546648,4.892933 0.801347,1.54593 0.803095,3.388157 0.0043,4.553892 -1.290618,1.883533 -3.135768,2.595823 -7.638615,2.948755 -3.042835,0.2385 -5.539515,0.799828 -7.725878,1.737013 C 81.256082,80.961787 80,81.804525 80,82.142022 c 0,0.397045 0.82121,0.261708 3.113365,-0.51309 4.16034,-1.406285 5.778775,-1.228462 5.74211,0.630903 -0.01072,0.54459 -0.2214,1.721415 -0.468135,2.615165 -0.3423,1.239905 -0.4172,2.15821 -0.316058,3.875 0.166968,2.834102 0.88614,4.94156 3.105515,9.100355 2.873935,5.385345 3.392358,6.483835 3.243315,6.872235 -0.291117,0.75863 -2.11678,0.96154 -7.670112,0.85247 -6.644988,-0.13051 -6.612033,-0.11825 -7.745095,-2.88037 -3.082825,-7.515128 -6.030343,-12.314513 -8.69232,-14.153528 -1.489473,-1.028997 -2.680958,-1.11797 -4.259483,-0.318072 -1.584602,0.80298 -2.15201,0.806355 -3.428102,0.02038 -0.55,-0.338753 -1.256738,-0.616493 -1.57053,-0.617198 -2.595788,-0.0058 -6.21735,4.06027 -9.081789,10.196548 -3.307722,7.08589 -3.35371,7.14528 -5.849025,7.55388 C 44.7172,105.607 38.888251,105.6402 35.25,105.4386 Z M 66.962695,84.350542 C 67.626672,84.11908 67.75,83.949567 67.75,83.268405 c 0,-1.181003 1.131435,-2.721783 4.849387,-6.603858 1.801588,-1.881115 3.851935,-4.206435 4.556328,-5.167377 2.792995,-3.81024 4.794512,-7.979638 6.032777,-12.566988 0.589523,-2.18398 0.657525,-2.886077 0.671243,-6.930182 0.0174,-5.129883 -0.25487,-6.481378 -2.152055,-10.682275 -1.521168,-3.368293 -1.513535,-3.86885 0.147797,-9.692725 1.25987,-4.41653 1.683633,-6.75 1.225818,-6.75 -0.09279,0 -1.020913,0.300294 -2.0625,0.667321 -1.48298,0.522561 -2.38188,0.671691 -4.143795,0.687464 -2.021968,0.0181 -2.41469,-0.05833 -3.875,-0.754167 -2.30071,-1.096283 -3.919338,-2.676977 -6.225568,-6.079662 -1.103637,-1.628343 -2.176117,-3.025668 -2.383287,-3.105167 -0.490748,-0.188317 -1.01908,0.359949 -1.764615,1.831189 -1.487703,2.93584 -4.676848,6.0194 -7.63009,7.37747 -1.381886,0.635471 -1.916923,0.744003 -3.62144,0.734608 -1.648186,-0.0091 -2.241872,-0.129158 -3.375,-0.682597 -3.24061,-1.582771 -3.346514,-0.896837 -0.956227,6.193406 1.671838,4.959125 1.677722,5.56979 0.09159,9.505135 -2.766862,6.864855 -3.281714,12.027372 -1.787082,17.91939 1.550979,6.11414 4.330552,10.650935 10.551209,17.221595 3.470613,3.665885 4.53259,5.071092 4.97513,6.58309 0.242095,0.82715 0.464975,1.08374 1.150328,1.324315 1.082262,0.379902 3.911832,0.409787 4.937745,0.05215 z"
           id="path176677-8"
           transform="scale(0.26458333)" />
        <path
           style="fill:#ffffff;stroke-width:0.25"
           d="m 56.625,105.39339 c -1.904063,-0.28621 -2.125,-0.44214 -2.125,-1.49976 0,-3.15958 2.577841,-7.652262 5.433608,-9.469745 3.795879,-2.415793 8.870254,-1.827946 11.455563,1.327082 1.524494,1.860444 2.177002,3.668255 2.30832,6.395333 l 0.116775,2.42506 -0.708611,0.4643 c -0.645376,0.42287 -1.356567,0.46793 -7.969633,0.50497 -3.993562,0.0224 -7.823522,-0.0439 -8.511022,-0.14724 z"
           id="path176817-2"
           transform="scale(0.26458333)" />
        <path
           style="fill:#ffffff;stroke-width:0.25"
           d="m 33.687974,113.12284 c -0.790364,-0.12636 -1.649298,-0.34335 -1.908743,-0.4822 -1.079379,-0.57766 -0.814235,-2.5734 0.403786,-3.03928 1.523808,-0.58285 8.769919,-0.73665 27.941983,-0.59309 22.507142,0.16853 33.91837,0.46422 35.75,0.92635 1.20068,0.30294 1.25,0.34977 1.25,1.18701 0,1.23242 -0.657913,1.46794 -4.921278,1.76165 -4.74656,0.32701 -56.639935,0.53946 -58.515748,0.23956 z"
           id="path176957-2"
           transform="scale(0.26458333)" />
        <path
           style="fill:#ffffff;stroke-width:0.03125"
           d="M 62.71875,48.234223 C 55.980656,47.92816 50.789062,46.334462 49.25626,44.101555 49.042592,43.790293 48.751748,43.186305 48.605434,42.75 48.501633,42.440466 48.48987,42.371821 48.487267,42.060365 c -0.0027,-0.324616 0.0022,-0.353619 0.08026,-0.471678 0.249408,-0.377325 0.864766,-0.300365 1.707713,0.213575 0.310521,0.189323 0.853737,0.606104 1.221066,0.936861 0.635466,0.572198 0.976139,0.808931 1.64832,1.145413 2.934148,1.468785 8.784503,2.148304 14.699127,1.707302 5.07461,-0.378369 8.807162,-1.513174 9.847479,-2.993922 0.195406,-0.278133 0.271411,-0.48763 0.30923,-0.852346 0.03865,-0.372733 0.118663,-0.561664 0.316063,-0.746309 0.258169,-0.241486 0.536652,-0.318845 0.94833,-0.263435 0.895485,0.12053 1.204163,0.779158 0.856098,1.826674 -0.447219,1.34593 -1.917188,2.87449 -3.4647,3.602797 -0.949077,0.446665 -2.501211,0.94234 -3.983239,1.272049 -1.727781,0.384381 -3.561269,0.626978 -5.798011,0.767159 -0.687248,0.04307 -3.43045,0.06269 -4.15625,0.02972 z"
           id="path177237-8"
           transform="scale(0.26458333)" />
      </g>
    </g>
  </g>
</svg>
