<?xml version="1.0" encoding="UTF-8" standalone="no"?>
<!-- Created with Inkscape (http://www.inkscape.org/) -->

<svg
   width="31.999998"
   height="31.999998"
   viewBox="0 0 8.466666 8.4666661"
   version="1.1"
   id="svg5"
   inkscape:export-filename="C:\Users\bmill\projects\chess2-canvas\src\assets\R_RW.svg"
   inkscape:export-xdpi="96"
   inkscape:export-ydpi="96"
   sodipodi:docname="a_r.svg"
   xmlns:inkscape="http://www.inkscape.org/namespaces/inkscape"
   xmlns:sodipodi="http://sodipodi.sourceforge.net/DTD/sodipodi-0.dtd"
   xmlns="http://www.w3.org/2000/svg"
   xmlns:svg="http://www.w3.org/2000/svg">
  <sodipodi:namedview
     id="namedview7"
     pagecolor="#505050"
     bordercolor="#ffffff"
     borderopacity="1"
     inkscape:pageshadow="0"
     inkscape:pageopacity="0"
     inkscape:pagecheckerboard="1"
     inkscape:deskcolor="#505050"
     inkscape:document-units="mm"
     showgrid="false" />
  <defs
     id="defs2" />
  <g
     inkscape:label="Layer 1"
     inkscape:groupmode="layer"
     id="layer1">
    <g
       inkscape:label="Layer 1"
       id="layer1-6"
       transform="translate(0.11288508,-11.602184)">
      <g
         inkscape:label="Layer 1"
         id="layer1-9"
         transform="matrix(0.28083036,0,0,0.28241333,-0.65114186,10.953492)">
        <path
           style="fill:#000000;stroke-width:0.264583"
           d="M 8.8086798,29.556528 C 7.9601171,28.62402 7.7128852,28.50446 6.0563459,28.22551 3.2661511,27.755663 3.0088686,24.54285 5.5976209,22.497188 9.1541052,19.686814 9.4743653,19.160856 9.2076881,16.568435 8.6976704,11.610453 10.432641,6.0945392 12.865223,4.9402037 c 2.213672,-1.0504558 7.59904,-1.019108 9.48611,0.055218 1.90175,1.0826839 3.069792,4.9491551 3.069792,10.1616743 0,1.999555 0.129896,4.24124 0.288658,4.981522 0.213558,0.995785 0.209933,1.440824 -0.01393,1.710563 -0.23915,0.288158 -0.174859,0.402953 0.306654,0.547547 1.629812,0.489417 4.172275,3.987158 4.178533,5.748531 0.0074,2.08121 -2.600151,2.215713 -3.793419,0.195673 -0.613817,-1.039109 -1.391706,-1.194721 -2.676086,-0.535335 -1.798343,0.923251 -3.92308,0.545624 -5.302066,-0.942326 -0.501264,-0.540872 -0.66126,-0.608137 -0.66126,-0.278001 0,0.490935 -0.584146,0.566304 -1.323274,0.170736 -0.417615,-0.223501 -0.585141,-0.103923 -1.074681,0.767098 -0.31897,0.567532 -0.832653,1.146998 -1.141516,1.287709 -0.308864,0.140708 -0.888813,0.410848 -1.288776,0.600313 -0.399964,0.189463 -0.799987,0.271698 -0.888941,0.182745 -0.08895,-0.08895 -0.593385,0.06961 -1.120959,0.352377 -1.2230008,0.65549 -1.1354944,0.671719 -2.1013822,-0.38972 z M 10.935188,29.2983 c 0.623827,-0.473551 0.583069,-1.259792 -0.111052,-2.142223 -0.540355,-0.68695 -0.668561,-0.721997 -2.1828123,-0.596715 -1.6087396,0.133102 -1.6087396,0.133102 -0.5504064,-0.35726 1.9563277,-0.906433 3.4806717,-0.362047 4.2689457,1.52456 0.559607,1.339326 1.58518,1.044051 2.482442,-0.71473 0.549892,-1.077877 0.972076,-1.253452 1.864964,-0.775593 0.84818,0.453931 0.483487,-0.463226 -0.87166,-2.192122 -0.427735,-0.545703 -0.692451,-0.992187 -0.588259,-0.992187 0.539356,0 1.960411,1.181305 2.889781,2.402239 1.725587,2.26694 3.24418,2.752683 5.320115,1.70171 1.583541,-0.80169 2.029727,-0.695355 3.443154,0.820574 1.433017,1.536935 2.489475,1.632995 2.489475,0.226353 0,-1.883411 -1.547104,-4.185404 -3.473322,-5.168088 -1.139969,-0.581569 -2.876678,-2.029016 -2.876678,-2.397546 0,-0.133801 0.267891,-0.07433 0.595312,0.132151 1.356566,0.855497 1.783963,0.812078 1.492514,-0.151622 C 24.98248,20.137616 24.816578,17.775834 24.75903,15.369396 24.546106,6.465789 23.114162,4.5824723 16.751702,4.8380224 11.781299,5.0376601 10.121337,7.4058869 9.8731291,14.65151 c -0.1224893,3.575686 -0.075149,3.712827 0.9589979,2.778124 0.658649,-0.595312 0.658649,-0.595312 0.02986,0.463021 -1.0555497,1.776634 -2.4151433,3.259343 -4.0227286,4.386999 -3.3172316,2.326906 -3.2193739,4.875301 0.2115659,5.509568 0.9719513,0.179682 1.4733618,0.449623 1.9661327,1.058498 0.7165135,0.885333 1.196875,0.998167 1.918229,0.45058 z m 3.077405,-14.185545 c -1.561807,-0.912556 -0.918776,-4.231558 0.819831,-4.231558 0.161703,0 0.586249,0.292244 0.943436,0.649432 1.532661,1.532661 0.01296,4.619968 -1.763267,3.582126 z m 4.483065,-0.0083 c -1.351928,-0.788807 -1.013592,-3.748971 0.471084,-4.121601 0.585928,-0.147059 0.841898,-0.04498 1.340352,0.534504 1.464077,1.702091 -0.01665,4.634299 -1.811436,3.587097 z"
           id="path180357" />
        <path
           style="fill:#ffffff;stroke-width:0.176777"
           d="m 37.600891,111.72345 c -0.99529,-0.25272 -1.073231,-0.31529 -3.659766,-2.93801 -2.368217,-2.40136 -3.229166,-2.89361 -6.29598,-3.59977 -4.780633,-1.10078 -6.794626,-1.93925 -8.540452,-3.55558 -3.177823,-2.942105 -3.064629,-6.837947 0.329554,-11.342367 1.471949,-1.953423 3.308215,-3.62919 7.013492,-6.400478 2.423121,-1.812325 3.86841,-3.070991 6.182755,-5.384409 3.93882,-3.93724 6.298322,-7.016202 9.151376,-11.941809 1.67142,-2.885595 1.595553,-2.962892 -0.826028,-0.841605 -1.973427,1.728708 -2.493978,2.04719 -2.916167,1.784159 -0.610653,-0.380445 -0.719627,-1.263923 -0.727369,-5.896903 -0.02011,-12.035037 1.007693,-21.276396 3.083157,-27.721919 2.724476,-8.461077 7.659462,-13.016907 15.907914,-14.685703 3.341882,-0.676118 4.986963,-0.801753 10.518214,-0.803279 5.85373,-0.0016 7.901488,0.191754 11.097229,1.047903 8.150709,2.183601 12.10631,7.638026 14.090655,19.429772 0.792864,4.711514 1.204056,10.125118 1.505156,19.816411 0.312501,10.058226 0.769875,16.323673 1.417742,19.421272 0.33391,1.596497 0.341354,1.779201 0.08823,2.165515 -0.51331,0.783409 -1.784188,0.424908 -4.780738,-1.348599 -1.960065,-1.160064 -3.265732,-1.552061 -3.265732,-0.98046 0,1.516289 6.127495,6.584101 11.537013,9.541812 3.985724,2.179235 8.258224,6.767377 10.396114,11.164144 2.26569,4.659603 2.75018,9.369413 1.13044,10.989153 -0.77001,0.77001 -1.68216,0.7823 -3.24341,0.0437 -1.55315,-0.73476 -2.1771,-1.2434 -5.32447,-4.34045 -5.535942,-5.44743 -6.568384,-5.684065 -12.657775,-2.90114 -3.646055,1.66629 -4.95223,2.02161 -7.406378,2.01477 -1.62436,-0.005 -2.178554,-0.0831 -3.365733,-0.47707 -2.884508,-0.95726 -5.940849,-3.5016 -9.388847,-7.816008 -2.902334,-3.631628 -6.430461,-6.933072 -8.949037,-8.374055 -1.176619,-0.673192 -2.249625,-0.918985 -2.249625,-0.515317 0,0.360611 1.132442,2.078304 3.005419,4.558629 2.829826,3.747451 4.230426,6.098551 4.238543,7.114976 0.0052,0.649283 -0.287842,0.630465 -2.030865,-0.130424 -1.562151,-0.681932 -2.912448,-0.814106 -3.772638,-0.369285 -0.831861,0.430172 -1.852066,1.706114 -2.908443,3.637494 -1.295441,2.36847 -2.563683,4.05936 -3.620572,4.82715 -2.45481,1.78332 -4.003275,1.06078 -5.827997,-2.71942 -3.032896,-6.283138 -7.83879,-8.25759 -14.362515,-5.900699 -1.758982,0.635486 -4.419417,1.977599 -4.419417,2.229469 0,0.14542 0.621023,0.1684 2.253903,0.0834 6.669139,-0.34712 7.605513,-0.35101 8.432874,-0.035 1.31201,0.50106 3.432358,3.14213 4.0993,5.10602 0.842097,2.47966 0.01103,4.441 -2.411708,5.69173 -0.949125,0.48998 -1.617961,0.58321 -2.527419,0.35229 z m 37.30299,-54.271638 c 2.439764,-1.102368 4.115302,-4.246261 4.115302,-7.721744 0,-2.667629 -0.814564,-4.725819 -2.673005,-6.753979 -1.357205,-1.481149 -1.971359,-1.765337 -3.586131,-1.659412 -3.522377,0.231059 -5.834254,3.351513 -6.060977,8.180798 -0.210843,4.49107 1.441008,7.392115 4.724532,8.297399 1.175838,0.324186 2.234484,0.219831 3.480279,-0.343062 z m -17.009513,0.0016 c 1.705453,-0.824597 3.477975,-3.380516 3.960333,-5.710666 0.42069,-2.032257 0.141052,-4.593751 -0.676436,-6.19616 -0.690336,-1.353171 -2.735716,-3.393881 -4.116544,-4.107146 -1.256281,-0.648932 -3.06202,-0.251214 -4.545567,1.001167 -1.535115,1.295915 -2.766287,4.192813 -2.951177,6.943996 -0.248582,3.698934 1.257174,6.843323 3.872265,8.086248 0.789515,0.375248 1.124268,0.429884 2.335805,0.381237 0.938296,-0.03768 1.652173,-0.171839 2.121321,-0.398676 z"
           id="path181210"
           transform="scale(0.26458333)" />
      </g>
    </g>
  </g>
</svg>
