<?xml version="1.0" encoding="UTF-8" standalone="no"?>
<!-- Created with Inkscape (http://www.inkscape.org/) -->

<svg
   width="31.999998"
   height="31.999998"
   viewBox="0 0 8.466666 8.4666661"
   version="1.1"
   id="svg5"
   inkscape:export-filename="C:\Users\bmill\projects\chess2-canvas\src\assets\E_NW.svg"
   inkscape:export-xdpi="96"
   inkscape:export-ydpi="96"
   sodipodi:docname="a_r.svg"
   xmlns:inkscape="http://www.inkscape.org/namespaces/inkscape"
   xmlns:sodipodi="http://sodipodi.sourceforge.net/DTD/sodipodi-0.dtd"
   xmlns="http://www.w3.org/2000/svg"
   xmlns:svg="http://www.w3.org/2000/svg">
  <sodipodi:namedview
     id="namedview7"
     pagecolor="#505050"
     bordercolor="#ffffff"
     borderopacity="1"
     inkscape:pageshadow="0"
     inkscape:pageopacity="0"
     inkscape:pagecheckerboard="1"
     inkscape:deskcolor="#505050"
     inkscape:document-units="mm"
     showgrid="false" />
  <defs
     id="defs2" />
  <g
     inkscape:label="Layer 1"
     inkscape:groupmode="layer"
     id="layer1">
    <g
       inkscape:label="Layer 1"
       id="layer1-6"
       transform="translate(0.11288508,-11.602184)">
      <g
         inkscape:label="Layer 1"
         id="layer1-65"
         transform="matrix(0.2823679,0,0,0.27118905,-0.73304274,11.263758)">
        <path
           style="fill:#000000;stroke-width:0.264583"
           d="m 16.195844,31.117939 c -0.477186,-0.334232 -1.31687,-0.402363 -4.428292,-0.359302 -3.3700373,0.04664 -3.9036833,-0.005 -4.3648224,-0.422317 -0.5552564,-0.502502 -0.7063134,-1.5733 -0.2607879,-1.848649 0.1455209,-0.08994 0.2645833,-0.684525 0.2645833,-1.321308 0,-2.27806 1.913591,-3.982974 2.863959,-2.551644 0.561581,0.845786 0.778876,0.703156 1.226832,-0.805278 0.573314,-1.930555 0.529847,-2.242538 -0.336581,-2.415823 -1.9127741,-0.382555 -1.4155829,-3.356988 0.561137,-3.356988 0.745388,0 0.767685,-0.0288 0.365959,-0.472704 -2.068354,-2.285506 -1.54525,-5.875359 1.488875,-10.2175549 1.078765,-1.5438416 1.110091,-1.6429497 0.732006,-2.315837 -0.873863,-1.555231 1.010688,-3.0892657 3.393854,-2.7626164 1.958491,0.268441 2.78995,1.4029045 2.114579,2.8851828 -0.253884,0.5572151 -0.135472,0.8589385 0.965377,2.4598451 2.809924,4.0863244 3.357878,7.1298684 1.696101,9.4207834 -0.649458,0.895339 -0.648476,1.002901 0.0092,1.002901 0.76533,0 1.5875,0.937961 1.5875,1.811076 0,0.832668 -0.70658,1.628507 -1.445859,1.628507 -0.52992,0 -0.467152,1.490642 0.128767,3.058029 0.293622,0.772284 0.293622,0.772284 0.764431,0.148119 1.050788,-1.393061 2.933911,0.116378 2.933911,2.351711 0,0.564022 0.119063,1.099079 0.264583,1.189016 2.095347,1.294995 -0.27493,2.622499 -4.535111,2.539947 -2.875989,-0.05573 -3.773509,0.01511 -4.418631,0.348705 -0.981058,0.507322 -0.856767,0.506833 -1.571521,0.0062 z m 4.109118,-3.017068 c 1.247996,-1.610322 1.21945,-2.948755 -0.07286,-3.416059 -0.513015,-0.185509 -1.113873,-0.613711 -1.33524,-0.951559 -0.355454,-0.542492 -0.491619,-0.580627 -1.165263,-0.326355 -0.566033,0.213653 -0.944374,0.205174 -1.466831,-0.03287 -0.635526,-0.289565 -0.757554,-0.252776 -1.253699,0.37797 -0.302304,0.384317 -0.946372,0.864523 -1.431261,1.067123 -1.856755,0.775801 -0.696245,3.414969 2.406762,5.473326 1.193003,0.791369 2.534076,0.110779 4.31839,-2.191573 z m 5.603096,-0.936117 c 0.01724,-2.036696 -1.184914,-3.072173 -2.146885,-1.849226 -0.253942,0.322836 -0.822936,0.736597 -1.264431,0.91947 -1.453346,0.601996 -0.772609,2.010934 1.648387,3.411712 l 1.385353,0.801558 0.18319,-0.980297 c 0.100754,-0.539165 0.188228,-1.575612 0.194386,-2.303217 z M 10.22015,29.393401 c 2.138516,-1.223534 2.614403,-2.550234 1.134629,-3.163178 -0.447834,-0.185499 -0.989161,-0.604227 -1.202947,-0.930506 -1.1191384,-1.708021 -2.4058122,0.272679 -2.0904003,3.21795 0.2083348,1.945402 0.2556137,1.964581 2.1587183,0.875734 z m 4.311023,0.615624 c -0.158988,-1.651595 -2.128919,-1.658662 -4.068711,-0.0146 -0.138244,0.117168 0.724959,0.213035 1.918229,0.213035 1.193271,0 2.160988,-0.0893 2.150482,-0.198438 z m 8.869414,-0.0146 C 21.392359,28.292358 21.15823,28.238534 20.149696,29.24707 l -0.960394,0.960393 h 2.23132 c 1.227225,0 2.11821,-0.09587 1.979965,-0.213035 z M 7.582914,29.237323 c -0.097014,-0.09701 -0.176389,-0.01764 -0.176389,0.17639 0,0.194027 0.079375,0.273402 0.176389,0.176389 0.097014,-0.09701 0.097014,-0.255764 0,-0.352779 z m 18.785416,0 c -0.09701,-0.09701 -0.176389,-0.01764 -0.176389,0.17639 0,0.194027 0.07937,0.273402 0.176389,0.176389 0.09701,-0.09701 0.09701,-0.255764 0,-0.352779 z M 12.169025,25.37197 c 0,-0.450103 0.283954,-0.734057 1.124479,-1.124479 0.695751,-0.323176 1.281571,-0.83658 1.536504,-1.346571 0.410108,-0.820416 0.414861,-0.821955 1.021499,-0.330729 0.776348,0.628648 1.389389,0.624586 2.175185,-0.01441 0.624624,-0.507939 0.624624,-0.507939 1.021499,0.330728 0.254928,0.538708 0.799059,1.025481 1.521354,1.360987 0.840525,0.390422 1.124479,0.674376 1.124479,1.124479 0,0.358864 0.160353,0.60216 0.396875,0.60216 0.487754,0 0.487621,-0.07886 -0.0029,-1.695697 -0.619567,-2.042346 -0.536557,-3.331387 0.214531,-3.331387 1.053097,0 1.76926,-1.495941 0.956607,-1.998188 -0.362209,-0.223858 -12.045653,-0.21326 -12.408928,0.01126 -0.797344,0.492785 -0.06429,1.98693 0.974821,1.98693 0.785671,0 0.820877,1.122704 0.10712,3.416011 -0.409284,1.315031 -0.433593,1.611073 -0.132292,1.611073 0.207657,0 0.369131,-0.263411 0.369131,-0.60216 z m 9.13707,-7.607348 c 2.112157,-1.752934 1.914873,-5.303913 -0.504824,-9.0865091 -1.269481,-1.9845184 -2.601263,-1.4136314 -5.415207,2.3213051 -0.318239,0.422398 -0.657819,0.688793 -0.754623,0.59199 -0.457388,-0.457388 1.811303,-3.6581446 3.449621,-4.8668577 0.455842,-0.3363095 0.835095,-0.756407 0.842784,-0.9335497 0.0077,-0.1771431 0.176766,-0.6490166 0.375726,-1.0486078 C 19.9916,3.352525 18.037753,2.2846711 16.020697,2.9503594 c -1.309525,0.4321826 -1.674891,1.183156 -1.015508,2.087278 0.507503,0.6958682 0.507503,0.6958682 -0.510642,2.0187848 -3.356834,4.3616708 -3.99451,8.2110128 -1.731303,10.4510408 0.746445,0.738801 7.709936,0.948418 8.542851,0.257159 z"
           id="path128358" />
        <path
           style="fill:#ffffff;stroke-width:0.25"
           d="M 61.75,68.477192 C 54.006046,67.83042 50.529203,67.290782 48.995238,66.497537 47.313694,65.627977 44.895195,61.779315 43.96407,58.491222 43.261717,56.010995 43.205075,51.281637 43.84341,48.416665 45.338678,41.70561 48.955686,34.6293 54.944505,26.69849 c 3.499254,-4.633954 3.650132,-5.152933 2.137402,-7.352056 -1.735036,-2.522299 -1.823562,-4.307437 -0.29197,-5.887639 1.830748,-1.888852 5.235679,-2.935828 9.084443,-2.793357 2.252057,0.08336 2.712975,0.183928 4.201355,0.916655 3.141035,1.546326 3.87939,3.615093 2.469045,6.917907 -0.411003,0.9625 -0.877835,2.25625 -1.037408,2.875 -0.2368,0.918208 -0.63998,1.446676 -2.1934,2.875 -6.911427,6.35486 -10.698633,10.834862 -13.06035,15.44949 -1.439409,2.812502 -1.656447,4.17551 -0.664886,4.17551 0.701205,0 2.06352,-1.417345 5.266203,-5.478925 2.616206,-3.317821 6.014866,-6.833466 7.746543,-8.013185 1.438148,-0.97975 3.370343,-1.760163 4.3387,-1.7524 2.06146,0.01653 4.179445,1.912872 6.51444,5.832727 4.287385,7.197408 6.362608,13.618758 6.35421,19.661783 -0.007,5.0425 -1.21464,8.518255 -4.008375,11.536745 C 80.32422,67.25674 79.332462,67.73171 76.625,68.14035 74.872802,68.40481 63.867298,68.654027 61.75,68.477192 Z"
           id="path129315"
           transform="scale(0.26458333)" />
        <path
           style="fill:#ffffff;stroke-width:0.25"
           d="M 44.166667,97.958332 C 43.818934,97.6106 44.032204,96.330255 45.018069,92.847018 46.631226,87.147451 47.049416,85.140044 47.069435,83 c 0.0132,-1.411097 -0.10388,-2.234026 -0.397621,-2.794783 -0.430631,-0.822084 -0.619688,-0.92163 -2.288175,-1.20482 -1.399521,-0.237539 -2.202075,-0.708798 -3.207552,-1.883472 -1.605656,-1.875848 -1.685352,-4.434191 -0.163503,-5.24866 0.981251,-0.525149 13.396598,-0.798199 29.362416,-0.645764 8.3875,0.08008 15.800397,0.244249 16.473105,0.364819 1.708907,0.30629 2.198747,0.97541 2.083702,2.846341 -0.07037,1.144333 -0.241035,1.623635 -0.845687,2.375 -1.05904,1.316004 -2.177145,2.013195 -3.541935,2.208563 -1.567425,0.224376 -2.207488,0.866713 -2.569598,2.578727 -0.43156,2.040372 0.04494,5.355964 1.537208,10.696258 C 84.851515,97.086585 84.90036,97.37464 84.45,97.825 83.55737,98.71763 82.343377,97.699092 82.098347,95.851963 81.862907,94.077137 81.036442,93.221377 78.03267,91.642176 74.794075,89.939519 73.27086,88.530814 71.931855,86 c -1.309198,-2.474477 -1.662863,-2.586205 -3.55808,-1.124055 -3.520678,2.716182 -5.080892,2.69624 -9.018137,-0.115265 -1.679463,-1.19927 -1.884125,-1.124141 -3.086177,1.132907 -1.224257,2.29874 -3.187092,4.09715 -6.236523,5.714094 -3.089268,1.638068 -3.912689,2.484141 -4.15874,4.273151 -0.214484,1.559483 -1.121731,2.663303 -1.707531,2.0775 z"
           id="path129455"
           transform="scale(0.26458333)" />
        <path
           style="fill:#ffffff;stroke-width:0.0883883"
           d="m 43.663844,114.05806 c -2.357299,-0.11083 -3.963245,-0.34238 -4.042079,-0.58277 -0.04159,-0.12684 1.282099,-1.16627 2.539477,-1.99414 1.155087,-0.76051 3.105728,-1.73709 4.180098,-2.09273 1.349821,-0.44682 2.034297,-0.56464 3.332911,-0.5737 1.000108,-0.007 1.293387,0.0232 1.811961,0.18667 0.665088,0.20961 1.525333,0.68679 1.929219,1.07013 0.674218,0.63993 1.323558,2.04132 1.399011,3.0193 0.03013,0.39055 0.02603,0.39718 -0.31638,0.51102 -1.229698,0.40883 -6.828245,0.64458 -10.834218,0.45622 z"
           id="path129595"
           transform="scale(0.26458333)" />
        <path
           style="fill:#ffffff;stroke-width:0.0883883"
           d="m 32.104255,113.653 c -0.712691,-0.35127 -1.030761,-1.29618 -1.383607,-4.11036 -0.401893,-3.20536 -0.480651,-4.99133 -0.31353,-7.10981 0.301833,-3.826146 1.279542,-6.701951 2.799903,-8.235549 1.508901,-1.522039 3.253812,-1.109299 4.900566,1.159177 0.616602,0.849397 1.300207,1.5527 2.153305,2.215354 0.933713,0.725272 1.414649,1.02085 2.475494,1.521413 1.212765,0.572247 1.879916,1.007675 2.42177,1.580605 0.763522,0.80731 1.072236,1.7791 0.891149,2.80522 -0.350789,1.98773 -2.40215,4.32964 -5.65583,6.45689 -2.222184,1.45286 -5.711064,3.32904 -6.837643,3.67701 -0.72134,0.2228 -1.061748,0.23219 -1.451577,0.0401 z"
           id="path129735"
           transform="scale(0.26458333)" />
        <path
           style="fill:#ffffff;stroke-width:0.0883883"
           d="m 63.176755,115.57083 c -1.057279,-0.19309 -1.978069,-0.61673 -3.314378,-1.52489 -5.643211,-3.83513 -10.008195,-8.73254 -11.351461,-12.73607 -0.899128,-2.679797 -0.595677,-4.691085 0.936715,-6.208582 0.547012,-0.541695 0.797673,-0.706197 1.914719,-1.25658 2.580166,-1.271281 4.15766,-2.523106 6.064083,-4.812169 1.234063,-1.481751 1.749463,-1.577207 3.870886,-0.716918 1.551548,0.629191 1.992905,0.736097 3.031651,0.734333 0.911379,-0.0015 1.514678,-0.132841 3.095937,-0.673752 2.20635,-0.754739 2.538833,-0.636497 4.014058,1.42753 0.912518,1.276729 2.780875,2.61178 4.884362,3.490164 1.354753,0.565725 1.750352,0.808451 2.437698,1.49569 2.180179,2.179841 1.796517,5.702044 -1.093515,10.038994 -1.680083,2.52123 -5.155989,6.38663 -7.266285,8.08051 -1.52379,1.22311 -3.205699,2.14808 -4.520601,2.48611 -0.793324,0.20395 -2.088247,0.28806 -2.703869,0.17563 z"
           id="path129875"
           transform="scale(0.26458333)" />
        <path
           style="fill:#ffffff;stroke-width:0.0883883"
           d="m 75.041707,111.73773 c 3.196907,-3.17262 3.840161,-3.62807 5.126524,-3.62984 1.134207,-0.002 2.166087,0.4951 4.200899,2.02197 1.44439,1.08383 4.019217,3.21556 4.019217,3.32756 0,0.44647 -3.978967,0.69411 -11.136931,0.69315 l -4.640389,-6.2e-4 z"
           id="path130015"
           transform="scale(0.26458333)" />
        <path
           style="fill:#ffffff;stroke-width:0.0883883"
           d="m 93.338095,113.21028 c -4.724007,-2.75074 -6.683237,-4.12603 -8.529476,-5.9873 -2.295205,-2.31389 -3.079351,-4.34102 -2.297434,-5.9392 0.393707,-0.80471 1.131617,-1.393189 2.786744,-2.222414 1.965338,-0.984643 2.845939,-1.631176 4.511056,-3.311998 1.176512,-1.187609 1.465381,-1.431543 1.988738,-1.679379 0.533186,-0.25249 0.703652,-0.289952 1.319401,-0.289952 0.948749,0 1.534979,0.280169 2.388361,1.141437 0.96958,0.978539 1.686035,2.510814 2.08917,4.468084 0.354488,1.721082 0.310681,5.651852 -0.104944,9.416502 -0.20082,1.819 -0.977723,6.14586 -1.101682,6.13569 -0.04891,-0.004 -1.421379,-0.78318 -3.049934,-1.73147 z"
           id="path130155"
           transform="scale(0.26458333)" />
        <path
           style="fill:#ffffff;stroke-width:0.0220971"
           d="m 99.195029,111.89253 c -0.0467,-0.0491 -0.09642,-0.13424 -0.118743,-0.20336 -0.08879,-0.27491 -0.08922,-0.75294 -9.34e-4,-1.03362 0.05309,-0.16879 0.171833,-0.29165 0.281875,-0.29165 0.04502,0 0.109023,0.014 0.142224,0.0312 0.102225,0.0529 0.268223,0.24973 0.342149,0.40579 0.06451,0.13618 0.07038,0.16699 0.07038,0.36953 0,0.20133 -0.0061,0.23384 -0.06856,0.36565 -0.121402,0.25619 -0.322303,0.4409 -0.479556,0.4409 -0.07381,0 -0.101824,-0.014 -0.168834,-0.0845 z"
           id="path130295"
           transform="scale(0.26458333)" />
        <path
           style="fill:#ffffff;stroke-width:0.0625"
           d="m 28.198346,111.88807 c -0.210643,-0.25381 -0.218386,-1.11604 -0.01231,-1.37054 0.240763,-0.29733 0.688961,0.11484 0.688961,0.63358 0,0.30146 -0.126157,0.58009 -0.32605,0.7201 -0.169429,0.11867 -0.262398,0.12314 -0.350604,0.0169 z"
           id="path130435"
           transform="scale(0.26458333)" />
      </g>
    </g>
  </g>
</svg>
