<?xml version="1.0" encoding="UTF-8" standalone="no"?>
<!-- Created with Inkscape (http://www.inkscape.org/) -->

<svg
   width="31.999998"
   height="31.999998"
   viewBox="0 0 8.466666 8.4666661"
   version="1.1"
   id="svg5"
   inkscape:export-filename="C:\Users\bmill\projects\chess2-canvas\src\assets\E_R.svg"
   inkscape:export-xdpi="96"
   inkscape:export-ydpi="96"
   sodipodi:docname="a_r.svg"
   xmlns:inkscape="http://www.inkscape.org/namespaces/inkscape"
   xmlns:sodipodi="http://sodipodi.sourceforge.net/DTD/sodipodi-0.dtd"
   xmlns="http://www.w3.org/2000/svg"
   xmlns:svg="http://www.w3.org/2000/svg">
  <sodipodi:namedview
     id="namedview7"
     pagecolor="#505050"
     bordercolor="#ffffff"
     borderopacity="1"
     inkscape:pageshadow="0"
     inkscape:pageopacity="0"
     inkscape:pagecheckerboard="1"
     inkscape:deskcolor="#505050"
     inkscape:document-units="mm"
     showgrid="false" />
  <defs
     id="defs2">
    <filter
       style="color-interpolation-filters:sRGB"
       inkscape:label="Invert"
       id="filter156018"
       x="0"
       y="0"
       width="1"
       height="1">
      <feColorMatrix
         type="hueRotate"
         values="180"
         result="color1"
         id="feColorMatrix156014" />
      <feColorMatrix
         values="-1 0 0 0 1 0 -1 0 0 1 0 0 -1 0 1 -0.21 -0.72 -0.07 2 0 "
         result="color2"
         id="feColorMatrix156016" />
    </filter>
    <filter
       style="color-interpolation-filters:sRGB"
       inkscape:label="Invert"
       id="filter156024"
       x="0"
       y="0"
       width="1"
       height="1">
      <feColorMatrix
         type="hueRotate"
         values="180"
         result="color1"
         id="feColorMatrix156020" />
      <feColorMatrix
         values="-1 0 0 0 1 0 -1 0 0 1 0 0 -1 0 1 -0.21 -0.72 -0.07 2 0 "
         result="color2"
         id="feColorMatrix156022" />
    </filter>
    <filter
       style="color-interpolation-filters:sRGB"
       inkscape:label="Invert"
       id="filter156030"
       x="0"
       y="0"
       width="1"
       height="1">
      <feColorMatrix
         type="hueRotate"
         values="180"
         result="color1"
         id="feColorMatrix156026" />
      <feColorMatrix
         values="-1 0 0 0 1 0 -1 0 0 1 0 0 -1 0 1 -0.21 -0.72 -0.07 2 0 "
         result="color2"
         id="feColorMatrix156028" />
    </filter>
    <filter
       style="color-interpolation-filters:sRGB"
       inkscape:label="Invert"
       id="filter156036"
       x="0"
       y="0"
       width="1"
       height="1">
      <feColorMatrix
         type="hueRotate"
         values="180"
         result="color1"
         id="feColorMatrix156032" />
      <feColorMatrix
         values="-1 0 0 0 1 0 -1 0 0 1 0 0 -1 0 1 -0.21 -0.72 -0.07 2 0 "
         result="color2"
         id="feColorMatrix156034" />
    </filter>
    <filter
       style="color-interpolation-filters:sRGB"
       inkscape:label="Invert"
       id="filter156042"
       x="0"
       y="0"
       width="1"
       height="1">
      <feColorMatrix
         type="hueRotate"
         values="180"
         result="color1"
         id="feColorMatrix156038" />
      <feColorMatrix
         values="-1 0 0 0 1 0 -1 0 0 1 0 0 -1 0 1 -0.21 -0.72 -0.07 2 0 "
         result="color2"
         id="feColorMatrix156040" />
    </filter>
    <filter
       style="color-interpolation-filters:sRGB"
       inkscape:label="Invert"
       id="filter156048"
       x="0"
       y="0"
       width="1"
       height="1">
      <feColorMatrix
         type="hueRotate"
         values="180"
         result="color1"
         id="feColorMatrix156044" />
      <feColorMatrix
         values="-1 0 0 0 1 0 -1 0 0 1 0 0 -1 0 1 -0.21 -0.72 -0.07 2 0 "
         result="color2"
         id="feColorMatrix156046" />
    </filter>
    <filter
       style="color-interpolation-filters:sRGB"
       inkscape:label="Invert"
       id="filter156054"
       x="0"
       y="0"
       width="1"
       height="1">
      <feColorMatrix
         type="hueRotate"
         values="180"
         result="color1"
         id="feColorMatrix156050" />
      <feColorMatrix
         values="-1 0 0 0 1 0 -1 0 0 1 0 0 -1 0 1 -0.21 -0.72 -0.07 2 0 "
         result="color2"
         id="feColorMatrix156052" />
    </filter>
    <filter
       style="color-interpolation-filters:sRGB"
       inkscape:label="Invert"
       id="filter156060"
       x="0"
       y="0"
       width="1"
       height="1">
      <feColorMatrix
         type="hueRotate"
         values="180"
         result="color1"
         id="feColorMatrix156056" />
      <feColorMatrix
         values="-1 0 0 0 1 0 -1 0 0 1 0 0 -1 0 1 -0.21 -0.72 -0.07 2 0 "
         result="color2"
         id="feColorMatrix156058" />
    </filter>
    <filter
       style="color-interpolation-filters:sRGB"
       inkscape:label="Invert"
       id="filter156066"
       x="0"
       y="0"
       width="1"
       height="1">
      <feColorMatrix
         type="hueRotate"
         values="180"
         result="color1"
         id="feColorMatrix156062" />
      <feColorMatrix
         values="-1 0 0 0 1 0 -1 0 0 1 0 0 -1 0 1 -0.21 -0.72 -0.07 2 0 "
         result="color2"
         id="feColorMatrix156064" />
    </filter>
    <filter
       style="color-interpolation-filters:sRGB"
       inkscape:label="Invert"
       id="filter86139"
       x="0"
       y="0"
       width="1"
       height="1">
      <feColorMatrix
         type="hueRotate"
         values="180"
         result="color1"
         id="feColorMatrix86135" />
      <feColorMatrix
         values="-1 0 0 0 1 0 -1 0 0 1 0 0 -1 0 1 -0.21 -0.72 -0.07 2 0 "
         result="color2"
         id="feColorMatrix86137" />
    </filter>
  </defs>
  <g
     inkscape:label="Layer 1"
     inkscape:groupmode="layer"
     id="layer1">
    <g
       inkscape:label="Layer 1"
       id="layer1-6"
       transform="translate(0.11288508,-11.602184)">
      <g
         inkscape:label="Layer 1"
         id="layer1-5"
         transform="matrix(0.36650495,0,0,0.29787235,-2.1104792,10.319212)"
         style="filter:url(#filter86139)">
        <path
           style="fill:#000000;stroke-width:0.264583;filter:url(#filter156066)"
           d="m 7.4526457,30.342076 c -0.4886452,-0.520139 -0.5724866,-0.908659 -0.556691,-2.579688 0.010229,-1.082026 0.1057121,-2.188878 0.2121868,-2.459669 0.1064747,-0.270791 0.6363666,-0.644566 1.1775371,-0.830612 0.9029554,-0.310421 1.015589,-0.293089 1.3683625,0.210566 0.3734979,0.533243 0.3970719,0.519261 0.8300649,-0.492305 0.245107,-0.572625 0.499359,-1.993635 0.565004,-3.157802 0.06565,-1.164167 -0.0138,-2.609706 -0.176548,-3.212311 -0.176518,-0.653593 -0.561796,-1.269862 -0.954929,-1.527453 -0.3624635,-0.237495 -0.6590247,-0.670137 -0.6590247,-0.961426 0,-0.308594 -0.252976,-0.625797 -0.606186,-0.760087 C 8.3190198,14.44453 7.9148677,14.179586 7.7543064,13.982525 7.593745,13.785465 7.4327683,12.790796 7.3965802,11.77215 7.3603918,10.753504 7.3478252,9.7682915 7.3686542,9.5827887 7.3894822,9.3972859 7.7113457,9.1296183 8.0839044,8.9879718 8.4564631,8.8463253 8.696754,8.626021 8.6178844,8.4984072 8.5390145,8.3707931 8.830253,7.7752576 9.2650811,7.174995 10.037042,6.1093344 10.092391,6.0836084 11.61321,6.0836084 c 1.176191,0 1.596854,0.1024681 1.718132,0.4185145 0.08833,0.2301832 0.160599,0.8254957 0.160599,1.3229166 0,0.7190898 0.10531,0.9044021 0.513954,0.9044021 0.4155,0 0.529539,-0.215406 0.595313,-1.1244791 0.08136,-1.1244791 0.08136,-1.1244791 2.330317,-1.1244791 2.248958,0 2.248958,0 2.330317,1.1244791 0.0649,0.8970613 0.18237,1.1244791 0.580815,1.1244791 0.408136,0 0.514202,-0.2297882 0.5801,-1.2567707 0.08064,-1.2567708 0.08064,-1.2567708 1.690346,-1.3344014 1.600398,-0.077182 1.613781,-0.071746 2.315104,0.9402632 0.38797,0.5598414 0.705401,1.1260838 0.705401,1.2583165 0,0.1322327 0.29557,0.4830204 0.656824,0.7795283 0.637547,0.5232837 0.651136,0.605024 0.46302,2.7851275 -0.181699,2.105748 -0.239245,2.267762 -0.921407,2.594125 -0.400182,0.191456 -0.727604,0.484766 -0.727604,0.651798 0,0.167033 -0.386953,0.702678 -0.859896,1.190322 -0.835461,0.86143 -0.862471,0.961132 -0.950531,3.508611 -0.06712,1.941559 0.02423,2.967815 0.351992,3.954617 0.243446,0.732946 0.523483,1.332629 0.622304,1.332629 0.09882,0 0.320995,-0.226289 0.493719,-0.502864 0.284328,-0.455282 0.407651,-0.470685 1.303299,-0.162776 0.54409,0.18705 1.069666,0.562167 1.167945,0.833595 0.09828,0.271427 0.240337,1.376593 0.31568,2.455924 0.125597,1.799208 0.08565,2.013759 -0.480275,2.579687 -0.617267,0.617268 -0.617267,0.617268 -9.579006,0.617268 -8.9617391,0 -8.9617391,0 -9.5370263,-0.612365 z m 7.8913793,-0.268825 c 0,-0.04809 -0.52548,-0.464809 -1.167733,-0.926042 -0.642253,-0.461232 -1.468664,-0.838602 -1.836468,-0.838602 -0.367805,0 -0.74841,0.128916 -0.84579,0.286481 -0.09738,0.157564 -0.69972,0.510521 -1.338532,0.784346 -0.6388122,0.273828 -1.161477,0.561631 -1.161477,0.639562 0,0.07793 1.42875,0.141695 3.175,0.141695 1.74625,0 3.175,-0.03935 3.175,-0.08744 z m 4.538684,-2.095373 c 0.774245,-0.754935 1.017565,-1.200912 1.017565,-1.865077 0,-0.752771 -0.123969,-0.917718 -0.900869,-1.198648 -0.495478,-0.179168 -1.101874,-0.632533 -1.347549,-1.007478 -0.326545,-0.498372 -0.525445,-0.602954 -0.739547,-0.388852 -0.161077,0.161077 -0.596477,0.291045 -0.967555,0.288816 -0.371078,-0.0022 -0.84405,-0.111242 -1.051048,-0.242254 -0.266228,-0.168498 -0.525008,-0.04923 -0.88434,0.40759 -0.279389,0.355185 -0.928555,0.821519 -1.442592,1.036297 -0.861209,0.359836 -0.921309,0.457018 -0.765234,1.237388 0.09316,0.465785 0.435435,1.136453 0.760618,1.490371 0.325183,0.353917 1.186554,1.030205 1.914158,1.502862 1.322917,0.859377 1.322917,0.859377 2.355873,0.295275 0.568125,-0.310256 1.49086,-1.010587 2.05052,-1.55629 z m 4.986315,2.041118 c 0,-0.07793 -0.522665,-0.365734 -1.161477,-0.639562 -0.638812,-0.273825 -1.241151,-0.626782 -1.338531,-0.784346 -0.09738,-0.157565 -0.482004,-0.286481 -0.854719,-0.286481 -0.372715,0 -1.194779,0.327422 -1.826808,0.727604 -0.632029,0.400183 -1.153491,0.816901 -1.158804,0.926042 -0.0053,0.109141 1.419089,0.198438 3.165339,0.198438 1.74625,0 3.175,-0.06376 3.175,-0.141695 z M 9.5981333,28.935366 c 0.7591467,-0.382887 1.4677407,-0.829371 1.5746527,-0.992188 0.106912,-0.162817 0.196209,-0.56392 0.198437,-0.891341 0.0025,-0.367398 -0.155684,-0.595313 -0.413176,-0.595313 -0.229475,0 -0.769794,-0.352567 -1.2007097,-0.783482 C 9.0724602,24.988164 8.892516,24.926619 8.3275674,25.184027 7.9721092,25.345985 7.6087517,25.707012 7.5201059,25.98631 c -0.088646,0.279298 -0.079244,1.21373 0.020894,2.076515 0.1001368,0.862785 0.293397,1.568699 0.4294674,1.568699 0.1360702,0 0.8685204,-0.313272 1.6276671,-0.696158 z M 26.32205,28.062825 c 0.100137,-0.862785 0.109539,-1.797217 0.02089,-2.076515 -0.08865,-0.279298 -0.452003,-0.640325 -0.807461,-0.802283 -0.564949,-0.257408 -0.744893,-0.195863 -1.42977,0.489015 -0.430915,0.430915 -0.971234,0.783482 -1.200709,0.783482 -0.257492,0 -0.415677,0.227915 -0.413176,0.595313 0.0022,0.327421 0.09153,0.728289 0.198437,0.890817 0.106913,0.162528 0.789699,0.60347 1.517303,0.979869 0.727604,0.376399 1.460054,0.689906 1.627667,0.696682 0.177664,0.0072 0.380676,-0.641855 0.486817,-1.55638 z m -13.888442,-1.83075 c 0,-1.25814 0.02104,-1.291047 1.095416,-1.713073 1.095415,-0.430291 1.095415,-0.430291 0.956392,-2.752114 -0.07646,-1.277002 -0.400725,-3.42315 -0.720585,-4.769218 -0.581562,-2.447395 -0.581562,-2.447395 -2.279309,-2.447395 -1.245771,0 -1.697747,0.09474 -1.697747,0.355867 0,0.195728 0.254557,0.582681 0.565683,0.859896 0.311126,0.277216 0.736349,0.907511 0.944941,1.400657 0.230834,0.545732 0.379257,1.791213 0.379257,3.182512 0,1.459307 -0.156684,2.713696 -0.433306,3.468996 -0.238319,0.650712 -0.497423,1.386073 -0.575787,1.634135 -0.102273,0.323747 0.052,0.499835 0.546699,0.623996 0.502188,0.126041 0.68918,0.34466 0.68918,0.805749 0,0.348025 0.119062,0.632774 0.264583,0.632774 0.145521,0 0.264583,-0.577252 0.264583,-1.282782 z m 9.525,0.621324 c 0,-0.363802 0.148828,-0.663281 0.330729,-0.66551 0.181901,-0.0022 0.482198,-0.100184 0.667328,-0.21768 0.264304,-0.167745 0.222893,-0.470679 -0.192806,-1.410435 -0.291172,-0.658244 -0.60589,-2.019768 -0.699373,-3.025608 -0.101691,-1.094152 -0.04221,-2.444219 0.148071,-3.360794 0.218638,-1.053172 0.559434,-1.778936 1.090379,-2.322085 0.424786,-0.43455 0.772338,-0.905048 0.772338,-1.045551 0,-0.154553 -1.840129,-0.255461 -4.658515,-0.255461 -4.299856,0 -4.64505,0.03509 -4.48361,0.455797 0.0962,0.250689 0.244138,2.066392 0.328755,4.034896 0.08462,1.968504 0.271351,3.727926 0.414965,3.909827 0.143614,0.181901 0.63349,0.328906 1.088615,0.326678 0.455124,-0.0022 1.003558,-0.115382 1.218743,-0.251453 0.29144,-0.18429 0.578888,-0.01975 1.12684,0.645006 0.41281,0.50081 1.096465,0.971667 1.557975,1.073031 0.806574,0.177154 0.819985,0.205511 0.697935,1.475713 -0.09356,0.973669 -0.03558,1.295087 0.233595,1.295087 0.205516,0 0.358036,-0.281776 0.358036,-0.661458 z m 3.379115,-13.16302 c 0.1479,-0.181901 0.311307,-1.158195 0.363126,-2.169542 0.09096,-1.7751814 0.07133,-1.8444585 -0.567241,-2.0019565 -0.443363,-0.1093521 -0.634314,-0.3165938 -0.579132,-0.6285397 0.04528,-0.2559679 -0.233486,-0.8794487 -0.61948,-1.385513 -0.6297,-0.8255799 -0.814858,-0.911879 -1.802119,-0.8399391 -1.100311,0.080178 -1.100311,0.080178 -1.180284,1.4692405 -0.07997,1.3890624 -0.07997,1.3890624 -1.124479,1.3890624 -1.044506,0 -1.044506,0 -1.044506,-1.3350054 0,-1.3350054 0,-1.3350054 -1.766632,-1.2567708 -1.766632,0.078235 -1.766632,0.078235 -1.785937,1.2688596 -0.01931,1.1906249 -0.01931,1.1906249 -1.276077,1.2712675 -1.256771,0.080643 -1.256771,0.080643 -1.256771,-1.3890624 0,-1.469705 0,-1.469705 -0.977709,-1.469705 -0.700545,0 -1.188079,0.201546 -1.719792,0.7109594 -0.459948,0.4406585 -0.7420817,0.9869207 -0.7420817,1.4368063 0,0.55129 -0.1431649,0.7461794 -0.5953124,0.8103946 C 8.0963113,9.65146 8.0725353,9.7499093 8.163643,11.639858 c 0.052613,1.091406 0.1489363,2.073672 0.2140524,2.182813 0.065116,0.10914 3.8472556,0.198437 8.4047556,0.198437 6.309283,0 8.350523,-0.07891 8.555272,-0.330729 z"
           id="path152984" />
        <path
           style="fill:#ffffff;stroke-width:0.176777;filter:url(#filter156060)"
           d="M 44.459339,52.763115 C 36.623273,52.606911 32.061075,52.372717 31.80171,52.113352 31.430015,51.741658 30.905309,45.340738 30.869971,40.747028 c -0.02978,-3.871151 0.09145,-4.143575 2.010494,-4.518043 1.5678,-0.305929 2.01022,-0.884346 2.185992,-2.85795 0.213063,-2.392312 1.383917,-4.492073 3.446488,-6.180794 1.972096,-1.614644 4.579788,-2.373343 7.194794,-2.0933 2.029999,0.217395 2.188248,0.596392 2.194528,5.255755 0.0046,3.405775 0.187666,4.705516 0.732216,5.198326 0.474226,0.429169 1.996592,0.511515 4.925016,0.266398 2.55588,-0.213934 3.366028,-0.480369 3.715441,-1.221901 0.133164,-0.282605 0.277411,-1.670636 0.353281,-3.399514 0.169312,-3.858099 0.340621,-4.187506 2.387467,-4.590803 1.512871,-0.298086 8.746113,-0.441053 9.512801,-0.188023 1.16851,0.385643 1.257409,0.691728 1.367582,4.70867 0.136135,4.96357 0.102355,4.922593 4.065022,4.931086 3.889757,0.0083 3.919152,-0.02782 4.317562,-5.310248 0.38202,-5.065113 0.438304,-5.138358 4.180313,-5.440161 3.262725,-0.263147 3.95619,-0.07862 5.461235,1.453169 2.229909,2.269538 3.690983,4.958629 3.77877,6.954785 0.04321,0.982412 0.101991,1.129005 0.629275,1.569201 0.31989,0.267056 1.093074,0.624001 1.718185,0.793211 1.443304,0.390683 1.930036,0.923226 2.102036,2.299875 0.153479,1.228399 -0.186717,7.258611 -0.546072,9.679523 -0.389812,2.62611 -0.689871,3.548782 -1.234831,3.797082 -0.716954,0.326666 -2.562799,0.548126 -6.183723,0.741911 -4.51551,0.241661 -35.237368,0.356947 -44.724504,0.167832 z"
           id="path154253"
           transform="scale(0.26458333)" />
        <path
           style="fill:#ffffff;stroke-width:0.176777;filter:url(#filter156054)"
           d="m 45.507231,103.41969 c -0.166382,-0.25393 -0.356425,-1.03009 -0.425862,-1.73927 -0.199274,-2.035244 -0.612063,-2.548013 -2.533177,-3.146724 -1.394387,-0.434559 -2.243106,-1.064443 -2.243106,-1.664741 0,-0.228352 0.588265,-2.072125 1.307256,-4.097274 2.145335,-6.042667 2.495721,-8.290081 2.48861,-15.962207 -0.0092,-9.958504 -0.876848,-12.985555 -4.97928,-17.372295 -1.997001,-2.135398 -2.442923,-3.317905 -1.433109,-3.800359 1.334238,-0.637453 9.052771,-0.771017 10.394698,-0.179874 1.480441,0.652162 2.174015,2.019923 3.269552,6.447719 1.910836,7.722955 3.068688,15.441478 3.429183,22.85976 0.167213,3.440932 0.06617,4.887374 -0.405089,5.798681 -0.332666,0.643304 -1.242837,1.209345 -3.166362,1.969177 -2.742402,1.083305 -3.601621,1.667855 -4.001041,2.722006 -0.10461,0.27609 -0.261922,1.986404 -0.349581,3.800699 -0.20387,4.219522 -0.603315,5.508392 -1.352692,4.364702 z"
           id="path154393"
           transform="scale(0.26458333)" />
        <path
           style="fill:#ffffff;stroke-width:0.176777;filter:url(#filter156048)"
           d="m 80.967066,103.509 c -0.261094,-0.48786 -0.285969,-1.75733 -0.1075,-5.486323 0.18269,-3.81719 0.183625,-3.815184 -2.058305,-4.419285 -2.598932,-0.700297 -4.343205,-1.850578 -6.622692,-4.367411 -1.587209,-1.752474 -2.569283,-2.527012 -3.204117,-2.527012 -0.245159,0 -0.933026,0.194944 -1.528595,0.433209 -0.595568,0.238265 -1.806106,0.525962 -2.690083,0.639329 -1.348366,0.172919 -1.825111,0.161687 -2.959983,-0.06975 -1.919085,-0.391357 -2.501572,-0.794226 -2.737257,-1.893186 -0.531541,-2.478489 -0.940962,-6.983519 -1.340889,-14.754342 -0.42289,-8.217028 -0.829008,-13.003813 -1.241163,-14.629188 -0.111518,-0.439782 -0.05927,-0.513891 0.538295,-0.763571 0.979456,-0.409242 5.502411,-0.596346 14.491396,-0.599474 10.732514,-0.0037 18.72592,0.352764 19.230835,0.857678 0.225889,0.225889 -0.226711,0.995486 -1.363355,2.318245 -2.354876,2.740463 -3.150981,3.825456 -3.80378,5.184081 -1.316778,2.740515 -2.020339,5.972657 -2.343737,10.767074 -0.434694,6.44441 0.629632,13.391148 2.943733,19.213373 1.109408,2.791247 1.295046,3.581563 0.979691,4.170809 -0.247592,0.46263 -1.587062,1.104167 -2.70325,1.294714 -0.965498,0.164823 -1.367398,0.849024 -1.541158,2.62369 -0.146706,1.49835 -0.553365,2.2334 -1.284106,2.32105 -0.318207,0.0382 -0.516588,-0.057 -0.65398,-0.31371 z"
           id="path154533"
           transform="scale(0.26458333)" />
        <path
           style="fill:#ffffff;stroke-width:0.176777;filter:url(#filter156042)"
           d="m 61.960232,112.46432 c -2.715244,-1.33014 -7.82871,-5.01292 -10.093969,-7.26979 -1.176108,-1.17175 -1.578569,-1.72662 -2.252863,-3.10599 -1.371268,-2.805131 -1.722694,-4.962868 -0.965145,-5.925935 0.232632,-0.295744 1.133618,-0.842488 2.248146,-1.36424 2.527143,-1.183049 3.984445,-2.198983 5.798542,-4.042358 1.958586,-1.990195 2.168277,-2.080327 3.518719,-1.512466 2.641223,1.110634 5.526198,1.056693 7.330067,-0.137052 1.117366,-0.739438 1.472988,-0.592258 2.749705,1.138014 1.327904,1.799645 3.004526,3.057798 5.406833,4.057341 2.847178,1.184643 3.182946,1.663904 3.105682,4.432916 -0.04747,1.70122 -0.103027,1.96481 -0.646628,3.06787 -1.39484,2.83037 -7.413008,8.03633 -11.888559,10.28409 -2.17075,1.09022 -2.751936,1.14113 -4.31053,0.3776 z"
           id="path154673"
           transform="scale(0.26458333)" />
        <path
           style="fill:#ffffff;stroke-width:0.176777;filter:url(#filter156036)"
           d="m 29.625311,111.05996 c -0.782916,-2.10682 -1.232751,-5.5429 -1.243922,-9.50175 -0.0086,-3.063439 -0.004,-3.101648 0.477231,-3.920266 0.588002,-1.000259 1.485224,-1.770078 2.780223,-2.38544 1.111469,-0.528152 1.98859,-0.583103 2.779455,-0.174131 0.304066,0.157239 1.216025,0.907038 2.026575,1.666221 0.81055,0.759184 1.802611,1.635147 2.20458,1.946585 0.873302,0.67662 2.476298,1.448681 3.012822,1.451091 0.48555,0.002 1.043424,0.6995 1.191627,1.4895 0.144173,0.7685 -0.16514,2.74019 -0.559662,3.56751 -0.371247,0.77851 -2.191261,2.02559 -5.401888,3.70137 -2.769723,1.44566 -6.087168,2.9068 -6.604722,2.90899 -0.289694,0.001 -0.451213,-0.1816 -0.662319,-0.74968 z"
           id="path154813"
           transform="scale(0.26458333)" />
        <path
           style="fill:#ffffff;stroke-width:0.176777;filter:url(#filter156030)"
           d="m 37.591515,113.75426 c -1.735532,-0.0835 -3.195276,-0.19152 -3.243876,-0.24012 -0.231733,-0.23174 0.444093,-0.63045 4.075827,-2.4046 2.659242,-1.29907 4.211316,-2.16876 4.839979,-2.71203 1.112429,-0.96132 1.906404,-1.25997 3.317214,-1.24772 1.878402,0.0163 4.732592,1.4482 8.506555,4.2676 2.291013,1.71154 2.664553,2.06502 2.372773,2.24535 -0.298002,0.18418 -16.399804,0.25835 -19.868472,0.0915 z"
           id="path154953"
           transform="scale(0.26458333)" />
        <path
           style="fill:#ffffff;stroke-width:0.176777;filter:url(#filter156024)"
           d="m 75.92559,113.82515 c -2.009862,-0.0905 -5.414654,-0.41623 -5.609545,-0.53668 -0.262075,-0.16197 0.706678,-1.06841 2.427565,-2.27143 2.277369,-1.59203 3.542542,-2.2986 5.607311,-3.13154 2.886727,-1.16452 4.585422,-1.02888 6.371961,0.50881 0.60849,0.52373 2.285311,1.47227 4.896167,2.76965 2.183906,1.08522 3.996366,2.0608 4.027686,2.16795 0.03573,0.12225 -0.422758,0.2384 -1.2307,0.31179 -1.482529,0.13466 -14.377963,0.27655 -16.490445,0.18145 z"
           id="path155093"
           transform="scale(0.26458333)" />
        <path
           style="fill:#ffffff;stroke-width:0.176777;filter:url(#filter156018)"
           d="m 96.25491,111.43324 c -1.89766,-0.73395 -6.632342,-3.19198 -8.397789,-4.35975 -1.390811,-0.91996 -1.933576,-1.38884 -2.161854,-1.86754 -0.397256,-0.83305 -0.707493,-2.80313 -0.562842,-3.57418 0.148203,-0.79 0.706077,-1.48732 1.191627,-1.4895 0.536524,-0.002 2.13952,-0.774471 3.012822,-1.451091 0.401969,-0.311438 1.39403,-1.187401 2.20458,-1.946585 0.81055,-0.759183 1.722509,-1.508982 2.026575,-1.666221 0.790865,-0.408972 1.667986,-0.354021 2.779455,0.174131 1.289414,0.612708 2.192393,1.38494 2.768078,2.367271 0.41494,0.708041 0.483626,1.046615 0.552768,2.724735 0.142283,3.45335 -0.577705,8.92392 -1.406558,10.68723 -0.420167,0.89386 -0.626889,0.93522 -2.006862,0.4015 z"
           id="path155233"
           transform="scale(0.26458333)" />
      </g>
    </g>
  </g>
</svg>
