<?xml version="1.0" encoding="UTF-8" standalone="no"?>
<!-- Created with Inkscape (http://www.inkscape.org/) -->

<svg
   width="31.999998"
   height="31.999998"
   viewBox="0 0 8.466666 8.4666661"
   version="1.1"
   id="svg5"
   inkscape:export-filename="C:\Users\bmill\projects\chess2-canvas\src\assets\C_KW.svg"
   inkscape:export-xdpi="96"
   inkscape:export-ydpi="96"
   sodipodi:docname="a_r.svg"
   xmlns:inkscape="http://www.inkscape.org/namespaces/inkscape"
   xmlns:sodipodi="http://sodipodi.sourceforge.net/DTD/sodipodi-0.dtd"
   xmlns="http://www.w3.org/2000/svg"
   xmlns:svg="http://www.w3.org/2000/svg">
  <sodipodi:namedview
     id="namedview7"
     pagecolor="#505050"
     bordercolor="#ffffff"
     borderopacity="1"
     inkscape:pageshadow="0"
     inkscape:pageopacity="0"
     inkscape:pagecheckerboard="1"
     inkscape:deskcolor="#505050"
     inkscape:document-units="mm"
     showgrid="false" />
  <defs
     id="defs2">
    <filter
       style="color-interpolation-filters:sRGB"
       inkscape:label="Invert"
       id="filter45826-8"
       x="0"
       y="0"
       width="1"
       height="1">
      <feColorMatrix
         type="hueRotate"
         values="180"
         result="color1"
         id="feColorMatrix45822-5" />
      <feColorMatrix
         values="-1 0 0 0 1 0 -1 0 0 1 0 0 -1 0 1 -0.21 -0.72 -0.07 2 0 "
         result="color2"
         id="feColorMatrix45824-4" />
    </filter>
    <filter
       style="color-interpolation-filters:sRGB"
       inkscape:label="Invert"
       id="filter45832-4"
       x="0"
       y="0"
       width="1"
       height="1">
      <feColorMatrix
         type="hueRotate"
         values="180"
         result="color1"
         id="feColorMatrix45828-7" />
      <feColorMatrix
         values="-1 0 0 0 1 0 -1 0 0 1 0 0 -1 0 1 -0.21 -0.72 -0.07 2 0 "
         result="color2"
         id="feColorMatrix45830-5" />
    </filter>
    <filter
       style="color-interpolation-filters:sRGB"
       inkscape:label="Invert"
       id="filter45838-7"
       x="0"
       y="0"
       width="1"
       height="1">
      <feColorMatrix
         type="hueRotate"
         values="180"
         result="color1"
         id="feColorMatrix45834-6" />
      <feColorMatrix
         values="-1 0 0 0 1 0 -1 0 0 1 0 0 -1 0 1 -0.21 -0.72 -0.07 2 0 "
         result="color2"
         id="feColorMatrix45836-2" />
    </filter>
    <filter
       style="color-interpolation-filters:sRGB"
       inkscape:label="Invert"
       id="filter45844-4"
       x="0"
       y="0"
       width="1"
       height="1">
      <feColorMatrix
         type="hueRotate"
         values="180"
         result="color1"
         id="feColorMatrix45840-3" />
      <feColorMatrix
         values="-1 0 0 0 1 0 -1 0 0 1 0 0 -1 0 1 -0.21 -0.72 -0.07 2 0 "
         result="color2"
         id="feColorMatrix45842-4" />
    </filter>
    <filter
       style="color-interpolation-filters:sRGB"
       inkscape:label="Invert"
       id="filter50995"
       x="0"
       y="0"
       width="1"
       height="1">
      <feColorMatrix
         type="hueRotate"
         values="180"
         result="color1"
         id="feColorMatrix50991" />
      <feColorMatrix
         values="-1 0 0 0 1 0 -1 0 0 1 0 0 -1 0 1 -0.21 -0.72 -0.07 2 0 "
         result="color2"
         id="feColorMatrix50993" />
    </filter>
  </defs>
  <g
     inkscape:label="Layer 1"
     inkscape:groupmode="layer"
     id="layer1">
    <g
       inkscape:label="Layer 1"
       id="layer1-9"
       transform="matrix(0.31929795,0,0,0.26583565,-1.2155764,0.04234286)"
       style="filter:url(#filter50995)">
      <path
         style="fill:#000000;stroke-width:0.264583;filter:url(#filter45844-4)"
         d="M 8.3562889,30.278906 C 7.8243484,29.746967 7.811945,28.34616 8.33739,28.144529 c 0.2182813,-0.08376 0.396875,-0.35119 0.396875,-0.594284 0,-0.679825 0.7338422,-1.572353 1.369891,-1.666113 0.666825,-0.0983 1.486611,-2.105811 1.520019,-3.722263 0.017,-0.822634 -0.06992,-0.992188 -0.50866,-0.992188 -0.733379,0 -1.5875,-0.925298 -1.5875,-1.719791 0,-0.888969 0.883565,-1.719792 1.828967,-1.719792 h 0.770633 L 11.361774,16.341036 C 10.736028,15.206071 10.595058,14.63088 10.591141,13.196673 10.586977,11.671722 10.724185,11.168262 11.636686,9.3602149 12.214372,8.215578 13.162934,6.6567661 13.744602,5.8961888 14.793327,4.524896 14.79847,4.5068565 14.358968,3.7410693 13.425313,2.1142682 15.216432,0.615024 17.797326,0.86301522 19.873024,1.0624636 20.948543,2.5328812 20.059727,3.9561025 19.789231,4.3892349 19.91941,4.7269364 20.960282,6.2922634 24.226946,11.204871 24.724423,13.921854 22.872868,16.73791 l -0.652362,0.992188 h 0.756497 c 0.954284,0 1.632261,0.733429 1.632261,1.765764 0,0.924797 -0.703561,1.673819 -1.572229,1.673819 -0.567428,0 -0.593455,0.0738 -0.424171,1.202658 0.313069,2.087696 0.793788,3.134705 1.622831,3.534541 0.88976,0.429118 1.1576,0.759125 1.163268,1.433262 0.0022,0.265055 0.182645,0.660514 0.400926,0.878795 0.540562,0.54056 0.4993,1.507287 -0.08698,2.037861 -0.428398,0.387696 -1.426944,0.437883 -8.712351,0.437883 -7.1276734,0 -8.2841192,-0.05562 -8.6442701,-0.415775 z M 25.519963,29.539872 c 0.166251,-0.259032 0.132412,-0.529105 -0.10163,-0.811109 -0.310029,-0.373562 -1.308736,-0.414639 -8.580076,-0.352906 -7.6794871,0.0652 -8.2353208,0.101645 -8.3207389,0.545597 -0.207186,1.076827 0.094197,1.11397 8.5947569,1.059259 6.842087,-0.04403 8.198662,-0.115165 8.407688,-0.440841 z m -0.646115,-2.252379 c 0,-0.330393 -0.573726,-0.752935 -1.173274,-0.864102 -0.614644,-0.113965 -1.44915,-2.314602 -1.666182,-4.393814 l -0.144993,-1.389063 h 0.777849 c 0.9234,0 1.41285,-0.419573 1.41285,-1.211144 0,-1.033895 -0.466608,-1.147671 -3.775427,-0.920585 -1.707057,0.117155 -4.487024,0.118075 -6.177704,0.002 -3.354838,-0.230243 -3.708169,-0.180352 -3.942079,0.556635 -0.2797796,0.881506 0.321117,1.573051 1.366853,1.573051 h 0.946774 l -0.185721,1.238475 c -0.102146,0.68116 -0.418105,1.990847 -0.702131,2.910416 -0.44822,1.451168 -0.60112,1.671943 -1.157928,1.671943 -0.370729,0 -0.7610599,0.223363 -0.92472,0.529166 -0.28023,0.523616 -0.201213,0.529167 7.531315,0.529167 4.306387,0 7.814518,-0.104235 7.814518,-0.232188 z M 22.331115,16.474698 c 1.023429,-1.456851 1.247966,-3.722584 0.550024,-5.55012 C 22.343945,9.5179563 20.767632,6.7878907 20.239655,6.3497081 19.557075,5.7832173 17.301141,7.5848029 15.432132,10.188989 15.119006,10.625285 14.777549,10.896994 14.673341,10.792785 14.1394,10.258844 16.456389,6.8956779 18.25658,5.5916264 18.924439,5.1078316 19.198796,4.7525467 19.032752,4.5865029 18.866708,4.4204592 18.965184,4.1584037 19.311346,3.8451315 21.016252,2.3022132 17.935608,0.57723653 15.613431,1.7745193 14.528352,2.3339712 14.30975,3.1385474 15.058677,3.8163176 c 0.521571,0.4720145 0.512479,0.4973563 -0.903228,2.5177222 -3.4112,4.8681462 -3.91324,7.7875812 -1.812759,10.5414552 l 0.661702,0.867535 4.268873,-0.07261 4.268873,-0.07261 z"
         id="path43329" />
      <path
         style="fill:#ffffff;stroke-width:0.176777;filter:url(#filter45838-7)"
         d="m 47.220829,64.335691 c -3.779904,-5.069103 -5.147976,-8.682539 -5.147976,-13.597152 0,-4.268629 1.059215,-8.253817 3.618819,-13.615433 1.994063,-4.176975 4.244423,-7.840713 9.555102,-15.556349 3.394379,-4.931533 3.492148,-5.308137 1.839285,-7.084841 -2.274266,-2.444666 -2.313982,-4.146593 -0.144367,-6.1864249 3.344397,-3.1443384 9.864125,-3.9052424 14.295328,-1.668378 2.066161,1.0429943 3.536068,2.8809381 3.536068,4.4214299 0,0.851184 -0.703971,2.262088 -1.499447,3.005204 -1.069875,0.999453 -1.67908,1.935295 -1.67908,2.579353 0,0.319969 0.07955,0.630926 0.176777,0.691016 0.355143,0.21949 0.161753,0.926185 -0.448576,1.639217 -0.343944,0.401821 -1.450923,1.3679 -2.459952,2.146841 -6.329716,4.886357 -13.708481,14.9803 -13.708481,18.752817 0,1.02134 0.237504,1.224999 1.040627,0.892335 0.652528,-0.270286 1.238328,-0.903596 3.032707,-3.278667 2.321932,-3.073349 3.950521,-4.953238 6.43374,-7.4265 3.897198,-3.881571 7.178619,-6.086604 9.284464,-6.238927 0.934405,-0.06759 1.061076,-0.03014 1.651432,0.488197 1.354764,1.189499 4.891917,6.899204 7.560954,12.204958 3.082768,6.12821 3.832083,9.041858 3.653205,14.205171 -0.183632,5.30051 -1.263763,8.348255 -4.67719,13.19737 l -1.717463,2.439828 -2.480442,0.102258 c -2.633121,0.108552 -23.970991,0.466008 -27.628683,0.462842 l -2.167269,-0.0019 z"
         id="path44494"
         transform="scale(0.26458333)" />
      <path
         style="fill:#ffffff;stroke-width:0.176777;filter:url(#filter45832-4)"
         d="m 39.027677,103.67772 c -3.313221,-0.25295 -3.803619,-0.67758 -2.479095,-2.14663 0.760091,-0.84303 1.80034,-1.37715 2.695844,-1.3842 1.670128,-0.0131 2.492459,-0.627241 3.338496,-2.493135 1.258918,-2.776487 3.43574,-11.075222 4.169258,-15.894534 0.244172,-1.604248 0.482467,-3.135576 0.529543,-3.402951 l 0.08559,-0.486136 h -2.438369 c -3.481583,0 -4.794678,-0.460941 -5.93497,-2.083378 -0.72323,-1.029031 -0.828372,-2.521691 -0.280281,-3.979061 0.909361,-2.417989 2.551918,-2.595382 15.733527,-1.699191 4.447025,0.302344 17.212328,0.245209 22.855478,-0.102297 2.701953,-0.166387 6.281681,-0.274822 7.954952,-0.240967 2.828436,0.05723 3.103797,0.09262 3.917003,0.503496 1.254974,0.634078 1.580792,1.166371 1.658737,2.709892 0.08916,1.7656 -0.18345,2.639216 -1.1139,3.569665 -1.052283,1.052283 -2.033243,1.321841 -4.810375,1.321841 h -2.177624 l 0.0016,0.574524 c 0.003,1.131207 0.711189,6.973502 1.065992,8.794641 1.033435,5.30443 3.05756,10.489144 4.70683,12.056356 0.276367,0.262616 0.996532,0.631247 1.600368,0.819185 1.401452,0.43618 2.505224,1.08472 3.207618,1.88471 1.058145,1.20516 0.981169,1.23773 -3.599677,1.52332 -3.650356,0.22758 -47.960741,0.36295 -50.686496,0.15485 z"
         id="path44634"
         transform="scale(0.26458333)" />
      <path
         style="fill:#ffffff;stroke-width:0.176777;filter:url(#filter45826-8)"
         d="m 39.59798,113.11978 c -4.456831,-0.29973 -6.195958,-0.6584 -6.97632,-1.43876 -0.438987,-0.43899 -0.477778,-0.58005 -0.411494,-1.49642 0.121236,-1.67607 0.540577,-1.9218 3.85228,-2.2574 3.249678,-0.32931 16.849368,-0.5517 35.974057,-0.58826 18.710889,-0.0358 20.855577,0.0217 22.715805,0.60841 2.203099,0.69488 2.654306,3.5633 0.660148,4.1967 -0.98299,0.31223 -3.260877,0.5444 -7.200885,0.73395 -3.557023,0.17113 -46.489178,0.38465 -48.613591,0.24178 z"
         id="path44774"
         transform="scale(0.26458333)" />
    </g>
  </g>
</svg>
