<?xml version="1.0" encoding="UTF-8" standalone="no"?>
<!-- Created with Inkscape (http://www.inkscape.org/) -->

<svg
   width="31.999998"
   height="31.999998"
   viewBox="0 0 8.466666 8.4666661"
   version="1.1"
   id="svg5"
   inkscape:export-filename="C:\Users\bmill\projects\chess2-canvas\src\assets\E_RW.svg"
   inkscape:export-xdpi="96"
   inkscape:export-ydpi="96"
   sodipodi:docname="a_r.svg"
   xmlns:inkscape="http://www.inkscape.org/namespaces/inkscape"
   xmlns:sodipodi="http://sodipodi.sourceforge.net/DTD/sodipodi-0.dtd"
   xmlns="http://www.w3.org/2000/svg"
   xmlns:svg="http://www.w3.org/2000/svg">
  <sodipodi:namedview
     id="namedview7"
     pagecolor="#505050"
     bordercolor="#ffffff"
     borderopacity="1"
     inkscape:pageshadow="0"
     inkscape:pageopacity="0"
     inkscape:pagecheckerboard="1"
     inkscape:deskcolor="#505050"
     inkscape:document-units="mm"
     showgrid="false" />
  <defs
     id="defs2">
    <filter
       style="color-interpolation-filters:sRGB"
       inkscape:label="Invert"
       id="filter164487"
       x="0"
       y="0"
       width="1"
       height="1">
      <feColorMatrix
         type="hueRotate"
         values="180"
         result="color1"
         id="feColorMatrix164483" />
      <feColorMatrix
         values="-1 0 0 0 1 0 -1 0 0 1 0 0 -1 0 1 -0.21 -0.72 -0.07 2 0 "
         result="color2"
         id="feColorMatrix164485" />
    </filter>
    <filter
       style="color-interpolation-filters:sRGB"
       inkscape:label="Invert"
       id="filter164493"
       x="0"
       y="0"
       width="1"
       height="1">
      <feColorMatrix
         type="hueRotate"
         values="180"
         result="color1"
         id="feColorMatrix164489" />
      <feColorMatrix
         values="-1 0 0 0 1 0 -1 0 0 1 0 0 -1 0 1 -0.21 -0.72 -0.07 2 0 "
         result="color2"
         id="feColorMatrix164491" />
    </filter>
    <filter
       style="color-interpolation-filters:sRGB"
       inkscape:label="Invert"
       id="filter164499"
       x="0"
       y="0"
       width="1"
       height="1">
      <feColorMatrix
         type="hueRotate"
         values="180"
         result="color1"
         id="feColorMatrix164495" />
      <feColorMatrix
         values="-1 0 0 0 1 0 -1 0 0 1 0 0 -1 0 1 -0.21 -0.72 -0.07 2 0 "
         result="color2"
         id="feColorMatrix164497" />
    </filter>
  </defs>
  <g
     inkscape:label="Layer 1"
     inkscape:groupmode="layer"
     id="layer1">
    <g
       inkscape:label="Layer 1"
       id="layer1-6"
       transform="translate(0.11288508,-11.602184)">
      <g
         inkscape:label="Layer 1"
         id="layer1-68"
         transform="matrix(0.32213776,0,0,0.31099539,-1.3424544,9.9952801)">
        <path
           style="fill:#000000;stroke-width:0.264583;filter:url(#filter164499)"
           d="M 7.6832075,30.27798 C 7.0582098,29.840214 6.9045369,28.869656 7.3842641,28.38993 7.5933344,28.180859 7.5907576,27.946493 7.374956,27.543263 6.9768132,26.799326 7.3626132,26.112014 8.4750845,25.583354 c 1.6373925,-0.77811 3.1670545,-2.912402 4.5312205,-6.32228 0.8749,-2.186905 0.891785,-2.053081 -0.369088,-2.92531 -4.8375981,-3.346491 -0.142512,-9.0895267 6.123539,-7.4903222 4.90559,1.2519912 5.864954,5.7388852 1.713404,8.0134992 -1.213447,0.664841 2.621199,7.528309 4.832013,8.648613 1.497566,0.758874 1.809607,1.301099 1.244814,2.163079 -0.247018,0.377 -0.299896,0.672209 -0.138292,0.772084 0.474289,0.293126 0.274931,1.414076 -0.326397,1.835263 -0.502987,0.352304 -1.833869,0.411877 -9.201546,0.411877 -7.3676765,0 -8.6985584,-0.05957 -9.2015445,-0.411877 z M 26.012877,29.234649 c 0,-0.517401 -0.19963,-0.530717 -8.978007,-0.59889 -9.1567749,-0.07111 -9.5841042,-0.029 -9.224136,0.909064 0.2604878,0.67882 18.202143,0.373086 18.202143,-0.310174 z m -0.107124,-1.88241 c 0.379282,-0.457007 -0.451202,-1.424882 -1.222618,-1.424882 -1.021526,0 -4.83491,-6.19379 -5.294194,-8.598957 -0.139095,-0.728409 -0.06417,-0.829866 0.91019,-1.232473 2.988237,-1.234747 2.79297,-4.742592 -0.345346,-6.2038973 -5.843446,-2.7209053 -12.0142651,3.1479263 -6.5305,6.2109103 1.29613,0.72396 1.295923,0.764096 -0.02031,3.929517 -1.072045,2.578166 -2.697373,5.032368 -3.6944162,5.578469 -1.6342557,0.895117 -1.9728488,1.268228 -1.5802207,1.741313 0.5377376,0.647936 17.2396799,0.647936 17.7774179,0 z M 11.625485,26.660571 c 0.17358,-0.324338 1.1898,-1.507424 2.258267,-2.629081 2.176511,-2.28486 2.585868,-3.488867 1.296246,-3.812542 -0.355531,-0.08923 -0.77225,-0.08447 -0.926041,0.01057 -0.153792,0.09505 -0.279621,0.04673 -0.279621,-0.107382 0,-0.384881 1.671784,-0.354664 2.06375,0.0373 0.815937,0.815937 -0.103725,2.979736 -1.905808,4.484027 -0.461536,0.385267 -1.070145,1.129408 -1.352466,1.653646 -0.298183,0.553692 -0.713769,0.95316 -0.991619,0.95316 -0.412687,0 -0.43501,-0.0809 -0.162708,-0.589703 z m 3.188295,-0.526238 c -0.334664,-1.318475 -0.235715,-1.545152 0.30249,-0.692953 0.641933,1.016443 0.801083,1.808894 0.363287,1.808894 -0.228405,0 -0.496644,-0.449609 -0.665777,-1.115941 z m 3.393889,0.693743 c 0,-0.518753 0.826873,-1.959052 1.124688,-1.959052 0.119266,0 0.0936,0.230298 -0.05705,0.511773 -0.15064,0.281475 -0.273892,0.817256 -0.273892,1.190625 0,0.427035 -0.147219,0.678852 -0.396875,0.678852 -0.218281,0 -0.396875,-0.189989 -0.396875,-0.422198 z m 3.073124,-0.305406 c -0.209027,-0.400182 -0.763198,-1.084792 -1.231491,-1.521354 -2.068853,-1.928671 -2.931738,-3.963436 -2.0533,-4.841875 0.364638,-0.364638 1.699397,-0.4284 1.907837,-0.09114 0.07694,0.1245 -0.124388,0.177077 -0.447406,0.116838 -2.042518,-0.380904 -1.819113,1.540623 0.428905,3.689042 1.504729,1.438062 2.550064,2.738694 2.553921,3.177654 0.0044,0.499239 -0.817361,0.12388 -1.158466,-0.529167 z M 14.635794,15.211165 c -1.059822,-0.374743 -2.778125,-1.958746 -2.778125,-2.560991 0,-0.176204 0.386953,0.05414 0.859896,0.511872 2.274466,2.201323 5.919278,2.253714 8.202083,0.117897 0.520591,-0.48707 0.727604,-0.567838 0.727604,-0.283879 0,1.784041 -4.346786,3.157303 -7.011458,2.215101 z"
           id="path162519" />
        <path
           style="fill:#ffffff;stroke-width:0.125;filter:url(#filter164493)"
           d="m 53.1875,105.05273 c -10.473548,-0.19695 -18.014122,-0.64334 -20.941924,-1.23975 -0.999776,-0.20365 -1.235929,-0.29968 -1.524203,-0.61977 -1.280314,-1.42164 -0.08545,-2.85107 4.653627,-5.567188 2.224024,-1.27466 2.62783,-1.58228 4.097081,-3.121155 2.749551,-2.879842 5.764758,-7.470467 8.582886,-13.067367 1.511422,-3.001733 2.255927,-4.66534 3.872975,-8.654221 2.281662,-5.628325 2.735968,-7.24936 2.440235,-8.707124 C 54.24325,63.460346 54.132304,63.283707 53.456717,62.625 52.971567,62.15197 52.179721,61.588827 51.3125,61.100081 47.411451,58.901539 45.108581,56.759121 43.81539,54.125332 43.007314,52.479556 42.819722,51.665507 42.821534,49.8125 c 0.0012,-1.234189 0.05981,-1.767423 0.278902,-2.537769 1.112914,-3.91307 4.373368,-7.445114 9.019813,-9.771143 2.342213,-1.172523 4.625251,-1.907875 7.44762,-2.398832 1.794522,-0.312161 6.235555,-0.312814 8.119631,-0.0012 4.879254,0.807014 9.1573,2.645756 12.191816,5.240148 4.972613,4.251391 6.244734,10.809351 3.018411,15.560321 -1.483261,2.184201 -3.394736,3.63909 -6.634178,5.049505 -2.503184,1.089855 -3.055399,1.531633 -3.210928,2.568768 -0.117179,0.781402 0.305244,2.908225 0.962096,4.843995 3.338945,9.839997 14.328625,27.358051 18.462914,29.430732 0.252928,0.126802 0.792706,0.263437 1.199509,0.303634 3.075365,0.303877 5.97515,4.606121 3.69786,5.486301 -2.95167,1.14084 -24.121968,1.84308 -44.1875,1.46576 z M 84.625,102.9375 c 0.148319,-0.14832 0.25,-0.41667 0.25,-0.65978 0,-0.86832 -1.211655,-2.866389 -3.162583,-5.21522 -1.318958,-1.587968 -1.831386,-2.133443 -5.460343,-5.8125 -3.186072,-3.230055 -4.622623,-4.864108 -5.714375,-6.5 -2.884539,-4.322219 -2.959642,-7.585454 -0.19309,-8.389713 0.702825,-0.204316 1.139922,-0.201245 3.780391,0.02657 0.599206,0.0517 0.875256,0.02307 1.05156,-0.109052 0.72814,-0.54567 -0.924651,-1.330683 -2.816436,-1.337699 -0.968253,-0.0036 -2.768317,0.325951 -3.500164,0.640784 -1.57641,0.678152 -2.440398,2.725223 -2.12061,5.024417 0.522316,3.755313 3.239156,8.181389 7.876732,12.832194 3.326083,3.33557 4.384457,4.582635 5.649185,6.656339 0.798813,1.30977 1.720428,2.2532 2.660948,2.72393 0.863956,0.43241 1.351725,0.46679 1.698785,0.11973 z m -39.263399,-0.12963 c 0.81744,-0.37088 1.964461,-1.64843 2.929671,-3.263055 1.634187,-2.733705 2.905089,-4.209649 6.713613,-7.796754 2.302927,-2.16904 4.144809,-4.654415 5.428139,-7.324555 0.97383,-2.026182 1.345996,-3.533166 1.293088,-5.236006 -0.0352,-1.132914 -0.08835,-1.409675 -0.388457,-2.0227 -0.45786,-0.935274 -1.018946,-1.407244 -2.05429,-1.728014 -2.524479,-0.782134 -6.239236,-0.529174 -6.482849,0.441456 -0.179119,0.713669 0.443984,1.015533 1.236941,0.59924 0.494179,-0.259437 2.090893,-0.283572 3.087543,-0.04667 2.323126,0.552204 3.219865,1.725939 2.811134,3.679472 C 59.43474,82.506691 57.22234,85.643477 52.387777,90.8125 45.649224,98.017233 43.25,101.05654 43.25,102.38811 c 0,0.33163 0.06557,0.4588 0.28125,0.54549 0.472657,0.18999 1.252585,0.13641 1.830351,-0.12573 z m 13.780801,0.0151 c 0.263934,-0.21423 0.293864,-0.33634 0.28341,-1.15625 -0.0093,-0.72594 -0.102522,-1.15559 -0.448147,-2.06442 -0.825889,-2.171695 -2.858596,-5.3523 -3.420633,-5.3523 -0.397053,0 -0.317131,1.722435 0.172578,3.719265 0.971037,3.959495 2.258535,5.790595 3.412792,4.853715 z m 11.918388,-0.0315 c 0.510696,-0.40171 0.708564,-1.01103 0.825322,-2.54151 0.12248,-1.605489 0.441637,-2.94414 1.005044,-4.215507 0.50297,-1.134985 0.565618,-2.013958 0.14778,-2.073429 C 72.044416,93.819512 68.75,99.462302 68.75,101.3073 c 0,1.33146 1.378981,2.21717 2.31079,1.48421 z M 66.25,58.491826 c 2.349442,-0.272007 4.374699,-0.71567 6.525376,-1.429477 5.321401,-1.766172 8.760504,-4.601832 9.054704,-7.465922 0.08457,-0.823332 -0.04307,-1.158927 -0.440804,-1.158927 -0.307037,0 -1.315116,0.73415 -2.576776,1.876577 C 74.540969,54.18193 68.736642,56.276197 63,56.019407 57.397251,55.76861 52.635585,53.780096 48.357782,49.904689 46.457452,48.183114 45.569054,47.5625 45.00498,47.5625 c -0.307765,0 -0.327575,0.262814 -0.07398,0.981565 0.328609,0.931379 1.205045,2.058835 2.92942,3.768435 2.26218,2.242797 4.745421,4.07816 6.666646,4.927316 1.346708,0.595228 3.930573,1.203881 5.785438,1.362815 1.398009,0.119789 4.435357,0.06311 5.9375,-0.110805 z"
           id="path163476"
           transform="scale(0.26458333)" />
        <path
           style="fill:#ffffff;stroke-width:0.125;filter:url(#filter164487)"
           d="m 43,112.93988 c -6.597736,-0.17111 -11.348673,-0.53789 -12.675677,-0.97858 -0.697484,-0.23163 -0.925045,-0.54043 -1.042263,-1.41436 -0.05821,-0.434 -0.0178,-0.53087 0.376674,-0.90291 0.719146,-0.67824 2.058227,-0.95792 5.903766,-1.23305 4.332198,-0.30995 48.915287,-0.0875 56.3125,0.28096 2.699732,0.13448 4.339156,0.29679 5.215672,0.51637 1.055536,0.26443 1.53549,1.15906 0.815578,1.52022 -1.742634,0.87425 -11.854528,1.64353 -27.40625,2.08497 -6.12405,0.17383 -22.728288,0.25014 -27.5,0.12638 z"
           id="path163616"
           transform="scale(0.26458333)" />
      </g>
    </g>
  </g>
</svg>
