<?xml version="1.0" encoding="UTF-8" standalone="no"?>
<!-- Created with Inkscape (http://www.inkscape.org/) -->

<svg
   width="31.999998"
   height="31.999998"
   viewBox="0 0 8.466666 8.4666661"
   version="1.1"
   id="svg5"
   xmlns:inkscape="http://www.inkscape.org/namespaces/inkscape"
   xmlns:sodipodi="http://sodipodi.sourceforge.net/DTD/sodipodi-0.dtd"
   xmlns="http://www.w3.org/2000/svg"
   xmlns:svg="http://www.w3.org/2000/svg">
  <sodipodi:namedview
     id="namedview7"
     pagecolor="#505050"
     bordercolor="#ffffff"
     borderopacity="1"
     inkscape:pageshadow="0"
     inkscape:pageopacity="0"
     inkscape:pagecheckerboard="1"
     inkscape:deskcolor="#505050"
     inkscape:document-units="mm"
     showgrid="false" />
  <defs
     id="defs2">
    <filter
       style="color-interpolation-filters:sRGB"
       inkscape:label="Invert"
       id="filter2968"
       x="0"
       y="0"
       width="1"
       height="1">
      <feColorMatrix
         values="1 0 0 0 0 0 1 0 0 0 0 0 1 0 0 -0.21 -0.72 -0.07 2 0 "
         result="fbSourceGraphic"
         id="feColorMatrix2966" />
      <feColorMatrix
         result="fbSourceGraphicAlpha"
         in="fbSourceGraphic"
         values="0 0 0 -1 0 0 0 0 -1 0 0 0 0 -1 0 0 0 0 1 0"
         id="feColorMatrix3051" />
      <feColorMatrix
         id="feColorMatrix3053"
         values="1 0 0 0 0 0 1 0 0 0 0 0 1 0 0 -0.21 -0.72 -0.07 2 0 "
         result="fbSourceGraphic"
         in="fbSourceGraphic" />
      <feColorMatrix
         result="fbSourceGraphicAlpha"
         in="fbSourceGraphic"
         values="0 0 0 -1 0 0 0 0 -1 0 0 0 0 -1 0 0 0 0 1 0"
         id="feColorMatrix3136" />
      <feColorMatrix
         id="feColorMatrix3138"
         type="hueRotate"
         values="180"
         result="color1"
         in="fbSourceGraphic" />
      <feColorMatrix
         id="feColorMatrix3140"
         values="-1 0 0 0 1 0 -1 0 0 1 0 0 -1 0 1 -0.21 -0.72 -0.07 2 0 "
         result="color2" />
    </filter>
    <filter
       style="color-interpolation-filters:sRGB"
       inkscape:label="Invert"
       id="filter2972"
       x="0"
       y="0"
       width="1"
       height="1">
      <feColorMatrix
         values="1 0 0 0 0 0 1 0 0 0 0 0 1 0 0 -0.21 -0.72 -0.07 2 0 "
         result="fbSourceGraphic"
         id="feColorMatrix2970" />
      <feColorMatrix
         result="fbSourceGraphicAlpha"
         in="fbSourceGraphic"
         values="0 0 0 -1 0 0 0 0 -1 0 0 0 0 -1 0 0 0 0 1 0"
         id="feColorMatrix3055" />
      <feColorMatrix
         id="feColorMatrix3057"
         values="1 0 0 0 0 0 1 0 0 0 0 0 1 0 0 -0.21 -0.72 -0.07 2 0 "
         result="fbSourceGraphic"
         in="fbSourceGraphic" />
      <feColorMatrix
         result="fbSourceGraphicAlpha"
         in="fbSourceGraphic"
         values="0 0 0 -1 0 0 0 0 -1 0 0 0 0 -1 0 0 0 0 1 0"
         id="feColorMatrix3142" />
      <feColorMatrix
         id="feColorMatrix3144"
         type="hueRotate"
         values="180"
         result="color1"
         in="fbSourceGraphic" />
      <feColorMatrix
         id="feColorMatrix3146"
         values="-1 0 0 0 1 0 -1 0 0 1 0 0 -1 0 1 -0.21 -0.72 -0.07 2 0 "
         result="color2" />
    </filter>
    <filter
       style="color-interpolation-filters:sRGB"
       inkscape:label="Invert"
       id="filter2976"
       x="0"
       y="0"
       width="1"
       height="1">
      <feColorMatrix
         values="1 0 0 0 0 0 1 0 0 0 0 0 1 0 0 -0.21 -0.72 -0.07 2 0 "
         result="fbSourceGraphic"
         id="feColorMatrix2974" />
      <feColorMatrix
         result="fbSourceGraphicAlpha"
         in="fbSourceGraphic"
         values="0 0 0 -1 0 0 0 0 -1 0 0 0 0 -1 0 0 0 0 1 0"
         id="feColorMatrix3059" />
      <feColorMatrix
         id="feColorMatrix3061"
         values="1 0 0 0 0 0 1 0 0 0 0 0 1 0 0 -0.21 -0.72 -0.07 2 0 "
         result="fbSourceGraphic"
         in="fbSourceGraphic" />
      <feColorMatrix
         result="fbSourceGraphicAlpha"
         in="fbSourceGraphic"
         values="0 0 0 -1 0 0 0 0 -1 0 0 0 0 -1 0 0 0 0 1 0"
         id="feColorMatrix3148" />
      <feColorMatrix
         id="feColorMatrix3150"
         type="hueRotate"
         values="180"
         result="color1"
         in="fbSourceGraphic" />
      <feColorMatrix
         id="feColorMatrix3152"
         values="-1 0 0 0 1 0 -1 0 0 1 0 0 -1 0 1 -0.21 -0.72 -0.07 2 0 "
         result="color2" />
    </filter>
    <filter
       style="color-interpolation-filters:sRGB"
       inkscape:label="Invert"
       id="filter2980"
       x="0"
       y="0"
       width="1"
       height="1">
      <feColorMatrix
         values="1 0 0 0 0 0 1 0 0 0 0 0 1 0 0 -0.21 -0.72 -0.07 2 0 "
         result="fbSourceGraphic"
         id="feColorMatrix2978" />
      <feColorMatrix
         result="fbSourceGraphicAlpha"
         in="fbSourceGraphic"
         values="0 0 0 -1 0 0 0 0 -1 0 0 0 0 -1 0 0 0 0 1 0"
         id="feColorMatrix3063" />
      <feColorMatrix
         id="feColorMatrix3065"
         values="1 0 0 0 0 0 1 0 0 0 0 0 1 0 0 -0.21 -0.72 -0.07 2 0 "
         result="fbSourceGraphic"
         in="fbSourceGraphic" />
      <feColorMatrix
         result="fbSourceGraphicAlpha"
         in="fbSourceGraphic"
         values="0 0 0 -1 0 0 0 0 -1 0 0 0 0 -1 0 0 0 0 1 0"
         id="feColorMatrix3154" />
      <feColorMatrix
         id="feColorMatrix3156"
         type="hueRotate"
         values="180"
         result="color1"
         in="fbSourceGraphic" />
      <feColorMatrix
         id="feColorMatrix3158"
         values="-1 0 0 0 1 0 -1 0 0 1 0 0 -1 0 1 -0.21 -0.72 -0.07 2 0 "
         result="color2" />
    </filter>
  </defs>
  <g
     inkscape:label="Layer 1"
     inkscape:groupmode="layer"
     id="layer1">
    <g
       inkscape:label="Layer 1"
       id="layer1-2"
       transform="matrix(0.30924005,0,0,0.2824841,-1.5268981,-0.83697314)">
      <path
         style="fill:#000000;stroke-width:0.264583;filter:url(#filter2980)"
         d="m 7.0362271,30.521458 c -0.4136549,-0.457083 -0.444132,-0.666284 -0.1937168,-1.329711 0.2009497,-0.532376 0.2154092,-1.063511 0.044658,-1.64039 -0.2717477,-0.918094 -0.066729,-3.276396 0.3047953,-3.50601 0.1245515,-0.07698 0.1674907,-0.702188 0.095421,-1.389358 -0.1402136,-1.336903 0.3406896,-2.629446 0.9296317,-2.49861 0.2373946,0.05274 0.2821706,-0.152173 0.1573916,-0.720287 -0.1336116,-0.608329 0.02438,-1.16692 0.675638,-2.388811 0.467516,-0.877149 0.940742,-1.594816 1.0516141,-1.594816 0.35079,0 1.299901,-1.828447 1.034315,-1.992589 -0.138211,-0.08542 -0.251294,-0.310112 -0.251294,-0.499317 0,-0.64439 2.056785,-2.683096 3.47784,-3.4472724 0.779324,-0.4190827 1.802342,-1.0946695 2.273374,-1.5013037 0.868462,-0.7497285 1.288043,-0.8922884 4.832119,-1.6417942 1.091406,-0.2308119 3.055938,-0.6714762 4.365625,-0.9792536 1.309687,-0.3077776 2.619375,-0.5569368 2.910417,-0.5536872 0.795813,0.00888 2.061442,1.5408862 1.877716,2.2729118 -0.0824,0.3282876 -0.261139,1.3830069 -0.397206,2.3438201 -0.353187,2.4939492 -0.520682,2.6536302 -1.983354,1.8908442 -0.694885,-0.362385 -0.813678,-0.358355 -1.25677,0.04264 -0.599332,0.542389 -0.62044,1.345407 -0.07143,2.717517 0.350745,0.876597 0.531479,1.03693 1.124479,0.997542 0.388609,-0.02581 0.842507,-0.22103 1.008663,-0.433818 0.253259,-0.324344 0.370885,-0.3298 0.727604,-0.03375 0.587719,0.487763 0.533107,1.932275 -0.103661,2.741792 -0.291041,0.369999 -0.529166,0.908647 -0.529166,1.196994 0,0.288348 -0.219573,0.795428 -0.487937,1.126844 -1.044514,1.289923 -3.398401,0.412259 -3.833973,-1.429525 -0.228445,-0.965966 -0.974559,-1.336315 -1.37778,-0.683889 -0.09607,0.155441 -0.345727,0.21698 -0.554797,0.136752 -0.21639,-0.08304 -0.452976,0.05165 -0.549251,0.312691 -0.233991,0.634445 -0.661345,0.873131 -1.024165,0.572017 -0.220464,-0.182968 -0.353423,0.111687 -0.4796,1.062854 -0.306103,2.307521 0.377309,3.682477 2.115476,4.256123 1.344042,0.443574 3.004043,2.616172 3.717159,4.864993 0.353454,1.114626 0.157745,1.822945 -0.58213,2.106862 -0.234226,0.08988 -4.50533,0.163419 -9.491343,0.163419 -8.8033052,0 -9.0796736,-0.01569 -9.5563627,-0.542422 z M 25.812,30.374114 c 0.542529,-0.208187 0.542529,-1.322697 0,-1.530884 -0.746529,-0.28647 -17.5692868,-0.181287 -18.1197124,0.113292 -0.2814751,0.15064 -0.5117727,0.424484 -0.5117727,0.608542 0,0.916101 0.5204312,0.96965 9.4239851,0.96965 4.833941,0 8.977316,-0.07227 9.2075,-0.1606 z M 11.003744,27.90924 c -0.138245,-0.134323 -0.608542,-0.283152 -1.0451041,-0.330729 -0.639706,-0.06972 -0.91014,-0.317571 -1.393482,-1.27713 -0.3298533,-0.654844 -0.7168064,-1.230313 -0.8598962,-1.27882 -0.2894719,-0.09813 -0.3679706,2.670319 -0.083774,2.954513 0.097014,0.09701 0.9542642,0.17639 1.9050002,0.17639 1.0614901,0 1.6316061,-0.09425 1.4772561,-0.244224 z m 6.64466,-1.111621 c 2.021558,-1.58868 2.505701,-1.588871 0.782314,-3.18e-4 -0.65782,0.606368 -1.196037,1.159556 -1.196037,1.229322 0,0.425762 1.355109,7.93e-4 2.188675,-0.686171 0.542478,-0.447159 0.986325,-0.699861 0.986325,-0.561564 0,0.138297 -0.178594,0.399668 -0.396875,0.580826 -0.691084,0.573548 -0.435875,0.79375 0.919942,0.79375 1.116971,0 1.383414,-0.10164 1.755632,-0.669716 0.513055,-0.783021 0.811728,-0.690183 0.379262,0.117888 -0.282838,0.528489 -0.233388,0.551828 1.169188,0.551828 1.494252,0 1.77371,-0.207767 1.067642,-0.79375 -0.218281,-0.181158 -0.396875,-0.477335 -0.396875,-0.658174 0,-0.602376 -1.135241,-1.782285 -2.094944,-2.177374 -0.52127,-0.214595 -1.19891,-0.621909 -1.505866,-0.905142 -0.556694,-0.513671 -0.560199,-0.512582 -1.389062,0.431442 -1.008459,1.148571 -1.05676,0.962912 -0.151404,-0.581961 0.93301,-1.592062 0.662536,-2.052177 -0.36915,-0.627977 -0.993231,1.371116 -1.138134,1.112646 -0.17272,-0.308089 0.780915,-1.14922 1.046018,-2.286644 0.663242,-2.845641 -0.241566,-0.352778 -0.303538,-0.352778 -0.557746,0 -0.218931,0.303823 -0.245559,0.210771 -0.113569,-0.396875 0.219779,-1.011804 0.664136,-1.500222 0.664136,-0.72999 0,0.311557 0.119063,0.640053 0.264584,0.72999 0.149373,0.09232 0.264583,-0.123803 0.264583,-0.496328 0,-0.362917 0.133664,-0.995022 0.297031,-1.404677 l 0.297032,-0.744829 0.331269,0.7759 c 0.299749,0.702072 0.347301,0.725386 0.499763,0.245022 0.09267,-0.291983 0.539742,-0.879262 0.993492,-1.305066 0.671615,-0.630253 0.769431,-0.666743 0.526122,-0.19627 -0.429843,0.831161 -0.390566,0.882398 0.534579,0.697369 0.940786,-0.188157 1.547795,0.363287 1.547795,1.406112 0,1.23043 2.337067,1.961788 2.901109,0.907869 0.483457,-0.903351 0.332888,-1.340311 -0.461852,-1.340311 -0.550889,0 -0.81384,-0.182809 -1.04657,-0.727604 -0.170955,-0.400182 -0.516673,-1.02526 -0.768261,-1.389062 -0.251589,-0.363802 -0.02212,-0.170208 0.509935,0.430209 0.532054,0.600417 1.217689,1.157128 1.52364,1.237135 0.731597,0.191317 1.575332,-0.657929 1.575332,-1.585622 0,-0.621618 -0.042,-0.657655 -0.330729,-0.283807 -0.209804,0.271649 -0.669319,0.410243 -1.256771,0.379052 -0.811887,-0.04311 -0.999426,-0.194419 -1.521354,-1.227463 -0.871298,-1.724551 -0.792236,-2.927518 0.260017,-3.956291 0.764788,-0.7477214 0.888725,-0.7905754 1.170789,-0.404828 0.274624,0.375572 0.328702,0.334197 0.417764,-0.3196307 l 0.102306,-0.7510462 0.410409,0.8933489 c 0.496178,1.08005 0.696854,0.835455 0.778258,-0.9485865 0.05463,-1.197194 -0.02418,-1.4197909 -0.712237,-2.0119961 -0.425513,-0.3662309 -0.676219,-0.763521 -0.557128,-0.8828672 0.119094,-0.1193461 0.440087,0.078885 0.71332,0.4405122 0.366133,0.484583 0.574767,0.5798005 0.7933,0.362046 C 30.156851,6.8701836 30.067197,6.598185 29.595932,6.050307 28.983882,5.3387565 28.908825,5.3203484 27.792347,5.6079555 27.151621,5.7730079 26.254022,5.978651 25.797688,6.0649401 c -0.666375,0.1260057 -0.862081,0.3187885 -0.994192,0.9793454 -0.115431,0.5771528 -0.03285,0.967914 0.276863,1.310148 0.242746,0.2682306 0.36148,0.567567 0.263855,0.6651924 -0.09763,0.097625 -0.325099,-0.011033 -0.505496,-0.2414635 C 24.65832,8.547732 24.146304,8.2840226 23.700905,8.1921413 23.067297,8.0614345 22.779441,8.1514457 22.377988,8.6058118 l -0.513099,0.5807275 0.661459,-0.1801987 c 1.598381,-0.4354409 2.126592,-0.3981725 0.845444,0.059651 -1.592139,0.5689573 -2.508915,1.3246104 -2.97645,2.4533414 -0.17681,0.426855 -0.373282,0.724288 -0.436607,0.660963 -0.172589,-0.172588 0.879852,-2.135079 1.35765,-2.5316157 0.228917,-0.1899844 0.416213,-0.4948627 0.416213,-0.6775074 0,-0.1826448 0.181471,-0.4826889 0.403268,-0.6667648 0.221798,-0.1840759 0.341591,-0.396362 0.266206,-0.4717471 -0.07539,-0.075385 -0.405684,0.09041 -0.733998,0.3684326 l -0.596935,0.5054959 0.504028,-0.5953124 c 0.379886,-0.4486865 0.78718,-0.5953125 1.653646,-0.5953125 0.973229,0 1.149618,-0.081191 1.149618,-0.5291666 0,-0.2910417 -0.12609,-0.5291667 -0.280198,-0.5291667 -0.154109,0 -0.199273,0.1309412 -0.100363,0.2909803 0.128494,0.207908 0.03453,0.213215 -0.329132,0.01859 -0.370472,-0.1982708 -1.045123,-0.1395357 -2.479325,0.2158503 -1.083696,0.268533 -2.307927,0.5626393 -2.720512,0.65357 -0.412585,0.090931 -1.007897,0.4419462 -1.322916,0.7800347 -0.315019,0.3380883 -1.202115,0.9327573 -1.971324,1.3214868 -1.42566,0.7204746 -3.49623,2.4053686 -3.49623,2.8450026 0,0.138608 0.216189,0.127404 0.502953,-0.02607 0.470769,-0.251948 0.484859,-0.210217 0.220191,0.652149 -0.155518,0.506726 -0.388542,0.921321 -0.51783,0.921321 -0.504001,0 -1.325443,2.439989 -1.181852,3.51054 0.159025,1.185618 1.542998,2.839459 2.376128,2.839459 0.276118,0 0.556787,0.209376 0.623707,0.465279 0.17628,0.674093 2.00091,1.651327 2.766318,1.48158 0.502636,-0.11147 0.551941,-0.08182 0.237468,0.142805 -0.570159,0.407259 -1.469119,0.356154 -1.852083,-0.105289 -0.181157,-0.218281 -0.495945,-0.396874 -0.699527,-0.396874 -0.203583,0 -0.507868,-0.302257 -0.676189,-0.671682 -0.190406,-0.417894 -0.450043,-0.616421 -0.687166,-0.525429 -0.439102,0.1685 -2.089887,-1.466958 -2.458006,-2.435185 -0.132886,-0.349517 -0.245232,-0.955157 -0.249657,-1.345866 -0.0069,-0.608759 -0.0465,-0.644367 -0.2768631,-0.24891 -0.376317,0.646012 -0.0382,2.154863 0.7434811,3.317783 l 0.66091,0.983246 -0.684354,-0.63422 C 10.149665,20.158963 9.7040929,19.456595 9.5358999,18.946966 9.2934809,18.21243 9.1819119,18.106467 8.9976359,18.43575 c -0.137519,0.245733 -0.12382,0.701125 0.03354,1.11502 0.146301,0.384803 0.268618,1.138374 0.271813,1.674604 0.0069,1.161576 0.695748,2.765915 1.6965911,3.951526 0.399238,0.472942 0.610373,0.859895 0.469188,0.859895 -0.35123,0 -1.5179041,-1.566485 -2.0944041,-2.812143 -0.260733,-0.563371 -0.622888,-1.119526 -0.804789,-1.235897 -0.181902,-0.116372 -0.3307297,-0.391289 -0.3307297,-0.610928 0,-0.219761 -0.1291211,-0.319541 -0.2871322,-0.221885 -0.466545,0.288341 -0.012017,3.336725 0.5813549,3.898975 0.27474,0.26033 0.499527,0.647283 0.499527,0.859896 0,0.598597 0.9883361,1.444901 1.6873951,1.444901 0.345984,0 0.777281,0.178594 0.958438,0.396875 0.238472,0.28734 0.869674,0.396875 2.287035,0.396875 1.954689,0 1.960274,-0.0021 3.682938,-1.355845 z m -2.001223,-8.900677 c 0,-0.111296 0.238356,-0.647077 0.529681,-1.190625 0.291324,-0.543548 0.465175,-0.988269 0.386334,-0.988269 -0.382466,0 -2.238931,1.101387 -2.238931,1.328294 0,0.142563 -0.119063,0.259206 -0.264584,0.259206 -0.145521,0 -0.264583,-0.375641 -0.264583,-0.834757 0,-0.833971 -5.29e-4,-0.834283 -0.568311,-0.33073 l -0.568311,0.504028 0.182758,-1.175733 c 0.182029,-1.171035 0.180599,-1.173778 -0.35773,-0.686597 -0.326432,0.295417 -0.540489,0.363083 -0.540489,0.170855 0,-0.318235 1.295395,-1.591669 1.635176,-1.607455 0.09898,-0.0046 0.06922,0.377806 -0.06615,0.849788 -0.353096,1.231174 -0.304926,1.460226 0.165764,0.788222 0.226533,-0.323421 0.548002,-0.588038 0.714375,-0.588038 0.218606,0 0.214445,0.08805 -0.015,0.3175 -0.174625,0.174625 -0.3175,0.633497 -0.3175,1.019716 v 0.702216 l 1.389063,-0.655472 c 2.168264,-1.023163 2.960224,-1.906829 1.71979,-1.918937 -0.740809,-0.0072 -2.84427,-0.942363 -2.84427,-1.264472 0,-0.416615 1.550059,-2.395229 2.112071,-2.6960086 0.572539,-0.3064137 2.288918,-0.1087588 2.536674,0.2921186 0.07974,0.129024 -0.286589,0.234589 -0.814066,0.234589 -1.361723,0 -3.305513,1.169049 -3.305513,1.988026 0,0.458062 1.204983,0.922391 2.3937,0.922391 1.301954,0 1.317505,0.265187 0.119842,2.043615 -0.989383,1.469149 -1.122578,1.805028 -0.595313,1.501211 0.181901,-0.104814 0.04209,0.126284 -0.310704,0.513551 -0.678617,0.744941 -0.813775,0.828278 -0.813775,0.501767 z"
         id="path1651" />
      <path
         style="fill:#ffffff;stroke-width:0.16764;filter:url(#filter2976)"
         d="m 66.230814,104.93178 c -0.238277,-0.23827 -0.207668,-0.32816 0.33136,-0.973 0.326638,-0.39077 2.068893,-2.13394 3.871677,-3.87373 3.322713,-3.206602 4.277415,-4.318158 3.971528,-4.624045 -0.379315,-0.379314 -2.623304,1.109027 -9.023299,5.984765 -4.132521,3.1483 -4.787094,3.38172 -9.893129,3.52787 -3.637765,0.10412 -7.374731,-0.12565 -8.766721,-0.53903 -0.466127,-0.13842 -1.169176,-0.52043 -1.562332,-0.8489 -1.131868,-0.94565 -2.144158,-1.37564 -3.689716,-1.5673 -3.100751,-0.3845 -6.02544,-2.826545 -6.435814,-5.373757 -0.160748,-0.99777 -0.572343,-1.778494 -1.568966,-2.976058 -0.997937,-1.199143 -1.361585,-1.893043 -1.918423,-3.660668 -1.102726,-3.500491 -1.64847,-8.967154 -1.051305,-10.530811 0.155523,-0.407228 0.410425,-0.789403 0.56645,-0.849276 0.382784,-0.146886 0.87336,0.479271 0.87336,1.114733 0,0.674146 0.230493,1.068677 1.262198,2.160482 1.122412,1.187797 1.752265,2.183845 3.2443,5.13053 2.033311,4.015673 5.471038,8.848057 6.940543,9.75626 0.742311,0.458775 0.958344,0.451204 0.958344,-0.03358 0,-0.416021 -0.788595,-1.621347 -2.251453,-3.441222 -2.486735,-3.093635 -4.589543,-7.175283 -5.466877,-10.61146 -0.195744,-0.766655 -0.4627,-2.660788 -0.593236,-4.209189 -0.253345,-3.005143 -0.546178,-4.700604 -1.0797,-6.251314 -0.451766,-1.313078 -0.451026,-3.145423 0.0016,-3.887733 0.182704,-0.299657 0.406998,-0.544831 0.498429,-0.544831 0.27565,0 0.654292,0.707714 1.325145,2.476805 0.663193,1.748891 1.758174,3.661513 2.832448,4.947484 0.844388,1.010782 3.380272,3.372851 3.496387,3.256737 0.05114,-0.05114 -0.543052,-1.027565 -1.320435,-2.169822 -0.777384,-1.142258 -1.683742,-2.56273 -2.014129,-3.156604 -1.705134,-3.064992 -2.659029,-6.909104 -2.287272,-9.217503 0.165782,-1.029412 0.901184,-2.583167 1.14988,-2.429464 0.06945,0.04292 0.173875,0.891617 0.23206,1.885991 0.262788,4.491017 1.422767,6.958881 5.055687,10.75601 2.345189,2.451192 4.213114,3.662713 5.325443,3.45404 0.803782,-0.150791 1.548481,0.437028 2.340353,1.847329 0.852684,1.518605 1.705087,2.39185 2.559553,2.62214 1.28779,0.347074 1.62219,0.53386 2.692864,1.504148 1.326958,1.202541 2.379135,1.569209 4.170189,1.453243 1.304805,-0.08448 2.391143,-0.491472 3.250499,-1.217781 0.727866,-0.615176 0.499821,-0.818365 -0.643325,-0.573204 -1.742603,0.373722 -3.636415,-0.04175 -6.315787,-1.385569 -1.402463,-0.703397 -3.296078,-2.092794 -3.901821,-2.862871 -0.18511,-0.235329 -0.544606,-0.826273 -0.79888,-1.313209 -0.583933,-1.118233 -1.053837,-1.45967 -2.28454,-1.659973 -0.54022,-0.08792 -1.296106,-0.311811 -1.67975,-0.497528 -2.40634,-1.164889 -5.395106,-4.780883 -6.72763,-8.1395 -0.930608,-2.345592 -0.687665,-5.809073 0.697977,-9.950602 1.026701,-3.068699 2.082265,-4.843017 3.145443,-5.287242 0.669521,-0.279744 1.375249,-1.571567 2.09412,-3.833249 0.567,-1.783878 0.670357,-2.805971 0.283748,-2.805971 -0.130025,0 -0.714671,0.226254 -1.299213,0.502789 -3.847966,1.820386 -1.107274,-1.810744 4.643616,-6.152303 2.027521,-1.530651 4.446594,-3.074211 6.782785,-4.327952 2.964206,-1.590773 5.539162,-3.319217 7.471674,-5.01538 2.487675,-2.183427 3.264926,-2.509762 9.62764,-4.042231 8.946601,-2.154803 10.456303,-2.459181 12.321564,-2.484211 1.506514,-0.02021 1.791278,0.02686 2.809934,0.464497 0.623443,0.267846 1.182624,0.437901 1.242624,0.3779 0.06,-0.06 0.0214,-0.301557 -0.08578,-0.536791 -0.324958,-0.713203 -0.249932,-1.082483 0.219924,-1.082483 0.562693,0 0.926327,0.742054 0.926327,1.890317 0,1.33561 -0.360546,1.610153 -2.369757,1.804491 -0.863385,0.08351 -2.138588,0.15388 -2.833783,0.156378 -1.573089,0.0057 -3.059166,0.375003 -3.925955,0.975757 -0.694668,0.481461 -3.343766,3.375438 -3.211184,3.50802 0.04208,0.04209 0.743813,-0.478873 1.559395,-1.157683 1.552729,-1.292337 2.396016,-1.865061 3.027918,-2.056432 0.718822,-0.217694 0.436026,0.546212 -0.607564,1.641186 -1.039995,1.091203 -1.52985,1.877782 -1.52985,2.456538 0,0.599903 -0.676576,1.713088 -1.680117,2.764329 -2.284433,2.393019 -5.690864,8.866002 -5.022248,9.543396 0.278275,0.281927 0.715855,-0.300769 1.562003,-2.080018 1.062719,-2.23465 1.760989,-3.334612 2.848708,-4.487473 1.920309,-2.035311 4.222462,-3.440747 8.191727,-5.000949 2.789606,-1.096512 3.449644,-1.472339 2.933567,-1.670377 -0.346746,-0.133058 -2.734918,0.321696 -5.454378,1.038619 -1.230178,0.324309 -2.26817,0.55817 -2.306649,0.519692 -0.145705,-0.145705 2.6314,-2.941892 3.180692,-3.202548 1.736192,-0.823877 5.682178,0.24011 7.38018,1.989975 0.76329,0.786605 1.252201,1.089922 1.756827,1.089922 0.852131,0 0.627699,-1.094586 -0.552486,-2.694538 -0.494949,-0.670992 -0.983322,-1.498401 -1.085275,-1.838688 -0.572778,-1.911764 0.269066,-5.221093 1.525744,-5.997762 0.347664,-0.214869 1.92152,-0.659255 3.919301,-1.106634 1.83609,-0.411171 4.42824,-1.016157 5.76033,-1.344414 3.93429,-0.969499 4.51332,-0.858921 6.34619,1.211944 1.99055,2.249023 2.46114,3.441255 1.65663,4.197055 -0.71901,0.67548 -1.13909,0.500755 -2.56679,-1.067609 -1.42723,-1.56785 -2.20222,-2.141177 -2.78249,-2.058437 -1.03015,0.146886 -0.34989,1.437576 1.98095,3.758581 2.57638,2.565495 2.76698,3.209379 2.4295,8.207023 -0.4218,6.246103 -0.94173,6.523033 -3.18055,1.694045 -0.54515,-1.175859 -1.05523,-2.137067 -1.1335,-2.136017 -0.0783,0.0011 -0.26953,0.905623 -0.42501,2.010163 -0.15548,1.104539 -0.37206,2.175241 -0.48129,2.379338 -0.193,0.36063 -0.22204,0.344357 -1.03061,-0.577439 -0.54767,-0.624368 -0.96066,-0.948524 -1.20847,-0.948524 -1.07953,0 -4.54024,3.374993 -5.536858,5.399706 -1.765868,3.58753 -1.329235,7.204628 1.538678,12.746497 1.07468,2.076677 1.80661,3.003331 2.78594,3.527093 0.62535,0.334445 0.93637,0.371408 3.12524,0.371408 2.22348,0 2.49315,-0.03327 3.16193,-0.39012 0.40212,-0.214565 1.02007,-0.70304 1.37322,-1.085498 0.35315,-0.382458 0.69839,-0.639086 0.76719,-0.570284 0.2618,0.261805 0.25996,2.087648 -0.003,3.114645 -0.35681,1.392796 -0.93989,2.348073 -2.05557,3.367745 -1.11544,1.019446 -2.39182,1.476442 -3.40524,1.21921 -1.16108,-0.294716 -2.57959,-1.413297 -5.42326,-4.276586 -1.55035,-1.561042 -2.860661,-2.79641 -2.91181,-2.745263 -0.05115,0.05115 0.361039,0.832086 0.91597,1.735416 0.55493,0.903332 1.43914,2.509958 1.96492,3.570283 1.44439,2.912912 1.9131,3.298921 4.27468,3.520447 0.80708,0.07571 1.69241,0.253999 1.9674,0.3962 1.09099,0.564173 1.11747,1.951258 0.0764,4.001194 -0.75087,1.478494 -1.49553,2.058965 -3.00036,2.338818 -2.69747,0.501646 -6.517999,-1.246363 -7.597358,-3.476023 -0.221646,-0.457856 -0.408977,-1.298255 -0.495865,-2.224523 -0.227731,-2.427707 -1.149027,-3.976567 -2.76615,-4.650373 -0.766838,-0.319521 -2.619615,-0.36469 -3.774621,-0.09202 -1.051419,0.248212 -2.174715,0.236324 -2.198628,-0.02327 -0.04753,-0.515865 0.09556,-0.955404 0.706708,-2.170914 0.646116,-1.285074 0.793054,-1.810544 0.50628,-1.810544 -0.08109,0 -0.78853,0.560485 -1.572094,1.245524 -2.297003,2.008179 -4.075171,4.266113 -4.733307,6.010396 -0.166381,0.440971 -0.369142,0.842944 -0.450578,0.893274 -0.141298,0.08733 -1.149681,-1.943322 -1.986377,-4.000096 -0.21567,-0.530162 -0.447964,-0.963932 -0.516207,-0.963932 -0.183398,0 -1.460357,3.349893 -1.842632,4.833851 -0.182066,0.706761 -0.372745,1.888527 -0.423731,2.626144 -0.126294,1.827077 -0.332409,2.464407 -0.77566,2.398419 -0.511482,-0.07615 -0.989807,-1.151015 -1.088879,-2.446868 -0.04731,-0.618769 -0.154196,-1.25705 -0.23753,-1.418404 -0.581323,-1.125565 -1.887932,1.151195 -2.565501,4.470381 -0.38664,1.894018 -0.245938,2.067311 0.759993,0.93602 0.953875,-1.072749 1.104471,-1.052672 1.917247,0.255598 0.476273,0.766624 0.502007,0.898998 0.485693,2.498195 -0.02624,2.571467 -0.82326,4.589025 -3.369093,8.528403 -1.865634,2.886849 -2.419795,4.140715 -1.830036,4.140715 0.306309,0 1.034939,-0.82359 2.930009,-3.311866 1.563984,-2.053553 2.718518,-3.226107 3.176527,-3.226107 0.386033,0 0.159003,1.303779 -0.457419,2.626849 -0.293419,0.629782 -1.244585,2.427507 -2.113706,3.994944 -1.595697,2.877803 -2.017044,3.939548 -1.563384,3.939548 0.240477,0 2.123363,-1.861027 3.982995,-3.936755 1.159746,-1.294512 1.766316,-1.760249 2.294688,-1.761912 0.19311,-6.7e-4 0.796615,0.389481 1.341123,0.866862 1.430775,1.254392 3.3531,2.460821 5.935405,3.724993 4.18185,2.047234 7.555679,5.39073 8.045411,7.97308 0.231428,1.220317 0.568958,1.785207 1.880772,3.147667 0.642254,0.66705 1.137447,1.30368 1.100427,1.41474 -0.278967,0.8369 -2.696552,1.23092 -6.817504,1.11112 -2.604991,-0.0757 -3.370905,-0.23697 -3.370905,-0.70965 0,-0.12549 0.260604,-0.78292 0.579119,-1.46095 0.699882,-1.48987 0.813905,-2.19898 0.368239,-2.29007 -0.370742,-0.0758 -1.117865,0.59666 -1.826601,1.64401 -1.245085,1.83996 -2.14177,2.43712 -4.027329,2.68206 -2.503764,0.32524 -6.312363,0.0993 -7.107434,-0.42166 -0.645702,-0.42308 -0.477732,-0.86832 0.844206,-2.23774 1.257127,-1.30227 1.614301,-1.80558 1.614301,-2.274779 0,-0.663818 -1.175167,-0.06513 -3.812939,1.942489 -1.924317,1.4646 -4.275456,2.68479 -5.9102,3.06726 -1.383274,0.32364 -1.756829,0.32317 -2.082623,-0.003 z M 62.135978,65.470852 c 1.593366,-1.624861 2.628183,-2.941897 2.450838,-3.11924 -0.04818,-0.04818 -0.360023,0.04231 -0.692989,0.201093 -0.332964,0.15878 -0.661314,0.232767 -0.729666,0.164415 -0.202466,-0.202465 0.818641,-1.999931 3.157811,-5.558734 3.255625,-4.953095 4.027349,-6.75754 3.206857,-7.498274 -0.434534,-0.392294 -1.561271,-0.595898 -3.813817,-0.689165 -4.697425,-0.194498 -8.633478,-1.761591 -8.633478,-3.437317 0,-2.485072 5.382076,-6.201977 10.366538,-7.159213 0.676577,-0.129932 1.672419,-0.236241 2.212983,-0.236241 1.240033,0 2.592915,-0.284938 2.855581,-0.601429 0.490388,-0.590882 -1.104902,-1.418204 -3.556508,-1.844415 -1.711291,-0.297508 -4.413528,-0.250333 -5.567213,0.09719 -1.937029,0.583488 -8.490705,8.660282 -8.490705,10.464002 0,1.306027 6.673264,4.343745 10.705825,4.873368 1.054252,0.138461 1.84488,0.328347 1.995887,0.479352 0.635139,0.635141 -0.491528,1.996855 -3.025438,3.656612 -1.243196,0.814316 -9.040802,4.799043 -10.221105,5.223181 -0.267217,0.09603 -0.293193,-0.04729 -0.291381,-1.607629 0.0028,-2.392908 0.353047,-3.614949 1.372433,-4.78825 0.51917,-0.597558 0.539658,-0.912954 0.06528,-1.004927 -0.837903,-0.162452 -1.751013,0.503957 -3.229494,2.356959 -1.465729,1.837022 -1.515197,1.645838 -0.557172,-2.153373 0.75187,-2.981671 0.860745,-4.254018 0.36402,-4.254018 -1.230684,0 -6.231432,5.025197 -6.231432,6.261898 0,0.708098 1.042642,0.331613 2.420289,-0.873934 1.315257,-1.150953 1.507214,-1.136496 1.357824,0.102257 -0.151552,1.256697 -0.904081,6.214307 -1.020353,6.722021 -0.04958,0.216479 -0.0184,0.367355 0.06927,0.33528 0.08768,-0.03207 0.890523,-0.699541 1.784099,-1.48326 1.765156,-1.548143 2.063981,-1.762781 2.227097,-1.599666 0.05911,0.05911 0.156261,1.065579 0.215892,2.236602 0.127868,2.51105 0.403911,3.386432 1.067879,3.386432 0.452988,0 1.098217,-0.522389 1.098217,-0.889135 0,-0.239753 0.759885,-0.987754 1.676404,-1.650187 1.590942,-1.149887 5.281202,-3.115032 6.335309,-3.373696 0.526325,-0.129152 0.488388,-0.02502 -1.48894,4.086766 -1.122384,2.333963 -1.661203,3.643494 -1.661203,4.03734 0,1.219003 0.264883,1.115353 2.204558,-0.862664 z"
         id="path2504"
         transform="matrix(0.26458333,0,0,0.26458333,-0.21389797,0.35123658)" />
      <path
         style="fill:#ffffff;stroke-width:0.0592698;filter:url(#filter2972)"
         d="m 34.13941,104.99654 c -2.736219,-0.13502 -4.247045,-0.35753 -4.536411,-0.66813 -0.628749,-0.67489 -0.837172,-5.677317 -0.379624,-9.111462 0.154687,-1.161004 0.419861,-1.955903 0.652479,-1.955903 0.154145,0 0.742716,0.636867 1.205051,1.303935 0.615756,0.888427 1.260988,1.987562 2.022285,3.444907 1.103402,2.112233 1.637113,2.938773 2.358106,3.651933 0.729238,0.7213 1.497511,1.05324 2.915907,1.25982 1.016239,0.14801 1.73091,0.29831 2.426289,0.51029 0.910283,0.27749 1.710946,0.72806 1.650342,0.92872 -0.06979,0.23107 -0.944408,0.45365 -2.268903,0.57742 -0.880039,0.0822 -4.796307,0.12011 -6.045521,0.0585 z"
         id="path2644"
         transform="matrix(0.26458333,0,0,0.26458333,-0.21389797,0.35123658)" />
      <path
         style="fill:#ffffff;stroke-width:0.0592698;filter:url(#filter2968)"
         d="m 47.356577,114.00103 c -9.460617,-0.0839 -13.905942,-0.30084 -16.352534,-0.79814 -1.653365,-0.33606 -2.440813,-0.75698 -2.80369,-1.49868 -0.139034,-0.28417 -0.167185,-0.42673 -0.186313,-0.94345 -0.02082,-0.56235 -0.0106,-0.63309 0.134139,-0.92893 0.21096,-0.43119 0.835626,-1.09318 1.36675,-1.44842 0.507501,-0.33943 0.665098,-0.37545 2.224054,-0.50828 8.784606,-0.74847 49.733855,-1.07881 62.707458,-0.50586 3.548922,0.15673 4.056965,0.25014 4.607244,0.84712 0.525735,0.57036 0.800664,1.38754 0.801167,2.38136 5.93e-4,0.98239 -0.293356,1.83061 -0.822973,2.37554 -0.495472,0.50981 -0.734774,0.56035 -3.192598,0.67433 -7.056254,0.32721 -31.41153,0.50474 -48.482704,0.35341 z"
         id="path2784"
         transform="matrix(0.26458333,0,0,0.26458333,-0.21389797,0.35123658)" />
    </g>
  </g>
</svg>
