<?xml version="1.0" encoding="UTF-8" standalone="no"?>
<!-- Created with Inkscape (http://www.inkscape.org/) -->

<svg
   width="31.999998"
   height="31.999998"
   viewBox="0 0 8.466666 8.4666661"
   version="1.1"
   id="svg5"
   inkscape:export-filename="C:\Users\bmill\projects\chess2-canvas\src\assets\a_q.svg"
   inkscape:export-xdpi="96"
   inkscape:export-ydpi="96"
   xmlns:inkscape="http://www.inkscape.org/namespaces/inkscape"
   xmlns:sodipodi="http://sodipodi.sourceforge.net/DTD/sodipodi-0.dtd"
   xmlns="http://www.w3.org/2000/svg"
   xmlns:svg="http://www.w3.org/2000/svg">
  <sodipodi:namedview
     id="namedview7"
     pagecolor="#505050"
     bordercolor="#ffffff"
     borderopacity="1"
     inkscape:pageshadow="0"
     inkscape:pageopacity="0"
     inkscape:pagecheckerboard="1"
     inkscape:deskcolor="#505050"
     inkscape:document-units="mm"
     showgrid="false" />
  <defs
     id="defs2">
    <filter
       style="color-interpolation-filters:sRGB"
       inkscape:label="Invert"
       id="filter9751"
       x="0"
       y="0"
       width="1"
       height="1">
      <feColorMatrix
         type="hueRotate"
         values="180"
         result="color1"
         id="feColorMatrix9747" />
      <feColorMatrix
         values="-1 0 0 0 1 0 -1 0 0 1 0 0 -1 0 1 -0.21 -0.72 -0.07 2 0 "
         result="fbSourceGraphic"
         id="feColorMatrix9749" />
      <feColorMatrix
         result="fbSourceGraphicAlpha"
         in="fbSourceGraphic"
         values="0 0 0 -1 0 0 0 0 -1 0 0 0 0 -1 0 0 0 0 1 0"
         id="feColorMatrix10873" />
      <feColorMatrix
         id="feColorMatrix10875"
         type="hueRotate"
         values="180"
         result="color1"
         in="fbSourceGraphic" />
      <feColorMatrix
         id="feColorMatrix10877"
         values="-1 0 0 0 1 0 -1 0 0 1 0 0 -1 0 1 -0.21 -0.72 -0.07 2 0 "
         result="fbSourceGraphic" />
      <feColorMatrix
         result="fbSourceGraphicAlpha"
         in="fbSourceGraphic"
         values="0 0 0 -1 0 0 0 0 -1 0 0 0 0 -1 0 0 0 0 1 0"
         id="feColorMatrix10959" />
      <feColorMatrix
         id="feColorMatrix10961"
         type="hueRotate"
         values="180"
         result="color1"
         in="fbSourceGraphic" />
      <feColorMatrix
         id="feColorMatrix10963"
         values="-1 0 0 0 1 0 -1 0 0 1 0 0 -1 0 1 -0.21 -0.72 -0.07 2 0 "
         result="color2" />
    </filter>
    <filter
       style="color-interpolation-filters:sRGB"
       inkscape:label="Invert"
       id="filter9757"
       x="0"
       y="0"
       width="1"
       height="1">
      <feColorMatrix
         type="hueRotate"
         values="180"
         result="color1"
         id="feColorMatrix9753" />
      <feColorMatrix
         values="-1 0 0 0 1 0 -1 0 0 1 0 0 -1 0 1 -0.21 -0.72 -0.07 2 0 "
         result="fbSourceGraphic"
         id="feColorMatrix9755" />
      <feColorMatrix
         result="fbSourceGraphicAlpha"
         in="fbSourceGraphic"
         values="0 0 0 -1 0 0 0 0 -1 0 0 0 0 -1 0 0 0 0 1 0"
         id="feColorMatrix10879" />
      <feColorMatrix
         id="feColorMatrix10881"
         type="hueRotate"
         values="180"
         result="color1"
         in="fbSourceGraphic" />
      <feColorMatrix
         id="feColorMatrix10883"
         values="-1 0 0 0 1 0 -1 0 0 1 0 0 -1 0 1 -0.21 -0.72 -0.07 2 0 "
         result="fbSourceGraphic" />
      <feColorMatrix
         result="fbSourceGraphicAlpha"
         in="fbSourceGraphic"
         values="0 0 0 -1 0 0 0 0 -1 0 0 0 0 -1 0 0 0 0 1 0"
         id="feColorMatrix10965" />
      <feColorMatrix
         id="feColorMatrix10967"
         type="hueRotate"
         values="180"
         result="color1"
         in="fbSourceGraphic" />
      <feColorMatrix
         id="feColorMatrix10969"
         values="-1 0 0 0 1 0 -1 0 0 1 0 0 -1 0 1 -0.21 -0.72 -0.07 2 0 "
         result="color2" />
    </filter>
    <filter
       style="color-interpolation-filters:sRGB"
       inkscape:label="Invert"
       id="filter9763"
       x="0"
       y="0"
       width="1"
       height="1">
      <feColorMatrix
         type="hueRotate"
         values="180"
         result="color1"
         id="feColorMatrix9759" />
      <feColorMatrix
         values="-1 0 0 0 1 0 -1 0 0 1 0 0 -1 0 1 -0.21 -0.72 -0.07 2 0 "
         result="fbSourceGraphic"
         id="feColorMatrix9761" />
      <feColorMatrix
         result="fbSourceGraphicAlpha"
         in="fbSourceGraphic"
         values="0 0 0 -1 0 0 0 0 -1 0 0 0 0 -1 0 0 0 0 1 0"
         id="feColorMatrix10885" />
      <feColorMatrix
         id="feColorMatrix10887"
         type="hueRotate"
         values="180"
         result="color1"
         in="fbSourceGraphic" />
      <feColorMatrix
         id="feColorMatrix10889"
         values="-1 0 0 0 1 0 -1 0 0 1 0 0 -1 0 1 -0.21 -0.72 -0.07 2 0 "
         result="fbSourceGraphic" />
      <feColorMatrix
         result="fbSourceGraphicAlpha"
         in="fbSourceGraphic"
         values="0 0 0 -1 0 0 0 0 -1 0 0 0 0 -1 0 0 0 0 1 0"
         id="feColorMatrix10971" />
      <feColorMatrix
         id="feColorMatrix10973"
         type="hueRotate"
         values="180"
         result="color1"
         in="fbSourceGraphic" />
      <feColorMatrix
         id="feColorMatrix10975"
         values="-1 0 0 0 1 0 -1 0 0 1 0 0 -1 0 1 -0.21 -0.72 -0.07 2 0 "
         result="color2" />
    </filter>
    <filter
       style="color-interpolation-filters:sRGB"
       inkscape:label="Invert"
       id="filter9769"
       x="0"
       y="0"
       width="1"
       height="1">
      <feColorMatrix
         type="hueRotate"
         values="180"
         result="color1"
         id="feColorMatrix9765" />
      <feColorMatrix
         values="-1 0 0 0 1 0 -1 0 0 1 0 0 -1 0 1 -0.21 -0.72 -0.07 2 0 "
         result="fbSourceGraphic"
         id="feColorMatrix9767" />
      <feColorMatrix
         result="fbSourceGraphicAlpha"
         in="fbSourceGraphic"
         values="0 0 0 -1 0 0 0 0 -1 0 0 0 0 -1 0 0 0 0 1 0"
         id="feColorMatrix10891" />
      <feColorMatrix
         id="feColorMatrix10893"
         type="hueRotate"
         values="180"
         result="color1"
         in="fbSourceGraphic" />
      <feColorMatrix
         id="feColorMatrix10895"
         values="-1 0 0 0 1 0 -1 0 0 1 0 0 -1 0 1 -0.21 -0.72 -0.07 2 0 "
         result="fbSourceGraphic" />
      <feColorMatrix
         result="fbSourceGraphicAlpha"
         in="fbSourceGraphic"
         values="0 0 0 -1 0 0 0 0 -1 0 0 0 0 -1 0 0 0 0 1 0"
         id="feColorMatrix10977" />
      <feColorMatrix
         id="feColorMatrix10979"
         type="hueRotate"
         values="180"
         result="color1"
         in="fbSourceGraphic" />
      <feColorMatrix
         id="feColorMatrix10981"
         values="-1 0 0 0 1 0 -1 0 0 1 0 0 -1 0 1 -0.21 -0.72 -0.07 2 0 "
         result="color2" />
    </filter>
    <filter
       style="color-interpolation-filters:sRGB"
       inkscape:label="Invert"
       id="filter9775"
       x="0"
       y="0"
       width="1"
       height="1">
      <feColorMatrix
         type="hueRotate"
         values="180"
         result="color1"
         id="feColorMatrix9771" />
      <feColorMatrix
         values="-1 0 0 0 1 0 -1 0 0 1 0 0 -1 0 1 -0.21 -0.72 -0.07 2 0 "
         result="fbSourceGraphic"
         id="feColorMatrix9773" />
      <feColorMatrix
         result="fbSourceGraphicAlpha"
         in="fbSourceGraphic"
         values="0 0 0 -1 0 0 0 0 -1 0 0 0 0 -1 0 0 0 0 1 0"
         id="feColorMatrix10897" />
      <feColorMatrix
         id="feColorMatrix10899"
         type="hueRotate"
         values="180"
         result="color1"
         in="fbSourceGraphic" />
      <feColorMatrix
         id="feColorMatrix10901"
         values="-1 0 0 0 1 0 -1 0 0 1 0 0 -1 0 1 -0.21 -0.72 -0.07 2 0 "
         result="fbSourceGraphic" />
      <feColorMatrix
         result="fbSourceGraphicAlpha"
         in="fbSourceGraphic"
         values="0 0 0 -1 0 0 0 0 -1 0 0 0 0 -1 0 0 0 0 1 0"
         id="feColorMatrix10983" />
      <feColorMatrix
         id="feColorMatrix10985"
         type="hueRotate"
         values="180"
         result="color1"
         in="fbSourceGraphic" />
      <feColorMatrix
         id="feColorMatrix10987"
         values="-1 0 0 0 1 0 -1 0 0 1 0 0 -1 0 1 -0.21 -0.72 -0.07 2 0 "
         result="color2" />
    </filter>
    <filter
       style="color-interpolation-filters:sRGB"
       inkscape:label="Invert"
       id="filter9781"
       x="0"
       y="0"
       width="1"
       height="1">
      <feColorMatrix
         type="hueRotate"
         values="180"
         result="color1"
         id="feColorMatrix9777" />
      <feColorMatrix
         values="-1 0 0 0 1 0 -1 0 0 1 0 0 -1 0 1 -0.21 -0.72 -0.07 2 0 "
         result="fbSourceGraphic"
         id="feColorMatrix9779" />
      <feColorMatrix
         result="fbSourceGraphicAlpha"
         in="fbSourceGraphic"
         values="0 0 0 -1 0 0 0 0 -1 0 0 0 0 -1 0 0 0 0 1 0"
         id="feColorMatrix10903" />
      <feColorMatrix
         id="feColorMatrix10905"
         type="hueRotate"
         values="180"
         result="color1"
         in="fbSourceGraphic" />
      <feColorMatrix
         id="feColorMatrix10907"
         values="-1 0 0 0 1 0 -1 0 0 1 0 0 -1 0 1 -0.21 -0.72 -0.07 2 0 "
         result="fbSourceGraphic" />
      <feColorMatrix
         result="fbSourceGraphicAlpha"
         in="fbSourceGraphic"
         values="0 0 0 -1 0 0 0 0 -1 0 0 0 0 -1 0 0 0 0 1 0"
         id="feColorMatrix10989" />
      <feColorMatrix
         id="feColorMatrix10991"
         type="hueRotate"
         values="180"
         result="color1"
         in="fbSourceGraphic" />
      <feColorMatrix
         id="feColorMatrix10993"
         values="-1 0 0 0 1 0 -1 0 0 1 0 0 -1 0 1 -0.21 -0.72 -0.07 2 0 "
         result="color2" />
    </filter>
  </defs>
  <g
     inkscape:label="Layer 1"
     inkscape:groupmode="layer"
     id="layer1">
    <g
       inkscape:label="Layer 1"
       id="layer1-2"
       transform="matrix(0.30924005,0,0,0.2824841,-1.5268981,-0.83697314)">
      <g
         inkscape:label="Layer 1"
         id="layer1-2-6"
         transform="matrix(1.1573775,0,0,1.131391,-1.9467713,-3.6663593)">
        <path
           style="fill:#000000;stroke-width:0.264583;filter:url(#filter9781)"
           d="m 7.9429197,30.287188 c -0.5141635,-0.360135 -0.5701689,-0.596635 -0.481892,-2.034953 0.072217,-1.176649 0.2310707,-1.723384 0.5734757,-1.973756 0.2604748,-0.190464 0.540989,-0.346298 0.6233646,-0.346298 0.082376,0 0.1088493,-0.514567 0.05883,-1.143482 -0.1308801,-1.645604 0.3397779,-3.090686 1.41621,-4.348256 0.828988,-0.968486 0.900185,-1.161561 0.603509,-1.636616 -0.288599,-0.46212 -0.256094,-0.618857 0.228936,-1.103887 l 0.565294,-0.565294 -0.504642,-1.466769 C 10.575744,14.359171 9.4205395,12.058553 7.9819862,9.6056379 7.1129784,8.12387 8.0531398,7.9561538 10.290498,9.1938206 c 0.09006,0.049822 0.108617,-0.1978345 0.04123,-0.5503468 -0.194042,-1.015062 0.390171,-1.0805763 1.437305,-0.161181 1.218361,1.0697355 2.613168,1.6599052 3.435331,1.453556 0.435995,-0.109428 0.799651,-0.5396643 1.15309,-1.3642027 0.563813,-1.3153223 1.038684,-1.4051684 1.346358,-0.2547321 0.447718,1.67408 1.747347,2.196686 3.097715,1.2456516 1.286064,-0.9057467 2.915617,-1.6191202 3.33283,-1.4590206 0.226699,0.086993 0.41218,0.3835551 0.41218,0.6590276 0,0.5959165 0.218609,0.6188633 0.910466,0.09557 0.721125,-0.5454317 1.924994,-0.49373 2.240732,0.096231 0.317762,0.5937457 0.383095,3.2005884 0.125232,4.9969064 -0.170119,1.185084 -0.736073,1.680744 -1.699167,1.488125 -0.603474,-0.120695 -0.783513,-0.06077 -0.783513,0.260796 0,0.497499 0.548346,1.761302 0.770074,1.774829 0.08578,0.0052 0.495899,0.287571 0.911371,0.627418 1.001165,0.818929 1.455222,2.907855 0.791483,3.641278 -0.583039,0.64425 -1.074558,0.611302 -2.626525,-0.176063 -1.569371,-0.796194 -2.158221,-0.863393 -0.985981,-0.112519 0.980539,0.628082 1.50951,1.953883 1.344273,3.369259 -0.09002,0.771108 0.008,1.066652 0.475964,1.434735 0.492786,0.387624 0.589341,0.724508 0.589341,2.056214 0,2.471573 0.372359,2.379329 -9.604375,2.379329 -7.2088564,0 -8.5684935,-0.06113 -9.0629923,-0.407493 z m 18.0967293,-0.7865 c 0.08447,-0.220136 0.0066,-0.577324 -0.172992,-0.79375 -0.488947,-0.589148 -17.232542,-0.589148 -17.7214896,0 -0.1796192,0.216426 -0.2574657,0.573614 -0.1729922,0.79375 0.2318438,0.604173 17.8356308,0.604173 18.0674738,0 z m 0.09439,-2.1072 c 0,-0.489429 -1.202231,-1.302542 -1.580353,-1.068849 -0.154389,0.09542 -0.08436,-0.238262 0.155624,-0.741509 0.529913,-1.11124 0.324627,-2.603134 -0.467142,-3.394903 l -0.539439,-0.539439 -0.389422,0.752634 c -0.214182,0.413949 -0.649403,1.036456 -0.967157,1.383349 -0.833994,0.910473 -3.090186,2.676577 -3.419317,2.676577 -0.154288,0 0.183826,-0.336463 0.751363,-0.747694 1.216855,-0.881722 2.654093,-2.28522 3.137616,-3.063959 0.203477,-0.32771 0.289755,-0.971139 0.211241,-1.575349 -0.118461,-0.911623 -0.261461,-1.078324 -1.330752,-1.551323 -1.016822,-0.449788 -1.3481,-0.484983 -2.1902,-0.232683 -1.271087,0.380826 -4.814977,2.913648 -7.526601,5.379269 -1.680014,1.5276 -1.936907,1.695531 -1.246801,0.815035 0.858549,-1.095411 4.233108,-3.903004 6.802382,-5.659502 1.150596,-0.786611 1.529701,-0.903217 2.910416,-0.895192 1.425601,0.0083 1.789875,0.135972 3.571875,1.25202 1.091406,0.683536 2.282031,1.274696 2.645833,1.31369 0.613201,0.06572 0.667343,-0.02079 0.742101,-1.185875 0.05104,-0.795337 -0.02756,-1.25677 -0.214053,-1.25677 -0.162081,0 -0.22111,0.119062 -0.131173,0.264583 0.08994,0.145521 0.0397,0.264583 -0.111635,0.264583 -0.151337,0 -0.349658,-0.296833 -0.440714,-0.65963 -0.09106,-0.362796 -0.267353,-0.596716 -0.391771,-0.519821 -0.340204,0.210257 -1.304838,-1.856867 -1.304838,-2.796152 0,-0.451927 0.128514,-1.061814 0.285585,-1.355305 0.275567,-0.514901 0.299404,-0.516612 0.679484,-0.04875 0.367629,0.452532 0.38381,0.437425 0.242611,-0.22652 -0.08321,-0.391264 -0.03776,-0.781552 0.100991,-0.867307 0.331878,-0.205111 0.889678,0.85191 0.704382,1.334787 -0.0794,0.20691 -0.02903,0.3762 0.111916,0.3762 0.306409,0 0.3175,-0.07669 0.401704,-2.778124 0.07674,-2.4620797 -0.03315,-3.0427086 -0.575895,-3.0427086 -0.217146,0 -1.408311,0.4837234 -2.647032,1.0749406 -1.848579,0.88229 -2.609891,1.448493 -4.247934,3.159272 -1.17291,1.224992 -3.332386,3.012492 -5.23782,4.335591 -3.34921,2.325631 -4.458582,3.386372 -5.0716271,4.849302 -0.4165166,0.993948 -0.4683278,2.811421 -0.099777,3.500064 0.2161328,0.403848 0.1319802,0.50522 -0.5291667,0.63745 -0.5612524,0.112249 -0.7861701,0.310517 -0.7861701,0.693015 0,0.527481 0.139369,0.535781 8.9958329,0.535781 7.757502,0 8.995833,-0.05379 8.995833,-0.390776 z m -2.10005,-16.12566 C 23.7493,10.924802 23.81816,10.87641 24.520755,10.925752 c 0.4501,0.03161 0.778995,0.176534 0.730877,0.322055 -0.14412,0.435856 -0.862726,0.447672 -1.217645,0.02002 z m -11.276984,7.115314 c 0.481946,-0.364526 0.454379,-0.388461 -0.447406,-0.388461 -0.934057,0 -1.416834,0.280948 -1.073227,0.624554 0.282476,0.282477 0.977741,0.174529 1.520633,-0.236093 z m 2.85889,-2.00956 c 1.055552,-0.746084 2.931217,-2.331107 4.168144,-3.522274 1.236927,-1.191166 2.695443,-2.435913 3.241146,-2.766104 0.545703,-0.3301913 0.992187,-0.7692306 0.992187,-0.9756431 0,-1.2474151 -3.037477,0.7899873 -6.979948,4.6818341 -1.899638,1.875245 -3.493002,3.409536 -3.540808,3.409536 -0.218063,0 -1.387391,-2.881553 -1.926664,-4.74784 C 11.033668,10.597152 10.865091,10.318297 9.9017901,9.693681 8.3799955,8.7069312 8.0262079,8.8057396 8.8370981,9.9910358 c 0.9785288,1.4303372 2.3319749,4.2013612 2.8753659,5.8869792 0.258013,0.800364 0.51982,1.544505 0.581792,1.653645 0.296035,0.521348 1.577893,0.07443 3.321637,-1.158078 z m 3.908459,-5.697945 c -0.07545,-0.02365 -0.468029,-0.116074 -0.872387,-0.205384 -0.496869,-0.109742 -0.877509,-0.460812 -1.174202,-1.0829825 L 17.038759,8.4666692 16.704456,9.2617434 C 16.009507,10.914541 14.044891,10.959062 11.962076,9.3692137 11.062845,8.682815 10.779401,8.5640745 10.882718,8.9170479 c 0.07706,0.2632716 0.34055,1.1930501 0.585531,2.0661751 0.244981,0.873125 0.792719,2.553062 1.217196,3.733193 l 0.771775,2.145693 3.102161,-3.071734 c 1.706189,-1.689454 3.040426,-3.091086 2.964971,-3.114738 z"
           id="path6894" />
        <path
           style="fill:#ffffff;stroke-width:0.237079;filter:url(#filter9775)"
           d="m 36.510202,104.66623 c -4.12854,-0.19779 -5.38903,-0.48881 -5.590291,-1.2907 -0.339064,-1.35094 0.704584,-2.27205 3.556157,-3.13864 1.837622,-0.558457 2.01807,-0.878277 1.359412,-2.40937 -1.67563,-3.895105 -0.955337,-11.039595 1.542851,-15.303341 2.557427,-4.364852 6.034372,-7.509962 16.661091,-15.070978 9.678885,-6.886623 13.781515,-10.261435 20.759077,-17.076351 7.203027,-7.035125 9.127589,-8.524102 14.500873,-11.218905 6.692821,-3.356576 11.422188,-5.204583 12.432638,-4.858071 1.43691,0.492759 1.75272,3.374861 1.40671,12.837876 -0.26916,7.36132 -0.45135,8.69441 -1.18824,8.69441 -0.4024,0 -0.44666,-0.180032 -0.42252,-1.718824 0.0214,-1.361238 -0.0863,-1.940775 -0.51732,-2.785681 -0.7307,-1.432238 -1.171605,-1.896634 -1.800694,-1.896634 -0.961262,0 -1.141843,0.534452 -0.983701,2.911404 l 0.145424,2.185799 -0.999481,-1.128055 c -0.549713,-0.62043 -1.179493,-1.127187 -1.399512,-1.126126 -0.588746,0.0028 -1.791795,2.653068 -2.114751,4.658641 -0.344917,2.141952 -0.14876,3.700783 0.820547,6.520815 1.288569,3.748856 3.13387,6.57231 4.062514,6.215957 0.411859,-0.158047 0.970328,0.694239 1.408144,2.148981 0.38083,1.265412 1.1842,2.268824 1.81651,2.268824 0.51923,0 0.68031,-0.433907 0.4212,-1.134585 -0.14998,-0.405576 -0.10558,-0.578267 0.17651,-0.686513 0.20729,-0.07955 0.46257,-0.006 0.56728,0.163421 0.62965,1.018799 0.37597,7.092309 -0.342,8.188072 -0.45641,0.696575 -1.44403,0.767675 -3.006411,0.216435 -1.69523,-0.598111 -5.870214,-2.79301 -9.171998,-4.821957 -6.357528,-3.906706 -7.504328,-4.320423 -12.397772,-4.472583 -4.503457,-0.140033 -6.565513,0.159263 -8.675881,1.25926 -4.866658,2.536677 -19.185197,13.665459 -25.763555,20.02418 -2.81293,2.719014 -4.905031,5.275288 -4.58187,5.598448 0.187774,0.187774 1.177055,-0.621373 5.853912,-4.78799 14.517829,-12.933953 26.936639,-21.205742 31.837136,-21.205742 1.97822,0 7.342965,2.253568 8.637688,3.628431 0.917897,0.974718 1.243089,1.968381 1.413248,4.318372 0.178039,2.458799 -0.19481,4.162405 -1.270218,5.803792 -1.091402,1.6658 -6.939217,7.476993 -9.543876,9.484109 -4.31447,3.324671 -5.072754,4.030942 -4.713503,4.390199 0.61179,0.61179 8.783717,-5.599107 12.52367,-9.518342 1.900119,-1.991207 3.514508,-4.272827 4.705445,-6.650217 0.403487,-0.805462 0.831207,-1.524789 0.950484,-1.598507 0.322847,-0.19953 2.966669,2.729019 3.541722,3.923149 1.641548,3.408771 1.61752,7.147923 -0.07046,10.964756 -0.327516,0.740572 -0.595484,1.607499 -0.595484,1.926504 0,0.509758 0.08096,0.563819 0.668421,0.446328 1.304588,-0.260918 4.316175,1.548459 5.147901,3.092879 0.824689,1.53135 0.10202,1.72114 -7.712956,2.02559 -6.532095,0.25447 -48.749,0.25563 -54.054066,0.001 z M 94.460846,43.644222 c 0.876863,-0.366377 1.277036,-1.160634 0.846273,-1.679672 -0.621295,-0.748613 -4.928975,-1.115454 -5.151535,-0.438703 -0.145742,0.443171 1.340671,1.958432 2.151596,2.193354 1.058755,0.306716 1.256627,0.299827 2.153666,-0.07498 z"
           id="path8579"
           transform="scale(0.26458333)" />
        <path
           style="fill:#ffffff;stroke-width:0.237079;filter:url(#filter9769)"
           d="m 48.550476,56.921105 c -3.39713,-9.582424 -7.604698,-23.38449 -7.239966,-23.749222 0.195769,-0.195769 0.663321,0.08836 3.734545,2.269446 5.924751,4.207574 10.607255,5.417656 14.344074,3.706883 1.8151,-0.83098 2.990736,-2.166449 4.073501,-4.627309 l 0.925977,-2.10452 1.23842,2.435798 c 1.86786,3.673821 2.583358,4.229487 6.862965,5.329878 0.935512,0.240544 0.990399,0.297605 0.738668,0.767969 -0.286525,0.535373 -21.992434,22.469161 -22.234558,22.467985 -0.07733,-4.74e-4 -1.176965,-2.923984 -2.443626,-6.496908 z"
           id="path8719"
           transform="scale(0.26458333)" />
        <path
           style="fill:#ffffff;stroke-width:0.237079;filter:url(#filter9763)"
           d="m 46.98173,66.559996 c -0.30492,-0.25996 -1.07985,-2.141248 -2.075197,-5.037934 -2.988747,-8.69793 -6.675,-16.470863 -11.043611,-23.286851 -1.81723,-2.835277 -2.227803,-3.977261 -1.429928,-3.977261 1.149441,0 6.330095,3.198994 7.7804,4.804308 1.132395,1.253426 1.71265,2.627978 3.406615,8.06984 2.770845,8.901341 6.491812,17.946152 7.382911,17.946152 0.285414,0 1.528587,-1.179246 10.871996,-10.312946 8.873234,-8.674075 13.283329,-12.627359 18.405509,-16.499001 6.287022,-4.752095 10.283843,-6.306703 10.283843,-4.000012 0,0.906513 -1.123566,2.042102 -3.929745,3.971798 -2.652025,1.823691 -5.236117,4.032956 -11.836024,10.119187 -10.41399,9.603462 -16.442991,14.326246 -21.576001,16.901437 -3.277222,1.644158 -5.335246,2.073284 -6.240768,1.301283 z"
           id="path9068"
           transform="scale(0.26458333)" />
        <path
           style="fill:#ffffff;stroke-width:0.0838202;filter:url(#filter9757)"
           d="m 43.613846,70.870941 c -0.647584,-0.136763 -1.186234,-0.493673 -1.418356,-0.939803 -0.170599,-0.327888 -0.14617,-0.52333 0.102328,-0.818654 0.451252,-0.536282 1.499115,-0.872411 3.16704,-1.015908 1.659406,-0.142765 3.905221,0.0032 3.905221,0.253801 0,0.107003 -0.753154,0.776742 -1.354239,1.204252 -1.387911,0.987124 -3.280699,1.553117 -4.401994,1.316312 z"
           id="path9208"
           transform="scale(0.26458333)" />
        <path
           style="fill:#ffffff;stroke-width:0.0838202;filter:url(#filter9751)"
           d="m 55.06985,113.11589 c -13.852143,-0.19271 -23.256472,-0.75036 -24.629683,-1.46047 -0.305904,-0.15819 -0.382887,-0.36135 -0.372852,-0.98395 0.01356,-0.84144 0.411924,-1.84627 0.865099,-2.18213 0.859647,-0.6371 6.366276,-1.10156 16.761261,-1.41373 7.817974,-0.23478 25.359655,-0.23444 33.192787,6.4e-4 9.240059,0.27731 14.664868,0.68013 16.259769,1.20738 0.453475,0.14991 0.57965,0.2352 0.761829,0.51495 0.454032,0.6972 0.680358,1.7053 0.544928,2.42721 -0.04685,0.24972 -0.114007,0.33303 -0.346911,0.43034 -1.558648,0.65125 -8.348823,1.12089 -19.85995,1.3736 -5.42992,0.11921 -17.55931,0.1643 -23.176277,0.0862 z"
           id="path9348"
           transform="scale(0.26458333)" />
      </g>
    </g>
  </g>
</svg>
