<?xml version="1.0" encoding="UTF-8" standalone="no"?>
<!-- Created with Inkscape (http://www.inkscape.org/) -->

<svg
   width="31.999998"
   height="31.999998"
   viewBox="0 0 8.466666 8.4666661"
   version="1.1"
   id="svg5"
   inkscape:export-filename="C:\Users\bmill\projects\chess2-canvas\src\assets\C_Bw.svg"
   inkscape:export-xdpi="96"
   inkscape:export-ydpi="96"
   sodipodi:docname="a_r.svg"
   xmlns:inkscape="http://www.inkscape.org/namespaces/inkscape"
   xmlns:sodipodi="http://sodipodi.sourceforge.net/DTD/sodipodi-0.dtd"
   xmlns="http://www.w3.org/2000/svg"
   xmlns:svg="http://www.w3.org/2000/svg">
  <sodipodi:namedview
     id="namedview7"
     pagecolor="#505050"
     bordercolor="#ffffff"
     borderopacity="1"
     inkscape:pageshadow="0"
     inkscape:pageopacity="0"
     inkscape:pagecheckerboard="1"
     inkscape:deskcolor="#505050"
     inkscape:document-units="mm"
     showgrid="false" />
  <defs
     id="defs2">
    <filter
       style="color-interpolation-filters:sRGB"
       inkscape:label="Invert"
       id="filter65426"
       x="0"
       y="0"
       width="1"
       height="1">
      <feColorMatrix
         type="hueRotate"
         values="180"
         result="color1"
         id="feColorMatrix65422" />
      <feColorMatrix
         values="-1 0 0 0 1 0 -1 0 0 1 0 0 -1 0 1 -0.21 -0.72 -0.07 2 0 "
         result="color2"
         id="feColorMatrix65424" />
    </filter>
    <filter
       style="color-interpolation-filters:sRGB"
       inkscape:label="Invert"
       id="filter65432"
       x="0"
       y="0"
       width="1"
       height="1">
      <feColorMatrix
         type="hueRotate"
         values="180"
         result="color1"
         id="feColorMatrix65428" />
      <feColorMatrix
         values="-1 0 0 0 1 0 -1 0 0 1 0 0 -1 0 1 -0.21 -0.72 -0.07 2 0 "
         result="color2"
         id="feColorMatrix65430" />
    </filter>
    <filter
       style="color-interpolation-filters:sRGB"
       inkscape:label="Invert"
       id="filter65438"
       x="0"
       y="0"
       width="1"
       height="1">
      <feColorMatrix
         type="hueRotate"
         values="180"
         result="color1"
         id="feColorMatrix65434" />
      <feColorMatrix
         values="-1 0 0 0 1 0 -1 0 0 1 0 0 -1 0 1 -0.21 -0.72 -0.07 2 0 "
         result="color2"
         id="feColorMatrix65436" />
    </filter>
  </defs>
  <g
     inkscape:label="Layer 1"
     inkscape:groupmode="layer"
     id="layer1">
    <g
       inkscape:label="Layer 1"
       id="layer1-5"
       transform="matrix(0.34562878,0,0,0.27649771,-1.6581191,-0.35674858)">
      <path
         style="fill:#000000;stroke-width:0.264583;filter:url(#filter65438)"
         d="M 7.9046891,30.384097 C 7.3022781,29.910239 7.2034557,29.666825 7.3205479,28.945272 7.4136902,28.371303 7.333441,27.970528 7.0839009,27.763428 6.3539311,27.157606 6.8924515,25.398191 7.8078506,25.398191 c 0.1484907,0 0.5944885,-0.267891 0.9911055,-0.595313 L 9.5200785,24.207566 8.6566063,22.732136 C 5.5930725,17.497422 5.552351,13.724113 8.5376804,11.7123 c 0.7363631,-0.496235 1.2491759,-0.601609 2.9277966,-0.601609 1.924009,0 2.051826,-0.03678 2.342122,-0.673907 0.398015,-0.8735467 0.413656,-0.8294711 -0.36358,-1.0245446 -0.669557,-0.1680483 -0.670512,-0.1726592 -0.595312,-2.8729537 0.06962,-2.4999647 0.119554,-2.7240483 0.659844,-2.9611678 0.321488,-0.1410925 0.619144,-0.49828 0.661458,-0.79375 0.07174,-0.5009075 0.264706,-0.5372176 2.85506,-0.5372176 2.679578,0 2.781124,0.021117 2.862673,0.5953124 0.05048,0.3554405 0.26903,0.5953125 0.542395,0.5953125 0.887515,0 1.092848,0.5716894 1.092848,3.0427082 0,2.483651 -0.204177,3.0427082 -1.11125,3.0427082 -0.561986,0 -0.568769,0.036627 -0.169197,0.9135924 0.289709,0.63584 0.420482,0.673963 2.315104,0.674897 2.914042,0.0014 3.964699,0.736613 4.920352,3.442925 0.384765,1.089615 0.382741,1.333972 -0.02484,2.998373 -0.244057,0.996645 -0.999091,2.902864 -1.677854,4.236043 l -1.234115,2.423964 0.715557,0.592602 c 0.393566,0.325932 0.900906,0.592603 1.127431,0.592603 0.878929,0 1.245435,1.62692 0.541688,2.404552 -0.301633,0.3333 -0.347154,0.596844 -0.163557,0.946874 0.323633,0.617014 -0.02241,1.555451 -0.709079,1.922944 -0.341133,0.182568 -3.5032,0.28188 -8.975076,0.28188 -8.251069,0 -8.4653127,-0.01332 -9.1734549,-0.570344 z M 26.12446,29.549881 c 0.234821,-0.383087 0.190892,-0.554574 -0.220274,-0.859895 -0.42164,-0.3131 -1.999783,-0.381379 -8.814789,-0.381379 -8.1853211,0 -9.3247444,0.107829 -9.3247444,0.882433 0,0.930394 0.4895572,0.977863 9.3542414,0.907003 8.077339,-0.06457 8.733624,-0.104516 9.005566,-0.548162 z m 0.444015,-2.189493 c 0.467093,-0.562813 0.01495,-1.274376 -0.878046,-1.381859 -0.40144,-0.04832 -0.728348,-0.289044 -0.808439,-0.595313 -0.09089,-0.347552 -0.363851,-0.514192 -0.842272,-0.514192 H 23.33191 l 0.527986,-0.859896 c 1.153151,-1.878058 2.454871,-4.752679 2.868917,-6.335499 0.580938,-2.22081 0.343455,-3.396729 -0.970579,-4.805913 L 24.736643,11.77215 22.233667,11.68148 19.730691,11.59081 19.563759,10.546873 C 19.471947,9.9727131 19.220369,9.4352282 19.004698,9.3524673 18.789027,9.2697067 18.612569,8.9170754 18.612569,8.5688424 c 0,-0.4989718 0.140178,-0.6331507 0.661458,-0.6331507 0.411574,0 0.661458,0.1499306 0.661458,0.3968749 0,0.2182813 0.178594,0.396875 0.396875,0.396875 0.321651,0 0.396875,-0.4262731 0.396875,-2.2489582 0,-1.7384146 -0.08309,-2.2489582 -0.366016,-2.2489582 -0.201309,0 -0.428287,0.238125 -0.504396,0.5291666 -0.08279,0.3166012 -0.360896,0.5291666 -0.692317,0.5291666 -0.456682,0 -0.553937,-0.1625856 -0.553937,-0.9260416 0,-0.668421 0.116542,-0.9260416 0.418923,-0.9260416 0.230408,0 0.369315,-0.1488281 0.308681,-0.3307291 -0.148325,-0.4449736 -4.474879,-0.4659874 -4.622724,-0.022452 -0.05652,0.1695524 0.14192,0.385935 0.440972,0.4808505 0.389356,0.1235768 0.543731,0.3978611 0.543731,0.9660681 0,0.7095373 -0.07699,0.7846364 -0.727604,0.7097744 -0.429839,-0.049458 -0.727604,-0.2446544 -0.727604,-0.4769715 0,-0.2162884 -0.208359,-0.433378 -0.463021,-0.4824211 -0.412148,-0.079372 -0.463021,0.1621906 -0.463021,2.1985892 0,2.0410042 0.04994,2.2768371 0.463021,2.1864991 0.254662,-0.055693 0.433255,-0.2430169 0.396875,-0.4162753 C 14.141258,8.06238 14.43387,7.935692 14.908402,7.935692 c 0.65992,0 0.79375,0.1063222 0.79375,0.6305996 0,0.4051041 -0.186579,0.679391 -0.521769,0.7670453 -0.370498,0.096887 -0.572073,0.4510223 -0.695275,1.2214831 l -0.173504,1.085038 h -2.308307 c -1.958999,0 -2.4402838,0.09009 -3.180445,0.595313 -2.7181592,1.855386 -2.3501606,5.812069 1.0553197,11.346679 l 0.7920063,1.287174 H 9.986395 c -0.4546296,0 -0.7288453,0.172319 -0.8182472,0.514192 -0.080091,0.306269 -0.406999,0.546995 -0.8084391,0.595313 -0.8930063,0.107483 -1.3451393,0.819046 -0.8780457,1.381859 0.3051135,0.367639 1.4759995,0.419053 9.543406,0.419053 8.067406,0 9.238292,-0.05141 9.543406,-0.419053 z M 8.2153078,14.557344 c 0.228627,-0.874271 1.3502396,-1.783443 2.5831652,-2.093898 1.365143,-0.343746 2.787013,-0.385966 2.787013,-0.08275 0,0.424751 -0.651573,0.846703 -1.309688,0.848143 -1.163232,0.0025 -2.5594836,0.507016 -3.2982357,1.191668 -0.8579958,0.795164 -0.9381735,0.809558 -0.7622545,0.136842 z M 25.034541,14.433699 c -0.622964,-0.623426 -2.213157,-1.206341 -3.290899,-1.206341 -0.631794,0 -1.27899,-0.428431 -1.27899,-0.846667 0,-0.303211 1.42187,-0.260991 2.787013,0.08275 1.232925,0.310455 2.354538,1.219627 2.583165,2.093898 0.172447,0.659439 -0.05252,0.624682 -0.800289,-0.123645 z M 16.255952,7.0393307 c -0.243609,-0.2935306 -0.252117,-0.5306639 -0.03369,-0.9388096 0.505829,-0.9451504 1.704695,-0.5267579 1.553555,0.5421757 -0.105544,0.7464565 -1.029443,0.9875625 -1.51987,0.3966339 z"
         id="path63580" />
      <path
         style="fill:#ffffff;stroke-width:0.176777;filter:url(#filter65432)"
         d="m 38.802485,104.74103 c -5.110961,-0.13746 -7.863938,-0.35445 -9.178458,-0.72346 -1.315161,-0.3692 -2.210558,-1.80253 -1.869317,-2.99237 0.397487,-1.385956 1.628096,-2.299091 3.680174,-2.730759 2.05173,-0.431595 2.585133,-0.816471 3.386058,-2.443206 0.705399,-1.432715 1.087058,-1.618795 3.463508,-1.688662 1.118547,-0.03289 2.020636,-0.134478 2.020636,-0.227563 0,-0.09249 -1.007585,-1.815843 -2.239078,-3.829682 C 31.425119,79.2456 28.019,71.249078 26.94353,63.993164 c -0.394905,-2.66432 -0.271354,-6.848588 0.260988,-8.838835 0.468342,-1.75097 1.378112,-3.696712 2.389672,-5.110835 1.391425,-1.945158 3.91644,-4.044253 5.892515,-4.898562 1.90589,-0.823967 2.727126,-0.900536 10.907584,-1.016966 l 7.768581,-0.110569 0.471974,-2.763285 c 0.714105,-4.180896 1.249238,-5.381823 2.594659,-5.822835 1.635681,-0.536155 2.242068,-1.494697 2.13576,-3.37609 -0.101419,-1.794844 -0.352854,-1.988489 -2.668644,-2.055275 -2.197649,-0.06338 -2.963294,0.219408 -3.152105,1.164221 -0.147825,0.739715 -0.573432,1.209068 -1.31972,1.455366 -0.856987,0.28283 -1.229121,0.01098 -1.513092,-1.105362 -0.175592,-0.690279 -0.237022,-2.512412 -0.237022,-7.030565 0,-6.50596 0.12758,-7.776911 0.817736,-8.146271 0.754272,-0.403674 2.447699,0.724529 2.447699,1.630718 0,1.027445 1.210627,1.756314 3.124831,1.881333 1.596288,0.104255 2.064677,-0.01356 2.32494,-0.584772 0.251811,-0.552666 0.2714,-3.116059 0.03044,-3.983445 -0.213024,-0.766826 -0.911922,-1.46455 -1.856288,-1.853172 -0.872515,-0.359054 -1.679378,-1.097814 -1.679378,-1.53763 0,-0.430184 0.771899,-0.743968 2.563262,-1.041989 2.152071,-0.358031 10.131334,-0.308953 12.228349,0.07521 2.124015,0.389112 2.565094,0.593304 2.496936,1.155927 -0.06003,0.495546 -0.288067,0.655523 -1.290256,0.905176 -0.388909,0.09688 -0.811105,0.343507 -0.938214,0.548059 -0.342822,0.551694 -0.539848,2.766887 -0.385923,4.338974 0.118148,1.206688 0.197505,1.4345 0.628968,1.80563 0.428535,0.36861 0.629975,0.414861 1.524918,0.350127 1.326767,-0.09597 1.85703,-0.485198 2.529008,-1.856358 0.80934,-1.651447 1.571547,-2.326211 2.235309,-1.978867 0.521594,0.272948 0.703702,1.253017 0.904668,4.868755 0.234549,4.219952 -2.5e-5,9.978508 -0.450168,11.05115 -0.30848,0.735075 -0.811893,0.973557 -1.401501,0.663933 -0.500057,-0.262597 -0.704544,-0.584194 -0.933317,-1.467834 -0.245193,-0.947061 -1.013224,-1.344579 -2.597819,-1.344579 -2.010962,0 -2.463852,0.442341 -2.463852,2.406464 0,1.372933 0.30541,2.008201 1.520155,3.162002 1.188899,1.129251 1.583074,2.15535 2.190052,5.701048 l 0.461494,2.695845 1.062984,0.0091 c 0.584642,0.005 4.838032,0.149947 9.45198,0.322076 l 8.388994,0.312964 1.915958,2.020215 c 4.012274,4.230604 5.828645,7.007246 6.409745,9.798389 0.57819,2.777215 0.19565,6.865883 -1.04507,11.169664 -1.737039,6.025461 -6.171148,15.706549 -10.510691,22.948238 l -2.118649,3.535534 2.183752,0.08839 c 2.555956,0.103453 2.915955,0.273949 3.62676,1.717646 0.800926,1.626734 1.334328,2.011611 3.386058,2.443206 0.705405,0.148386 1.625098,0.470537 2.043765,0.715892 1.471245,0.862205 2.058275,2.45824 1.383845,3.76244 -0.593,1.14674 -1.732625,1.48931 -6.022239,1.8103 -3.030995,0.2268 -48.518835,0.35543 -55.861435,0.15796 z m -6.02331,-49.100565 c 2.110744,-1.842618 3.217682,-2.627079 4.770857,-3.380994 2.540734,-1.233279 6.106346,-2.143278 8.397924,-2.143278 2.68368,0 5.312145,-1.493477 5.381272,-3.057602 0.01978,-0.447528 -0.07607,-0.603302 -0.505928,-0.822224 -1.155802,-0.58864 -6.75835,-0.10642 -10.36027,0.891724 -5.037457,1.39595 -9.293545,5.250554 -9.654034,8.74335 -0.09038,0.875683 -0.0677,0.962266 0.251995,0.962266 0.193219,0 0.966402,-0.536959 1.718184,-1.193242 z m 65.02833,0.178086 c -0.135779,-3.277272 -4.596269,-7.33024 -9.565211,-8.691309 -3.654672,-1.001071 -9.21761,-1.478877 -10.37216,-0.890875 -0.429855,0.218922 -0.525707,0.374696 -0.505928,0.822224 0.06807,1.540216 2.696552,3.057602 5.296511,3.057602 2.01297,0 5.531136,0.91804 8.143659,2.125029 1.76896,0.817262 2.826657,1.526817 4.213097,2.82635 1.497333,1.403476 2.047292,1.789484 2.464513,1.729802 0.320332,-0.04582 0.359317,-0.163046 0.325519,-0.978823 z M 65.354348,27.638883 c 1.223683,-0.371403 2.141548,-2.101955 1.93071,-3.640183 -0.414161,-3.021631 -3.555182,-4.039267 -5.490136,-1.778709 -0.62513,0.730323 -1.160516,1.997053 -1.160516,2.745793 0,0.851276 0.789649,2.018742 1.678962,2.482275 1.061056,0.553052 1.71278,0.593949 3.04098,0.190824 z"
         id="path64225"
         transform="scale(0.26458333)" />
      <path
         style="fill:#ffffff;stroke-width:0.176777;filter:url(#filter65426)"
         d="m 37.32932,113.55943 c -4.745451,-0.23577 -7.133697,-0.81605 -7.603649,-1.84749 -0.112179,-0.2462 -0.203963,-0.84545 -0.203963,-1.33165 0,-0.72428 0.08281,-0.96075 0.458282,-1.30873 0.793258,-0.73517 2.540674,-1.15473 6.259232,-1.50285 3.80325,-0.35606 20.747728,-0.57215 36.150835,-0.46102 22.538066,0.1626 24.640302,0.33242 26.207145,2.11697 0.675377,0.76923 0.709781,1.19049 0.173868,2.12903 -0.735368,1.28784 -1.845416,1.57493 -7.223569,1.86821 -7.606252,0.41478 -47.646258,0.66404 -54.218181,0.33753 z"
         id="path64365"
         transform="scale(0.26458333)" />
    </g>
  </g>
</svg>
