<?xml version="1.0" encoding="UTF-8" standalone="no"?>
<!-- Created with Inkscape (http://www.inkscape.org/) -->

<svg
   width="31.999998"
   height="31.999998"
   viewBox="0 0 8.466666 8.4666661"
   version="1.1"
   id="svg5"
   inkscape:export-filename="C:\Users\bmill\projects\chess2-canvas\src\assets\c_q.svg"
   inkscape:export-xdpi="96"
   inkscape:export-ydpi="96"
   sodipodi:docname="a_r.svg"
   xmlns:inkscape="http://www.inkscape.org/namespaces/inkscape"
   xmlns:sodipodi="http://sodipodi.sourceforge.net/DTD/sodipodi-0.dtd"
   xmlns="http://www.w3.org/2000/svg"
   xmlns:svg="http://www.w3.org/2000/svg">
  <sodipodi:namedview
     id="namedview7"
     pagecolor="#505050"
     bordercolor="#ffffff"
     borderopacity="1"
     inkscape:pageshadow="0"
     inkscape:pageopacity="0"
     inkscape:pagecheckerboard="1"
     inkscape:deskcolor="#505050"
     inkscape:document-units="mm"
     showgrid="false" />
  <defs
     id="defs2">
    <filter
       style="color-interpolation-filters:sRGB"
       inkscape:label="Invert"
       id="filter87481"
       x="0"
       y="0"
       width="1"
       height="1">
      <feColorMatrix
         type="hueRotate"
         values="180"
         result="color1"
         id="feColorMatrix87477" />
      <feColorMatrix
         values="-1 0 0 0 1 0 -1 0 0 1 0 0 -1 0 1 -0.21 -0.72 -0.07 2 0 "
         result="color2"
         id="feColorMatrix87479" />
    </filter>
    <filter
       style="color-interpolation-filters:sRGB"
       inkscape:label="Invert"
       id="filter87487"
       x="0"
       y="0"
       width="1"
       height="1">
      <feColorMatrix
         type="hueRotate"
         values="180"
         result="color1"
         id="feColorMatrix87483" />
      <feColorMatrix
         values="-1 0 0 0 1 0 -1 0 0 1 0 0 -1 0 1 -0.21 -0.72 -0.07 2 0 "
         result="color2"
         id="feColorMatrix87485" />
    </filter>
    <filter
       style="color-interpolation-filters:sRGB"
       inkscape:label="Invert"
       id="filter87493"
       x="0"
       y="0"
       width="1"
       height="1">
      <feColorMatrix
         type="hueRotate"
         values="180"
         result="color1"
         id="feColorMatrix87489" />
      <feColorMatrix
         values="-1 0 0 0 1 0 -1 0 0 1 0 0 -1 0 1 -0.21 -0.72 -0.07 2 0 "
         result="color2"
         id="feColorMatrix87491" />
    </filter>
    <filter
       style="color-interpolation-filters:sRGB"
       inkscape:label="Invert"
       id="filter87499"
       x="0"
       y="0"
       width="1"
       height="1">
      <feColorMatrix
         type="hueRotate"
         values="180"
         result="color1"
         id="feColorMatrix87495" />
      <feColorMatrix
         values="-1 0 0 0 1 0 -1 0 0 1 0 0 -1 0 1 -0.21 -0.72 -0.07 2 0 "
         result="color2"
         id="feColorMatrix87497" />
    </filter>
    <filter
       style="color-interpolation-filters:sRGB"
       inkscape:label="Invert"
       id="filter66408"
       x="0"
       y="0"
       width="1"
       height="1">
      <feColorMatrix
         type="hueRotate"
         values="180"
         result="color1"
         id="feColorMatrix66404" />
      <feColorMatrix
         values="-1 0 0 0 1 0 -1 0 0 1 0 0 -1 0 1 -0.21 -0.72 -0.07 2 0 "
         result="color2"
         id="feColorMatrix66406" />
    </filter>
  </defs>
  <g
     inkscape:label="Layer 1"
     inkscape:groupmode="layer"
     id="layer1">
    <g
       inkscape:label="Layer 1"
       id="layer1-6"
       transform="translate(0.11288508,-11.602184)">
      <g
         inkscape:label="Layer 1"
         id="layer1-1"
         transform="matrix(0.30055166,0,0,0.33039304,-0.87065204,9.2482408)"
         style="filter:url(#filter66408)">
        <path
           style="fill:#000000;stroke-width:0.264583;filter:url(#filter87499)"
           d="m 7.5798239,30.206003 c -0.5880613,-0.649801 -0.552192,-1.44735 0.091284,-2.029687 0.2910416,-0.26339 0.5291666,-0.73428 0.5291666,-1.046425 0,-0.312142 0.1332476,-0.700781 0.2961055,-0.863639 0.7853603,-0.78536 -2.8236837,-10.401586 -5.1255022,-13.656799 -1.2697729,-1.795702 0.6028102,-1.86551 3.0225263,-0.112676 1.1945418,0.865321 1.1513462,1.017337 0.5618612,-1.977323 -0.2719854,-1.3817217 0.6047779,-1.2117213 2.1185781,0.410782 3.0158256,3.232386 5.6629896,3.227974 6.5394516,-0.0109 0.602511,-2.2265159 1.335676,-2.3995801 1.71011,-0.403673 0.574891,3.064436 3.112364,4.042752 5.471578,2.109552 2.447668,-2.005679 4.190707,-2.341732 4.190707,-0.807957 0,0.641773 0,0.641773 1.195715,-0.180902 2.803853,-1.9291012 2.761993,-0.279526 -0.141082,5.559753 -2.073801,4.171267 -3.029887,8.158078 -2.24403,9.357447 0.242693,0.370398 0.359543,0.805669 0.259667,0.967271 -0.09988,0.161603 0.02381,0.444014 0.274851,0.627581 0.600656,0.439211 0.586313,1.743761 -0.02407,2.190086 C 25.453659,30.96228 8.1534771,30.839881 7.5798239,30.206003 Z M 26.0322,29.475356 c 0.325019,-0.846984 -0.223528,-0.902165 -8.968384,-0.902165 -8.881874,0 -9.3683869,0.05059 -9.0275821,0.938712 C 8.2693709,30.119447 25.7987,30.083848 26.0322,29.475356 Z M 25.290706,27.47472 c 0.103581,-0.167598 -0.02069,-0.457557 -0.276149,-0.644356 -0.948377,-0.693471 0.0352,-4.895119 2.286274,-9.766548 1.81792,-3.934055 2.395315,-5.423958 2.101998,-5.423958 -1.047327,0 -4.332716,4.339227 -6.360344,8.400521 -0.599381,1.200546 -1.146962,2.182812 -1.216848,2.182812 -0.417845,0 2.088918,-5.508368 3.568487,-7.841407 4.327221,-6.8233204 -4.858445,0.106156 -11.362547,8.57167 -1.370729,1.784093 -2.587884,3.148155 -2.704789,3.03125 -0.47644,-0.47644 -1.6326158,-3.859722 -2.5927426,-7.587062 -0.9239443,-3.586875 -1.1021345,-4.027809 -1.901115,-4.704333 -0.955942,-0.809428 -2.9843917,-1.965433 -2.8258888,-1.610462 0.053653,0.120158 0.7303942,1.454572 1.503868,2.965365 2.4104959,4.708313 4.5848224,11.349757 3.8012787,11.610938 -0.1749899,0.05833 -0.3181633,0.334259 -0.3181633,0.613172 0,0.61495 15.919516,0.812662 16.296681,0.202398 z M 13.37822,22.024753 c 1.003079,-1.273307 2.991517,-3.521364 4.418751,-4.995683 2.59497,-2.680579 2.59497,-2.680579 1.668806,-2.854328 -1.210747,-0.227138 -2.465139,-1.502065 -2.699423,-2.743616 -0.185285,-0.981893 -0.185285,-0.981893 -0.558971,0.135683 -1.068607,3.19586 -4.234927,3.274287 -7.3277139,0.1815 -1.0330751,-1.033075 -1.2126396,-1.13259 -1.0936257,-0.606089 1.3808304,6.108614 3.3686316,13.197638 3.7006896,13.197638 0.03724,0 0.888409,-1.041797 1.891487,-2.315105 z"
           id="path85340" />
        <path
           style="fill:#ffffff;stroke-width:0.176777;filter:url(#filter87493)"
           d="M 43.060575,91.335038 C 41.685379,88.675703 38.419192,77.715014 34.491517,62.57895 32.09033,53.325503 29.251025,41.312339 29.424228,41.139136 c 0.230793,-0.230793 1.06234,0.428599 3.545688,2.811625 4.134954,3.967911 6.423288,5.674986 9.7154,7.247593 4.617375,2.205672 8.98768,2.414349 12.450837,0.594511 2.922019,-1.535478 4.835001,-4.129065 6.457912,-8.755525 0.359617,-1.025167 0.728332,-1.979761 0.819367,-2.12132 0.253296,-0.393875 0.425915,-0.0084 0.761878,1.701518 0.367154,1.868642 0.817311,3.078103 1.65941,4.458435 2.022403,3.315035 5.210935,5.733062 8.636962,6.549849 1.615967,0.385257 2.188743,0.640168 2.188743,0.974089 0,0.692058 -1.325052,2.234672 -7.157414,8.332592 -8.71056,9.107171 -13.21368,14.230484 -20.276738,23.069359 -1.903484,2.382066 -3.777142,4.6867 -4.163684,5.12141 l -0.702802,0.790381 z"
           id="path86193"
           transform="scale(0.26458333)" />
        <path
           style="fill:#ffffff;stroke-width:0.176777;filter:url(#filter87487)"
           d="m 56.745319,104.97483 c -12.540012,-0.34002 -21.774118,-1.0784 -22.494405,-1.79868 -0.368079,-0.36808 0.04808,-1.49943 0.810916,-2.2045 l 0.735451,-0.67976 -0.01183,-1.709128 C 35.765853,95.749126 34.440596,90.426977 31.904391,82.996658 28.435207,72.832992 24.931885,64.72883 18.731852,52.524911 c -2.548521,-5.016418 -3.479177,-7.004912 -3.27844,-7.004912 0.891631,0 7.038851,3.725563 9.863317,5.977728 3.254253,2.594866 3.867824,3.992069 7.117512,16.207747 3.972479,14.932678 6.996437,24.351147 9.27048,28.873995 0.881999,1.754206 1.026511,1.877015 1.715609,1.45795 1.055916,-0.64214 5.10039,-5.339222 10.058919,-11.682004 7.136004,-9.128131 13.323062,-16.072325 21.499087,-24.130018 4.476525,-4.411737 7.446303,-7.14433 10.915682,-10.043889 7.213846,-6.029025 12.515339,-9.045146 13.891423,-7.903098 0.256139,0.212574 0.296409,0.450818 0.223959,1.324908 -0.128446,1.549587 -1.133925,3.712461 -3.800816,8.17588 -2.975334,4.979645 -3.663368,6.23468 -6.227383,11.359291 -4.349741,8.693684 -7.780038,16.897218 -7.780038,18.605917 0,0.631522 0.467293,0.283058 1.180536,-0.88033 0.402349,-0.656284 2.009345,-3.639603 3.571101,-6.6296 4.887722,-9.35759 8.392018,-15.048538 13.24171,-21.504432 3.76866,-5.016837 7.42683,-8.927943 9.41902,-10.070295 1.67509,-0.960523 1.93073,-0.759907 1.41714,1.11213 -0.6551,2.387861 -2.43711,6.611449 -7.34612,17.411244 -4.640248,10.208503 -7.532577,18.01287 -9.177371,24.763283 -1.111939,4.563518 -1.402817,6.644109 -1.308075,9.356405 0.09048,2.590296 0.276645,3.147929 1.447398,4.335489 0.860061,0.87241 1.154723,1.56155 0.865594,2.0244 -0.632339,1.01226 -8.663585,1.44813 -25.685302,1.39395 -6.271153,-0.02 -12.157817,-0.0568 -13.081475,-0.0818 z"
           id="path86333"
           transform="scale(0.26458333)" />
        <path
           style="fill:#ffffff;stroke-width:0.176777;filter:url(#filter87481)"
           d="m 47.287766,112.92934 c -6.587271,-0.16901 -12.866616,-0.56175 -15.342562,-0.95957 -1.363943,-0.21915 -1.78076,-0.61186 -1.684328,-1.58693 0.114388,-1.15664 1.457165,-1.57962 6.243511,-1.96674 4.061895,-0.32853 51.622766,-0.32853 55.684659,0 3.284144,0.26562 5.122529,0.60789 5.745243,1.06964 0.538419,0.39925 0.691656,1.43183 0.274407,1.84908 -0.714611,0.71461 -5.885052,1.17104 -17.421746,1.53794 -4.657706,0.14813 -28.370381,0.18818 -33.499184,0.0566 z"
           id="path86473"
           transform="scale(0.26458333)" />
      </g>
    </g>
  </g>
</svg>
