<?xml version="1.0" encoding="UTF-8" standalone="no"?>
<!-- Created with Inkscape (http://www.inkscape.org/) -->

<svg
   width="31.999998"
   height="31.999998"
   viewBox="0 0 8.466666 8.4666661"
   version="1.1"
   id="svg5"
   inkscape:export-filename="C:\Users\bmill\projects\chess2-canvas\src\assets\e_n.svg"
   inkscape:export-xdpi="96"
   inkscape:export-ydpi="96"
   sodipodi:docname="a_r.svg"
   xmlns:inkscape="http://www.inkscape.org/namespaces/inkscape"
   xmlns:sodipodi="http://sodipodi.sourceforge.net/DTD/sodipodi-0.dtd"
   xmlns="http://www.w3.org/2000/svg"
   xmlns:svg="http://www.w3.org/2000/svg">
  <sodipodi:namedview
     id="namedview7"
     pagecolor="#505050"
     bordercolor="#ffffff"
     borderopacity="1"
     inkscape:pageshadow="0"
     inkscape:pageopacity="0"
     inkscape:pagecheckerboard="1"
     inkscape:deskcolor="#505050"
     inkscape:document-units="mm"
     showgrid="false" />
  <defs
     id="defs2">
    <filter
       style="color-interpolation-filters:sRGB"
       inkscape:label="Invert"
       id="filter142583"
       x="0"
       y="0"
       width="1"
       height="1">
      <feColorMatrix
         type="hueRotate"
         values="180"
         result="color1"
         id="feColorMatrix142579" />
      <feColorMatrix
         values="-1 0 0 0 1 0 -1 0 0 1 0 0 -1 0 1 -0.21 -0.72 -0.07 2 0 "
         result="color2"
         id="feColorMatrix142581" />
    </filter>
    <filter
       style="color-interpolation-filters:sRGB"
       inkscape:label="Invert"
       id="filter142589"
       x="0"
       y="0"
       width="1"
       height="1">
      <feColorMatrix
         type="hueRotate"
         values="180"
         result="color1"
         id="feColorMatrix142585" />
      <feColorMatrix
         values="-1 0 0 0 1 0 -1 0 0 1 0 0 -1 0 1 -0.21 -0.72 -0.07 2 0 "
         result="color2"
         id="feColorMatrix142587" />
    </filter>
    <filter
       style="color-interpolation-filters:sRGB"
       inkscape:label="Invert"
       id="filter142595"
       x="0"
       y="0"
       width="1"
       height="1">
      <feColorMatrix
         type="hueRotate"
         values="180"
         result="color1"
         id="feColorMatrix142591" />
      <feColorMatrix
         values="-1 0 0 0 1 0 -1 0 0 1 0 0 -1 0 1 -0.21 -0.72 -0.07 2 0 "
         result="color2"
         id="feColorMatrix142593" />
    </filter>
    <filter
       style="color-interpolation-filters:sRGB"
       inkscape:label="Invert"
       id="filter142601"
       x="0"
       y="0"
       width="1"
       height="1">
      <feColorMatrix
         type="hueRotate"
         values="180"
         result="color1"
         id="feColorMatrix142597" />
      <feColorMatrix
         values="-1 0 0 0 1 0 -1 0 0 1 0 0 -1 0 1 -0.21 -0.72 -0.07 2 0 "
         result="color2"
         id="feColorMatrix142599" />
    </filter>
    <filter
       style="color-interpolation-filters:sRGB"
       inkscape:label="Invert"
       id="filter142607"
       x="0"
       y="0"
       width="1"
       height="1">
      <feColorMatrix
         type="hueRotate"
         values="180"
         result="color1"
         id="feColorMatrix142603" />
      <feColorMatrix
         values="-1 0 0 0 1 0 -1 0 0 1 0 0 -1 0 1 -0.21 -0.72 -0.07 2 0 "
         result="color2"
         id="feColorMatrix142605" />
    </filter>
    <filter
       style="color-interpolation-filters:sRGB"
       inkscape:label="Invert"
       id="filter142613"
       x="0"
       y="0"
       width="1"
       height="1">
      <feColorMatrix
         type="hueRotate"
         values="180"
         result="color1"
         id="feColorMatrix142609" />
      <feColorMatrix
         values="-1 0 0 0 1 0 -1 0 0 1 0 0 -1 0 1 -0.21 -0.72 -0.07 2 0 "
         result="color2"
         id="feColorMatrix142611" />
    </filter>
    <filter
       style="color-interpolation-filters:sRGB"
       inkscape:label="Invert"
       id="filter142619"
       x="0"
       y="0"
       width="1"
       height="1">
      <feColorMatrix
         type="hueRotate"
         values="180"
         result="color1"
         id="feColorMatrix142615" />
      <feColorMatrix
         values="-1 0 0 0 1 0 -1 0 0 1 0 0 -1 0 1 -0.21 -0.72 -0.07 2 0 "
         result="color2"
         id="feColorMatrix142617" />
    </filter>
    <filter
       style="color-interpolation-filters:sRGB"
       inkscape:label="Invert"
       id="filter142625"
       x="0"
       y="0"
       width="1"
       height="1">
      <feColorMatrix
         type="hueRotate"
         values="180"
         result="color1"
         id="feColorMatrix142621" />
      <feColorMatrix
         values="-1 0 0 0 1 0 -1 0 0 1 0 0 -1 0 1 -0.21 -0.72 -0.07 2 0 "
         result="color2"
         id="feColorMatrix142623" />
    </filter>
    <filter
       style="color-interpolation-filters:sRGB"
       inkscape:label="Invert"
       id="filter142631"
       x="0"
       y="0"
       width="1"
       height="1">
      <feColorMatrix
         type="hueRotate"
         values="180"
         result="color1"
         id="feColorMatrix142627" />
      <feColorMatrix
         values="-1 0 0 0 1 0 -1 0 0 1 0 0 -1 0 1 -0.21 -0.72 -0.07 2 0 "
         result="color2"
         id="feColorMatrix142629" />
    </filter>
    <filter
       style="color-interpolation-filters:sRGB"
       inkscape:label="Invert"
       id="filter142637"
       x="0"
       y="0"
       width="1"
       height="1">
      <feColorMatrix
         type="hueRotate"
         values="180"
         result="color1"
         id="feColorMatrix142633" />
      <feColorMatrix
         values="-1 0 0 0 1 0 -1 0 0 1 0 0 -1 0 1 -0.21 -0.72 -0.07 2 0 "
         result="color2"
         id="feColorMatrix142635" />
    </filter>
    <filter
       style="color-interpolation-filters:sRGB"
       inkscape:label="Invert"
       id="filter76146"
       x="0"
       y="0"
       width="1"
       height="1">
      <feColorMatrix
         type="hueRotate"
         values="180"
         result="color1"
         id="feColorMatrix76142" />
      <feColorMatrix
         values="-1 0 0 0 1 0 -1 0 0 1 0 0 -1 0 1 -0.21 -0.72 -0.07 2 0 "
         result="color2"
         id="feColorMatrix76144" />
    </filter>
  </defs>
  <g
     inkscape:label="Layer 1"
     inkscape:groupmode="layer"
     id="layer1">
    <g
       inkscape:label="Layer 1"
       id="layer1-6"
       transform="translate(0.11288508,-11.602184)">
      <g
         inkscape:label="Layer 1"
         id="layer1-0"
         transform="matrix(0.31514933,0,0,0.26170518,-1.2270745,11.30833)"
         style="filter:url(#filter76146)">
        <path
           style="fill:#000000;stroke-width:0.264583;filter:url(#filter142637)"
           d="m 16.519074,31.095146 c -0.39936,-0.302059 -1.431442,-0.390332 -4.640294,-0.396875 -4.9791217,-0.01016 -5.1532652,-0.09448 -5.5825378,-2.703332 -0.306128,-1.860457 -0.028799,-3.034842 0.7755828,-3.284301 0.2568454,-0.07965 0.6737355,-0.255196 0.9264224,-0.390095 0.2526869,-0.134898 0.6206654,-0.245269 0.8177297,-0.245269 0.3905297,0 3.5136679,-3.546064 4.0871829,-4.640657 0.430639,-0.821904 -1.229602,-0.125086 -2.164205,0.908336 -0.709547,0.784571 -1.5798575,0.697596 -2.365787,-0.236429 -0.3673432,-0.436562 -0.900518,-0.79375 -1.1848332,-0.79375 -2.8573334,0 -2.5378871,-3.980913 0.4758912,-5.930516 1.595788,-1.03231 1.9981986,-1.465018 3.056825,-3.28697 0.670513,-1.1539887 1.447908,-2.3437421 1.727544,-2.6438968 0.607108,-0.6516536 0.427022,-1.3134231 -0.447947,-1.6460855 -2.2379659,-0.8508733 1.40414,-2.6830416 5.288237,-2.6602578 6.87229,0.040313 10.301789,5.8944904 7.611406,12.9927271 -1.630911,4.302954 -1.02252,7.261095 1.682675,8.181563 1.837004,0.625057 2.444739,1.660298 1.999228,3.405567 -0.498509,1.952897 -0.776536,2.502461 -1.186433,2.345168 -0.204259,-0.07838 -0.513726,0.029 -0.687705,0.238636 -0.2491,0.300149 -1.142119,0.381148 -4.202109,0.381148 -3.007024,0 -4.00193,0.08785 -4.399373,0.388461 -0.654241,0.494843 -0.951346,0.497991 -1.5875,0.01683 z m 1.985899,-1.057876 c 1.809006,-1.141976 2.901754,-2.265857 3.181149,-3.271784 0.376979,-1.357259 0.40336,-1.303066 -0.942252,-1.935578 -0.668105,-0.314047 -1.339848,-0.845583 -1.492762,-1.181192 -0.219645,-0.482069 -0.3776,-0.556906 -0.752243,-0.356403 -0.606812,0.324756 -1.73266,0.325537 -2.337902,0.0016 -0.372102,-0.199142 -0.589645,-0.09196 -1.034469,0.509701 -0.309803,0.419031 -0.9948,0.917915 -1.522217,1.108631 -1.836726,0.664169 -0.89274,2.824138 2.133091,4.880802 1.575099,1.0706 1.472805,1.061572 2.767605,0.244203 z m -3.954698,-0.02595 c 0,-1.013433 -2.39519,-1.788728 -3.439583,-1.113356 -0.363803,0.23526 -1.2270056,0.510072 -1.9182295,0.610696 -2.2978871,0.334507 -1.2993319,0.652034 2.0505205,0.652034 1.819011,0 3.307292,-0.06722 3.307292,-0.149374 z m 11.603768,-0.08061 c 0.447708,-0.29064 0.180465,-0.461182 -1.308079,-0.834766 -3.040955,-0.763193 -2.981733,-0.765424 -4.076371,0.15358 l -1.016129,0.853091 3.020801,0.03057 c 1.66144,0.0168 3.18234,-0.0743 3.379778,-0.202472 z M 9.2586083,28.827654 C 11.391441,28.279138 11.870742,27.045778 10.219229,26.355732 9.7289245,26.15087 9.1440974,25.721031 8.919613,25.400535 8.3411548,24.57467 7.0521983,25.161627 6.9210485,26.310629 c -0.1703043,1.492034 0.2106171,3.093922 0.7019414,2.951875 0.2447465,-0.07076 0.9807747,-0.26644 1.6356184,-0.43485 z M 27.756792,27.117982 c 0.02212,-2.012562 -1.124127,-2.880611 -2.124489,-1.608857 -0.264418,0.336154 -0.841983,0.760812 -1.283478,0.943685 -1.529131,0.633385 -1.108024,1.450823 1.115512,2.165389 2.213795,0.711435 2.268534,0.675613 2.292455,-1.500217 z M 12.233338,26.239015 c -0.122592,-1.275842 -0.122592,-1.275842 1.115165,-1.748546 0.913976,-0.349051 1.34788,-0.703634 1.658737,-1.355508 0.391837,-0.82169 0.458773,-0.856332 0.96692,-0.500412 0.711237,0.49817 2.126083,0.490118 2.544865,-0.01448 0.410825,-0.495015 0.793749,-0.512229 0.793749,-0.03568 0,0.599695 1.005772,1.685383 1.826308,1.971424 0.77116,0.268828 0.77116,0.268828 0.06774,-1.088264 -1.083619,-2.090596 -0.951556,-4.419272 0.481738,-8.494543 1.206272,-3.429779 1.238694,-4.265612 0.22918,-5.908097 -0.916923,-1.491838 -1.90448,-2.0251443 -2.847279,-1.537604 -1.156197,0.5978927 -1.23868,0.5037806 -0.314833,-0.3592211 0.853619,-0.7973996 1.203913,-2.9337065 0.54756,-3.339355 -0.659461,-0.4075692 -2.371662,1.8664006 -2.371662,3.1497977 0,1.4044678 -0.456372,1.6650091 -0.579341,0.3307437 C 16.173368,5.3690367 13.155622,6.9839688 11.63746,9.8323324 10.502886,11.961011 9.517584,13.03173 7.6484174,14.167188 c -2.5378531,1.541665 -2.0882366,5.311829 0.5248365,4.400907 0.8583612,-0.299226 1.2247387,-0.138941 0.8139117,0.356075 -0.8842594,1.065467 0.6509416,1.690092 1.7050054,0.693712 1.003828,-0.948892 1.576864,-1.240092 2.917451,-1.482559 0.574046,-0.103826 1.615843,-0.478691 2.315104,-0.833033 0.69926,-0.354343 1.271383,-0.523938 1.271383,-0.376878 0,0.348806 -2.051194,1.831685 -2.790267,2.017181 -0.315375,0.07915 -0.823899,0.58178 -1.130055,1.116947 -0.306155,0.535166 -1.275734,1.797896 -2.15462,2.806065 -1.9174815,2.199541 -1.9010869,3.32634 0.0484,3.32634 0.279655,0 0.470295,0.196629 0.470295,0.485068 0,0.26679 0.07937,0.564447 0.176389,0.661459 0.412974,0.412974 0.532214,0.09866 0.417091,-1.099453 z M 7.6373595,16.068524 c 0.3117987,-0.394908 0.3055656,-0.459916 -0.044097,-0.459916 -0.2239726,0 -0.4745767,0.148828 -0.5568978,0.330729 -0.082321,0.181901 -0.1203778,0.0926 -0.084571,-0.198437 0.04729,-0.38438 0.2631937,-0.529167 0.7890843,-0.529167 0.9436287,0 1.0219184,0.357931 0.194814,0.890665 -0.6226961,0.401076 -0.6401787,0.399091 -0.2983322,-0.03387 z m 4.8426835,-4.749407 c 0.07712,-0.543704 0.247404,-0.612994 1.673357,-0.680903 1.5875,-0.0756 1.5875,-0.0756 0.661458,0.422415 -1.637326,0.880543 -2.435583,0.968918 -2.334815,0.258488 z m 10.536898,15.584852 c 0,-0.335989 -0.174807,-0.842005 -0.38846,-1.124479 -0.361415,-0.477834 -0.389046,-0.435303 -0.396875,0.610888 -0.0062,0.826889 0.09662,1.124479 0.38846,1.124479 0.238183,0 0.396875,-0.244266 0.396875,-0.610888 z m 2.38125,-1.662518 c 0,-0.07873 -0.293973,-0.528568 -0.653272,-0.999635 C 22.994211,21.946521 22.86072,19.88383 24.213308,16.027413 26.142847,10.526026 24.02761,4.2315252 20.249357,4.2315252 c -0.676474,0 -0.05165,2.1181945 0.767363,2.6014261 2.58379,1.5244735 3.107442,4.2608427 1.603424,8.3787817 -1.647272,4.510163 -1.579085,6.478084 0.326433,9.421029 0.90278,1.394284 2.451614,1.77883 2.451614,0.608689 z M 15.496328,5.839321 c 0.492328,-0.092316 1.170677,-0.5608274 1.71735,-1.1861127 L 18.117265,3.6196831 16.383722,3.7588355 C 13.50618,3.9898167 11.934757,4.8460483 12.875463,5.6704034 13.379977,6.112516 13.796853,6.271978 14.1534,6.1592351 14.444441,6.0672056 15.048759,5.9232442 15.496328,5.839321 Z"
           id="path138882" />
        <path
           style="fill:#ffffff;stroke-width:0.176777;filter:url(#filter142631)"
           d="m 45.103578,103.57206 c -0.546139,-0.38334 -0.854733,-1.15547 -1.009882,-2.5268 -0.192664,-1.702927 -0.503041,-1.968099 -2.521632,-2.154363 -2.655486,-0.245032 -3.766726,-0.692009 -4.461817,-1.794682 -0.297774,-0.472379 -0.348607,-0.778827 -0.282255,-1.701567 0.152388,-2.119208 1.706596,-4.67005 5.776807,-9.481174 3.038495,-3.591601 5.763223,-7.149347 7.526595,-9.827669 1.784522,-2.710441 2.947281,-3.833192 4.639437,-4.479801 2.453042,-0.93736 7.137433,-4.053624 9.212113,-6.128303 1.203825,-1.203825 1.375752,-1.749703 0.551085,-1.749703 -0.665532,0 -2.730802,0.741872 -4.429953,1.591297 -3.092777,1.546113 -5.843933,2.465433 -10.836362,3.621056 -3.216208,0.744472 -5.149324,1.795779 -8.158782,4.437076 -0.977205,0.85766 -2.184224,1.735678 -2.734922,1.989455 -2.05589,0.947416 -4.434263,0.602116 -5.072583,-0.736457 -0.395876,-0.830159 -0.221269,-1.612608 0.644161,-2.886618 1.070064,-1.575252 0.913363,-2.182178 -0.563414,-2.182178 -0.462986,0 -1.461333,0.201142 -2.218547,0.446984 -3.072059,0.997388 -5.07544,0.738748 -6.676085,-0.861898 -2.116575,-2.116574 -2.435936,-5.973741 -0.795356,-9.606106 1.170949,-2.592564 2.672247,-4.188099 5.988731,-6.364645 6.814617,-4.472302 9.631166,-7.536344 13.950317,-15.176145 2.054231,-3.633567 3.410489,-5.531636 5.570076,-7.795268 2.720111,-2.85116 5.625849,-4.834803 7.978897,-5.446903 1.423078,-0.370187 2.001691,-0.345683 2.920364,0.123672 0.993759,0.507717 1.351192,1.206047 1.690231,3.302268 0.326565,2.019105 0.665423,2.889382 1.094171,2.810132 0.596281,-0.110216 0.944205,-1.241445 1.116467,-3.630041 0.114854,-1.592561 0.30069,-2.692476 0.628339,-3.718952 1.02287,-3.204508 3.924614,-7.262768 6.248091,-8.738323 1.373995,-0.872575 2.277623,-0.576511 2.917963,0.956039 0.405219,0.969828 0.363619,3.790942 -0.08175,5.543454 -0.64166,2.524933 -1.529044,4.08063 -3.524389,6.178705 -2.611201,2.745638 -2.368421,2.988637 1.278061,1.279212 1.799709,-0.84368 2.097654,-0.929747 3.224112,-0.93134 1.809053,-0.0026 3.252957,0.739454 5.122807,2.632581 1.641575,1.66201 2.812711,3.348465 4.10025,5.90443 1.24841,2.47828 1.540515,3.864054 1.418681,6.730336 -0.124643,2.932414 -0.647091,4.991534 -3.212549,12.661615 -3.87908,11.597481 -4.83675,16.226829 -4.640501,22.432032 0.143889,4.549596 0.685299,6.563737 3.050423,11.348079 1.496291,3.026808 1.698646,3.608159 1.255914,3.608159 -0.361371,0 -2.068632,-0.614164 -2.952993,-1.0623 -1.826026,-0.925309 -4.265864,-3.294743 -5.153573,-5.004861 -0.21091,-0.406307 -0.47216,-1.215672 -0.580552,-1.79859 -0.153538,-0.825697 -0.28891,-1.105632 -0.612745,-1.267081 -0.584836,-0.291572 -1.107347,-0.04925 -2.325347,1.0784 -1.394507,1.291068 -2.343094,1.606267 -4.754309,1.579777 -2.199694,-0.02417 -3.39465,-0.356682 -5.204447,-1.448221 -0.674069,-0.40655 -1.312339,-0.739182 -1.418379,-0.739182 -0.480367,0 -1.023287,0.664769 -1.894372,2.319533 -1.614159,3.066353 -2.728425,4.011714 -6.593048,5.593639 -2.937177,1.20229 -3.68817,1.648535 -4.047021,2.404757 -0.346635,0.730475 -0.351609,1.003671 -0.08413,4.619702 0.285233,3.856061 0.03326,4.815841 -1.0624,4.046781 z M 29.985396,60.979278 c 2.158128,-1.374822 2.77098,-2.591228 1.613438,-3.202396 -0.826423,-0.436342 -3.533817,-0.435757 -4.344955,9.38e-4 -0.683215,0.367825 -1.090928,1.202063 -1.090928,2.23219 0,0.849541 0.166359,0.900633 0.591133,0.181549 0.172594,-0.29218 0.543768,-0.650152 0.82483,-0.795495 0.557225,-0.288151 1.863821,-0.35828 2.0183,-0.108327 0.053,0.08576 -0.300273,0.693257 -0.785062,1.349987 -0.484789,0.656731 -0.881434,1.264774 -0.881434,1.351209 0,0.184617 0.787153,-0.202185 2.054678,-1.009655 z m 21.165383,-16.8847 c 1.751613,-0.586597 6.647037,-3.026965 7.119564,-3.549102 0.270513,-0.298913 0.2691,-0.329759 -0.02017,-0.440762 -0.409749,-0.157236 -6.732806,0.06697 -8.293002,0.294062 -2.051021,0.298528 -2.657346,0.809844 -2.860604,2.412366 -0.104925,0.827239 -0.0724,0.958731 0.33889,1.370019 0.625047,0.625047 1.662543,0.600869 3.71532,-0.08658 z"
           id="path140879"
           transform="scale(0.26458333)" />
        <path
           style="fill:#ffffff;stroke-width:0.176777;filter:url(#filter142625)"
           d="M 92.043355,97.5893 C 91.049646,97.234927 89.486931,96.146378 88.452814,95.088219 86.593321,93.185496 83.545539,87.749178 82.40125,84.29407 c -0.921886,-2.783577 -1.166443,-4.413016 -1.163134,-7.749761 0.005,-5.034029 0.709984,-8.244347 3.882049,-17.67767 2.928832,-8.709978 3.501334,-11.370733 3.51835,-16.351844 0.008,-2.32715 -0.06714,-3.456301 -0.303091,-4.557597 -1.110884,-5.185042 -3.609797,-8.781694 -8.209167,-11.815339 -1.526454,-1.006816 -2.46329,-2.062332 -3.280141,-3.695678 -1.130262,-2.260028 -1.628634,-5.373474 -0.966189,-6.036006 0.377633,-0.377682 2.035184,-0.360888 3.609257,0.03657 1.528119,0.385853 4.057078,1.695901 5.363629,2.778458 7.997315,6.626261 11.403637,22.232968 7.9613,36.476193 -0.284203,1.175931 -1.083652,3.880614 -1.776554,6.010408 -2.151163,6.612088 -2.808989,9.747244 -2.945282,14.03701 -0.107349,3.378775 0.156353,5.455527 1.020093,8.033618 0.70257,2.097032 2.189689,4.927112 3.627844,6.904012 0.636577,0.875045 1.61854,2.281136 2.182139,3.124645 0.978984,1.465193 1.018526,1.567553 0.885853,2.293084 -0.207933,1.137109 -0.965199,1.744017 -2.163541,1.733969 -0.508909,-0.0043 -1.229498,-0.116247 -1.60131,-0.248842 z"
           id="path141019"
           transform="scale(0.26458333)" />
        <path
           style="fill:#ffffff;stroke-width:0.176777;filter:url(#filter142619)"
           d="m 50.805435,22.787235 c -1.830792,-0.970132 -3.073714,-2.302796 -3.075067,-3.297095 -9.64e-4,-0.708652 1.095312,-1.825174 2.473573,-2.519255 3.178613,-1.600724 7.761505,-2.459479 16.175708,-3.031049 2.069951,-0.14061 2.1464,-0.474864 -0.607861,2.657713 -3.27628,3.726296 -5.075127,4.913925 -8.595456,5.674862 -1.160715,0.250894 -2.50269,0.572621 -2.982166,0.714948 -1.326633,0.393796 -2.385971,0.331236 -3.388731,-0.200124 z"
           id="path141159"
           transform="scale(0.26458333)" />
        <path
           style="fill:#ffffff;stroke-width:0.176777;filter:url(#filter142613)"
           d="m 64.325907,115.46429 c -0.825168,-0.30519 -1.543041,-0.74165 -4.133442,-2.51309 -3.321517,-2.27142 -5.326827,-3.88529 -7.344037,-5.91048 -4.153908,-4.17034 -5.702342,-7.85315 -4.395465,-10.454214 0.463746,-0.922986 1.212746,-1.481375 3.421644,-2.550877 2.496294,-1.208653 3.748319,-2.15519 5.411966,-4.09147 0.735211,-0.855696 1.626773,-1.713736 1.981248,-1.906754 0.571645,-0.311272 0.710291,-0.324537 1.226513,-0.117348 2.021978,0.811531 2.632679,0.962487 4.225445,1.044463 1.988896,0.102363 3.675285,-0.151361 5.051608,-0.760037 0.540806,-0.23917 1.158393,-0.434854 1.372415,-0.434854 0.463422,0 0.986626,0.53378 1.472829,1.502602 0.391716,0.780543 1.985742,2.370713 3.220571,3.21278 0.437522,0.29836 1.869414,1.080014 3.181981,1.73701 3.220146,1.611822 3.692055,2.015165 3.706045,3.167579 0.0085,0.69963 -0.834191,3.86664 -1.32909,4.99504 -1.375535,3.13629 -5.146185,6.86371 -10.536566,10.41576 -4.100744,2.70224 -5.208648,3.15395 -6.533665,2.66389 z"
           id="path141299"
           transform="scale(0.26458333)" />
        <path
           style="fill:#ffffff;stroke-width:0.176777;filter:url(#filter142607)"
           d="m 100.8511,109.39852 c -0.68059,-0.14443 -2.551278,-0.69338 -4.15709,-1.21988 -5.532185,-1.81386 -7.949385,-3.38122 -7.951448,-5.15587 -0.001,-0.88188 0.833843,-1.66959 2.879098,-2.71647 2.547122,-1.303757 3.607877,-2.066054 5.388781,-3.872571 0.85707,-0.869396 1.850522,-1.702814 2.207672,-1.852041 2.537647,-1.060298 4.604407,0.880858 5.357577,5.03198 0.45222,2.492432 0.22545,7.872202 -0.38129,9.045502 -0.27125,0.52455 -1.18653,1.044 -1.79082,1.01636 -0.17327,-0.008 -0.87189,-0.13258 -1.55248,-0.27701 z"
           id="path141439"
           transform="scale(0.26458333)" />
        <path
           style="fill:#ffffff;stroke-width:0.176777;filter:url(#filter142601)"
           d="m 84.923472,103.72102 c -0.533627,-0.35631 -0.679665,-1.08197 -0.746757,-3.71061 -0.06851,-2.684293 0.0092,-3.578723 0.310857,-3.578723 0.08709,0 0.452125,0.400197 0.81118,0.889328 1.610476,2.193908 2.081245,5.452995 0.906526,6.275805 -0.398255,0.27895 -0.96745,0.3341 -1.281806,0.1242 z"
           id="path141579"
           transform="scale(0.26458333)" />
        <path
           style="fill:#ffffff;stroke-width:0.176777;filter:url(#filter142595)"
           d="m 27.78028,109.95809 c -1.112018,-1.26651 -1.690365,-4.33917 -1.587765,-8.43552 0.06148,-2.45477 0.109768,-2.794887 0.523096,-3.684736 0.611276,-1.316006 1.397496,-2.173112 2.495128,-2.720084 1.705569,-0.849921 3.11899,-0.545113 4.393566,0.947484 1.149143,1.345708 2.81993,2.565487 4.923034,3.594124 3.860014,1.887952 4.698492,3.790802 2.655421,6.026242 -0.962469,1.0531 -2.793613,2.10481 -4.766761,2.73778 -1.072358,0.344 -7.793509,2.15044 -8.001067,2.15044 -0.05172,0 -0.337313,-0.27707 -0.634652,-0.61573 z"
           id="path141719"
           transform="scale(0.26458333)" />
        <path
           style="fill:#ffffff;stroke-width:0.176777;filter:url(#filter142589)"
           d="m 36.681164,113.81326 c -1.896231,-0.0767 -5.048178,-0.40569 -5.80087,-0.60541 -1.446761,-0.3839 -0.506253,-0.80949 3.290987,-1.48921 3.444645,-0.61661 5.381327,-1.18993 7.459631,-2.20828 2.159457,-1.05812 3.437016,-1.30025 5.577297,-1.05705 3.574708,0.40618 6.825737,2.21516 7.501097,4.17386 0.221655,0.64285 0.213576,0.69539 -0.126509,0.823 -0.900122,0.33773 -12.642658,0.5759 -17.901633,0.36309 z"
           id="path141859"
           transform="scale(0.26458333)" />
        <path
           style="fill:#ffffff;stroke-width:0.176777;filter:url(#filter142583)"
           d="m 75.136409,113.51297 c 0.925651,-0.86839 5.167746,-4.32453 5.805714,-4.73006 1.778564,-1.13058 3.143592,-1.08644 8.952137,0.28949 6.406907,1.51766 9.303362,2.44424 9.536037,3.05059 0.155836,0.4061 -0.436241,0.92377 -1.271088,1.11135 -1.620574,0.36412 -5.934345,0.52063 -14.360742,0.52103 -7.572905,3.7e-4 -8.881796,-0.0363 -8.662058,-0.2424 z"
           id="path141999"
           transform="scale(0.26458333)" />
      </g>
    </g>
  </g>
</svg>
