<?xml version="1.0" encoding="UTF-8" standalone="no"?>
<!-- Created with Inkscape (http://www.inkscape.org/) -->

<svg
   width="31.999998"
   height="31.999998"
   viewBox="0 0 8.466666 8.4666661"
   version="1.1"
   id="svg5"
   inkscape:export-filename="C:\Users\bmill\projects\chess2-canvas\src\assets\e_q.svg"
   inkscape:export-xdpi="96"
   inkscape:export-ydpi="96"
   sodipodi:docname="a_r.svg"
   xmlns:inkscape="http://www.inkscape.org/namespaces/inkscape"
   xmlns:sodipodi="http://sodipodi.sourceforge.net/DTD/sodipodi-0.dtd"
   xmlns="http://www.w3.org/2000/svg"
   xmlns:svg="http://www.w3.org/2000/svg">
  <sodipodi:namedview
     id="namedview7"
     pagecolor="#505050"
     bordercolor="#ffffff"
     borderopacity="1"
     inkscape:pageshadow="0"
     inkscape:pageopacity="0"
     inkscape:pagecheckerboard="1"
     inkscape:deskcolor="#505050"
     inkscape:document-units="mm"
     showgrid="false" />
  <defs
     id="defs2">
    <filter
       style="color-interpolation-filters:sRGB"
       inkscape:label="Invert"
       id="filter145958"
       x="0"
       y="0"
       width="1"
       height="1">
      <feColorMatrix
         type="hueRotate"
         values="180"
         result="color1"
         id="feColorMatrix145954" />
      <feColorMatrix
         values="-1 0 0 0 1 0 -1 0 0 1 0 0 -1 0 1 -0.21 -0.72 -0.07 2 0 "
         result="fbSourceGraphic"
         id="feColorMatrix145956" />
      <feColorMatrix
         result="fbSourceGraphicAlpha"
         in="fbSourceGraphic"
         values="0 0 0 -1 0 0 0 0 -1 0 0 0 0 -1 0 0 0 0 1 0"
         id="feColorMatrix146071" />
      <feColorMatrix
         id="feColorMatrix146073"
         type="hueRotate"
         values="180"
         result="color1"
         in="fbSourceGraphic" />
      <feColorMatrix
         id="feColorMatrix146075"
         values="-1 0 0 0 1 0 -1 0 0 1 0 0 -1 0 1 -0.21 -0.72 -0.07 2 0 "
         result="fbSourceGraphic" />
      <feColorMatrix
         result="fbSourceGraphicAlpha"
         in="fbSourceGraphic"
         values="0 0 0 -1 0 0 0 0 -1 0 0 0 0 -1 0 0 0 0 1 0"
         id="feColorMatrix146188" />
      <feColorMatrix
         id="feColorMatrix146190"
         type="hueRotate"
         values="180"
         result="color1"
         in="fbSourceGraphic" />
      <feColorMatrix
         id="feColorMatrix146192"
         values="-1 0 0 0 1 0 -1 0 0 1 0 0 -1 0 1 -0.21 -0.72 -0.07 2 0 "
         result="color2" />
    </filter>
    <filter
       style="color-interpolation-filters:sRGB"
       inkscape:label="Invert"
       id="filter145964"
       x="0"
       y="0"
       width="1"
       height="1">
      <feColorMatrix
         type="hueRotate"
         values="180"
         result="color1"
         id="feColorMatrix145960" />
      <feColorMatrix
         values="-1 0 0 0 1 0 -1 0 0 1 0 0 -1 0 1 -0.21 -0.72 -0.07 2 0 "
         result="fbSourceGraphic"
         id="feColorMatrix145962" />
      <feColorMatrix
         result="fbSourceGraphicAlpha"
         in="fbSourceGraphic"
         values="0 0 0 -1 0 0 0 0 -1 0 0 0 0 -1 0 0 0 0 1 0"
         id="feColorMatrix146077" />
      <feColorMatrix
         id="feColorMatrix146079"
         type="hueRotate"
         values="180"
         result="color1"
         in="fbSourceGraphic" />
      <feColorMatrix
         id="feColorMatrix146081"
         values="-1 0 0 0 1 0 -1 0 0 1 0 0 -1 0 1 -0.21 -0.72 -0.07 2 0 "
         result="fbSourceGraphic" />
      <feColorMatrix
         result="fbSourceGraphicAlpha"
         in="fbSourceGraphic"
         values="0 0 0 -1 0 0 0 0 -1 0 0 0 0 -1 0 0 0 0 1 0"
         id="feColorMatrix146194" />
      <feColorMatrix
         id="feColorMatrix146196"
         type="hueRotate"
         values="180"
         result="color1"
         in="fbSourceGraphic" />
      <feColorMatrix
         id="feColorMatrix146198"
         values="-1 0 0 0 1 0 -1 0 0 1 0 0 -1 0 1 -0.21 -0.72 -0.07 2 0 "
         result="color2" />
    </filter>
    <filter
       style="color-interpolation-filters:sRGB"
       inkscape:label="Invert"
       id="filter145970"
       x="0"
       y="0"
       width="1"
       height="1">
      <feColorMatrix
         type="hueRotate"
         values="180"
         result="color1"
         id="feColorMatrix145966" />
      <feColorMatrix
         values="-1 0 0 0 1 0 -1 0 0 1 0 0 -1 0 1 -0.21 -0.72 -0.07 2 0 "
         result="fbSourceGraphic"
         id="feColorMatrix145968" />
      <feColorMatrix
         result="fbSourceGraphicAlpha"
         in="fbSourceGraphic"
         values="0 0 0 -1 0 0 0 0 -1 0 0 0 0 -1 0 0 0 0 1 0"
         id="feColorMatrix146083" />
      <feColorMatrix
         id="feColorMatrix146085"
         type="hueRotate"
         values="180"
         result="color1"
         in="fbSourceGraphic" />
      <feColorMatrix
         id="feColorMatrix146087"
         values="-1 0 0 0 1 0 -1 0 0 1 0 0 -1 0 1 -0.21 -0.72 -0.07 2 0 "
         result="fbSourceGraphic" />
      <feColorMatrix
         result="fbSourceGraphicAlpha"
         in="fbSourceGraphic"
         values="0 0 0 -1 0 0 0 0 -1 0 0 0 0 -1 0 0 0 0 1 0"
         id="feColorMatrix146200" />
      <feColorMatrix
         id="feColorMatrix146202"
         type="hueRotate"
         values="180"
         result="color1"
         in="fbSourceGraphic" />
      <feColorMatrix
         id="feColorMatrix146204"
         values="-1 0 0 0 1 0 -1 0 0 1 0 0 -1 0 1 -0.21 -0.72 -0.07 2 0 "
         result="color2" />
    </filter>
    <filter
       style="color-interpolation-filters:sRGB"
       inkscape:label="Invert"
       id="filter145976"
       x="0"
       y="0"
       width="1"
       height="1">
      <feColorMatrix
         type="hueRotate"
         values="180"
         result="color1"
         id="feColorMatrix145972" />
      <feColorMatrix
         values="-1 0 0 0 1 0 -1 0 0 1 0 0 -1 0 1 -0.21 -0.72 -0.07 2 0 "
         result="fbSourceGraphic"
         id="feColorMatrix145974" />
      <feColorMatrix
         result="fbSourceGraphicAlpha"
         in="fbSourceGraphic"
         values="0 0 0 -1 0 0 0 0 -1 0 0 0 0 -1 0 0 0 0 1 0"
         id="feColorMatrix146089" />
      <feColorMatrix
         id="feColorMatrix146091"
         type="hueRotate"
         values="180"
         result="color1"
         in="fbSourceGraphic" />
      <feColorMatrix
         id="feColorMatrix146093"
         values="-1 0 0 0 1 0 -1 0 0 1 0 0 -1 0 1 -0.21 -0.72 -0.07 2 0 "
         result="fbSourceGraphic" />
      <feColorMatrix
         result="fbSourceGraphicAlpha"
         in="fbSourceGraphic"
         values="0 0 0 -1 0 0 0 0 -1 0 0 0 0 -1 0 0 0 0 1 0"
         id="feColorMatrix146206" />
      <feColorMatrix
         id="feColorMatrix146208"
         type="hueRotate"
         values="180"
         result="color1"
         in="fbSourceGraphic" />
      <feColorMatrix
         id="feColorMatrix146210"
         values="-1 0 0 0 1 0 -1 0 0 1 0 0 -1 0 1 -0.21 -0.72 -0.07 2 0 "
         result="color2" />
    </filter>
    <filter
       style="color-interpolation-filters:sRGB"
       inkscape:label="Invert"
       id="filter145982"
       x="0"
       y="0"
       width="1"
       height="1">
      <feColorMatrix
         type="hueRotate"
         values="180"
         result="color1"
         id="feColorMatrix145978" />
      <feColorMatrix
         values="-1 0 0 0 1 0 -1 0 0 1 0 0 -1 0 1 -0.21 -0.72 -0.07 2 0 "
         result="fbSourceGraphic"
         id="feColorMatrix145980" />
      <feColorMatrix
         result="fbSourceGraphicAlpha"
         in="fbSourceGraphic"
         values="0 0 0 -1 0 0 0 0 -1 0 0 0 0 -1 0 0 0 0 1 0"
         id="feColorMatrix146095" />
      <feColorMatrix
         id="feColorMatrix146097"
         type="hueRotate"
         values="180"
         result="color1"
         in="fbSourceGraphic" />
      <feColorMatrix
         id="feColorMatrix146099"
         values="-1 0 0 0 1 0 -1 0 0 1 0 0 -1 0 1 -0.21 -0.72 -0.07 2 0 "
         result="fbSourceGraphic" />
      <feColorMatrix
         result="fbSourceGraphicAlpha"
         in="fbSourceGraphic"
         values="0 0 0 -1 0 0 0 0 -1 0 0 0 0 -1 0 0 0 0 1 0"
         id="feColorMatrix146212" />
      <feColorMatrix
         id="feColorMatrix146214"
         type="hueRotate"
         values="180"
         result="color1"
         in="fbSourceGraphic" />
      <feColorMatrix
         id="feColorMatrix146216"
         values="-1 0 0 0 1 0 -1 0 0 1 0 0 -1 0 1 -0.21 -0.72 -0.07 2 0 "
         result="color2" />
    </filter>
    <filter
       style="color-interpolation-filters:sRGB"
       inkscape:label="Invert"
       id="filter145988"
       x="0"
       y="0"
       width="1"
       height="1">
      <feColorMatrix
         type="hueRotate"
         values="180"
         result="color1"
         id="feColorMatrix145984" />
      <feColorMatrix
         values="-1 0 0 0 1 0 -1 0 0 1 0 0 -1 0 1 -0.21 -0.72 -0.07 2 0 "
         result="fbSourceGraphic"
         id="feColorMatrix145986" />
      <feColorMatrix
         result="fbSourceGraphicAlpha"
         in="fbSourceGraphic"
         values="0 0 0 -1 0 0 0 0 -1 0 0 0 0 -1 0 0 0 0 1 0"
         id="feColorMatrix146101" />
      <feColorMatrix
         id="feColorMatrix146103"
         type="hueRotate"
         values="180"
         result="color1"
         in="fbSourceGraphic" />
      <feColorMatrix
         id="feColorMatrix146105"
         values="-1 0 0 0 1 0 -1 0 0 1 0 0 -1 0 1 -0.21 -0.72 -0.07 2 0 "
         result="fbSourceGraphic" />
      <feColorMatrix
         result="fbSourceGraphicAlpha"
         in="fbSourceGraphic"
         values="0 0 0 -1 0 0 0 0 -1 0 0 0 0 -1 0 0 0 0 1 0"
         id="feColorMatrix146218" />
      <feColorMatrix
         id="feColorMatrix146220"
         type="hueRotate"
         values="180"
         result="color1"
         in="fbSourceGraphic" />
      <feColorMatrix
         id="feColorMatrix146222"
         values="-1 0 0 0 1 0 -1 0 0 1 0 0 -1 0 1 -0.21 -0.72 -0.07 2 0 "
         result="color2" />
    </filter>
    <filter
       style="color-interpolation-filters:sRGB"
       inkscape:label="Invert"
       id="filter145994"
       x="0"
       y="0"
       width="1"
       height="1">
      <feColorMatrix
         type="hueRotate"
         values="180"
         result="color1"
         id="feColorMatrix145990" />
      <feColorMatrix
         values="-1 0 0 0 1 0 -1 0 0 1 0 0 -1 0 1 -0.21 -0.72 -0.07 2 0 "
         result="fbSourceGraphic"
         id="feColorMatrix145992" />
      <feColorMatrix
         result="fbSourceGraphicAlpha"
         in="fbSourceGraphic"
         values="0 0 0 -1 0 0 0 0 -1 0 0 0 0 -1 0 0 0 0 1 0"
         id="feColorMatrix146107" />
      <feColorMatrix
         id="feColorMatrix146109"
         type="hueRotate"
         values="180"
         result="color1"
         in="fbSourceGraphic" />
      <feColorMatrix
         id="feColorMatrix146111"
         values="-1 0 0 0 1 0 -1 0 0 1 0 0 -1 0 1 -0.21 -0.72 -0.07 2 0 "
         result="fbSourceGraphic" />
      <feColorMatrix
         result="fbSourceGraphicAlpha"
         in="fbSourceGraphic"
         values="0 0 0 -1 0 0 0 0 -1 0 0 0 0 -1 0 0 0 0 1 0"
         id="feColorMatrix146224" />
      <feColorMatrix
         id="feColorMatrix146226"
         type="hueRotate"
         values="180"
         result="color1"
         in="fbSourceGraphic" />
      <feColorMatrix
         id="feColorMatrix146228"
         values="-1 0 0 0 1 0 -1 0 0 1 0 0 -1 0 1 -0.21 -0.72 -0.07 2 0 "
         result="color2" />
    </filter>
    <filter
       style="color-interpolation-filters:sRGB"
       inkscape:label="Invert"
       id="filter146000"
       x="0"
       y="0"
       width="1"
       height="1">
      <feColorMatrix
         type="hueRotate"
         values="180"
         result="color1"
         id="feColorMatrix145996" />
      <feColorMatrix
         values="-1 0 0 0 1 0 -1 0 0 1 0 0 -1 0 1 -0.21 -0.72 -0.07 2 0 "
         result="fbSourceGraphic"
         id="feColorMatrix145998" />
      <feColorMatrix
         result="fbSourceGraphicAlpha"
         in="fbSourceGraphic"
         values="0 0 0 -1 0 0 0 0 -1 0 0 0 0 -1 0 0 0 0 1 0"
         id="feColorMatrix146113" />
      <feColorMatrix
         id="feColorMatrix146115"
         type="hueRotate"
         values="180"
         result="color1"
         in="fbSourceGraphic" />
      <feColorMatrix
         id="feColorMatrix146117"
         values="-1 0 0 0 1 0 -1 0 0 1 0 0 -1 0 1 -0.21 -0.72 -0.07 2 0 "
         result="fbSourceGraphic" />
      <feColorMatrix
         result="fbSourceGraphicAlpha"
         in="fbSourceGraphic"
         values="0 0 0 -1 0 0 0 0 -1 0 0 0 0 -1 0 0 0 0 1 0"
         id="feColorMatrix146230" />
      <feColorMatrix
         id="feColorMatrix146232"
         type="hueRotate"
         values="180"
         result="color1"
         in="fbSourceGraphic" />
      <feColorMatrix
         id="feColorMatrix146234"
         values="-1 0 0 0 1 0 -1 0 0 1 0 0 -1 0 1 -0.21 -0.72 -0.07 2 0 "
         result="color2" />
    </filter>
    <filter
       style="color-interpolation-filters:sRGB"
       inkscape:label="Invert"
       id="filter82462"
       x="0"
       y="0"
       width="1"
       height="1">
      <feColorMatrix
         type="hueRotate"
         values="180"
         result="color1"
         id="feColorMatrix82458" />
      <feColorMatrix
         values="-1 0 0 0 1 0 -1 0 0 1 0 0 -1 0 1 -0.21 -0.72 -0.07 2 0 "
         result="color2"
         id="feColorMatrix82460" />
    </filter>
  </defs>
  <g
     inkscape:label="Layer 1"
     inkscape:groupmode="layer"
     id="layer1">
    <g
       inkscape:label="Layer 1"
       id="layer1-6"
       transform="translate(0.11288508,-11.602184)">
      <g
         inkscape:label="Layer 1"
         id="layer1-8"
         transform="matrix(0.27269948,0,0,0.27034628,-0.36258196,11.242582)"
         style="filter:url(#filter82462)">
        <path
           style="fill:#000000;stroke-width:0.264583;filter:url(#filter146000)"
           d="M 7.361775,30.312356 C 6.4721514,29.595563 6.6987051,28.479145 8.1384604,26.484986 8.7938724,25.577198 9.7727201,23.542914 9.7819641,23.069388 9.7851603,22.905677 9.428107,22.699798 8.9885129,22.611879 8.3562768,22.485432 8.1546651,22.279098 8.0237495,21.624521 7.8633361,20.822453 5.2008598,19.19042 3.1985856,18.666813 1.616343,18.253048 5.8527841,14.35623 9.0333328,13.299822 L 10.31883,12.872848 9.4579901,11.672053 C 8.984528,11.011615 8.0911344,10.122636 7.4726709,9.6965443 5.6850388,8.4649502 5.9740389,8.0019691 8.7075648,7.7182326 9.8610521,7.598502 10.599839,7.7044187 12.079808,8.2017007 c 1.895158,0.6367874 1.895158,0.6367874 2.337988,-0.291836 1.131746,-2.3732962 4.531011,-5.2608049 5.294445,-4.4973709 0.393964,0.3939641 1.452617,4.1210411 1.452617,5.1140617 0,0.5187974 0.143144,0.552989 2.315104,0.552989 2.421749,0 4.075393,0.445081 5.817285,1.5657325 1.291987,0.831204 0.906748,1.231452 -1.545365,1.605569 -0.5373,0.08198 -1.390397,0.523071 -1.954152,1.010399 l -1.000552,0.864909 1.107289,0.499318 c 1.938103,0.873963 3.192099,2.827511 3.196414,4.979563 0.0016,0.856837 -0.630264,1.21235 -1.352899,0.761057 -0.871657,-0.544359 -1.905749,-0.395848 -1.736998,0.249457 0.228377,0.873313 -0.353726,1.839786 -1.211411,2.011323 -0.939776,0.187955 -0.851354,0.807519 0.420393,2.945632 0.461826,0.77644 0.974722,1.649667 1.139769,1.940502 0.165049,0.290835 0.43294,0.661646 0.595312,0.824018 0.447577,0.447578 0.353695,1.377384 -0.188627,1.868178 -0.635213,0.57486 -18.7003586,0.674616 -19.404645,0.107154 z m 19.094749,-1.124479 c 0,-0.661459 0,-0.661459 -9.377093,-0.661459 -9.4335078,0 -9.9144816,0.04717 -9.5723638,0.938713 0.3104028,0.808895 18.9494568,0.536183 18.9494568,-0.277254 z m -0.79375,-1.574237 c 0,-0.06546 -0.338197,-0.631012 -0.75155,-1.25677 -1.692752,-2.562593 -1.984438,-4.111625 -0.796487,-4.229834 0.995972,-0.0991 1.545282,-0.799302 1.136036,-1.448091 -0.506129,-0.802381 -3.489044,-0.66159 -3.698291,0.174557 -0.09104,0.363802 -1.153176,1.625286 -2.360298,2.803298 -1.207122,1.178011 -2.407737,2.466872 -2.668033,2.864135 -0.568041,0.866939 -2.380007,-1.5673 -3.217217,-4.322088 -0.246989,-0.8127 -0.466716,-1.508965 -0.488282,-1.547255 -0.02157,-0.03829 -0.495207,0.120908 -1.052535,0.353774 -0.696862,0.291167 -1.370584,0.369819 -2.1572906,0.251845 -0.6291823,-0.09435 -1.1439681,-0.069 -1.1439681,0.05633 0,0.454418 0.651279,0.862879 1.3758333,0.862879 1.1562694,0 0.6455284,2.259331 -0.9977834,4.413824 -0.3534481,0.463394 -0.6426332,0.91001 -0.6426332,0.992481 0,0.08247 3.929062,0.149945 8.73125,0.149945 4.802187,0 8.731249,-0.05356 8.731249,-0.11903 z m -7.452778,-3.746845 c 3.189135,-3.037925 4.055193,-5.219329 2.590231,-6.524206 -0.629213,-0.560455 -0.629213,-0.560455 0.604558,-1.13207 0.72972,-0.338084 1.694959,-1.122451 2.362621,-1.919901 1.310387,-1.565113 2.58592,-2.421368 4.228205,-2.838361 l 1.168376,-0.296662 -1.419879,-0.640182 c -1.996067,-0.8999698 -6.425692,-0.9391348 -8.034459,-0.07104 -2.311104,1.247082 -4.228197,4.573418 -2.84427,4.935076 0.254661,0.06655 -0.0165,0.134811 -0.602587,0.151692 -1.062585,0.03061 -2.241684,0.618412 -2.241684,1.117529 0,0.986822 3.544046,1.231612 4.55715,0.314765 0.275718,-0.249521 0.469933,-0.301508 0.469933,-0.125792 0,0.761377 -1.31153,1.183143 -3.189529,1.025699 -3.094461,-0.259429 -3.519349,1.702643 -1.3116,6.056776 1.348668,2.659848 0.806428,2.66774 3.662934,-0.05333 z m -6.099843,-3.689754 c 0.323421,-0.226533 0.588038,-0.637649 0.588038,-0.913592 0,-0.695524 0.556128,-1.84953 0.891308,-1.84953 0.152461,0 -0.207624,-0.506016 -0.80019,-1.124479 -0.592566,-0.618464 -1.297808,-1.511328 -1.567205,-1.984142 -0.556618,-0.976912 -0.641351,-0.972043 -3.1654231,0.181895 -1.7472522,0.798796 -5.0900894,3.694179 -4.2843035,3.710829 0.2567913,0.0053 1.5069475,0.545216 2.7781248,1.1998 2.5498514,1.313028 4.4227608,1.575528 5.5596508,0.779219 z M 28.30689,18.924733 c 0.0066,-2.820783 -3.208269,-4.903719 -5.029283,-3.258542 -0.538716,0.486696 -1.122834,0.932687 -1.298041,0.991089 -0.237776,0.07926 -0.247277,0.293666 -0.03747,0.845512 0.1546,0.406629 0.281091,1.086501 0.281091,1.510827 0,0.771502 0,0.771502 3.04099,0.71038 3.040989,-0.06112 3.040989,-0.06112 3.042709,-0.799266 z M 14.765765,15.297252 c 0.440959,0 0.396507,-0.173975 -0.277319,-1.085374 C 14.035578,13.599341 13.874649,12.960975 13.799891,11.480549 13.70263,9.5545043 13.699374,9.5471344 12.737241,9.075354 11.578032,8.5069383 7.5755268,8.1951665 7.2936043,8.6513267 7.1930134,8.8140859 7.236458,8.9472528 7.3901479,8.9472528 c 0.5596585,0 2.4195208,1.9517122 3.3692171,3.5356072 2.274558,3.793486 2.449226,3.982598 3.107353,3.36432 0.321954,-0.30246 0.726525,-0.549928 0.899047,-0.549928 z m 1.270453,-0.992187 C 16.730695,12.10892 18.327442,10.196564 19.7687,9.8348317 20.658252,9.6115681 20.412529,5.7894932 19.401155,4.1178918 18.529647,2.6774637 14.285691,8.5936745 14.285691,11.249011 c 0,2.140491 1.314412,4.43518 1.750527,3.056054 z"
           id="path143731" />
        <path
           style="fill:#ffffff;stroke-width:0.176777;filter:url(#filter145994)"
           d="m 50.108554,60.641986 c -1.292343,-0.546508 -3.220109,-3.289075 -8.516957,-12.116783 -2.763002,-4.60481 -5.452766,-8.049232 -8.911133,-11.4113 -2.228224,-2.166179 -3.217737,-2.911774 -4.390443,-3.308188 -0.921123,-0.311371 -1.013404,-0.468131 -0.586085,-0.995602 0.617479,-0.762201 3.614092,-1.041473 7.916568,-0.737792 7.32026,0.516686 12.561699,1.813231 14.740001,3.646152 1.119605,0.942086 1.343097,1.790993 1.603107,6.089215 0.351771,5.815137 0.774699,8.458977 1.61744,10.111083 0.213413,0.418375 0.971481,1.616211 1.684597,2.661856 1.713676,2.512778 1.863922,3.136964 0.755087,3.136964 -0.744449,0 -1.813663,0.582249 -3.279482,1.785869 -1.538404,1.263221 -1.933645,1.434145 -2.6327,1.138526 z"
           id="path144480"
           transform="scale(0.26458333)" />
        <path
           style="fill:#ffffff;stroke-width:0.176777;filter:url(#filter145988)"
           d="m 57.904373,54.664974 c -2.515368,-2.620632 -4.354091,-9.736601 -3.64199,-14.094723 0.805409,-4.929172 5.3292,-13.78748 10.020739,-19.622213 2.619,-3.257174 5.663932,-5.817966 7.277937,-6.120756 0.819704,-0.153777 1.388238,0.30061 2.143062,1.71279 3.330828,6.231563 4.045867,19.351409 1.115052,20.459476 -0.266515,0.100763 -0.877731,0.325645 -1.35826,0.49974 -1.00916,0.365619 -3.003903,1.631778 -4.183439,2.655432 -3.363189,2.918723 -6.440065,7.602814 -8.285282,12.613123 -0.739477,2.007895 -1.291956,2.828428 -1.904434,2.828428 -0.159223,0 -0.691747,-0.419083 -1.183385,-0.931297 z"
           id="path144620"
           transform="scale(0.26458333)" />
        <path
           style="fill:#ffffff;stroke-width:0.176777;filter:url(#filter145982)"
           d="M 58.874634,97.383559 C 58.15939,96.781721 53.611771,87.669515 52.07341,83.755736 49.654647,77.602107 49.230814,73.200594 50.804593,70.579052 c 1.463179,-2.437307 4.304194,-3.303046 9.699424,-2.955694 6.12178,0.394129 10.483836,-0.792296 11.361398,-3.090158 0.557384,-1.459489 -0.05094,-1.752596 -1.43878,-0.693235 -1.104872,0.843367 -2.245805,1.405746 -3.531111,1.740526 -4.663425,1.214668 -11.380435,0.445992 -13.261707,-1.517633 -1.138656,-1.1885 -0.283354,-2.618489 2.316007,-3.872158 1.846907,-0.89076 3.148655,-1.208307 5.768523,-1.407172 1.182437,-0.08975 2.232354,-0.245658 2.333149,-0.346452 0.100794,-0.100795 0.148791,-0.204476 0.106659,-0.230402 -0.04213,-0.02593 -0.394801,-0.20624 -0.78371,-0.400695 -1.419889,-0.709944 -1.649346,-2.220458 -0.736181,-4.846264 0.974672,-2.802671 3.094617,-5.866028 6.195776,-8.953007 2.307975,-2.297421 4.870821,-4.158253 6.815024,-4.948254 2.598761,-1.05597 6.339016,-1.651739 11.246022,-1.791329 5.551789,-0.157932 10.622167,0.346501 14.751514,1.467574 1.83308,0.497662 8.22134,3.239984 8.00222,3.435158 -0.0746,0.06646 -1.20958,0.381928 -2.52214,0.701038 -7.243916,1.761134 -11.409798,4.356249 -16.880577,10.515667 -3.744136,4.215431 -6.131891,6.128125 -10.148874,8.129686 -2.243318,1.117787 -3.199367,1.780654 -3.199367,2.21824 0,0.109637 0.678353,0.90448 1.507451,1.766319 2.56314,2.664357 3.202409,4.780433 2.403133,7.954734 -0.863816,3.430615 -3.026382,6.927829 -7.247318,11.720063 -2.001224,2.27209 -11.189197,11.221376 -12.323995,12.003843 -1.078703,0.743788 -1.661311,0.794123 -2.362499,0.204112 z"
           id="path144760"
           transform="scale(0.26458333)" />
        <path
           style="fill:#ffffff;stroke-width:0.176777;filter:url(#filter145976)"
           d="m 85.736697,74.361167 c -0.848186,-0.18902 -1.373954,-0.497545 -1.475901,-0.866069 -0.0471,-0.17025 -0.138458,-1.065267 -0.203024,-1.988925 -0.139795,-1.99988 -0.464732,-3.664966 -1.076322,-5.515428 -0.247432,-0.748646 -0.456698,-1.601047 -0.465033,-1.894225 -0.01537,-0.540394 0.289178,-1.075628 0.61202,-1.075628 0.274377,0 2.174375,-1.402201 4.168731,-3.076528 2.695658,-2.263093 3.891821,-2.777356 6.446195,-2.771395 1.741048,0.0041 3.14415,0.341031 4.814641,1.156282 4.716226,2.301663 7.870556,7.023131 8.323926,12.45946 0.21745,2.607497 -0.19951,3.052935 -3.15525,3.370751 -2.04459,0.219844 -17.148677,0.389194 -17.989983,0.201705 z"
           id="path144900"
           transform="scale(0.26458333)" />
        <path
           style="fill:#ffffff;stroke-width:0.176777;filter:url(#filter145970)"
           d="M 37.830213,77.755611 C 33.476544,77.101737 31.146069,76.26897 24.04163,72.828427 c -5.146242,-2.492224 -8.321422,-3.864003 -9.413359,-4.066869 -0.464625,-0.08632 -0.662912,-0.215094 -0.662912,-0.430516 0,-1.696502 9.622621,-9.790667 15.202796,-12.787986 1.882507,-1.011164 6.213752,-2.933557 7.993336,-3.547787 1.656576,-0.571774 2.912577,-0.609077 3.552749,-0.105517 0.251258,0.197639 0.833811,0.973247 1.294564,1.723572 1.312618,2.137575 3.554974,5.038837 5.904725,7.639801 2.144306,2.373555 2.679146,3.018293 3.250593,3.918525 0.294252,0.46355 0.290969,0.475313 -0.197577,0.708233 -1.068033,0.509195 -2.53788,3.462015 -2.899622,5.825143 -0.306053,1.999333 -0.649746,2.788463 -1.649625,3.787594 -1.081214,1.080408 -2.494284,1.780808 -4.283457,2.123134 -1.225518,0.23448 -3.238123,0.299886 -4.303628,0.139857 z"
           id="path145040"
           transform="scale(0.26458333)" />
        <path
           style="fill:#ffffff;stroke-width:0.176777;filter:url(#filter145964)"
           d="m 40.305086,104.54491 c -4.326609,-0.0756 -8.174388,-0.20328 -8.550619,-0.28362 l -0.684056,-0.14606 1.263788,-1.85304 c 0.695083,-1.01916 1.816908,-2.648522 2.492945,-3.620794 2.848706,-4.096991 4.767571,-8.831644 4.76434,-11.755651 -0.0024,-2.184907 -0.847136,-3.18198 -2.69578,-3.18198 -1.840956,0 -3.992416,-1.106561 -4.543159,-2.336685 -0.18253,-0.407693 -0.295664,-0.799847 -0.251409,-0.871453 0.18948,-0.306584 1.772074,-0.339009 4.236211,-0.08679 3.78038,0.386939 5.182356,0.199893 8.74071,-1.166145 1.020886,-0.391914 2.183737,-0.814326 2.584115,-0.938694 l 0.727959,-0.226124 1.189529,3.829413 c 0.654242,2.106177 1.584637,4.823782 2.067548,6.039122 1.821384,4.583879 4.42389,8.914585 6.756796,11.243655 1.481845,1.479406 2.376545,1.972566 3.202547,1.765256 0.251848,-0.0632 1.12436,-0.94406 2.156126,-2.176736 0.953199,-1.138809 4.200428,-4.578884 7.216067,-7.644612 3.015637,-3.065727 6.167795,-6.369544 7.004794,-7.341816 1.747128,-2.029491 3.510518,-4.433274 3.510518,-4.785397 0,-0.454633 1.059343,-1.446071 1.958343,-1.83281 2.055742,-0.884357 5.952011,-1.162692 8.60497,-0.614709 2.591014,0.535189 3.7556,1.544679 3.7556,3.255441 0,0.910425 -0.329751,1.55503 -1.175231,2.297372 -0.874204,0.76756 -1.832832,1.175353 -3.322361,1.413307 -1.504888,0.240406 -2.072937,0.563047 -2.580118,1.465454 -0.348787,0.620583 -0.382877,0.873574 -0.299898,2.225631 0.180995,2.949192 1.895428,6.69623 5.869922,12.829205 1.62442,2.50662 2.604751,4.18673 2.502548,4.28893 -0.340485,0.34049 -40.506955,0.49 -56.502745,0.21033 z"
           id="path145180"
           transform="scale(0.26458333)" />
        <path
           style="fill:#ffffff;stroke-width:0.176777;filter:url(#filter145958)"
           d="m 40.481863,112.85736 c -5.789316,-0.24221 -10.223689,-0.70764 -11.551378,-1.21242 -0.306914,-0.11669 -0.505978,-0.37976 -0.631583,-0.83466 -0.532764,-1.92952 1.371759,-2.39206 11.210689,-2.7227 7.748536,-0.26039 54.418487,-0.11806 56.833708,0.17333 2.711112,0.32709 3.535534,0.70287 3.535534,1.61156 0,0.64013 -0.253986,0.81931 -1.603243,1.13106 -3.540678,0.8181 -12.164731,1.44905 -25.53198,1.86798 -6.306779,0.19766 -27.420367,0.18839 -32.261747,-0.0142 z"
           id="path145320"
           transform="scale(0.26458333)" />
      </g>
    </g>
  </g>
</svg>
