<?xml version="1.0" encoding="UTF-8" standalone="no"?>
<!-- Created with Inkscape (http://www.inkscape.org/) -->

<svg
   width="31.999998"
   height="31.999998"
   viewBox="0 0 8.466666 8.4666661"
   version="1.1"
   id="svg5"
   inkscape:export-filename="C:\Users\bmill\projects\chess2-canvas\src\assets\N_Q.svg"
   inkscape:export-xdpi="96"
   inkscape:export-ydpi="96"
   sodipodi:docname="a_r.svg"
   xmlns:inkscape="http://www.inkscape.org/namespaces/inkscape"
   xmlns:sodipodi="http://sodipodi.sourceforge.net/DTD/sodipodi-0.dtd"
   xmlns="http://www.w3.org/2000/svg"
   xmlns:svg="http://www.w3.org/2000/svg">
  <sodipodi:namedview
     id="namedview7"
     pagecolor="#505050"
     bordercolor="#ffffff"
     borderopacity="1"
     inkscape:pageshadow="0"
     inkscape:pageopacity="0"
     inkscape:pagecheckerboard="1"
     inkscape:deskcolor="#505050"
     inkscape:document-units="mm"
     showgrid="false" />
  <defs
     id="defs2">
    <filter
       style="color-interpolation-filters:sRGB"
       inkscape:label="Invert"
       id="filter172166"
       x="0"
       y="0"
       width="1"
       height="1">
      <feColorMatrix
         type="hueRotate"
         values="180"
         result="color1"
         id="feColorMatrix172162" />
      <feColorMatrix
         values="-1 0 0 0 1 0 -1 0 0 1 0 0 -1 0 1 -0.21 -0.72 -0.07 2 0 "
         result="color2"
         id="feColorMatrix172164" />
    </filter>
    <filter
       style="color-interpolation-filters:sRGB"
       inkscape:label="Invert"
       id="filter172172"
       x="0"
       y="0"
       width="1"
       height="1">
      <feColorMatrix
         type="hueRotate"
         values="180"
         result="color1"
         id="feColorMatrix172168" />
      <feColorMatrix
         values="-1 0 0 0 1 0 -1 0 0 1 0 0 -1 0 1 -0.21 -0.72 -0.07 2 0 "
         result="color2"
         id="feColorMatrix172170" />
    </filter>
    <filter
       style="color-interpolation-filters:sRGB"
       inkscape:label="Invert"
       id="filter172178"
       x="0"
       y="0"
       width="1"
       height="1">
      <feColorMatrix
         type="hueRotate"
         values="180"
         result="color1"
         id="feColorMatrix172174" />
      <feColorMatrix
         values="-1 0 0 0 1 0 -1 0 0 1 0 0 -1 0 1 -0.21 -0.72 -0.07 2 0 "
         result="color2"
         id="feColorMatrix172176" />
    </filter>
    <filter
       style="color-interpolation-filters:sRGB"
       inkscape:label="Invert"
       id="filter172184"
       x="0"
       y="0"
       width="1"
       height="1">
      <feColorMatrix
         type="hueRotate"
         values="180"
         result="color1"
         id="feColorMatrix172180" />
      <feColorMatrix
         values="-1 0 0 0 1 0 -1 0 0 1 0 0 -1 0 1 -0.21 -0.72 -0.07 2 0 "
         result="color2"
         id="feColorMatrix172182" />
    </filter>
    <filter
       style="color-interpolation-filters:sRGB"
       inkscape:label="Invert"
       id="filter98205"
       x="0"
       y="0"
       width="1"
       height="1">
      <feColorMatrix
         type="hueRotate"
         values="180"
         result="color1"
         id="feColorMatrix98201" />
      <feColorMatrix
         values="-1 0 0 0 1 0 -1 0 0 1 0 0 -1 0 1 -0.21 -0.72 -0.07 2 0 "
         result="color2"
         id="feColorMatrix98203" />
    </filter>
  </defs>
  <g
     inkscape:label="Layer 1"
     inkscape:groupmode="layer"
     id="layer1">
    <g
       inkscape:label="Layer 1"
       id="layer1-6"
       transform="translate(0.11288508,-11.602184)">
      <g
         inkscape:label="Layer 1"
         id="layer1-4"
         transform="matrix(0.28157661,0,0,0.30608679,-0.67458369,9.9011629)"
         style="filter:url(#filter98205)">
        <path
           style="fill:#000000;stroke-width:0.264583;filter:url(#filter172184)"
           d="M 7.7506444,30.05673 C 7.324324,29.514749 7.268123,29.239299 7.4735955,28.698867 c 0.1417685,-0.37288 0.1853242,-0.906193 0.09679,-1.185138 -0.089972,-0.283477 0.035039,-0.806325 0.283428,-1.185414 0.3356409,-0.512254 0.4005533,-0.970623 0.2652403,-1.872956 -0.2458362,-1.639353 -0.3828621,-1.920813 -0.9351276,-1.920813 -1.0608879,0 -2.3892136,-2.544263 -1.5871314,-3.039977 C 5.7459265,19.402401 5.1977273,18.012483 4.3122921,16.237809 2.1097638,11.82329 2.005688,10.034354 3.8662469,8.5708379 4.8183151,7.8219409 5.2475605,8.0537503 5.4536572,9.4281024 c 0.1590135,1.0603766 0.2642097,1.1843986 1.4164343,1.6699106 3.1238649,1.3163 3.1749735,1.316591 4.2945195,0.02443 1.001226,-1.1556002 1.001226,-1.1556002 2.173144,-0.523533 1.171919,0.632068 1.171919,0.632068 2.384723,-0.07868 1.246544,-0.730523 2.651501,-0.579868 3.223509,0.345661 0.27195,0.440024 0.997028,0.340818 1.736476,-0.237587 0.977196,-0.7643735 1.469467,-0.6491215 2.297945,0.538003 0.876851,1.256438 1.297403,1.256304 3.985909,-0.0013 1.462979,-0.684325 1.653646,-0.860802 1.653646,-1.5305918 0,-1.515125 0.626843,-1.9052653 1.591469,-0.9905123 2.023702,1.9190771 1.992484,2.8202981 -0.252037,7.2760411 -1.254295,2.489983 -1.51043,3.218483 -1.409997,4.010335 0.151191,1.192074 -0.761304,2.604244 -1.682773,2.604244 -0.511241,0 -0.618449,0.177804 -0.757779,1.256771 -0.08926,0.691224 -0.203327,1.460753 -0.253481,1.710064 -0.05016,0.249311 0.08676,0.600975 0.304247,0.781476 0.267326,0.221863 0.349838,0.609173 0.25469,1.195506 -0.07741,0.477025 -0.02952,0.936061 0.106414,1.020074 0.462,0.285533 0.251916,1.411108 -0.340874,1.826316 -0.503121,0.352398 -1.837634,0.411876 -9.241213,0.411876 -8.6531749,0 -8.6531749,0 -9.1879846,-0.679899 z M 26.106421,29.281421 c 0,-0.517226 -0.199647,-0.530741 -8.846684,-0.59894 -8.8450948,-0.06976 -9.5159313,-0.0077 -9.1870637,0.849268 0.280907,0.73203 18.0337477,0.485603 18.0337477,-0.250328 z m -0.21329,-1.890345 c 0.101318,-0.26403 -0.01996,-0.57183 -0.308431,-0.782761 -0.398757,-0.291579 -0.44627,-0.57336 -0.294687,-1.747677 0.34802,-2.696126 0.608986,-3.325406 1.322498,-3.18901 0.877639,0.167771 1.729269,-1.05568 1.259009,-1.808689 -0.2662,-0.426253 -0.069,-0.992068 1.291955,-3.707012 1.943743,-3.877522 2.196092,-5.551744 1.015029,-6.734308 -0.690417,-0.6912951 -0.690417,-0.6912951 -0.987258,0.4875726 -0.322199,1.2795664 -1.348581,1.9224164 -4.338894,2.7175664 -1.25407,0.333468 -1.25407,0.333468 -2.072754,-0.700205 -0.961928,-1.214533 -1.0132,-1.223497 -2.311242,-0.404079 -0.997341,0.629594 -0.997341,0.629594 -1.727092,0.0019 -1.155383,-0.993819 -1.897023,-1.058489 -3.041693,-0.265232 -1.216381,0.842952 -1.140396,0.841837 -2.417747,0.03548 -1.040123,-0.656601 -1.040123,-0.656601 -1.868054,0.496272 -0.959111,1.335539 -1.4372811,1.33069 -4.6411219,-0.04706 C 5.0869045,11.018903 4.8187292,10.687808 4.8110769,9.3220251 4.807464,8.6772115 4.807464,8.6772115 4.013714,9.4376721 2.7130603,10.683778 2.8751427,11.991802 4.8130033,15.888044 c 1.2140533,2.440962 1.5522082,3.365631 1.4214091,3.886777 -0.265312,1.057086 0.3750908,2.03338 1.2496082,1.905028 0.6740244,-0.09893 0.7265797,-0.02643 0.991159,1.367304 0.5235625,2.757978 0.5329597,3.046274 0.1144924,3.512433 -0.2237415,0.249243 -0.3365683,0.636196 -0.250726,0.859896 0.2455214,0.639821 17.308359,0.612209 17.554185,-0.02841 z M 10.254305,26.189337 C 10.196186,25.998213 10.015117,24.808295 9.8519297,23.545076 9.37661,19.865671 9.1503378,19.420181 8.2129643,20.318242 7.3147616,21.178774 6.5177528,20.864771 7.1264061,19.890163 7.4024252,19.448186 7.2056697,18.89329 5.7307182,15.954001 4.4116325,13.325322 4.013714,12.267744 4.013714,11.390589 c 0,-1.077857 0.1147631,-0.903425 2.0505208,3.116654 1.1277864,2.342127 2.1365487,4.208438 2.2416938,4.147358 C 8.4110737,18.593521 7.9387335,17.419502 7.256284,16.04567 5.9200474,13.355707 5.9261392,12.743803 7.284016,13.260067 c 1.090228,0.414504 3.608864,2.089701 3.608864,2.400331 0,0.587623 -0.801597,0.537893 -1.7532443,-0.108768 -1.2820716,-0.87119 -1.3390615,-0.766767 -0.4928751,0.903101 0.6998739,1.381136 0.6998739,1.381136 1.5391424,0.599753 1.836674,-1.709994 3.459501,-2.871851 3.247655,-2.325145 -0.590182,1.52306 -0.956913,4.177597 -0.703793,5.094321 0.249213,0.902575 0.238583,0.930997 -0.188479,0.503935 -0.271788,-0.271788 -0.506473,-1.039671 -0.587476,-1.922208 -0.134888,-1.46962 -0.134888,-1.46962 -1.151536,-0.588459 -1.0166484,0.88116 -1.0166484,0.88116 -0.617293,2.46866 0.558448,2.219921 0.836635,5.842333 0.466246,6.071245 -0.160188,0.099 -0.338803,0.02363 -0.396922,-0.167496 z m 13.149353,-2.133436 c 0.08421,-1.346068 0.302121,-3.078432 0.484246,-3.849697 0.331138,-1.402301 0.331138,-1.402301 -0.643402,-2.37684 -0.974539,-0.97454 -0.974539,-0.97454 -0.974539,0.02174 0,0.844375 -0.594584,2.832885 -0.846395,2.830659 -0.0438,-3.96e-4 -0.08885,-0.982652 -0.100108,-2.182812 -0.013,-1.386684 -0.176862,-2.543782 -0.44952,-3.174296 -0.556171,-1.286132 -0.444306,-1.257459 1.492388,0.382517 0.892885,0.756088 1.80834,1.527229 2.034344,1.713646 0.354613,0.292499 0.510509,0.135879 1.137749,-1.143039 0.726831,-1.48198 0.726831,-1.48198 -0.457,-0.788209 -1.043325,0.611429 -2.017708,0.707729 -2.017708,0.199413 0,-0.223829 2.287397,-1.723317 3.540101,-2.32069 1.627211,-0.775962 1.692251,-0.227718 0.301503,2.541427 -0.673417,1.340854 -1.182072,2.564886 -1.130343,2.72007 0.05173,0.155185 0.60836,-0.777994 1.23696,-2.07373 0.6286,-1.295736 1.574985,-3.248853 2.103075,-4.340259 0.960162,-1.984375 0.960162,-1.984375 1.041932,-0.998014 0.06462,0.779425 -0.290254,1.745628 -1.691476,4.605398 -1.529543,3.121657 -1.728698,3.690367 -1.44911,4.138061 0.596736,0.955524 -0.135475,1.193068 -1.031486,0.334635 -0.786499,-0.753514 -0.786499,-0.753514 -1.027965,-0.117318 -0.293038,0.772071 -0.744078,3.049968 -0.977299,4.935675 -0.30224,2.443747 -0.744227,1.631571 -0.575947,-1.058333 z m -5.027861,0.926041 c 0.07405,-0.400182 0.464868,-1.50151 0.868474,-2.447396 0.991531,-2.323734 1.046345,-5.285559 0.13588,-7.342187 -0.642887,-1.452203 -0.722635,-1.522928 -1.302709,-1.155301 -0.283927,0.179941 -0.213053,0.4522 0.349829,1.343863 0.895681,1.418851 0.751407,1.578606 -0.360772,0.399483 -1.069782,-1.134175 -1.109112,-1.133869 -2.119127,0.01648 -0.9818,1.118208 -1.102978,0.674809 -0.155181,-0.567817 0.66127,-0.866969 0.662144,-0.875195 0.123592,-1.163419 -1.667427,-0.892379 -2.357687,5.425237 -0.961674,8.80173 0.933096,2.256851 0.851322,3.201382 -0.131378,1.517481 -1.734296,-2.971795 -2.152478,-6.500105 -1.089513,-9.192496 0.301623,-0.763984 0.43487,-1.389062 0.296103,-1.389062 -0.413636,0 -1.694137,0.727968 -2.063629,1.173179 -0.41544,0.500574 -0.536127,0.50342 -1.16434,0.02745 -0.466039,-0.353099 -0.447867,-0.42785 0.396875,-1.632519 0.486903,-0.694361 0.969617,-1.386263 1.072698,-1.53756 0.127274,-0.186804 0.286306,-0.176198 0.495553,0.03305 0.234455,0.234454 0.165174,0.508899 -0.289741,1.147769 -0.597874,0.839636 -0.597874,0.839636 0.218912,0.41726 0.449233,-0.232308 1.157611,-0.422377 1.574174,-0.422377 0.496162,0 1.019674,-0.273767 1.517849,-0.79375 0.955907,-0.997752 1.469032,-0.997752 2.60541,0 0.497217,0.436562 1.185969,0.794483 1.53056,0.79538 0.344591,9e-4 0.967561,0.17949 1.384377,0.396875 1.055846,0.550661 1.078829,0.513182 0.30636,-0.499577 -0.554987,-0.727626 -0.609336,-0.922902 -0.290874,-1.045107 0.382145,-0.146643 2.269375,2.074236 2.269375,2.670584 0,0.856606 -0.804214,0.894928 -1.898133,0.09045 -1.658853,-1.219935 -2.155497,-1.126848 -1.462367,0.274092 1.227691,2.481383 0.786541,6.53931 -1.051959,9.676474 -0.770683,1.315071 -0.993526,1.427784 -0.804624,0.406973 z M 18.012959,13.086037 c 0.05974,-0.04028 -0.109211,-0.313948 -0.375452,-0.60814 -0.484073,-0.534895 -0.484073,-0.534895 -1.108075,0.05133 -0.624003,0.58622 -0.624003,0.58622 -0.0222,0.908294 0.451193,0.241472 0.701318,0.246958 0.999454,0.02192 0.21871,-0.165084 0.446533,-0.333114 0.506275,-0.3734 z"
           id="path169309" />
        <path
           style="fill:#ffffff;stroke-width:0.176777;filter:url(#filter172178)"
           d="m 47.110989,105.08013 c -10.116023,-0.32123 -15.07027,-0.83428 -15.481811,-1.60326 -0.284619,-0.53181 -0.03038,-1.60921 0.601585,-2.54939 1.355556,-2.016662 1.350795,-2.003802 1.353901,-3.657267 0.0033,-1.743702 -0.256402,-3.657443 -1.157219,-8.528312 -0.812644,-4.394105 -1.242166,-5.968853 -1.788968,-6.558863 -0.426608,-0.460318 -0.480417,-0.470763 -1.872186,-0.363439 -0.891073,0.06871 -1.688179,0.03404 -2.107874,-0.09171 -0.935196,-0.280191 -2.010527,-1.251778 -2.579661,-2.330784 -0.469001,-0.889168 -0.479147,-0.975113 -0.482847,-4.090233 -0.0035,-2.980909 -0.03326,-3.26576 -0.470334,-4.507806 -0.780848,-2.218963 -1.970989,-4.880309 -4.72455,-10.564849 -4.405378,-9.094604 -5.748956,-12.613271 -6.220606,-16.291004 -0.356358,-2.778731 0.308884,-5.058594 2.075027,-7.11136 1.055803,-1.227147 3.414184,-3.358504 3.593565,-3.24764 0.07233,0.0447 0.188003,1.047032 0.257045,2.227396 0.277096,4.737336 1.282339,5.939182 7.102473,8.491557 6.251596,2.741589 9.5572,3.866162 11.755494,3.999242 2.841187,0.172 3.815453,-0.449214 6.680959,-4.259926 2.032479,-2.702908 2.590508,-3.12776 3.679619,-2.801455 0.376589,0.112829 1.596279,0.772381 2.710421,1.465672 4.833461,3.007687 4.801819,3.007331 9.14307,0.103106 2.599328,-1.738909 3.60404,-2.134032 5.43379,-2.13695 1.269149,-0.002 1.550211,0.06385 2.740039,0.642221 0.729204,0.354462 2.041771,1.221587 2.916815,1.926946 3.425865,2.761532 3.382421,2.759664 7.266914,0.312415 0.954627,-0.601419 2.237865,-1.328488 2.851639,-1.615708 1.953393,-0.914102 2.545685,-0.564061 5.818851,3.438903 1.009239,1.234265 2.092094,2.427508 2.406343,2.65165 0.929343,0.662869 2.622477,0.560078 5.87466,-0.356655 7.792607,-2.196597 11.549517,-3.871302 13.633957,-6.077569 1.26942,-1.34361 1.73473,-2.243376 2.44063,-4.719462 0.34371,-1.20563 0.74795,-2.379803 0.8983,-2.609273 0.25394,-0.387568 0.30755,-0.399507 0.75424,-0.167996 0.6314,0.327241 2.50178,2.287191 3.12168,3.271179 0.96668,1.534452 1.21918,2.555648 1.22851,4.968512 0.0169,4.379528 -1.36245,8.271877 -7.14173,20.152544 -4.73209,9.727917 -5.09408,10.888406 -4.03207,12.925929 0.71316,1.36822 0.18344,3.553769 -1.20846,4.985976 -1.07291,1.103983 -1.85901,1.414138 -3.62626,1.430742 -1.380094,0.01298 -1.579724,0.05838 -2.006233,0.456342 -1.175349,1.096695 -1.878445,3.531051 -2.731545,9.457554 -0.582025,4.04334 -0.681757,6.644051 -0.290677,7.580036 0.134667,0.322299 0.576117,0.856699 0.981001,1.187569 1.31285,1.07282 1.812205,2.55728 1.028055,3.05617 -1.106841,0.70418 -6.6811,1.18324 -17.721863,1.52303 -6.414965,0.19743 -26.316625,0.18904 -32.703689,-0.0138 z m 42.74056,-5.643428 c 0.185536,-0.534646 0.64403,-3.086382 1.018876,-5.670526 1.29624,-8.936149 2.735548,-15.728223 3.883616,-18.326722 0.531751,-1.203545 0.74841,-1.115414 3.519647,1.43168 2.662832,2.447455 5.217892,2.54304 4.621072,0.172873 -0.11421,-0.453575 -0.41257,-1.174354 -0.66303,-1.601728 -0.39035,-0.666084 -0.44198,-0.920557 -0.36154,-1.78205 0.16813,-1.800556 1.36513,-4.687181 5.25484,-12.672269 4.02293,-8.258555 5.79108,-12.355545 6.55747,-15.194298 0.31654,-1.172499 0.36716,-1.751873 0.30511,-3.492181 -0.0888,-2.490783 -0.26861,-2.832085 -1.02152,-1.939025 -0.27251,0.323235 -2.50564,4.738233 -4.96252,9.811107 -7.38666,15.251713 -10.167168,20.597009 -10.380772,19.956195 -0.179669,-0.539008 1.308724,-4.079845 4.511532,-10.732789 2.48915,-5.170518 3.25151,-7.172104 3.28754,-8.631487 0.0208,-0.842048 -0.0391,-1.078569 -0.32812,-1.295657 -1.10712,-0.831592 -4.95235,0.801303 -11.402102,4.841958 -2.548959,1.596875 -4.70807,3.1021 -5.842296,4.072954 -0.511808,0.438088 -0.698441,0.733194 -0.698441,1.104372 0,0.739611 0.563461,1.056909 1.876868,1.056909 1.822203,0 3.741998,-0.723017 7.227131,-2.72182 1.547146,-0.887324 2.032932,-1.001101 2.032932,-0.476136 0,0.520424 -3.642455,7.68198 -4.223527,8.304018 -0.282984,0.302935 -0.678059,0.550792 -0.877948,0.550792 -0.207417,0 -1.515315,-0.967555 -3.046728,-2.253903 -1.475813,-1.239646 -4.283349,-3.598127 -6.238964,-5.241066 -3.484371,-2.927267 -5.40705,-4.349069 -5.881172,-4.349069 -0.432159,0 -0.254641,0.987336 0.545554,3.034333 1.338582,3.424242 1.773748,6.430333 1.953455,13.494288 0.151107,5.939792 0.258497,7.336232 0.564174,7.336232 0.569948,0 2.100981,-4.214427 2.796367,-7.697476 0.156135,-0.782047 0.339668,-2.372132 0.407851,-3.533522 0.108045,-1.840413 0.165047,-2.119478 0.443813,-2.172806 0.437926,-0.08378 5.240621,4.734023 5.779301,5.797474 0.357425,0.705624 0.388482,0.952537 0.289077,2.298098 -0.06125,0.829144 -0.269968,2.14393 -0.463807,2.921747 -0.873464,3.504946 -1.878332,12.031828 -2.06161,17.493951 -0.106933,3.186847 0.102164,6.128857 0.486655,6.847287 0.309471,0.57825 0.733063,0.29032 1.091216,-0.741738 z m -49.393553,0.117333 c 0.384949,-0.463833 0.596415,-2.978273 0.478166,-5.68561 -0.266675,-6.105519 -1.185638,-12.531863 -2.603734,-18.208 -0.735165,-2.942603 -0.826346,-4.233054 -0.363241,-5.140814 0.624289,-1.223707 5.403664,-5.459363 6.025121,-5.339682 0.487876,0.09396 0.719623,0.892321 0.996381,3.432514 0.39028,3.582132 0.836162,5.619478 1.542483,7.047982 0.398785,0.806528 1.68711,2.209709 2.028837,2.209709 0.324893,0 0.287374,-0.440989 -0.213355,-2.507805 -0.314362,-1.29757 -0.441777,-2.314748 -0.441942,-3.528067 -5.3e-4,-4.290998 0.994802,-10.163691 2.518973,-14.86185 0.306446,-0.944598 0.50509,-1.769533 0.441432,-1.833191 -0.657347,-0.657349 -5.134369,2.682048 -12.760544,9.518048 -2.042423,1.830801 -2.385589,1.968769 -3.129747,1.258295 -0.542448,-0.517894 -4.102999,-7.493012 -4.299555,-8.422826 -0.225364,-1.066085 0.454457,-0.805101 4.345523,1.668259 2.518604,1.600954 4.793454,2.082667 5.720849,1.211424 0.769691,-0.723087 0.6184,-1.400515 -0.551591,-2.469821 -2.837289,-2.593121 -10.058893,-6.999917 -13.176386,-8.040545 -3.522794,-1.175919 -4.231213,0.03451 -2.580059,4.40839 0.293628,0.777818 1.600353,3.660989 2.903832,6.407049 3.118947,6.570735 4.694008,10.584727 3.615212,9.213264 C 29.955787,68.620907 26.111356,61.200479 20.852518,50.391866 16.237543,40.9066 15.408784,39.667311 15.11399,41.81072 c -0.471754,3.430064 1.174355,8.004138 7.257314,20.16603 3.441202,6.880127 4.625395,9.689832 4.80187,11.393282 0.07899,0.762496 0.0087,1.056837 -0.485693,2.032932 -0.733854,1.44895 -0.803425,2.520705 -0.195587,3.013032 0.939802,0.761202 2.622649,0.205131 4.591511,-1.517195 1.812374,-1.585434 2.499792,-1.818937 3.190474,-1.083738 0.927723,0.987515 1.659999,4.263749 2.751003,12.308119 0.989002,7.292258 1.530569,10.652265 1.80218,11.181126 0.197203,0.383984 0.374176,0.486136 0.842201,0.486136 0.325893,0 0.680824,-0.106384 0.788733,-0.236409 z M 70.127771,96.56427 c 1.903501,-1.998882 5.059777,-8.23308 6.64532,-13.12567 1.645611,-5.077939 2.306406,-9.1641 2.31559,-14.318912 0.0095,-5.335239 -0.555917,-8.224015 -2.49124,-12.727922 -1.534986,-3.572242 -1.478833,-4.583585 0.226012,-4.070503 0.994263,0.29923 1.942803,0.851077 4.631707,2.694664 2.85327,1.95628 3.854598,2.408156 5.371671,2.424107 1.015559,0.01068 1.242077,-0.04725 1.638156,-0.418963 0.679814,-0.637987 0.923772,-1.616835 0.65418,-2.624808 -0.404873,-1.513782 -2.703939,-4.779947 -5.081045,-7.218385 -2.122381,-2.177142 -3.322933,-2.798302 -4.03404,-2.087194 -0.566275,0.566274 -0.259127,1.225106 2.001596,4.293415 0.885335,1.201597 1.609699,2.255628 1.609699,2.342291 0,0.296069 -0.442564,0.152185 -2.298097,-0.74714 -2.480386,-1.202176 -3.486097,-1.539755 -5.480078,-1.839453 -2.232999,-0.335624 -3.906691,-1.176416 -6.540738,-3.285789 -2.438715,-1.95295 -3.587681,-2.54338 -4.949747,-2.543577 -1.369756,-1.95e-4 -2.351747,0.541221 -4.290639,2.365638 -2.762032,2.598959 -3.744675,3.13455 -6.227574,3.394351 -2.190179,0.229171 -3.907045,0.726557 -6.151045,1.781991 -1.04962,0.493676 -1.943665,0.862328 -1.986765,0.819228 -0.0431,-0.0431 0.443965,-0.828342 1.082364,-1.744982 2.221344,-3.189494 2.482837,-4.153263 1.416269,-5.219831 -0.633212,-0.633212 -1.094432,-0.746136 -1.552336,-0.38007 -0.363725,0.290776 -5.502907,7.673003 -6.366618,9.145389 -0.896666,1.528567 -0.887287,2.065619 0.05088,2.913197 1.14044,1.030318 2.286096,1.685802 2.946451,1.685802 0.497564,0 0.818398,-0.212036 1.954128,-1.291467 1.586522,-1.507873 2.975422,-2.482941 4.914168,-3.449956 1.76794,-0.88182 2.69713,-1.18602 2.925424,-0.957725 0.236284,0.236283 -0.365903,2.698233 -1.177803,4.815265 -1.660145,4.328835 -2.290495,8.280629 -2.157117,13.523417 0.170351,6.696161 1.561313,12.173411 4.713757,18.561553 2.09455,4.244412 3.770272,6.59268 4.418603,6.191989 0.592686,-0.366301 -0.16022,-3.659813 -1.837147,-8.036414 -2.097252,-5.473607 -2.723547,-8.40216 -3.133863,-14.653935 -0.670267,-10.212507 1.776644,-19.82436 5.04781,-19.82859 0.583132,-7.07e-4 1.917368,0.617904 2.340161,1.085086 0.426478,0.471251 0.227749,0.907698 -1.437449,3.156894 -1.428248,1.929148 -2.739505,4.182779 -2.739505,4.708334 0,0.138715 0.185294,0.241413 0.435576,0.241413 0.445167,0 1.281191,-0.758294 4.161202,-3.774311 0.728882,-0.763304 1.54981,-1.504183 1.824281,-1.646396 0.956425,-0.49556 1.403969,-0.213898 4.536943,2.855336 2.688602,2.6339 3.555453,3.313637 3.85008,3.01901 0.211201,-0.2112 -0.366085,-1.452097 -1.814708,-3.900784 -1.927052,-3.257403 -2.209995,-3.844625 -2.209995,-4.586643 0,-0.525251 0.104238,-0.691448 0.662912,-1.056943 1.672529,-1.0942 2.142239,-0.766183 3.767441,2.630938 3.02004,6.312719 3.886644,12.289867 2.884472,19.894822 -0.487815,3.701771 -1.172166,6.111619 -3.108385,10.945762 -2.19228,5.473448 -3.289178,9.354878 -2.917455,10.323572 0.162755,0.424133 0.336766,0.373723 0.956536,-0.277101 z"
           id="path170370"
           transform="scale(0.26458333)" />
        <path
           style="fill:#ffffff;stroke-width:0.0883883;filter:url(#filter172172)"
           d="m 63.926831,51.351951 c -0.660355,-0.143216 -2.369245,-1.010041 -2.8736,-1.457617 -0.536529,-0.476128 -0.471822,-0.605733 1.041255,-2.085587 1.656774,-1.620395 2.13353,-1.987724 2.65635,-2.046654 l 0.40379,-0.04551 0.989821,1.006564 c 0.963649,0.979949 1.914581,2.24109 1.914581,2.539149 0,0.171992 -2.072509,1.732131 -2.607457,1.962835 -0.528228,0.227806 -0.911954,0.259723 -1.52474,0.126823 z"
           id="path170510"
           transform="scale(0.26458333)" />
        <path
           style="fill:#ffffff;stroke-width:0.0883883;filter:url(#filter172166)"
           d="m 50.779106,113.21592 c -8.96953,-0.11653 -16.29075,-0.52695 -18.794224,-1.05357 -1.290257,-0.27141 -1.533395,-0.47504 -1.64044,-1.37385 -0.183305,-1.53915 1.885137,-2.04719 9.369189,-2.30125 3.440152,-0.11677 29.806977,-0.0554 40.808154,0.095 13.733907,0.18776 16.922714,0.40652 17.787054,1.22021 0.318027,0.2994 0.408856,0.76151 0.195922,0.9968 -0.92951,1.0271 -11.954599,1.90919 -28.633772,2.29093 -3.993606,0.0914 -15.76628,0.16892 -19.091883,0.12572 z"
           id="path170650"
           transform="scale(0.26458333)" />
      </g>
    </g>
  </g>
</svg>
