<?xml version="1.0" encoding="UTF-8" standalone="no"?>
<!-- Created with Inkscape (http://www.inkscape.org/) -->

<svg
   width="31.999998"
   height="31.999998"
   viewBox="0 0 8.466666 8.4666661"
   version="1.1"
   id="svg5"
   inkscape:export-filename="C:\Users\bmill\projects\chess2-canvas\src\assets\T_K.svg"
   inkscape:export-xdpi="96"
   inkscape:export-ydpi="96"
   sodipodi:docname="a_r.svg"
   xmlns:inkscape="http://www.inkscape.org/namespaces/inkscape"
   xmlns:sodipodi="http://sodipodi.sourceforge.net/DTD/sodipodi-0.dtd"
   xmlns="http://www.w3.org/2000/svg"
   xmlns:svg="http://www.w3.org/2000/svg">
  <sodipodi:namedview
     id="namedview7"
     pagecolor="#505050"
     bordercolor="#ffffff"
     borderopacity="1"
     inkscape:pageshadow="0"
     inkscape:pageopacity="0"
     inkscape:pagecheckerboard="1"
     inkscape:deskcolor="#505050"
     inkscape:document-units="mm"
     showgrid="false" />
  <defs
     id="defs2">
    <filter
       style="color-interpolation-filters:sRGB"
       inkscape:label="Invert"
       id="filter197234-2"
       x="0"
       y="0"
       width="1"
       height="1">
      <feColorMatrix
         type="hueRotate"
         values="180"
         result="color1"
         id="feColorMatrix197230-9" />
      <feColorMatrix
         values="-1 0 0 0 1 0 -1 0 0 1 0 0 -1 0 1 -0.21 -0.72 -0.07 2 0 "
         result="color2"
         id="feColorMatrix197232-5" />
    </filter>
    <filter
       style="color-interpolation-filters:sRGB"
       inkscape:label="Invert"
       id="filter197240-2"
       x="0"
       y="0"
       width="1"
       height="1">
      <feColorMatrix
         type="hueRotate"
         values="180"
         result="color1"
         id="feColorMatrix197236-6" />
      <feColorMatrix
         values="-1 0 0 0 1 0 -1 0 0 1 0 0 -1 0 1 -0.21 -0.72 -0.07 2 0 "
         result="color2"
         id="feColorMatrix197238-3" />
    </filter>
    <filter
       style="color-interpolation-filters:sRGB"
       inkscape:label="Invert"
       id="filter197246-1"
       x="0"
       y="0"
       width="1"
       height="1">
      <feColorMatrix
         type="hueRotate"
         values="180"
         result="color1"
         id="feColorMatrix197242-4" />
      <feColorMatrix
         values="-1 0 0 0 1 0 -1 0 0 1 0 0 -1 0 1 -0.21 -0.72 -0.07 2 0 "
         result="color2"
         id="feColorMatrix197244-7" />
    </filter>
    <filter
       style="color-interpolation-filters:sRGB"
       inkscape:label="Invert"
       id="filter197252-7"
       x="0"
       y="0"
       width="1"
       height="1">
      <feColorMatrix
         type="hueRotate"
         values="180"
         result="color1"
         id="feColorMatrix197248-6" />
      <feColorMatrix
         values="-1 0 0 0 1 0 -1 0 0 1 0 0 -1 0 1 -0.21 -0.72 -0.07 2 0 "
         result="color2"
         id="feColorMatrix197250-0" />
    </filter>
    <filter
       style="color-interpolation-filters:sRGB"
       inkscape:label="Invert"
       id="filter197258-5"
       x="0"
       y="0"
       width="1"
       height="1">
      <feColorMatrix
         type="hueRotate"
         values="180"
         result="color1"
         id="feColorMatrix197254-3" />
      <feColorMatrix
         values="-1 0 0 0 1 0 -1 0 0 1 0 0 -1 0 1 -0.21 -0.72 -0.07 2 0 "
         result="color2"
         id="feColorMatrix197256-1" />
    </filter>
    <filter
       style="color-interpolation-filters:sRGB"
       inkscape:label="Invert"
       id="filter117926"
       x="0"
       y="0"
       width="1"
       height="1">
      <feColorMatrix
         type="hueRotate"
         values="180"
         result="color1"
         id="feColorMatrix117922" />
      <feColorMatrix
         values="-1 0 0 0 1 0 -1 0 0 1 0 0 -1 0 1 -0.21 -0.72 -0.07 2 0 "
         result="color2"
         id="feColorMatrix117924" />
    </filter>
  </defs>
  <g
     inkscape:label="Layer 1"
     inkscape:groupmode="layer"
     id="layer1">
    <g
       inkscape:label="Layer 1"
       id="layer1-6"
       transform="translate(0.11288508,-11.602184)">
      <g
         inkscape:label="Layer 1"
         id="layer1-8"
         transform="matrix(0.24723771,0,0,0.25225223,-0.07217483,11.743155)"
         style="filter:url(#filter117926)">
        <path
           style="fill:#000000;stroke-width:0.264583;filter:url(#filter197258-5)"
           d="M 7.9703698,30.354022 C 7.5787603,29.989183 7.4038459,29.560595 7.4574586,29.097252 7.5541892,28.261272 7.2289163,27.849919 4.76821,25.696317 3.4770661,24.566313 2.4892165,22.675891 2.1203024,20.629087 c -0.5095791,-2.82724 0.3349549,-5.42643 2.4114905,-7.421752 1.2909636,-1.240474 2.503917,-1.826314 2.9199394,-1.410292 0.1974119,0.197412 0.5257223,0.130731 1.1097592,-0.225397 0.6293594,-0.383765 1.3282692,-0.505987 2.8976965,-0.506738 2.035646,-9.79e-4 2.082623,-0.01619 2.976562,-0.96404 0.499551,-0.5296783 0.908275,-1.0808381 0.908275,-1.2248 0,-0.1634644 -0.595719,-0.194351 -1.586501,-0.082257 C 12.29567,8.959201 12.118975,8.9212555 11.508565,8.3108462 10.68771,7.4899905 10.647596,6.3496948 11.410755,5.5305364 11.928447,4.974859 12.118377,4.9397674 13.69462,5.1085686 15.413835,5.292681 15.413835,5.292681 15.202669,4.5402796 14.860657,3.3216668 14.99178,2.5143575 15.613485,2.010931 c 0.320601,-0.2596062 0.977797,-0.4720113 1.460436,-0.4720113 0.64096,0 1.030949,0.1950449 1.446635,0.7235032 0.463202,0.5888663 0.537613,0.9335213 0.399866,1.8520832 -0.158205,1.0549844 -0.129363,1.1273675 0.442283,1.1099839 0.336339,-0.010229 0.84965,-0.1121228 1.140691,-0.2264328 0.682346,-0.2679996 1.922105,0.1634641 2.254544,0.7846313 0.142449,0.2661685 0.258998,0.8403161 0.258998,1.2758833 0,0.5449035 -0.222455,0.9669234 -0.713135,1.3528925 -0.605858,0.476568 -0.924268,0.5345729 -2.116666,0.3855924 -1.511071,-0.1887958 -1.744271,0.0244 -0.88112,0.8055414 0.287326,0.2600269 0.589406,0.6838569 0.671288,0.9418439 0.12563,0.395825 0.535558,0.483331 2.625336,0.560418 1.883314,0.06947 2.597445,0.200955 2.98159,0.548964 0.451975,0.409458 0.547453,0.415289 0.907326,0.05542 0.359873,-0.359874 0.538358,-0.310581 1.696135,0.468429 1.684428,1.133367 2.921233,2.791712 3.457268,4.635613 0.439502,1.511833 0.388774,3.165091 -0.156723,5.107687 -0.396309,1.411312 -1.71953,3.337794 -2.841186,4.136492 -1.316021,0.937097 -2.162505,2.231695 -2.003406,3.063971 0.09245,0.48359 -0.06174,0.798994 -0.596059,1.219285 -0.702319,0.552444 -0.935207,0.566951 -9.101856,0.566951 -8.138896,0 -8.3982675,-0.01601 -8.9753632,-0.553646 z M 25.764925,29.709386 c 0.505628,-0.505626 0.283105,-1.143928 -0.462064,-1.325419 -0.311371,-0.07583 -4.244143,-0.104574 -8.739493,-0.06386 -7.2896883,0.06602 -8.2034167,0.121685 -8.4513236,0.514866 -0.2016583,0.319831 -0.1824913,0.555874 0.069824,0.859896 0.3039816,0.366276 1.4076579,0.419052 8.7631546,0.419052 7.198343,0 8.473873,-0.0585 8.819902,-0.404532 z m -12.537567,-2.31131 c 0,-0.184025 -0.696045,-2.922462 -1.546766,-6.085416 -1.435182,-5.335958 -1.509744,-5.750824 -1.033563,-5.750824 0.290687,0 0.573202,0.229437 0.651583,0.529166 0.161254,0.616638 0.605829,0.713717 0.605829,0.132292 0,-0.218281 0.04706,-0.396875 0.104588,-0.396875 0.236067,0 4.013517,1.656527 4.219706,1.85047 0.122789,0.115496 -0.408681,1.054435 -1.181044,2.08653 -0.923108,1.233533 -1.493707,1.787126 -1.665231,1.615602 -0.143514,-0.143515 -0.344469,-0.260935 -0.446565,-0.260935 -0.102096,0 0.201431,1.458515 0.674505,3.241145 0.860133,3.241146 0.860133,3.241146 3.319956,3.241146 2.459823,0 2.459823,0 3.201896,-2.778125 1.146059,-4.290542 1.118441,-4.148641 0.733828,-3.770312 -0.184922,0.181901 -0.420202,0.330729 -0.522844,0.330729 -0.232636,0 -2.985847,-3.690995 -2.849555,-3.820155 0.05462,-0.05176 1.025532,-0.481529 2.157592,-0.955046 1.999368,-0.836293 2.069187,-0.846541 2.438981,-0.357973 0.341243,0.450848 0.381563,0.455952 0.389106,0.04925 0.0046,-0.249541 0.256737,-0.58661 0.560241,-0.749041 0.303506,-0.162431 0.590978,-0.255917 0.638828,-0.207746 0.04785,0.04817 -0.617191,2.705219 -1.477869,5.904553 -0.860678,3.199333 -1.564869,5.971436 -1.564869,6.160227 0,0.265379 0.675318,0.326284 2.976562,0.268446 2.839715,-0.07137 2.980375,-0.101605 3.059473,-0.657614 0.0456,-0.320543 0.30699,-0.653924 0.580868,-0.74085 0.868937,-0.27579 3.095004,-2.959992 3.541483,-4.270336 0.588676,-1.72767 0.546465,-4.696119 -0.08661,-6.090401 -0.514686,-1.133552 -2.195954,-2.995757 -3.1803,-3.522563 -0.55691,-0.298049 -0.55691,-0.298049 -0.02003,0.703659 0.95894,1.789172 0.553715,3.703618 -1.02132,4.825143 -0.752459,0.535798 -1.891024,0.749661 -1.87179,0.351589 0.0053,-0.109141 0.511289,-0.436563 1.124479,-0.727604 1.042591,-0.494851 1.119675,-0.606378 1.188641,-1.719792 0.09045,-1.460227 -0.572196,-2.804435 -1.793408,-3.638021 -0.742533,-0.506845 -1.220193,-0.595312 -3.214261,-0.595312 -1.768624,0 -2.342122,-0.08589 -2.342122,-0.350754 0,-0.192915 -0.297656,-0.630388 -0.661459,-0.972163 -0.417067,-0.3918142 -0.661458,-0.9112132 -0.661458,-1.4057845 0,-0.7843768 0,-0.7843768 1.610504,-0.6383417 1.355977,0.1229559 1.690499,0.066041 2.116667,-0.3601272 C 22.630357,7.2171705 22.62537,6.507956 21.96788,5.9129351 21.59474,5.5752482 21.23998,5.4943151 20.711109,5.6262215 20.305828,5.7273034 19.569059,5.8761969 19.073846,5.9570956 18.173459,6.1041846 18.173459,6.1041846 18.324285,4.6428248 18.433536,3.5842796 18.367631,3.0280175 18.08519,2.6247759 17.621813,1.963213 16.609114,1.8991292 16.0145,2.4937423 c -0.342171,0.342171 -0.390371,0.7375271 -0.245755,2.0157635 0.1799,1.5901074 0.1799,1.5901074 -0.850014,1.4414115 -0.566452,-0.081782 -1.402162,-0.2263251 -1.857132,-0.3212057 -0.676942,-0.1411711 -0.905253,-0.0611 -1.256771,0.4407622 -0.537843,0.7678793 -0.54092,1.1401141 -0.01378,1.6672551 0.297964,0.2979648 0.935204,0.4157739 2.248958,0.4157739 1.833184,0 1.833184,0 1.833184,0.7876506 0,0.5448691 -0.200704,0.9191571 -0.651141,1.2142946 -0.358127,0.234654 -0.723338,0.654118 -0.811579,0.932141 -0.141672,0.446368 -0.429154,0.505613 -2.457713,0.506486 -1.813565,7.94e-4 -2.4760854,0.110016 -3.146498,0.518787 -1.0542331,0.6428 -1.9289016,2.303353 -1.9289016,3.662009 0,1.112885 0.4385222,1.681077 1.6541299,2.14325 0.7386545,0.280836 0.9997853,0.81953 0.3963908,0.817726 C 8.3694443,18.734177 6.9302703,17.740638 6.4710346,17.039756 5.7782856,15.982487 5.7108994,14.514581 6.302984,13.379023 6.5875158,12.83332 6.7355182,12.386836 6.6318777,12.386836 c -0.4542522,0 -2.4651506,2.000716 -3.1004191,3.084719 -0.9094321,1.551829 -1.1301731,4.146949 -0.5287219,6.215868 0.5132843,1.765636 1.8811853,3.62664 3.1797169,4.325945 0.5277186,0.284195 0.9594881,0.644426 0.9594881,0.800508 0,0.72394 0.7126158,0.918793 3.3602083,0.918793 2.020557,0 2.725208,-0.08651 2.725208,-0.334593 z M 8.7226381,25.417564 C 8.2514216,24.820641 8.1689777,24.437394 8.2636064,23.283719 8.35131,22.214475 8.5452022,21.711227 9.0726885,21.18374 c 0.5300112,-0.530011 0.7234409,-0.60401 0.8195989,-0.31355 0.3301236,0.997191 1.4829876,4.973403 1.4829876,5.114804 0,0.0881 -0.467609,0.160175 -1.03913,0.160175 -0.8179644,0 -1.1613784,-0.154862 -1.6135069,-0.727605 z m 13.9714839,0.581175 c -0.08054,-0.08054 0.07022,-0.884209 0.335018,-1.785938 0.264796,-0.901729 0.615461,-2.154325 0.779256,-2.783548 0.25416,-0.97636 0.356269,-1.095523 0.696664,-0.81302 1.227089,1.018393 1.556198,3.628066 0.609344,4.831796 -0.392108,0.498484 -0.794215,0.69714 -1.411111,0.69714 -0.474508,0 -0.928634,-0.06589 -1.009171,-0.14643 z M 16.498717,7.229231 c -0.09164,-0.2388177 -0.03975,-0.5610828 0.115308,-0.7161448 0.403121,-0.4031215 1.16692,-0.034684 1.06162,0.5120989 -0.117291,0.6090396 -0.965112,0.7560278 -1.176928,0.2040459 z m -1.948611,11.507842 c 0.565031,-0.793513 0.565031,-0.793513 -0.152395,-1.066278 -0.394585,-0.150021 -0.805844,-0.32741 -0.913911,-0.394199 -0.108066,-0.06679 -0.311514,0.02608 -0.452107,0.206382 -0.348085,0.44639 0.107105,2.047608 0.582088,2.047608 0.204212,0 0.625558,-0.357081 0.936325,-0.793513 z m 6.576735,-0.114488 c 0.302089,-0.620102 0.302089,-0.789675 0,-1.071926 -0.290025,-0.27098 -0.524881,-0.264912 -1.224408,0.03163 -0.86555,0.366926 -0.86555,0.366926 -0.277732,1.161992 0.3233,0.437287 0.712797,0.754538 0.86555,0.705001 0.152752,-0.04954 0.439218,-0.421551 0.63659,-0.8267 z"
           id="path194552" />
        <path
           style="fill:#ffffff;stroke-width:0.25;filter:url(#filter197252-7)"
           d="m 31.5,104.34739 c -0.89375,-0.13177 -2.131104,-0.48884 -2.749675,-0.79349 -0.953444,-0.46957 -1.192672,-0.74421 -1.571284,-1.8039 -0.509833,-1.42696 -1.046867,-1.939478 -3.703916,-3.53485 -2.630627,-1.57951 -4.651972,-3.45374 -6.78831,-6.29425 -4.280878,-5.69193 -6.094241,-10.84657 -6.348409,-18.0459 -0.270757,-7.669195 1.219379,-13.040233 4.992762,-17.995883 1.518145,-1.993805 6.837361,-7.262822 8.293832,-8.21556 1.649456,-1.078977 1.690807,-0.746032 0.294263,2.369293 -1.30955,2.921265 -1.669263,4.440897 -1.669263,7.05193 0,4.751447 1.96105,8.274805 6.348012,11.405275 3.243974,2.314852 6.160605,3.082052 6.360083,1.67298 0.1249,-0.882288 -0.761102,-1.64634 -3.350925,-2.889698 -4.188224,-2.010737 -5.424046,-3.758815 -5.396178,-7.632917 0.01808,-2.51362 0.481176,-4.454188 1.658887,-6.951455 1.514401,-3.211198 3.50195,-5.605303 5.744473,-6.919508 2.258248,-1.323422 4.353468,-1.64961 12.010648,-1.869842 4.983372,-0.14333 7.2041,-0.298223 7.708462,-0.537653 0.401938,-0.190807 0.96718,-0.82862 1.306423,-1.474142 0.7315,-1.39193 1.072752,-1.781708 3.020865,-3.45042 C 59.610375,36.767392 60,35.950095 60,33.53048 c 0,-2.742213 0.113385,-2.694741 -6.956523,-2.912526 -6.67895,-0.205742 -7.624452,-0.438042 -8.97156,-2.204219 -1.28883,-1.689767 -1.10746,-2.901082 0.834033,-5.570326 1.247812,-1.715541 1.878262,-1.89404 4.806865,-1.36097 3.513182,0.639476 8.327405,1.386441 8.956827,1.389722 0.299555,0.0016 0.735598,-0.188114 0.968985,-0.421502 0.3647,-0.364702 0.401698,-0.759984 0.26323,-2.8125 -0.472517,-7.004179 -0.463795,-8.344558 0.05969,-9.171702 0.88445,-1.3975049 2.169995,-2.1759835 3.786405,-2.292904 0.796985,-0.057649 1.847315,0.026619 2.334065,0.1872607 1.122345,0.3704074 2.555657,1.9441053 2.899955,3.1839913 0.33075,1.191106 0.336387,4.473953 0.01295,7.544606 -0.336565,3.195309 -0.110318,3.674218 1.712702,3.625369 0.722918,-0.01937 3.118468,-0.400099 5.32344,-0.846063 4.525513,-0.915303 5.102698,-0.870803 6.788688,0.523397 2.58678,2.139091 2.531097,4.943591 -0.147165,7.412328 -1.4086,1.298403 -2.356395,1.462326 -6.768683,1.170658 -6.883087,-0.454997 -6.924292,-0.441344 -6.932947,2.297132 -0.0072,2.293903 0.56497,3.570953 2.624892,5.85809 0.903815,1.003508 1.827275,2.306288 2.05213,2.895065 0.302543,0.792195 0.612678,1.14723 1.192925,1.36563 0.476363,0.179298 3.482303,0.373503 7.659093,0.49483 3.78125,0.109838 7.49375,0.335173 8.25,0.500743 2.32904,0.509917 4.201875,1.63166 6.40151,3.834212 3.249443,3.253755 4.494343,6.399433 4.437333,11.21253 -0.027,2.28107 -0.12038,2.860703 -0.62281,3.866523 -0.54122,1.083467 -0.82282,1.30647 -3.341033,2.645845 -4.009258,2.132422 -4.670948,2.602977 -4.578073,3.255652 0.185813,1.305788 4.375838,0.532835 7.037106,-1.29817 1.5987,-1.09993 3.69729,-3.484557 4.48086,-5.091575 1.13453,-2.326827 1.51808,-4.250362 1.3582,-6.811607 -0.16013,-2.565443 -0.61295,-4.022395 -2.28338,-7.346825 -0.91844,-1.827848 -1.0781,-2.30891 -0.72196,-2.175365 3.1226,1.17092 9.21271,7.29717 12.19978,12.27219 1.7864,2.975277 2.63161,7.239905 2.62604,13.25 -0.006,6.776342 -0.95667,11.013792 -3.30797,14.74919 -3.05912,4.85989 -8.36875,10.73752 -10.93593,12.10581 -1.73657,0.925582 -2.41225,1.7014 -2.79067,3.20424 -0.16365,0.6499 -0.50801,1.25015 -0.843206,1.46978 -0.89465,0.5862 -4.64793,0.85545 -12.740797,0.91401 -8.207205,0.0594 -8.875,-0.0308 -8.875,-1.19812 0,-0.74581 2.06241,-8.907268 5.991482,-23.709755 C 87.57785,66.965645 89.5,59.263445 89.5,58.46388 c 0,-0.72154 -0.488555,-0.753458 -1.877145,-0.122635 -1.37767,0.625862 -2.581235,2.06043 -2.782003,3.315957 l -0.16297,1.019158 -0.65144,-0.83568 C 82.4824,59.85996 81.9648,59.741442 79.106287,60.7141 75.903907,61.803762 66,66.176477 66,66.50071 c 0,0.762047 6.12075,9.304745 9.179507,12.81179 0.749525,0.859375 1.56279,1.5625 1.807258,1.5625 0.244465,0 0.86917,-0.3375 1.388235,-0.75 0.519065,-0.4125 0.998912,-0.75 1.066327,-0.75 0.258055,0 -0.271995,2.354222 -1.97005,8.75 -3.2537,12.25516 -3.715292,13.56943 -5.206487,14.82419 -1.192943,1.00379 -2.90251,1.21976 -8.951168,1.1308 C 58.27589,104.0059 57.792075,103.95881 56.75,103.44121 55.476922,102.80887 54.72466,101.82509 53.840637,99.636475 52.52222,96.372402 48.88057,81.803782 49.048142,80.463832 l 0.07686,-0.61457 0.86107,0.637868 c 0.473587,0.35083 0.956532,0.63787 1.07321,0.63787 0.36933,0 2.699677,-2.30547 4.269332,-4.22376 2.00724,-2.453063 5.552218,-7.782643 5.92209,-8.90337 0.162183,-0.49142 0.238463,-1.040513 0.169508,-1.220208 -0.22829,-0.594912 -15.676033,-7.33308 -16.14589,-7.042692 -0.11463,0.07085 -0.28407,0.69912 -0.376538,1.396167 -0.258757,1.95061 -1.297662,1.970338 -1.91515,0.03636 -0.54353,-1.702335 -2.041085,-2.795685 -3.287417,-2.400115 -0.477055,0.151413 -0.502635,0.302455 -0.372175,2.1976 0.155282,2.255683 0.975792,5.685365 4.65433,19.45481 3.537102,13.240023 5.77263,22.079688 5.77263,22.825968 0,0.46297 -0.191415,0.72235 -0.6875,0.93161 -0.877213,0.37002 -15.261511,0.50927 -17.5625,0.17002 z M 42.21875,98.71875 C 42.8114,98.60022 43,98.428907 43,98.009107 43,97.204792 38.42218,81.369065 37.45061,78.8125 c -0.394463,-1.037978 -1.06125,-0.8558 -2.745079,0.75 -2.786348,2.65723 -3.521219,4.787155 -3.55804,10.3125 -0.02067,3.101997 0.02579,3.465592 0.574403,4.494957 1.214364,2.278525 2.746178,3.73733 4.469116,4.256115 0.82405,0.248125 4.93451,0.311323 6.02774,0.09268 z m 50.176455,-0.31808 c 1.192175,-0.541455 2.717142,-2.031385 3.352702,-3.27567 1.814358,-3.5521 1.662243,-9.733828 -0.336587,-13.678328 -0.900893,-1.777822 -2.568298,-3.7888 -3.292123,-3.970467 -0.900357,-0.225975 -1.307692,0.237312 -1.86329,2.119237 -1.489107,5.043918 -4.029092,14.43426 -4.388625,16.224775 -0.57958,2.886393 -0.493457,2.96316 3.382718,3.015248 1.582615,0.02128 2.385397,-0.08971 3.145205,-0.434795 z M 66.078382,28.021308 c 1.251253,-1.159621 1.076238,-3.04495 -0.35118,-3.783098 -2.200307,-1.137822 -4.25893,0.643134 -3.478125,3.008996 0.35157,1.065267 0.814903,1.360285 2.151918,1.370192 0.74531,0.0055 1.204197,-0.157551 1.677387,-0.59609 z"
           id="path195613"
           transform="scale(0.26458333)" />
        <path
           style="fill:#ffffff;stroke-width:0.25;filter:url(#filter197246-1)"
           d="m 50.421433,72.8125 c -1.211948,-1.630278 -1.851333,-5.167096 -1.165704,-6.448206 0.591175,-1.10462 1.095241,-1.08635 4.112799,0.149072 1.566949,0.641526 2.907188,1.318053 2.978309,1.503393 0.331624,0.864196 -3.748524,5.608241 -4.823404,5.608241 -0.273893,0 -0.769793,-0.365625 -1.102,-0.8125 z"
           id="path195753"
           transform="scale(0.26458333)" />
        <path
           style="fill:#ffffff;stroke-width:0.25;filter:url(#filter197240-2)"
           d="m 75.672601,72.28329 c -1.693194,-1.645596 -3.083976,-3.84657 -2.757588,-4.364003 0.371531,-0.588998 4.016679,-2.106588 5.13,-2.135781 1.205001,-0.0316 2.454987,1.073329 2.454987,2.170088 0,1.515465 -2.404891,5.421406 -3.337963,5.421406 -0.201382,0 -0.871628,-0.49127 -1.489436,-1.09171 z"
           id="path195893"
           transform="scale(0.26458333)" />
        <path
           style="fill:#ffffff;stroke-width:0.0625;filter:url(#filter197234-2)"
           d="m 47.5625,113.74204 c -6.901116,-0.06 -12.162083,-0.27022 -14.03125,-0.5607 -1.884587,-0.29287 -2.572765,-0.6851 -3.111979,-1.77365 -0.179074,-0.36151 -0.200521,-0.46267 -0.200521,-0.94581 0,-0.51772 0.01211,-0.56479 0.28125,-1.09325 0.318342,-0.62508 0.576426,-0.86495 1.169855,-1.0873 1.060403,-0.39732 3.231732,-0.64271 7.173895,-0.81076 10.550047,-0.44974 50.065803,-0.62765 55.799694,-0.25122 0.710337,0.0466 1.036331,0.0981 1.40625,0.22215 1.930087,0.64708 2.786693,2.20375 2.0574,3.73882 -0.29645,0.624 -0.755569,1.1544 -1.207988,1.39554 -1.209137,0.64446 -3.789962,0.89663 -11.117856,1.08628 -2.304858,0.0597 -33.133863,0.12411 -38.21875,0.0799 z"
           id="path196033"
           transform="scale(0.26458333)" />
      </g>
    </g>
  </g>
</svg>
