<?xml version="1.0" encoding="UTF-8" standalone="no"?>
<!-- Created with Inkscape (http://www.inkscape.org/) -->

<svg
   width="31.999998"
   height="31.999998"
   viewBox="0 0 8.466666 8.4666661"
   version="1.1"
   id="svg5"
   inkscape:export-filename="C:\Users\bmill\projects\chess2-canvas\src\assets\A_Nw.svg"
   inkscape:export-xdpi="96"
   inkscape:export-ydpi="96"
   xmlns:inkscape="http://www.inkscape.org/namespaces/inkscape"
   xmlns:sodipodi="http://sodipodi.sourceforge.net/DTD/sodipodi-0.dtd"
   xmlns="http://www.w3.org/2000/svg"
   xmlns:svg="http://www.w3.org/2000/svg">
  <sodipodi:namedview
     id="namedview7"
     pagecolor="#505050"
     bordercolor="#ffffff"
     borderopacity="1"
     inkscape:pageshadow="0"
     inkscape:pageopacity="0"
     inkscape:pagecheckerboard="1"
     inkscape:deskcolor="#505050"
     inkscape:document-units="mm"
     showgrid="false" />
  <defs
     id="defs2">
    <filter
       style="color-interpolation-filters:sRGB"
       inkscape:label="Invert"
       id="filter5294-6"
       x="0"
       y="0"
       width="1"
       height="1">
      <feColorMatrix
         type="hueRotate"
         values="180"
         result="color1"
         id="feColorMatrix5290-5" />
      <feColorMatrix
         values="-1 0 0 0 1 0 -1 0 0 1 0 0 -1 0 1 -0.21 -0.72 -0.07 2 0 "
         result="color2"
         id="feColorMatrix5292-1" />
    </filter>
    <filter
       style="color-interpolation-filters:sRGB"
       inkscape:label="Invert"
       id="filter5300-4"
       x="0"
       y="0"
       width="1"
       height="1">
      <feColorMatrix
         type="hueRotate"
         values="180"
         result="color1"
         id="feColorMatrix5296-2" />
      <feColorMatrix
         values="-1 0 0 0 1 0 -1 0 0 1 0 0 -1 0 1 -0.21 -0.72 -0.07 2 0 "
         result="color2"
         id="feColorMatrix5298-8" />
    </filter>
    <filter
       style="color-interpolation-filters:sRGB"
       inkscape:label="Invert"
       id="filter5306-0"
       x="0"
       y="0"
       width="1"
       height="1">
      <feColorMatrix
         type="hueRotate"
         values="180"
         result="color1"
         id="feColorMatrix5302-5" />
      <feColorMatrix
         values="-1 0 0 0 1 0 -1 0 0 1 0 0 -1 0 1 -0.21 -0.72 -0.07 2 0 "
         result="color2"
         id="feColorMatrix5304-9" />
    </filter>
    <filter
       style="color-interpolation-filters:sRGB"
       inkscape:label="Invert"
       id="filter5312-4"
       x="0"
       y="0"
       width="1"
       height="1">
      <feColorMatrix
         type="hueRotate"
         values="180"
         result="color1"
         id="feColorMatrix5308-8" />
      <feColorMatrix
         values="-1 0 0 0 1 0 -1 0 0 1 0 0 -1 0 1 -0.21 -0.72 -0.07 2 0 "
         result="color2"
         id="feColorMatrix5310-6" />
    </filter>
    <filter
       style="color-interpolation-filters:sRGB"
       inkscape:label="Invert"
       id="filter11382"
       x="0"
       y="0"
       width="1"
       height="1">
      <feColorMatrix
         type="hueRotate"
         values="180"
         result="color1"
         id="feColorMatrix11378" />
      <feColorMatrix
         values="-1 0 0 0 1 0 -1 0 0 1 0 0 -1 0 1 -0.21 -0.72 -0.07 2 0 "
         result="color2"
         id="feColorMatrix11380" />
    </filter>
  </defs>
  <g
     inkscape:label="Layer 1"
     inkscape:groupmode="layer"
     id="layer1">
    <g
       inkscape:label="Layer 1"
       id="layer1-2"
       transform="matrix(0.30924005,0,0,0.2824841,-1.5268981,-0.83697314)">
      <g
         inkscape:label="Layer 1"
         id="layer1-7"
         transform="matrix(1.011844,0,0,0.95348035,1.4138573,1.7881898)"
         style="filter:url(#filter11382)">
        <path
           style="fill:#000000;stroke-width:0.264583;filter:url(#filter5312-4)"
           d="M 7.3272645,30.218027 C 6.8355068,29.674642 6.7465301,28.704732 7.1647281,28.446271 c 0.1514403,-0.0936 0.212943,-0.368511 0.1366729,-0.610928 -0.24002,-0.762873 1.1087398,-3.194177 2.713981,-4.892281 1.700631,-1.799015 2.859185,-3.35368 2.499199,-3.35368 -0.127417,0 -0.609321,0.535781 -1.070897,1.190625 -0.712556,1.010911 -0.969847,1.187586 -1.7045785,1.170496 -1.9898263,-0.04629 -3.9080565,-1.488729 -3.9080565,-2.938724 0,-0.274642 -0.1870556,-0.784831 -0.4156794,-1.133755 -0.5723713,-0.873549 -0.2665032,-1.366217 2.4369727,-3.925282 1.2166218,-1.151634 2.2120397,-2.215528 2.2120397,-2.364208 0,-0.391487 1.848497,-2.9153107 2.446804,-3.340716 0.49378,-0.3510854 0.490671,-0.3701073 -0.109394,-0.6692722 -1.177113,-0.5868546 -0.791628,-1.0333643 2.07972,-2.408955 0.303754,-0.1455208 1.105776,-0.6060958 1.782272,-1.0235003 0.892792,-0.5508604 1.686887,-0.795592 2.896579,-0.8926944 1.588715,-0.1275267 1.705917,-0.09533 2.508346,0.6890695 1.002689,0.9801592 1.792298,1.2163376 3.35188,1.0025731 1.522913,-0.2087385 1.77664,0.224777 0.696442,1.1899336 -0.916988,0.8193291 -1.012728,1.0189934 -0.488609,1.0189934 0.55495,0 1.756407,1.4137695 2.039088,2.3994202 0.323236,1.1270581 0.334852,2.2906961 0.02402,2.4071771 -0.133543,0.05004 -0.110894,0.689274 0.05236,1.47781 0.352486,1.702492 0.0032,2.315909 -0.869101,1.526459 -0.523855,-0.474085 -0.535416,-0.470348 -0.535416,0.173077 0,0.361693 0.293892,1.238134 0.653093,1.947647 0.590536,1.16646 0.61423,1.332966 0.247348,1.738365 -0.230193,0.25436 -0.29763,0.515162 -0.155863,0.602779 0.455276,0.281376 0.537336,1.22422 0.141041,1.620515 -0.502387,0.502388 -0.296336,0.808351 0.984417,1.461742 0.572209,0.291919 1.040381,0.643216 1.040381,0.78066 0,0.396318 -0.946351,0.797681 -1.880809,0.797681 h -0.857265 l 0.542223,0.595313 c 1.078362,1.183943 1.494403,2.579687 0.76895,2.579687 -0.501644,0 -0.721696,0.67179 -0.45575,1.391359 0.120545,0.32616 0.163039,0.77161 0.09444,0.989891 -0.320492,1.019691 -0.690264,1.058333 -10.127596,1.058333 -8.5466041,0 -9.1985559,-0.03284 -9.6067215,-0.483854 z M 26.050034,30.012115 c 0.54253,-0.208187 0.54253,-1.322697 0,-1.530884 -0.746529,-0.28647 -17.5692867,-0.181287 -18.1197124,0.113292 -0.2814751,0.15064 -0.5117727,0.424484 -0.5117727,0.608541 0,0.916102 0.5204312,0.969651 9.4239851,0.969651 4.833942,0 8.977316,-0.07227 9.2075,-0.1606 z m -3.021069,-2.64043 c 0,-0.08536 -0.588748,-1.008094 -1.308328,-2.050522 -2.168876,-3.141965 -2.241486,-4.925474 -0.395157,-9.706228 1.28003,-3.31442 1.181756,-4.296624 -0.614923,-6.1458652 C 19.668434,8.3964588 19.211061,8.2795574 18.414333,8.8821719 18.131858,9.0958253 17.715139,9.2658653 17.488291,9.2600389 17.244134,9.2537683 17.370012,9.0898044 17.796792,8.8581993 18.193316,8.6430137 18.6398,8.2388894 18.78898,7.960145 19.141197,7.3020215 19.13814,5.9104392 18.783998,5.6915664 18.37363,5.4379453 17.238587,6.2783526 16.654521,7.2682713 16.249145,7.9553325 16.00818,8.111846 15.504121,8.015489 c -1.53938,-0.2942712 -3.663023,1.2312353 -4.702866,3.378277 -0.365697,0.75508 -2.4217185,3.022917 -4.2799808,4.720911 -0.9305261,0.850272 -0.9564428,0.919259 -0.5680342,1.512045 0.2238374,0.341619 0.407422,0.833674 0.407966,1.093455 0.00167,0.797897 1.0069494,2.192121 1.5805872,2.192121 0.3448631,0 0.8331861,-0.461162 1.3929512,-1.315476 0.8391616,-1.280728 1.4349176,-1.771605 1.7580026,-1.448519 0.08738,0.08738 -0.214524,0.477137 -0.670903,0.866123 -0.9766567,0.832436 -1.7564623,1.998178 -1.5049176,2.249722 0.5252341,0.525234 1.4296866,0.114719 2.1936456,-0.995658 0.443866,-0.645137 1.015132,-1.229383 1.269482,-1.298325 0.254349,-0.06894 0.81964,-0.204974 1.256203,-0.302292 0.436562,-0.09732 1.389062,-0.538583 2.116667,-0.980587 l 1.322916,-0.803645 -0.79375,0.848375 c -0.436562,0.466607 -1.335636,1.124946 -1.997942,1.462976 -0.662306,0.33803 -1.333358,0.898087 -1.491227,1.244572 -0.157868,0.346484 -1.069616,1.482736 -2.026105,2.525005 -1.5925458,1.735367 -2.8191004,3.600668 -2.8191004,4.287188 0,0.184007 2.4973334,0.275124 7.5406244,0.275124 4.147344,0 7.540625,-0.06984 7.540625,-0.155196 z M 7.4223288,16.040185 c 0.1713492,-0.171349 0.3502578,-0.171349 0.521607,0 0.1713491,0.17135 0.081895,0.260804 -0.2608035,0.260804 -0.3426984,0 -0.4321527,-0.08945 -0.2608035,-0.260804 z m 2.1337748,-1.609471 c -0.020378,-0.257431 2.5731464,-2.778832 2.8583194,-2.778832 0.07899,0 0.413172,-0.327422 0.74262,-0.727604 0.505856,-0.614466 0.640442,-0.665892 0.865534,-0.330729 0.385836,0.574514 0.179891,0.938549 -0.47706,0.843265 -0.426878,-0.06192 -0.570718,0.05478 -0.570718,0.46302 0,0.319555 -0.172171,0.545798 -0.41535,0.545798 -0.504622,0 -2.6604658,1.449652 -2.8479414,1.915038 -0.073984,0.183656 -0.1439156,0.215176 -0.155404,0.07004 z M 26.203965,27.315215 c 0,-0.116417 -0.148828,-0.36839 -0.330729,-0.559943 -0.270866,-0.285237 -0.175084,-0.327054 0.529166,-0.231032 0.472943,0.06449 0.859896,0.04023 0.859896,-0.05389 0,-0.09412 -0.398269,-0.639051 -0.885043,-1.210948 -0.845061,-0.992839 -1.496207,-2.01648 -1.496207,-2.352129 0,-0.08606 0.364769,0.03215 0.810598,0.262696 0.445829,0.230547 1.189969,0.382138 1.653646,0.336869 l 0.843048,-0.08231 -0.856131,-0.467214 c -0.930223,-0.507647 -2.892096,-3.176859 -2.444625,-3.326015 0.151252,-0.05042 0.568845,0.100864 0.927984,0.336181 0.855024,0.560233 0.823798,0.362391 -0.171026,-1.083535 -0.677114,-0.984151 -0.727381,-1.14594 -0.281978,-0.907567 0.957196,0.512276 1.091608,0.315411 0.569692,-0.834394 -0.677187,-1.491876 -0.701004,-3.108854 -0.04579,-3.108854 0.261937,0 0.63487,0.148828 0.828738,0.330729 0.581448,0.545557 0.13253,-1.283543 -0.761415,-3.102353 -0.427383,-0.86955 -0.728029,-1.6300314 -0.6681,-1.6899595 0.05993,-0.059928 0.489275,0.2943344 0.954107,0.7872495 0.792472,0.840352 0.834408,0.854983 0.672853,0.234751 C 26.817888,10.229747 26.73873,9.7923975 26.736743,9.6216616 26.734626,9.4509257 26.431257,8.9524759 26.0623,8.5139952 25.567629,7.9261122 25.011792,7.6379371 23.945634,7.4166033 22.35171,7.0857059 22.012116,6.6257878 23.359694,6.6230558 23.832637,6.6221033 24.576777,6.3755463 25.01334,6.0751656 L 25.80709,5.5290188 25.005881,5.6881667 C 24.488085,5.791019 23.477252,5.6098612 22.148259,5.1760337 20.847065,4.7512814 19.839335,4.5681289 19.404275,4.6773219 c -0.48237,0.1210673 -0.631651,0.08209 -0.5002,-0.1306017 0.103054,-0.1667442 0.604089,-0.303171 1.113411,-0.303171 0.549987,0 0.859638,-0.1074444 0.762521,-0.2645833 -0.441168,-0.7138241 -3.429583,-0.041176 -4.961475,1.1167543 -0.472647,0.3572658 -1.424905,0.8636384 -2.116129,1.1252724 -1.412197,0.5345279 -1.563179,0.7987037 -0.595313,1.0416227 0.363802,0.091308 0.661459,0.2701496 0.661459,0.3974248 0,0.5913093 2.332556,-0.3997738 3.518075,-1.4947995 1.492279,-1.3783711 2.028986,-1.2324365 2.05254,0.5581012 0.01318,1.0021292 0.115227,1.1574621 1.238877,1.8858322 2.689127,1.74314 3.038168,3.438894 1.497972,7.277615 -0.889288,2.216424 -1.009254,2.78111 -1.019645,4.799533 l -0.01178,2.287564 1.561603,2.276498 c 1.504991,2.193969 1.598512,2.276497 2.579688,2.276497 0.559946,0 1.018084,-0.09525 1.018084,-0.211666 z"
           id="path1219" />
        <path
           style="fill:#ffffff;stroke-width:0.16764;filter:url(#filter5306-0)"
           d="m 43.754128,103.85061 c -6.803009,-0.12235 -11.42248,-0.34037 -12.87978,-0.60786 -0.729657,-0.13393 -0.809348,-0.40317 -0.457332,-1.54512 0.918866,-2.980821 5.171118,-9.098807 10.153493,-14.608476 2.821308,-3.119894 6.123596,-7.126204 7.04724,-8.549657 1.88631,-2.907044 3.136694,-4.070658 6.233664,-5.80108 2.222252,-1.241673 4.32496,-2.652621 5.86158,-3.933206 1.349592,-1.124719 4.919052,-4.815787 4.785895,-4.948944 -0.04618,-0.04618 -1.447353,0.746697 -3.113718,1.761946 -5.387295,3.28226 -7.751074,4.335316 -12.084793,5.383737 -2.555398,0.618206 -2.960927,0.764705 -3.671417,1.326315 -0.967487,0.764755 -2.25267,2.227094 -3.862395,4.394811 -1.451498,1.954642 -2.745325,3.170774 -4.101878,3.85556 -0.871883,0.440126 -1.152846,0.501702 -2.033377,0.445633 -1.052954,-0.06705 -1.840001,-0.460411 -1.985294,-0.992246 -0.129794,-0.475103 0.396113,-1.709136 1.350503,-3.168929 0.657837,-1.006201 1.776064,-2.262427 3.805226,-4.274829 1.677581,-1.663724 2.969695,-3.086009 3.10445,-3.417195 0.210512,-0.517382 0.202399,-0.588587 -0.09219,-0.809061 -0.514326,-0.384924 -1.477116,-0.163342 -2.422335,0.557491 -0.968547,0.738623 -2.62244,2.753907 -4.317856,5.261348 -2.146528,3.174616 -3.787656,4.69393 -5.070272,4.69393 -1.182833,0 -2.944403,-1.582558 -4.327003,-3.887291 -0.941292,-1.569094 -1.35821,-2.670767 -1.533279,-4.051572 -0.180937,-1.427087 -0.739889,-3.018458 -1.486252,-4.231452 -0.843113,-1.370235 -1.055448,-1.994043 -0.856688,-2.516821 0.09488,-0.249561 2.986809,-3.251835 6.426502,-6.671723 8.068375,-8.021915 11.148886,-11.593805 13.097515,-15.186734 1.276881,-2.354343 2.539661,-4.094664 4.357656,-6.005585 2.937401,-3.087542 5.958015,-4.986857 9.24768,-5.814797 0.927653,-0.233471 1.529911,-0.266743 3.160711,-0.174614 1.203006,0.06796 2.188132,0.04787 2.445194,-0.04986 0.667931,-0.253947 1.423457,-1.103839 2.617789,-2.944749 2.322922,-3.580491 6.056108,-6.43351 7.587992,-5.798983 0.658989,0.272962 1.028243,1.257322 1.132388,3.018713 0.09804,1.658097 -0.144784,3.451493 -0.650235,4.80243 -0.469081,1.253731 -2.077419,2.87116 -4.023919,4.046663 -1.40228,0.846846 -1.768765,1.220411 -1.547889,1.577795 0.262999,0.425542 2.881345,-0.486211 4.128868,-1.437742 0.835524,-0.637286 2.320849,-1.274241 2.975336,-1.27592 1.800851,-0.0046 5.082094,2.713917 8.279156,6.859353 1.072945,1.39122 2.132521,3.479345 2.473058,4.8737 0.308417,1.262833 0.260371,4.142383 -0.0979,5.867412 -0.44063,2.121584 -1.298552,4.841738 -2.716593,8.613323 -3.723677,9.903927 -4.859127,14.238549 -5.036345,19.226419 -0.113552,3.196011 0.137242,5.189115 0.989999,7.867649 1.053579,3.309326 2.322452,5.613898 6.702586,12.173482 2.974008,4.453796 3.623636,5.516466 3.46767,5.672436 -0.360137,0.36013 -30.254402,0.65468 -43.063407,0.4243 z M 30.310115,61.166156 c 0.06633,-0.465124 -0.688776,-1.067096 -1.338565,-1.067096 -0.758931,0 -1.602818,0.99332 -1.192488,1.403649 0.06512,0.06512 0.649769,0.09656 1.299212,0.06985 1.059745,-0.04358 1.186039,-0.08525 1.231841,-0.406403 z m 6.533081,-6.934455 c 0.487394,-0.853496 2.421658,-2.503184 4.83677,-4.125166 2.082363,-1.39851 4.911932,-2.915781 5.43766,-2.915781 0.565996,0 1.46025,-0.454291 1.671592,-0.84919 0.110281,-0.20606 0.260254,-0.856396 0.333274,-1.44519 0.186661,-1.505127 0.259997,-1.561347 2.036661,-1.561347 2.230043,0 2.855797,-0.461124 2.584949,-1.904869 -0.131363,-0.700224 -1.022749,-2.069788 -1.431583,-2.199547 -0.555352,-0.176262 -1.174208,0.287225 -2.664984,1.995923 -1.591381,1.82401 -2.109783,2.294808 -3.577575,3.249051 -1.861961,1.2105 -7.537049,6.635784 -9.379426,8.966565 -0.644303,0.815104 -0.838444,1.461233 -0.438311,1.458769 0.115252,-6.71e-4 0.38119,-0.301858 0.590973,-0.669218 z"
           id="path4150"
           transform="scale(0.26458333)" />
        <path
           style="fill:#ffffff;stroke-width:0.16764;filter:url(#filter5300-4)"
           d="m 93.453006,103.86484 c -2.223313,-0.35281 -2.906189,-1.14157 -10.189352,-11.76936 l -3.634495,-5.303554 0.0015,-5.341608 c 0.0017,-6.026319 0.180006,-9.146414 0.666164,-11.654329 0.369049,-1.903782 1.672498,-5.809619 3.511284,-10.521709 2.235749,-5.729347 3.082106,-9.267817 3.090716,-12.921727 0.0064,-2.714255 -0.259182,-3.934286 -1.331966,-6.118872 -1.36532,-2.780299 -3.391335,-4.810991 -7.772911,-7.79085 -2.651753,-1.803428 -3.680858,-2.715399 -4.128383,-3.658486 -0.20493,-0.431858 -0.351179,-1.477741 -0.502094,-3.590658 -0.3131,-4.383654 -0.774815,-5.424263 -2.396251,-5.400661 -1.274756,0.01856 -2.242874,0.643734 -6.167404,3.982702 -2.884452,2.454042 -7.410354,4.881441 -10.3899,5.572443 -1.384877,0.321175 -1.871865,0.221057 -2.099383,-0.431603 -0.223698,-0.641699 -0.902126,-1.041065 -2.688855,-1.582833 -1.721803,-0.522081 -2.321244,-0.926032 -2.049165,-1.38089 0.291655,-0.487587 1.697652,-1.253973 3.936548,-2.145749 3.0425,-1.21186 5.922298,-2.724851 8.613341,-4.525284 1.304556,-0.872808 3.089875,-1.922427 3.967376,-2.332485 5.650258,-2.64038 12.300639,-3.703031 14.136605,-2.25886 0.969213,0.762383 0.291998,1.096082 -2.672059,1.316661 -2.819798,0.209844 -4.243296,0.777155 -4.076306,1.624544 0.04951,0.251259 0.194254,0.296701 0.810986,0.254618 0.412893,-0.02817 1.655973,-0.06109 2.762399,-0.07314 2.295358,-0.025 3.50091,0.223832 8.717297,1.799317 3.939116,1.189716 6.129208,1.710322 8.214918,1.952768 1.465239,0.170321 1.915898,0.158206 3.259616,-0.08763 0.857614,-0.156903 1.593989,-0.250588 1.636387,-0.20819 0.0424,0.0424 -0.613944,0.541737 -1.458539,1.109641 -2.565154,1.724806 -4.467364,2.379386 -7.52745,2.590315 -2.457616,0.169402 -3.234223,0.654135 -2.266976,1.414973 0.650745,0.511876 2.021381,0.977649 5.266759,1.789765 3.871358,0.968759 5.315015,1.666881 7.052151,3.410269 1.670834,1.676847 2.937226,3.620494 3.165866,4.858948 0.0955,0.517257 0.37071,1.869134 0.61159,3.004173 0.24087,1.135039 0.40521,2.096446 0.3652,2.13646 -0.04,0.04001 -1.00988,-0.873877 -2.155245,-2.030868 -3.110177,-3.141738 -4.51576,-4.123971 -4.243778,-2.96559 0.172931,0.73652 1.456669,3.796283 2.584786,6.160783 2.445107,5.12487 4.250897,10.810486 3.698427,11.6447 -0.13577,0.205017 -0.2865,0.156007 -0.92055,-0.299334 -1.022289,-0.734154 -1.810049,-1.042787 -2.768008,-1.084464 -1.223496,-0.05323 -1.744177,0.565731 -2.044468,2.430359 -0.350843,2.178537 0.321826,5.499153 1.911737,9.437263 0.617052,1.528399 1.020165,2.777594 1.027848,3.185166 l 0.01264,0.670562 -0.670561,-0.01519 c -0.394952,-0.009 -1.240307,-0.277513 -2.056759,-0.653426 -0.762408,-0.351031 -1.431552,-0.592882 -1.486985,-0.537449 -0.239485,0.239485 0.228452,1.117953 2.089291,3.922276 2.334402,3.51799 2.879396,4.425799 2.879396,4.796272 0,0.358674 -0.498573,0.175666 -1.805996,-0.662918 -1.866484,-1.197165 -3.450592,-1.723521 -3.993129,-1.326806 -0.295949,0.216401 -0.296737,0.262164 -0.01965,1.141186 0.774056,2.455591 5.615866,8.705749 8.303804,10.719153 0.53018,0.397131 1.58354,1.054204 2.34081,1.460162 0.75727,0.405956 1.37685,0.794565 1.37685,0.863574 0,0.06901 -0.87637,0.180227 -1.94749,0.247154 -2.88525,0.180277 -4.489031,-0.147651 -7.736435,-1.581881 -0.854354,-0.377328 -1.703033,-0.686053 -1.885954,-0.686053 -1.24,0 1.065767,4.016017 5.197471,9.052578 2.186658,2.665543 3.463688,4.474158 3.284018,4.651042 -0.0708,0.0697 -0.93249,0.0975 -1.91488,0.0618 -3.527756,-0.12818 -3.619591,-0.12404 -3.676403,0.16578 -0.02895,0.14769 0.224815,0.60032 0.563919,1.00585 0.81359,0.97295 1.195738,1.77316 0.959568,2.00933 -0.432698,0.4327 -3.78502,0.74652 -5.339497,0.49986 z"
           id="path4221"
           transform="scale(0.26458333)" />
        <path
           style="fill:#ffffff;stroke-width:0.16764;filter:url(#filter5294-6)"
           d="m 38.148716,113.73273 c -4.164976,-0.17508 -7.113628,-0.53049 -8.402731,-1.01281 -1.112189,-0.41612 -1.580836,-1.04385 -1.581782,-2.11873 -5.15e-4,-0.58515 0.109115,-0.83346 0.615426,-1.39388 0.87685,-0.97057 1.337676,-1.15315 3.367196,-1.33407 6.392917,-0.5699 37.534005,-0.97582 52.846825,-0.68886 11.124663,0.20848 13.110411,0.3197 13.802359,0.77309 1.023506,0.67062 1.417671,2.82176 0.751312,4.10028 -0.671698,1.28877 -0.845516,1.3503 -4.339677,1.53617 -4.012458,0.21343 -52.478938,0.33134 -57.058928,0.13881 z"
           id="path4292"
           transform="scale(0.26458333)" />
      </g>
    </g>
  </g>
</svg>
