<?xml version="1.0" encoding="UTF-8" standalone="no"?>
<!-- Created with Inkscape (http://www.inkscape.org/) -->

<svg
   width="31.999998"
   height="31.999998"
   viewBox="0 0 8.466666 8.4666661"
   version="1.1"
   id="svg5"
   inkscape:export-filename="C:\Users\bmill\projects\chess2-canvas\src\assets\a_r.svg"
   inkscape:export-xdpi="96"
   inkscape:export-ydpi="96"
   xmlns:inkscape="http://www.inkscape.org/namespaces/inkscape"
   xmlns:sodipodi="http://sodipodi.sourceforge.net/DTD/sodipodi-0.dtd"
   xmlns="http://www.w3.org/2000/svg"
   xmlns:svg="http://www.w3.org/2000/svg">
  <sodipodi:namedview
     id="namedview7"
     pagecolor="#505050"
     bordercolor="#ffffff"
     borderopacity="1"
     inkscape:pageshadow="0"
     inkscape:pageopacity="0"
     inkscape:pagecheckerboard="1"
     inkscape:deskcolor="#505050"
     inkscape:document-units="mm"
     showgrid="false" />
  <defs
     id="defs2">
    <filter
       style="color-interpolation-filters:sRGB"
       inkscape:label="Invert"
       id="filter14715"
       x="0"
       y="0"
       width="1"
       height="1">
      <feColorMatrix
         type="hueRotate"
         values="180"
         result="color1"
         id="feColorMatrix14711" />
      <feColorMatrix
         values="-1 0 0 0 1 0 -1 0 0 1 0 0 -1 0 1 -0.21 -0.72 -0.07 2 0 "
         result="color2"
         id="feColorMatrix14713" />
    </filter>
    <filter
       style="color-interpolation-filters:sRGB"
       inkscape:label="Invert"
       id="filter14721"
       x="0"
       y="0"
       width="1"
       height="1">
      <feColorMatrix
         type="hueRotate"
         values="180"
         result="color1"
         id="feColorMatrix14717" />
      <feColorMatrix
         values="-1 0 0 0 1 0 -1 0 0 1 0 0 -1 0 1 -0.21 -0.72 -0.07 2 0 "
         result="color2"
         id="feColorMatrix14719" />
    </filter>
    <filter
       style="color-interpolation-filters:sRGB"
       inkscape:label="Invert"
       id="filter14727"
       x="0"
       y="0"
       width="1"
       height="1">
      <feColorMatrix
         type="hueRotate"
         values="180"
         result="color1"
         id="feColorMatrix14723" />
      <feColorMatrix
         values="-1 0 0 0 1 0 -1 0 0 1 0 0 -1 0 1 -0.21 -0.72 -0.07 2 0 "
         result="color2"
         id="feColorMatrix14725" />
    </filter>
    <filter
       style="color-interpolation-filters:sRGB"
       inkscape:label="Invert"
       id="filter14733"
       x="0"
       y="0"
       width="1"
       height="1">
      <feColorMatrix
         type="hueRotate"
         values="180"
         result="color1"
         id="feColorMatrix14729" />
      <feColorMatrix
         values="-1 0 0 0 1 0 -1 0 0 1 0 0 -1 0 1 -0.21 -0.72 -0.07 2 0 "
         result="color2"
         id="feColorMatrix14731" />
    </filter>
  </defs>
  <g
     inkscape:label="Layer 1"
     inkscape:groupmode="layer"
     id="layer1">
    <g
       inkscape:label="Layer 1"
       id="layer1-2"
       transform="matrix(0.30924005,0,0,0.2824841,-1.5268981,-0.83697314)">
      <g
         inkscape:label="Layer 1"
         id="layer1-8"
         transform="matrix(1.043566,0,0,1.0667543,2.6220589,-1.6586953)">
        <path
           style="fill:#000000;stroke-width:0.264583;filter:url(#filter14733)"
           d="m 8.0434644,30.435466 c -1.0790568,-0.436005 -1.0269852,-1.033685 0.469161,-5.38508 0.2918404,-0.84879 0.4908642,-1.563165 0.442275,-1.5875 C 8.9063113,23.438549 8.2956646,23.131368 7.5979082,22.780259 3.457243,20.696687 2.556535,14.675125 5.9007041,11.433829 6.7755903,10.585856 6.7766153,10.581824 6.5167649,9.0106194 6.1956684,7.0690877 6.5352495,6.0884318 7.5286585,6.0884318 c 0.7658608,0 1.2056064,0.669204 1.2056064,1.8346893 0,0.7132746 0.089977,0.8111439 0.7457279,0.8111439 0.4101502,0 1.3512122,0.1798095 2.0912482,0.3995767 0.982886,0.2918857 2.118939,0.3660801 4.21521,0.2752902 2.490511,-0.1078643 3.015018,-0.054236 3.96957,0.4058684 1.071837,0.5166367 1.942827,1.7406377 1.942827,2.7302517 0,0.233048 0.472589,0.85068 1.050199,1.372515 0.577609,0.521836 1.611543,1.860979 2.29763,2.975874 1.24478,2.022776 1.373509,2.578784 1.173772,5.06979 -0.102366,1.276647 0.207976,6.055693 0.428895,6.604714 0.360926,0.896951 0.125249,1.591966 -0.638263,1.882251 -0.80459,0.305906 -17.207324,0.292275 -17.9676166,-0.01492 z M 26.1531,29.271177 c 0.05265,-0.273605 -0.06481,-0.599204 -0.261032,-0.723553 -0.196219,-0.124349 -4.188023,-0.227915 -8.870675,-0.230142 -7.2904657,-0.0035 -8.5720449,0.05408 -8.9184455,0.400481 -0.2224924,0.222493 -0.3367273,0.581226 -0.253855,0.797187 0.1298736,0.338447 1.3972147,0.38305 9.1794765,0.323074 8.596882,-0.06626 9.03338,-0.09338 9.124531,-0.567047 z m -0.485503,-4.132746 c 0,-1.455208 -0.09199,-2.645833 -0.204416,-2.645833 -0.226523,0 -0.879884,1.190388 -1.488182,2.711387 -0.808945,2.022699 -2.544761,1.965477 -4.392818,-0.144815 -2.685813,-3.066921 -3.045434,-3.359793 -4.13606,-3.368368 -0.835067,-0.0066 -0.936614,-0.05851 -0.552008,-0.282368 0.892188,-0.519293 2.158321,0.208595 4.239328,2.437152 1.885769,2.019475 2.030509,2.117772 3.000973,2.038057 0.927468,-0.07618 1.080908,-0.203343 1.697377,-1.40667 0.372754,-0.727605 1.008382,-1.799167 1.412508,-2.38125 0.878264,-1.265009 0.828794,-2.571328 -0.148166,-3.912509 -0.340538,-0.467495 -0.855814,-1.314201 -1.145058,-1.881568 -0.289244,-0.567368 -1.033385,-1.455784 -1.653646,-1.974258 -0.807076,-0.674632 -1.127748,-1.142304 -1.127748,-1.644721 0,-0.782267 -0.796769,-1.932582 -1.674165,-2.417034 C 19.117262,10.056781 17.870082,9.9730066 15.848042,10.020629 13.605939,10.073434 12.372644,9.9759225 11.285533,9.6598907 10.466128,9.4216832 9.5651516,9.2999611 9.2833634,9.3893972 8.7802805,9.5490695 8.7798341,9.5776228 9.2586646,10.969365 c 0.2682033,0.779546 0.6213096,1.667116 0.7846804,1.972378 0.163371,0.305262 0.228262,0.555022 0.144202,0.555022 -0.3738567,0 -1.7075678,-3.397404 -1.9892128,-5.0671846 C 7.9488674,6.9505724 7.8020704,6.6065733 7.4511716,6.6787037 6.496637,6.8749171 7.4866294,12.103391 9.0673624,15.214336 c 0.4482914,0.882255 0.4628583,0.994886 0.088488,0.684187 -0.3879162,-0.321942 -0.5068223,-0.313248 -0.8847616,0.06469 -0.4057679,0.405768 -0.3881443,0.488287 0.2494293,1.167897 0.377326,0.402203 0.9872104,1.33407 1.3552987,2.070815 0.8203632,1.641991 1.3043842,2.067656 2.1642192,1.903289 0.920217,-0.175911 0.827848,-0.01152 -0.245525,0.436962 -1.287823,0.538086 -2.4685671,2.474982 -3.4423108,5.646775 l -0.1827614,0.595312 h 8.7490792 8.749079 z M 14.647527,12.84378 c 0.08197,-0.213621 0.03518,-0.458773 -0.103984,-0.544782 -0.333103,-0.205868 -0.325183,-0.654316 0.01155,-0.654316 0.145521,0 0.502708,0.238125 0.79375,0.529166 0.716958,0.716958 0.665155,1.058333 -0.160599,1.058333 -0.497735,0 -0.648272,-0.10813 -0.540722,-0.388401 z M 9.6799728,22.460777 C 9.7833145,22.293566 9.498012,21.878602 9.0254119,21.508737 8.0741473,20.76426 7.0424991,18.876314 6.7708861,17.38289 6.5519103,16.178883 6.9825432,14.700129 7.6980958,14.198937 8.2010266,13.84667 8.2000953,13.819875 7.6379039,12.467092 L 7.0668775,11.09305 6.3123989,11.815886 c -1.8403998,1.763215 -2.4173753,4.930583 -1.3245851,7.27145 0.6602457,1.414313 1.2508753,2.105741 2.5543932,2.990332 1.0695249,0.725799 1.840572,0.863979 2.1377658,0.383109 z"
           id="path12247" />
        <path
           style="fill:#ffffff;stroke-width:0.237079;filter:url(#filter14727)"
           d="m 31.116975,104.61121 c 0.06068,-0.16299 0.455768,-1.41655 0.877975,-2.78568 1.799088,-5.834077 4.721461,-12.153277 7.106345,-15.366417 1.946708,-2.622786 3.49425,-3.908901 6.337031,-5.266509 1.639076,-0.782762 2.45168,-1.299772 2.45168,-1.559851 0,-0.312857 -0.150851,-0.358461 -0.770508,-0.232937 -0.423779,0.08584 -1.374298,0.220054 -2.112265,0.298245 -2.73865,0.290171 -4.25598,-1.081401 -7.174008,-6.484866 -2.070631,-3.834297 -4.207485,-7.078197 -6.050256,-9.184734 -0.790255,-0.903367 -1.436827,-1.850904 -1.436827,-2.105636 0,-0.64184 1.942934,-2.534476 2.60183,-2.534476 0.291779,0 0.934611,0.320057 1.428517,0.711237 1.053588,0.834458 1.520131,0.918249 1.302963,0.234012 -0.08331,-0.262473 -0.768313,-1.782744 -1.522236,-3.378379 -3.503554,-7.415061 -6.134605,-16.361339 -7.029556,-23.90237 -0.529879,-4.464866 -0.180062,-7.212692 0.974636,-7.655791 1.102587,-0.423102 1.641462,0.745604 2.609898,5.660322 0.33402,1.695116 0.928687,4.202229 1.321482,5.571362 1.519916,5.297845 4.76801,13.085536 5.874581,14.085005 1.139054,1.028806 0.924589,-0.251737 -0.631742,-3.772058 -1.06457,-2.407987 -2.515383,-6.364811 -3.162328,-8.624659 -0.509259,-1.778896 -0.361414,-2.235152 0.854288,-2.63637 1.126834,-0.371889 3.291221,-0.120404 7.231629,0.84026 5.136312,1.252223 6.228801,1.34459 18.136562,1.533411 6.128498,0.09718 11.516123,0.279337 11.972501,0.404796 1.481522,0.407272 2.460437,1.052695 4.062009,2.678192 1.937388,1.966329 3.236807,4.432688 3.514313,6.670339 0.28183,2.272509 0.879647,3.188019 3.988908,6.108696 3.48154,3.270375 5.104752,5.318709 7.473058,9.430258 1.017525,1.766494 2.48469,4.146257 3.260366,5.288363 2.564177,3.775489 3.416833,6.61626 2.872525,9.570319 -0.388063,2.106103 -0.971216,3.38593 -2.876722,6.313454 -0.891157,1.369132 -2.501162,4.089616 -3.577789,6.04552 -2.992563,5.436583 -3.399894,6.008451 -4.685683,6.57842 -0.855484,0.379223 -1.630456,0.496918 -3.378114,0.513037 -2.111935,0.01949 -2.340254,-0.02583 -3.319109,-0.658769 -0.578139,-0.373832 -3.824989,-3.473455 -7.215222,-6.888055 -6.357185,-6.402878 -8.495801,-8.172186 -11.245093,-9.303236 -0.77111,-0.317234 -1.813082,-0.543265 -2.505503,-0.543509 -1.361669,-4.74e-4 -3.20057,0.735813 -3.20057,1.28151 0,0.201966 0.02667,0.373367 0.05927,0.380892 0.0326,0.0075 1.232812,0.09857 2.667141,0.202319 3.605243,0.260775 4.424485,0.704772 8.074948,4.376295 1.572563,1.581636 3.746053,3.889214 4.829979,5.127953 3.104695,3.548125 5.942946,6.357061 7.428046,7.351322 4.795309,3.210413 9.191647,2.329563 11.52863,-2.309889 0.278179,-0.552248 0.993492,-2.152533 1.589583,-3.556189 1.282881,-3.02088 2.945126,-6.1513 3.815707,-7.185928 0.522715,-0.621212 0.65748,-0.681615 0.830593,-0.372279 0.332143,0.593507 0.652099,7.141228 0.658782,13.481689 l 0.0062,5.867709 H 63.986029 c -26.28429,0 -32.956982,-0.0602 -32.869054,-0.29635 z M 59.141912,49.908738 c 1.261994,-0.479811 1.077869,-1.645594 -0.533727,-3.37929 -2.248893,-2.419272 -4.078479,-3.234126 -4.530606,-2.017821 -0.248658,0.668934 -0.1139,1.046932 0.71702,2.011232 0.590868,0.685715 0.645733,0.891547 0.520195,1.95152 -0.129109,1.090117 -0.09505,1.203074 0.425593,1.411388 0.752963,0.301271 2.636093,0.313986 3.401525,0.02297 z"
           id="path13828"
           transform="scale(0.26458333)" />
        <path
           style="fill:#ffffff;stroke-width:0.237079;filter:url(#filter14721)"
           d="m 33.182179,85.623952 c -2.342296,-0.642516 -6.636271,-3.46158 -9.274571,-6.088909 -2.435637,-2.425507 -5.130309,-7.125558 -6.107951,-10.653496 -1.876737,-6.772433 -0.681768,-14.49356 3.1766,-20.525159 0.48029,-0.750815 1.948789,-2.470581 3.263329,-3.821703 l 2.390074,-2.456584 1.270474,3.024492 c 1.672669,3.981958 2.446008,6.130714 2.446008,6.796335 0,0.367373 -0.454175,0.938044 -1.404136,1.764295 -2.570588,2.235829 -3.71851,5.596295 -3.522555,10.312044 0.08946,2.152865 0.249104,3.054257 0.859443,4.852612 1.722405,5.075051 4.362486,9.418617 7.408727,12.189135 2.767,2.516551 3.353796,3.621364 2.289153,4.309989 -0.825592,0.534004 -1.621926,0.618623 -2.794595,0.296949 z"
           id="path13968"
           transform="scale(0.26458333)" />
        <path
           style="fill:#ffffff;stroke-width:0.237079;filter:url(#filter14715)"
           d="m 33.874999,112.50792 c -3.8153,-0.3231 -4.569234,-0.78749 -4.013292,-2.47201 0.896847,-2.71748 2.163142,-2.82976 31.778894,-2.81782 22.517822,0.009 34.886663,0.29924 36.028778,0.84519 0.373528,0.17856 0.72821,0.65684 0.939763,1.26725 0.302715,0.87345 0.297942,1.04434 -0.04373,1.5658 -0.564287,0.86121 -1.958389,1.11552 -7.496633,1.36755 -6.38126,0.29039 -54.235344,0.49458 -57.19378,0.24404 z"
           id="path14108"
           transform="scale(0.26458333)" />
      </g>
    </g>
  </g>
</svg>
