<?xml version="1.0" encoding="UTF-8" standalone="no"?>
<!-- Created with Inkscape (http://www.inkscape.org/) -->

<svg
   width="31.999998"
   height="31.999998"
   viewBox="0 0 8.466666 8.4666661"
   version="1.1"
   id="svg5"
   inkscape:export-filename="C:\Users\bmill\projects\chess2-canvas\src\assets\c_n.svg"
   inkscape:export-xdpi="96"
   inkscape:export-ydpi="96"
   sodipodi:docname="a_r.svg"
   xmlns:inkscape="http://www.inkscape.org/namespaces/inkscape"
   xmlns:sodipodi="http://sodipodi.sourceforge.net/DTD/sodipodi-0.dtd"
   xmlns="http://www.w3.org/2000/svg"
   xmlns:svg="http://www.w3.org/2000/svg">
  <sodipodi:namedview
     id="namedview7"
     pagecolor="#505050"
     bordercolor="#ffffff"
     borderopacity="1"
     inkscape:pageshadow="0"
     inkscape:pageopacity="0"
     inkscape:pagecheckerboard="1"
     inkscape:deskcolor="#505050"
     inkscape:document-units="mm"
     showgrid="false" />
  <defs
     id="defs2">
    <filter
       style="color-interpolation-filters:sRGB"
       inkscape:label="Invert"
       id="filter77019"
       x="0"
       y="0"
       width="1"
       height="1">
      <feColorMatrix
         type="hueRotate"
         values="180"
         result="color1"
         id="feColorMatrix77015" />
      <feColorMatrix
         values="-1 0 0 0 1 0 -1 0 0 1 0 0 -1 0 1 -0.21 -0.72 -0.07 2 0 "
         result="color2"
         id="feColorMatrix77017" />
    </filter>
    <filter
       style="color-interpolation-filters:sRGB"
       inkscape:label="Invert"
       id="filter77025"
       x="0"
       y="0"
       width="1"
       height="1">
      <feColorMatrix
         type="hueRotate"
         values="180"
         result="color1"
         id="feColorMatrix77021" />
      <feColorMatrix
         values="-1 0 0 0 1 0 -1 0 0 1 0 0 -1 0 1 -0.21 -0.72 -0.07 2 0 "
         result="color2"
         id="feColorMatrix77023" />
    </filter>
    <filter
       style="color-interpolation-filters:sRGB"
       inkscape:label="Invert"
       id="filter77031"
       x="0"
       y="0"
       width="1"
       height="1">
      <feColorMatrix
         type="hueRotate"
         values="180"
         result="color1"
         id="feColorMatrix77027" />
      <feColorMatrix
         values="-1 0 0 0 1 0 -1 0 0 1 0 0 -1 0 1 -0.21 -0.72 -0.07 2 0 "
         result="color2"
         id="feColorMatrix77029" />
    </filter>
    <filter
       style="color-interpolation-filters:sRGB"
       inkscape:label="Invert"
       id="filter77037"
       x="0"
       y="0"
       width="1"
       height="1">
      <feColorMatrix
         type="hueRotate"
         values="180"
         result="color1"
         id="feColorMatrix77033" />
      <feColorMatrix
         values="-1 0 0 0 1 0 -1 0 0 1 0 0 -1 0 1 -0.21 -0.72 -0.07 2 0 "
         result="color2"
         id="feColorMatrix77035" />
    </filter>
    <filter
       style="color-interpolation-filters:sRGB"
       inkscape:label="Invert"
       id="filter77043"
       x="0"
       y="0"
       width="1"
       height="1">
      <feColorMatrix
         type="hueRotate"
         values="180"
         result="color1"
         id="feColorMatrix77039" />
      <feColorMatrix
         values="-1 0 0 0 1 0 -1 0 0 1 0 0 -1 0 1 -0.21 -0.72 -0.07 2 0 "
         result="color2"
         id="feColorMatrix77041" />
    </filter>
  </defs>
  <g
     inkscape:label="Layer 1"
     inkscape:groupmode="layer"
     id="layer1">
    <g
       inkscape:label="Layer 1"
       id="layer1-6"
       transform="translate(0.11288508,-11.602184)">
      <path
         style="fill:#000000;stroke-width:0.264583;filter:url(#filter77043)"
         d="M 3.6396066,39.974049 C 3.2047112,39.568882 3.0560932,39.137325 3.06894,38.316947 c 0.00955,-0.610092 0.011687,-1.390361 0.00474,-1.73393 -0.018771,-0.928176 1.132505,-2.8678 2.9337326,-4.942641 1.50843,-1.737566 2.550372,-3.29623 2.203477,-3.29623 -0.327297,0 -1.345518,0.635609 -2.181419,1.361718 -1.0846653,0.942198 -1.2359625,0.939547 -2.2143109,-0.0388 -0.4365625,-0.436563 -0.9095665,-0.79375 -1.0511199,-0.79375 -1.234831,0 -2.34775821,-1.532033 -2.34775821,-3.231876 0,-1.19369 0.402114,-1.700259 2.38841321,-3.008839 1.3827802,-0.91098 2.0540228,-1.572915 2.7022485,-2.66478 0.4743533,-0.798999 1.2582983,-2.049201 1.7420993,-2.778228 0.904892,-1.363558 0.936076,-1.957965 0.118551,-2.259751 -2.7653588,-1.020819 2.340983,-3.189882 6.4437824,-2.737178 6.22808,0.68721 9.23156,6.822889 6.546399,13.373359 -1.392488,3.396986 -1.168949,5.26023 1.026734,8.55802 1.912583,2.872591 1.99872,3.077672 1.390671,3.311 -0.324181,0.124399 -0.339709,0.273621 -0.08634,0.829704 0.260866,0.572537 0.225317,0.790033 -0.228489,1.397982 -0.753065,1.008856 -17.7698938,1.290338 -18.8207444,0.311322 z M 22.017726,39.056402 c 0.43109,-1.123407 -0.05546,-1.187257 -9.047236,-1.187257 -8.9857657,0 -9.6347801,0.08447 -9.2073688,1.198282 0.2280997,0.594419 18.0263998,0.583666 18.2546048,-0.01103 z m -3.080613,-2.458505 c 0,-0.117102 -0.532287,-0.968829 -1.18286,-1.892725 -2.373606,-3.370818 -2.481259,-5.061576 -0.65951,-10.358016 1.469306,-4.271769 1.227106,-5.89072 -1.132003,-7.56669 -0.784699,-0.55747 -0.797925,-0.55793 -1.620371,-0.05643 -1.249362,0.761824 -1.374163,0.611726 -0.318886,-0.383528 1.131082,-1.066748 1.432771,-3.342197 0.443122,-3.342197 -0.926247,0 -2.144075,1.724609 -2.144075,3.0363 0,0.641192 -0.119062,1.239388 -0.264583,1.329325 -0.157458,0.09731 -0.264584,-0.217738 -0.264584,-0.778135 0,-2.351088 -3.3697874,-0.520275 -5.0113284,2.722667 -0.78351,1.54786 -2.4383858,3.299794 -3.9412442,4.172397 -2.68694661,1.56012 -1.93353501,5.770559 0.7733519,4.321877 0.7312863,-0.391373 1.2563104,-0.0099 0.6233564,0.452972 -0.475851,0.34795 -0.4729323,0.379309 0.087463,0.939704 0.5797412,0.579741 0.5797412,0.579741 1.3120922,-0.105561 0.8637307,-0.808241 2.2317407,-1.536903 2.9020247,-1.545743 0.261888,-0.0035 1.190535,-0.308156 2.0636604,-0.677116 0.873125,-0.36896 1.766093,-0.742387 1.984374,-0.829838 0.935543,-0.374809 -1.002172,1.305179 -2.185606,1.894909 -0.8715004,0.434287 -1.5412424,1.025251 -2.0254674,1.787223 -0.397891,0.626116 -1.35087,1.852768 -2.117732,2.725893 -3.8571302,4.391613 -3.8869675,4.365625 5.0124384,4.365625 4.216502,0 7.666367,-0.09581 7.666367,-0.212915 z M 2.6401,25.469925 c 0.4248858,-0.476589 0.4387341,-0.565362 0.088194,-0.565362 -0.2287085,0 -0.475887,0.148828 -0.5492856,0.330729 C 2.0978454,25.436435 2.037372,25.388248 2.024668,25.112309 1.999424,24.563986 2.8634154,24.051173 3.4398213,24.272361 4.1161687,24.5319 3.9175296,25.124012 2.9959674,25.595423 2.1360716,26.035288 2.1360716,26.035288 2.6401,25.469925 Z m 5.0126056,-4.674234 c -0.290243,-0.75636 0.398757,-1.153313 1.910313,-1.100585 1.7246324,0.06016 1.7175394,0.04503 0.312115,0.665936 -1.855984,0.819964 -2.05931,0.859729 -2.222428,0.434649 z M 22.112113,36.587723 c 0,-0.122697 -0.602795,-1.081438 -1.339545,-2.130532 -2.388784,-3.401505 -2.584721,-4.842811 -1.197945,-8.812016 1.948166,-5.576006 1.22814,-9.150419 -2.321057,-11.522382 -1.618955,-1.081963 -1.629772,-1.08048 -1.59421,0.218541 0.02497,0.912128 0.158693,1.157385 0.865366,1.587139 2.603671,1.583386 3.095587,4.128895 1.610963,8.336222 -1.337616,3.790716 -1.560728,6.675232 -0.642979,8.312784 1.909367,3.406909 2.598538,4.208968 3.62722,4.221371 0.545703,0.0066 0.992187,-0.08843 0.992187,-0.211127 z M 10.887334,14.879251 c 0.484616,-0.09597 1.180227,-0.580394 1.719791,-1.197673 0.90603,-1.036527 0.90603,-1.036527 -0.886859,-0.869202 -2.8647654,0.267361 -4.3334754,1.037495 -3.5688014,1.871339 0.44079,0.480664 0.774052,0.614174 1.260649,0.505037 0.363802,-0.08159 1.0276514,-0.220871 1.4752204,-0.309501 z"
         id="path75386"
         transform="matrix(0.3264463,0,0,0.2604089,0.280388,8.9722387)" />
      <path
         style="fill:#ffffff;stroke-width:0.176777;filter:url(#filter77037)"
         d="m 42.868348,102.96235 c -7.522457,-0.1954 -10.983062,-0.77297 -12.255516,-2.04543 -0.559219,-0.55922 -0.598642,-0.67039 -0.521696,-1.471183 0.176423,-1.836076 1.728241,-4.064293 7.331454,-10.52706 4.29951,-4.95907 7.489905,-8.94703 9.43281,-11.790913 2.441378,-3.573509 4.3789,-5.378991 7.757039,-7.228415 4.260294,-2.332372 9.557501,-6.496086 9.557501,-7.512389 0,-0.423939 -0.346362,-0.305926 -6.010407,2.047854 -5.967124,2.479729 -8.166667,3.24604 -10.429825,3.633708 -3.665402,0.627865 -7.479801,2.73755 -11.443699,6.329334 -1.496822,1.356305 -1.886586,1.592352 -2.4117,1.460556 -0.514865,-0.129222 -3.468717,-3.159723 -3.468717,-3.558724 0,-0.17197 0.291545,-0.560074 0.647879,-0.862453 1.42285,-1.207409 1.650218,-1.487457 1.650218,-2.032564 0,-1.170472 -1.560317,-1.236305 -3.93304,-0.165942 -1.333329,0.601479 -1.88421,0.752371 -2.982235,0.816864 -2.382872,0.139959 -3.772749,-0.685397 -4.860513,-2.886337 -0.599298,-1.212598 -0.664124,-1.489146 -0.737896,-3.1479 -0.08967,-2.016131 0.08577,-3.10051 0.787167,-4.865575 1.099241,-2.76623 2.570114,-4.398846 5.99114,-6.649949 6.23107,-4.100169 10.992445,-9.274002 14.563122,-15.824668 0.609468,-1.118112 1.511094,-2.629553 2.003614,-3.358757 4.955895,-7.337487 12.132958,-12.04205 15.25253,-9.998029 0.750988,0.492067 1.16756,1.695588 1.325466,3.8294 0.158008,2.135212 0.353776,2.681814 0.931071,2.599628 0.594148,-0.08458 0.989357,-1.546764 1.180007,-4.365739 0.08952,-1.323683 0.292454,-2.881125 0.450961,-3.460982 1.17594,-4.301847 4.895526,-8.575947 7.494534,-8.611816 1.565938,-0.02161 2.222868,1.042207 2.202891,3.567305 -0.01138,1.439444 -0.102021,1.937115 -0.634363,3.483351 -0.839911,2.439603 -1.521761,3.529658 -3.513455,5.616859 -1.761449,1.845916 -2.46376,2.685249 -2.46376,2.944446 0,0.433246 1.177416,0.04129 3.00973,-1.001915 3.126817,-1.780218 3.800232,-2.073743 4.436863,-1.933915 0.663309,0.145687 2.932816,1.665531 4.765822,3.191577 3.238443,2.696123 4.987357,5.688297 5.47747,9.371271 0.517468,3.888541 -0.439652,8.749497 -3.631156,18.44167 -2.015846,6.12186 -2.384389,7.350232 -3.160223,10.533179 -0.85725,3.516964 -1.228218,6.295874 -1.227132,9.192389 0.0023,6.219262 1.481275,10.001387 7.336706,18.762274 3.375041,5.04973 4.369507,6.6765 4.190722,6.85528 -0.565733,0.56574 -30.190518,0.9848 -44.091384,0.62371 z M 26.766438,60.942519 c 2.783176,-1.434131 4.019166,-3.100788 3.157193,-4.257281 -0.592854,-0.795423 -1.385599,-1.146713 -2.56272,-1.135626 -2.475801,0.02332 -4.613548,2.099805 -4.13298,4.014537 0.15023,0.598564 0.389745,0.570121 0.729354,-0.08661 0.349143,-0.675171 1.237392,-1.228096 1.974262,-1.228959 1.08514,-0.0012 0.949514,0.390284 -0.86176,2.487927 -1.435136,1.662035 -1.187393,1.692117 1.696651,0.20601 z M 47.703633,43.236718 c 0.840771,-0.283534 3.056982,-1.187224 4.92491,-2.0082 4.297691,-1.888885 4.767399,-2.186001 3.984194,-2.52022 -0.566869,-0.241901 -7.499508,-0.316034 -8.807111,-0.09418 -2.939471,0.498729 -4.181059,1.999898 -3.340526,4.038934 0.521337,1.264706 0.976011,1.346649 3.238533,0.583662 z"
         id="path76135"
         transform="matrix(0.08637225,0,0,0.06889985,-1.0667254,11.449708)" />
      <path
         style="fill:#ffffff;stroke-width:0.176777;filter:url(#filter77031)"
         d="m 48.613591,21.111526 c -0.875247,-0.395077 -2.18529,-1.574383 -2.57744,-2.320223 -0.697146,-1.325917 0.131084,-2.545664 2.510618,-3.697424 2.790533,-1.350696 8.744556,-2.494259 14.33671,-2.75359 2.087272,-0.0968 2.34966,-0.07661 2.451421,0.188575 0.155937,0.406366 -0.559443,1.395433 -2.467666,3.411734 -1.644762,1.737919 -3.113859,2.897672 -4.644325,3.666381 -0.919206,0.461691 -7.162274,1.874987 -8.249493,1.867507 -0.310382,-0.0021 -0.922303,-0.165467 -1.359825,-0.36296 z"
         id="path76275"
         transform="matrix(0.08637225,0,0,0.06889985,-1.0667254,11.449708)" />
      <path
         style="fill:#ffffff;stroke-width:0.176777;filter:url(#filter77025)"
         d="m 93.07293,102.468 c -2.583367,-1.22792 -5.060298,-4.471012 -9.894419,-12.954952 -2.167264,-3.803571 -2.783078,-5.361481 -3.192236,-8.07584 -0.907376,-6.019539 0.305781,-13.665676 3.908891,-24.636469 0.916019,-2.789107 1.942046,-6.209736 2.280059,-7.601398 2.07142,-8.528417 1.338034,-15.140403 -2.203342,-19.864659 -1.183203,-1.578413 -3.032658,-3.239998 -5.415276,-4.865184 -2.437973,-1.662944 -3.075417,-2.342116 -3.415751,-3.63935 -0.230958,-0.880328 -0.332785,-5.070481 -0.139975,-5.759935 0.272806,-0.975508 1.320859,-0.541244 5.539289,2.295221 9.195478,6.183026 13.384235,14.315845 12.907495,25.060973 -0.252894,5.699896 -1.300018,10.501264 -4.178327,19.158853 -2.396319,7.207826 -3.108493,10.816413 -2.952248,14.959049 0.205793,5.456299 1.725269,8.919081 7.989715,18.207999 3.715321,5.509072 4.766058,7.231762 4.628926,7.589132 -0.153218,0.39928 -1.291844,0.62894 -3.122762,0.62986 -1.481805,7.1e-4 -1.804164,-0.0585 -2.740039,-0.5033 z"
         id="path76415"
         transform="matrix(0.08637225,0,0,0.06889985,-1.0667254,11.449708)" />
      <path
         style="fill:#ffffff;stroke-width:0.176777;filter:url(#filter77019)"
         d="m 45.519999,113.03514 c -8.185665,-0.24837 -14.39239,-0.74286 -15.278849,-1.21728 -0.475919,-0.2547 -0.832572,-1.46998 -0.61389,-2.09179 0.35829,-1.0188 2.256435,-1.61754 6.258409,-1.97414 7.846659,-0.69918 50.540494,-0.70425 57.589758,-0.007 3.479938,0.34428 4.728024,0.71882 5.39304,1.61837 0.315197,0.42636 0.326807,0.55209 0.127663,1.38222 -0.266288,1.11001 -0.346949,1.14849 -3.149111,1.50232 -5.236491,0.66122 -16.388743,0.98141 -33.002904,0.94754 -7.097584,-0.0145 -14.893437,-0.0866 -17.324116,-0.1604 z"
         id="path76555"
         transform="matrix(0.08637225,0,0,0.06889985,-1.0667254,11.449708)" />
    </g>
  </g>
</svg>
