<?xml version="1.0" encoding="UTF-8" standalone="no"?>
<!-- Created with Inkscape (http://www.inkscape.org/) -->

<svg
   width="31.999998"
   height="31.999998"
   viewBox="0 0 8.466666 8.4666661"
   version="1.1"
   id="svg5"
   inkscape:export-filename="C:\Users\bmill\projects\chess2-canvas\src\assets\c_p.svg"
   inkscape:export-xdpi="96"
   inkscape:export-ydpi="96"
   sodipodi:docname="a_r.svg"
   xmlns:inkscape="http://www.inkscape.org/namespaces/inkscape"
   xmlns:sodipodi="http://sodipodi.sourceforge.net/DTD/sodipodi-0.dtd"
   xmlns="http://www.w3.org/2000/svg"
   xmlns:svg="http://www.w3.org/2000/svg">
  <sodipodi:namedview
     id="namedview7"
     pagecolor="#505050"
     bordercolor="#ffffff"
     borderopacity="1"
     inkscape:pageshadow="0"
     inkscape:pageopacity="0"
     inkscape:pagecheckerboard="1"
     inkscape:deskcolor="#505050"
     inkscape:document-units="mm"
     showgrid="false" />
  <defs
     id="defs2">
    <filter
       style="color-interpolation-filters:sRGB"
       inkscape:label="Invert"
       id="filter80253"
       x="0"
       y="0"
       width="1"
       height="1">
      <feColorMatrix
         type="hueRotate"
         values="180"
         result="color1"
         id="feColorMatrix80249" />
      <feColorMatrix
         values="-1 0 0 0 1 0 -1 0 0 1 0 0 -1 0 1 -0.21 -0.72 -0.07 2 0 "
         result="color2"
         id="feColorMatrix80251" />
    </filter>
    <filter
       style="color-interpolation-filters:sRGB"
       inkscape:label="Invert"
       id="filter80259"
       x="0"
       y="0"
       width="1"
       height="1">
      <feColorMatrix
         type="hueRotate"
         values="180"
         result="color1"
         id="feColorMatrix80255" />
      <feColorMatrix
         values="-1 0 0 0 1 0 -1 0 0 1 0 0 -1 0 1 -0.21 -0.72 -0.07 2 0 "
         result="color2"
         id="feColorMatrix80257" />
    </filter>
    <filter
       style="color-interpolation-filters:sRGB"
       inkscape:label="Invert"
       id="filter80265"
       x="0"
       y="0"
       width="1"
       height="1">
      <feColorMatrix
         type="hueRotate"
         values="180"
         result="color1"
         id="feColorMatrix80261" />
      <feColorMatrix
         values="-1 0 0 0 1 0 -1 0 0 1 0 0 -1 0 1 -0.21 -0.72 -0.07 2 0 "
         result="color2"
         id="feColorMatrix80263" />
    </filter>
  </defs>
  <g
     inkscape:label="Layer 1"
     inkscape:groupmode="layer"
     id="layer1">
    <g
       inkscape:label="Layer 1"
       id="layer1-6"
       transform="translate(0.11288508,-11.602184)">
      <g
         inkscape:label="Layer 1"
         id="layer1-8"
         transform="matrix(0.32065505,0,0,0.27909014,-1.3635109,10.699814)">
        <path
           style="fill:#000000;stroke-width:0.264583;filter:url(#filter80265)"
           d="m 7.7767523,30.231208 c -0.65729,-0.460385 -0.7776095,-1.482667 -0.2281745,-1.938657 0.197925,-0.164262 0.3061348,-0.579724 0.240466,-0.923248 -0.1146995,-0.600011 1.0134171,-1.753301 1.7150312,-1.753301 0.732792,0 3.240889,-3.264082 3.240889,-4.217752 0,-0.148545 -0.327422,-0.347874 -0.727604,-0.442951 -2.1318857,-0.506506 -2.2367166,-1.938248 -0.214533,-2.93002 1.439112,-0.705807 1.439112,-0.705807 0.394537,-1.750381 -5.2155065,-5.215507 2.165646,-13.243465 8.280361,-9.0059642 3.073657,2.1300457 3.338888,7.0283452 0.509482,9.4091332 -0.776794,0.653629 -0.776794,0.653629 0.649856,1.353324 1.859867,0.912164 1.917281,2.822111 0.08483,2.822111 -1.360945,0 0.919805,3.737097 2.896452,4.745948 1.164879,0.594536 1.998863,1.470263 1.763246,1.851498 -0.09545,0.154435 0.01195,0.545619 0.238665,0.869294 0.540636,0.771869 0.520443,1.048546 -0.127271,1.743787 -0.718078,0.770765 -17.6387139,0.921906 -18.7162377,0.167179 z M 26.045398,29.518606 c 0.336227,-0.963896 0.0811,-0.992188 -8.947502,-0.992188 -8.8690231,0 -9.3556617,0.05067 -9.0148895,0.938713 0.2031013,0.529272 17.7781725,0.581596 17.9623915,0.05347 z M 25.45128,27.596474 c 0.509854,-0.315108 0.237551,-0.659138 -1.030185,-1.301549 -2.574012,-1.304351 -5.20049,-5.970589 -3.360655,-5.970589 2.072637,0 1.675178,-1.091791 -0.785111,-2.15664 -1.708965,-0.739664 -1.69833,-0.680884 -0.304302,-1.681994 4.166469,-2.992114 2.320083,-9.2773827 -2.821539,-9.6047765 -5.601536,-0.3566789 -8.1679888,6.8409685 -3.473748,9.7421695 1.236541,0.764225 1.191104,0.861357 -0.798484,1.706944 -0.945886,0.402006 -1.719792,0.872306 -1.719792,1.045109 0,0.584432 0.630383,0.949188 1.640417,0.949188 1.218916,0 1.237992,0.170682 0.251343,2.248958 -0.752956,1.586024 -2.84899,3.836458 -3.573243,3.836458 -0.5858959,0 -1.0786067,0.734147 -0.7546741,1.124479 0.2869218,0.345734 16.1756281,0.404847 16.7299731,0.06224 z M 14.602301,16.554023 c -1.5821,-0.808307 -2.663446,-2.222192 -2.809075,-3.67293 -0.116013,-1.155715 -0.116013,-1.155715 0.266002,-0.003 1.345186,4.059137 7.12884,4.527477 9.020961,0.730484 0.467626,-0.938404 0.660608,-1.152069 0.660608,-0.731412 0,2.936837 -4.276023,5.139291 -7.138496,3.676831 z m -0.53442,-7.9343308 c 0,-1.6725856 4.129662,-2.0052238 5.124046,-0.4127341 0.42434,0.6795751 0.134705,0.7582162 -1.155445,0.3137236 -1.13925,-0.3925038 -2.037991,-0.3178823 -3.505581,0.2910647 -0.316592,0.1313638 -0.46302,0.070627 -0.46302,-0.1920542 z"
           id="path78356" />
        <path
           style="fill:#ffffff;stroke-width:0.176777;filter:url(#filter80259)"
           d="m 49.232309,104.90413 c -6.891018,-0.13903 -13.625987,-0.44323 -15.151299,-0.68435 -1.02113,-0.16142 -1.377321,-0.50488 -1.377321,-1.32809 0,-1.38296 1.282684,-2.64878 2.988567,-2.94926 1.549633,-0.272963 3.309871,-1.485766 5.854785,-4.033942 3.633377,-3.638036 6.268029,-7.299385 8.278682,-11.504799 1.554231,-3.250775 2.146625,-4.909244 2.146625,-6.009684 0,-1.25897 -0.344048,-1.435164 -3.155991,-1.616247 -3.492258,-0.224893 -4.782244,-0.624384 -5.815233,-1.800895 -0.797892,-0.908747 -0.90159,-1.615298 -0.325347,-2.216767 0.776087,-0.81006 3.203173,-2.138409 6.858811,-3.753837 4.211615,-1.861118 5.442964,-2.649589 5.442964,-3.485308 0,-0.414471 -1.022165,-1.318507 -2.8744,-2.542217 -3.971266,-2.623683 -5.982314,-4.774072 -7.648036,-8.177959 -1.262154,-2.579198 -1.699872,-4.339111 -1.809883,-7.276917 -0.106719,-2.849898 0.135404,-4.671836 0.944599,-7.107965 2.918871,-8.787433 10.576594,-14.343942 19.763575,-14.34062 11.04044,0.004 19.617843,7.608273 20.602714,18.265295 0.311898,3.374953 -0.325268,6.808098 -1.857483,10.0084 -1.590117,3.321241 -3.49668,5.478773 -7.442587,8.422288 -1.479264,1.103483 -2.773253,2.162692 -2.875531,2.3538 -0.551512,1.030507 -0.01891,1.498598 3.437964,3.021533 6.259448,2.757619 9.280776,4.914583 9.280776,6.625661 0,1.127743 -1.041987,1.633752 -3.873462,1.881026 -2.83134,0.247261 -3.366694,0.674992 -3.371777,2.693944 -0.0037,1.480485 0.412887,2.919987 1.508445,5.212056 1.809127,3.784957 4.492419,7.453572 7.738438,10.58005 2.176717,2.096554 3.486967,3.058749 6.305749,4.630692 3.611187,2.013842 4.487402,2.792202 4.100102,3.642242 -0.342187,0.75101 -0.888156,0.94493 -3.215107,1.14193 -5.759213,0.48757 -28.691287,0.66807 -44.459339,0.34994 z M 67.175144,63.92021 c 2.127679,-0.476486 3.541421,-0.988863 5.546415,-2.010165 4.751414,-2.420275 8.074668,-6.180384 9.138453,-10.339742 0.406467,-1.589268 0.466061,-3.752207 0.103385,-3.752207 -0.380625,0 -0.717647,0.481474 -1.979834,2.828427 -1.491947,2.774174 -1.964965,3.461901 -3.4731,5.049573 -2.117274,2.228941 -4.808612,3.832701 -8.009494,4.772835 -1.286443,0.377842 -2.09034,0.485307 -4.199655,0.561413 -2.974,0.107301 -4.549243,-0.08682 -6.878113,-0.847599 -5.953763,-1.944941 -9.945524,-6.066665 -12.060383,-12.453037 -1.048736,-3.166935 -1.30089,-3.226304 -0.996537,-0.234633 0.266539,2.619976 0.603891,3.983693 1.422061,5.748565 0.904888,1.951931 1.735612,3.164569 3.3367,4.870701 2.976689,3.171986 6.842131,5.377298 10.448704,5.961199 0.729204,0.118056 1.44515,0.243745 1.59099,0.279305 0.652738,0.159165 4.649452,-0.129853 6.010408,-0.434635 z M 56.356946,32.864901 c 2.418399,-0.905796 4.128066,-1.316414 5.967562,-1.433253 1.966061,-0.124879 3.330675,0.09826 6.353238,1.038875 2.579059,0.802597 4.238085,0.973922 4.561638,0.471074 0.281106,-0.43688 -0.764337,-2.445232 -1.696441,-3.258953 -0.832173,-0.72648 -3.144075,-1.868445 -4.388314,-2.167609 -2.648979,-0.636919 -6.064195,-0.605728 -8.708715,0.07953 -2.775369,0.719171 -4.837681,2.375736 -5.249707,4.216858 -0.189902,0.848577 -0.178953,1.018663 0.09223,1.432534 0.373345,0.569797 0.614771,0.539973 3.068513,-0.379061 z"
           id="path79367"
           transform="scale(0.26458333)" />
        <path
           style="fill:#ffffff;stroke-width:0.176777;filter:url(#filter80253)"
           d="m 52.060737,112.75155 c -7.92601,-0.13711 -16.604927,-0.56347 -19.51091,-0.95849 -1.762082,-0.23952 -2.193047,-0.55019 -2.110112,-1.52111 0.104922,-1.22832 1.363103,-1.63807 6.241449,-2.03263 3.98623,-0.3224 52.652661,-0.32989 56.107321,-0.009 3.264099,0.30354 4.52078,0.54615 5.191059,1.00218 0.517754,0.35226 0.572242,0.47297 0.560886,1.24255 -0.01593,1.07928 -0.231253,1.24135 -1.983629,1.49303 -4.904431,0.70438 -26.785882,1.08947 -44.496064,0.78309 z"
           id="path79507"
           transform="scale(0.26458333)" />
      </g>
    </g>
  </g>
</svg>
