<?xml version="1.0" encoding="UTF-8" standalone="no"?>
<!-- Created with Inkscape (http://www.inkscape.org/) -->

<svg
   width="31.999998"
   height="31.999998"
   viewBox="0 0 8.466666 8.4666661"
   version="1.1"
   id="svg5"
   inkscape:export-filename="C:\Users\bmill\projects\chess2-canvas\src\assets\C_Rw.svg"
   inkscape:export-xdpi="96"
   inkscape:export-ydpi="96"
   sodipodi:docname="a_r.svg"
   xmlns:inkscape="http://www.inkscape.org/namespaces/inkscape"
   xmlns:sodipodi="http://sodipodi.sourceforge.net/DTD/sodipodi-0.dtd"
   xmlns="http://www.w3.org/2000/svg"
   xmlns:svg="http://www.w3.org/2000/svg">
  <sodipodi:namedview
     id="namedview7"
     pagecolor="#505050"
     bordercolor="#ffffff"
     borderopacity="1"
     inkscape:pageshadow="0"
     inkscape:pageopacity="0"
     inkscape:pagecheckerboard="1"
     inkscape:deskcolor="#505050"
     inkscape:document-units="mm"
     showgrid="false" />
  <defs
     id="defs2">
    <filter
       style="color-interpolation-filters:sRGB"
       inkscape:label="Invert"
       id="filter101514"
       x="0"
       y="0"
       width="1"
       height="1">
      <feColorMatrix
         type="hueRotate"
         values="180"
         result="color1"
         id="feColorMatrix101510" />
      <feColorMatrix
         values="-1 0 0 0 1 0 -1 0 0 1 0 0 -1 0 1 -0.21 -0.72 -0.07 2 0 "
         result="color2"
         id="feColorMatrix101512" />
    </filter>
    <filter
       style="color-interpolation-filters:sRGB"
       inkscape:label="Invert"
       id="filter101520"
       x="0"
       y="0"
       width="1"
       height="1">
      <feColorMatrix
         type="hueRotate"
         values="180"
         result="color1"
         id="feColorMatrix101516" />
      <feColorMatrix
         values="-1 0 0 0 1 0 -1 0 0 1 0 0 -1 0 1 -0.21 -0.72 -0.07 2 0 "
         result="color2"
         id="feColorMatrix101518" />
    </filter>
    <filter
       style="color-interpolation-filters:sRGB"
       inkscape:label="Invert"
       id="filter101526"
       x="0"
       y="0"
       width="1"
       height="1">
      <feColorMatrix
         type="hueRotate"
         values="180"
         result="color1"
         id="feColorMatrix101522" />
      <feColorMatrix
         values="-1 0 0 0 1 0 -1 0 0 1 0 0 -1 0 1 -0.21 -0.72 -0.07 2 0 "
         result="color2"
         id="feColorMatrix101524" />
    </filter>
    <filter
       style="color-interpolation-filters:sRGB"
       inkscape:label="Invert"
       id="filter101532"
       x="0"
       y="0"
       width="1"
       height="1">
      <feColorMatrix
         type="hueRotate"
         values="180"
         result="color1"
         id="feColorMatrix101528" />
      <feColorMatrix
         values="-1 0 0 0 1 0 -1 0 0 1 0 0 -1 0 1 -0.21 -0.72 -0.07 2 0 "
         result="color2"
         id="feColorMatrix101530" />
    </filter>
    <filter
       style="color-interpolation-filters:sRGB"
       inkscape:label="Invert"
       id="filter69190"
       x="0"
       y="0"
       width="1"
       height="1">
      <feColorMatrix
         type="hueRotate"
         values="180"
         result="color1"
         id="feColorMatrix69186" />
      <feColorMatrix
         values="-1 0 0 0 1 0 -1 0 0 1 0 0 -1 0 1 -0.21 -0.72 -0.07 2 0 "
         result="color2"
         id="feColorMatrix69188" />
    </filter>
  </defs>
  <g
     inkscape:label="Layer 1"
     inkscape:groupmode="layer"
     id="layer1">
    <g
       inkscape:label="Layer 1"
       id="layer1-6"
       transform="translate(0.11288508,-11.602184)">
      <g
         inkscape:label="Layer 1"
         id="layer1-9"
         transform="matrix(0.37959121,0,0,0.30828859,-2.3774258,10.051322)"
         style="filter:url(#filter69190)">
        <path
           style="fill:#000000;stroke-width:0.264583;filter:url(#filter101532)"
           d="M 7.9377138,30.4059 C 7.3095126,29.899742 7.1946541,29.284231 7.5872071,28.527584 c 0.1961412,-0.378063 0.395079,-0.956027 0.4420843,-1.284367 0.079189,-0.553146 0.3786635,-0.726813 2.0171886,-1.169778 1.74053,-0.470541 2.17005,-7.20582 0.564283,-8.848496 -0.426919,-0.436731 -0.7762159,-1.028077 -0.7762159,-1.314102 0,-0.366845 -0.1799608,-0.520044 -0.6108885,-0.520044 -1.1401601,0 -1.4324953,-0.518694 -1.5974718,-2.834414 -0.1535951,-2.155967 0.097881,-2.9864192 0.9043426,-2.9864192 0.1351264,0 0.2456844,-0.214858 0.2456844,-0.4774625 0,-1.2176112 1.6134912,-2.3212178 3.2411462,-2.2169008 1.521354,0.097504 1.521354,0.097504 1.521354,1.3959339 0,1.9583836 1.249146,1.9962416 1.374565,0.041659 0.143274,-2.2328467 4.710851,-2.0090331 4.710851,0.2308343 0,0.8495475 0.09098,1.0259364 0.529167,1.0259364 0.458611,0 0.529166,-0.1763889 0.529166,-1.3229166 0,-0.87123 0.112922,-1.3297759 0.330729,-1.3430061 2.838083,-0.172394 3.838819,0.3047489 4.322911,2.0611289 0.08881,0.3222072 0.358284,0.6482987 0.598839,0.7246477 0.709562,0.2252062 1.152845,1.134474 0.838986,1.720929 -0.148847,0.278123 -0.270632,1.100314 -0.270632,1.82709 0,1.537159 -0.459471,2.15296 -1.606399,2.15296 -0.61285,0 -0.774851,0.117161 -0.774851,0.560383 0,0.308211 -0.347802,0.956509 -0.772894,1.440662 -1.879952,2.141147 -1.018798,8.551629 1.182707,8.804137 1.005845,0.115368 1.442271,0.488578 1.442271,1.233359 0,0.328165 0.178593,0.744884 0.396875,0.926042 0.58216,0.48315 0.483782,1.49662 -0.191163,1.969373 C 25.394481,30.87484 8.6123754,30.949495 7.9377138,30.4059 Z M 26.045398,29.61215 c 0.336226,-0.963895 0.0811,-0.992187 -8.947502,-0.992187 -8.8690236,0 -9.3556621,0.05067 -9.0148899,0.938712 0.2031013,0.529273 17.7781719,0.581597 17.9623919,0.05347 z m -0.600435,-1.997604 c 0,-0.435398 -0.658859,-0.846666 -1.356373,-0.846666 -2.251341,0 -3.253588,-7.775962 -1.269803,-9.851803 1.174173,-1.228659 1.085545,-1.260697 -3.487548,-1.260697 -3.952221,0 -4.248317,0.03362 -4.07814,0.463021 0.751839,1.897089 0.349332,8.866542 -0.555435,9.617433 -0.326364,0.270858 -0.342259,0.212405 -0.109045,-0.400996 0.582966,-1.533317 0.263956,-5.409268 -0.69323,-8.422687 -0.399203,-1.256771 -0.399203,-1.256771 -1.833147,-1.256771 -1.652034,0 -1.786343,0.264678 -0.706341,1.391958 1.773248,1.850872 0.673159,9.439384 -1.4029698,9.677809 -0.8854167,0.101679 -1.5057328,0.518176 -1.290481,0.866463 0.1803603,0.291827 16.7825128,0.314518 16.7825128,0.02294 z m 0.204115,-13.083645 c 0.656178,-0.807027 0.506584,-3.996629 -0.195282,-4.16376 -0.47279,-0.112583 -0.701141,-0.392628 -0.828695,-1.0162942 -0.506672,-2.47735 -3.413471,-2.8410783 -3.413471,-0.4271283 0,2.1541565 -2.19157,2.2020715 -2.329601,0.050933 -0.130718,-2.0371591 -3.491232,-1.97349 -3.491232,0.066146 0,1.3229165 0,1.3229165 -1.190625,1.3229165 -1.190625,0 -1.190625,0 -1.190625,-1.4552082 0,-1.4552082 0,-1.4552082 -1.167105,-1.4552082 -1.320089,0 -2.5370615,1.0796862 -2.5370615,2.2508563 0,0.4443811 -0.1705144,0.6469731 -0.5953125,0.7073041 -0.6485879,0.09211 -0.7579346,3.356953 -0.1379696,4.119443 0.3890639,0.478507 16.6879166,0.478507 17.0769796,0 z"
           id="path98729" />
        <path
           style="fill:#ffffff;stroke-width:0.176777;filter:url(#filter101526)"
           d="M 45.166446,55.943958 C 37.67347,55.693256 33.105198,55.295743 32.56502,54.847436 c -1.004618,-0.833761 -1.53803,-3.531612 -1.529628,-7.736447 0.0071,-3.544633 0.255221,-5.20351 1.002923,-6.704829 0.333608,-0.669855 0.521847,-0.83789 1.131143,-1.009733 1.627439,-0.458997 1.814088,-0.727322 2.114977,-3.040483 0.361203,-2.776841 1.590587,-4.728729 3.978026,-6.315896 0.685032,-0.455408 1.816371,-1.030172 2.514088,-1.277253 1.095028,-0.387781 1.570877,-0.449975 3.478285,-0.454613 3.723306,-0.0091 3.702572,-0.03876 3.866672,5.540023 0.162523,5.52522 0.01633,5.355495 4.618609,5.362181 3.079738,0.0045 3.846932,-0.159282 4.157929,-0.887499 0.0742,-0.173744 0.232147,-1.590593 0.350994,-3.148553 0.240728,-3.155706 0.427271,-3.724023 1.616747,-4.925524 2.125789,-2.147281 6.198908,-2.477858 8.856539,-0.718801 1.602663,1.060784 2.362613,2.467516 2.616438,4.843233 0.247429,2.315871 1.159774,4.110982 2.53266,4.983216 1.607671,1.021399 3.248341,0.831951 4.612947,-0.532655 1.134735,-1.134734 1.562975,-2.331942 1.770537,-4.949795 0.184684,-2.329292 0.325383,-2.907937 0.977736,-4.021096 1.715761,-2.927725 5.939692,-2.873043 8.928318,0.115583 1.196094,1.196094 2.269243,3.232065 2.825795,5.361081 0.628883,2.405703 1.392871,3.440503 2.824773,3.826074 1.717633,0.46251 2.567025,3.292851 2.546576,8.485669 -0.01732,4.398592 -0.77434,7.099259 -2.088055,7.449147 -0.706549,0.188181 -3.96547,0.477515 -7.881702,0.699753 -4.119422,0.233772 -37.302286,0.351802 -43.221901,0.153739 z"
           id="path99998"
           transform="scale(0.26458333)" />
        <path
           style="fill:#ffffff;stroke-width:0.176777;filter:url(#filter101520)"
           d="m 46.492271,104.91659 c -7.023741,-0.14375 -12.950985,-0.42314 -13.507476,-0.63668 -0.154609,-0.0593 -0.281106,-0.28751 -0.281106,-0.50706 0,-1.0467 1.626448,-2.03413 4.201355,-2.55068 1.987212,-0.39865 2.99208,-0.96813 4.02744,-2.282409 5.200146,-6.60105 7.175604,-24.683076 3.528217,-32.294947 -0.361029,-0.753444 -1.161455,-1.891939 -2.04647,-2.910819 -1.496297,-1.722622 -2.130923,-2.801346 -1.982338,-3.369537 0.04676,-0.178815 0.375445,-0.467214 0.730408,-0.640886 0.536006,-0.262251 1.239688,-0.327347 4.151963,-0.384088 5.405796,-0.105323 5.580844,-0.0026 6.910983,4.05407 2.480309,7.564547 3.86585,16.088409 3.86172,23.757357 -0.0023,4.206528 -0.269063,6.302101 -1.11673,8.771428 -0.615381,1.79265 -0.628314,1.923562 -0.190031,1.923562 0.498319,0 1.520361,-1.238355 1.933604,-2.342852 2.571433,-6.87277 3.36116,-26.614255 1.341826,-33.542817 -0.508343,-1.744184 -0.507555,-1.850832 0.01546,-2.089136 0.965494,-0.439908 3.98627,-0.556462 14.495733,-0.559304 13.003149,-0.0035 15.564184,0.181162 15.935627,1.149129 0.169992,0.442991 -0.133947,0.922854 -1.789402,2.825136 -2.30697,2.650934 -3.286686,4.867935 -4.10128,9.280776 -0.392372,2.125577 -0.451717,10.327629 -0.09273,12.816311 1.104103,7.654204 3.315302,13.092242 6.104692,15.013366 0.807159,0.55592 1.184442,0.69084 2.273166,0.81293 1.694274,0.19001 2.182009,0.31404 3.164209,0.80465 0.918703,0.45889 1.92863,1.51201 1.92863,2.0111 0,0.45933 -0.365235,0.51537 -4.684582,0.71886 -5.007967,0.23593 -35.903502,0.35489 -44.812892,0.17254 z"
           id="path100138"
           transform="scale(0.26458333)" />
        <path
           style="fill:#ffffff;stroke-width:0.176777;filter:url(#filter101514)"
           d="m 52.060737,113.10511 c -7.92601,-0.13712 -16.604927,-0.56348 -19.51091,-0.9585 -1.762082,-0.23952 -2.193047,-0.55019 -2.110112,-1.5211 0.104922,-1.22833 1.363103,-1.63807 6.241449,-2.03263 3.98623,-0.32241 52.652661,-0.32989 56.107321,-0.009 3.264099,0.30354 4.52078,0.54615 5.191059,1.00218 0.517754,0.35226 0.572242,0.47297 0.560886,1.24256 -0.01593,1.07928 -0.231253,1.24135 -1.983629,1.49302 -4.904431,0.70438 -26.785882,1.08948 -44.496064,0.7831 z"
           id="path100278"
           transform="scale(0.26458333)" />
      </g>
    </g>
  </g>
</svg>
